<svg width="32" height="33" viewBox="0 0 32 33" fill="none" xmlns="http://www.w3.org/2000/svg">
<g opacity="0.3" clip-path="url(#clip0_46_15788)">
<path d="M16 3L29.8564 27H2.14359L16 3Z" fill="white" style="fill:white;fill-opacity:1;"/>
<path d="M12.2322 5.53188C12.261 5.43407 12.4433 5.3778 12.5076 5.27999C12.7784 4.87093 12.947 4.75875 13.2127 4.40056C13.6067 3.86954 14.4339 2.09588 15.2143 2.54639C15.2143 2.5464 15.2144 2.54641 15.2144 2.54642C15.222 2.55084 15.2297 2.55547 15.2373 2.56032C15.3826 2.65207 15.462 2.88938 15.6178 3.00777C15.7737 3.12616 16.8688 3.73712 16.8121 3.97634C16.7218 4.31852 16.0338 4.86721 15.955 5.03207C15.9013 5.14481 15.9233 5.33456 15.8613 5.48257C15.6611 5.95976 15.4546 6.15072 15.4915 6.70608C15.2577 6.78471 15.0238 6.86335 14.79 6.94198C14.7349 7.18885 14.3656 7.39807 14.3025 7.531C14.2508 7.64006 14.3273 7.76564 14.2698 7.87722C14.2059 8.00274 13.9773 8.12015 13.8676 8.35217C13.6871 8.73223 13.9413 8.96515 13.8525 9.20444C13.7604 9.45252 13.3991 9.71247 13.3352 10.06C13.3464 10.1147 13.3575 10.1694 13.3687 10.2241C13.4562 10.24 13.5437 10.256 13.6312 10.2719C13.5811 10.4367 13.3964 10.4133 13.3167 10.5452C13.2228 10.7003 13.3174 10.8618 13.2558 10.9671C13.2051 11.0532 13.0244 11.1054 12.9667 11.2217C12.882 11.3909 13.0658 11.4493 13.0455 11.555C13.037 11.597 12.7521 12.2984 12.7322 12.3358C12.5778 12.6182 12.3405 12.5136 12.1926 12.7245C11.7836 13.3101 11.5987 14.0469 11.3378 14.6564C11.2213 14.9285 11.055 15.1866 10.8727 15.4198C10.5321 14.6901 9.57651 15.3181 10.6618 15.5035C10.3715 15.7124 10.4973 16.0521 10.3019 16.2962C10.1753 16.454 9.98213 16.5023 9.84262 16.7514C9.59588 17.1939 9.67125 17.8773 8.96137 17.6357C8.77633 18.2155 8.28771 18.5282 8.74291 19.0385C8.70058 19.1911 8.16912 19.3381 8.03762 19.4607C7.91343 19.5769 7.13814 20.5704 7.02761 20.7424C6.91708 20.9143 6.72919 21.2185 6.69254 21.396C6.64557 21.6183 7.15329 22.0858 6.27909 22.0252C6.11066 22.4443 6.01148 22.5711 5.72429 22.8855C5.67231 22.9425 5.56682 22.8914 5.54473 22.9294C5.49942 23.0079 5.49714 23.1846 5.42538 23.33C5.3073 23.569 5.01838 23.5775 5.35856 23.7397C5.32542 23.9231 5.29228 24.1064 5.25914 24.2898C5.16558 24.3069 5.07202 24.3239 4.97846 24.3409C5.00001 24.4616 5.02156 24.5823 5.04311 24.7031C4.62736 24.3359 4.57521 25.0678 4.95251 25.0382C4.68512 25.2764 4.41772 25.5146 4.15033 25.7528C3.63896 25.4028 3.71533 26.3636 4.0397 26.4737C4.01983 26.5072 3.99995 26.5406 3.98008 26.5741C3.66756 26.7869 3.62751 27.1249 3.32448 27.4293C3.25615 27.498 3.20158 27.5479 3.15448 27.5836L2.14359 25.8327C2.33088 25.9114 2.32956 25.9971 2.42732 26.2173C2.52501 26.201 2.62268 26.1847 2.72037 26.1684C3.23293 25.3893 3.14234 26.7383 4.02004 26.1406C4.30047 26.6303 4.99172 26.3731 5.45006 26.2246C5.50339 26.2073 5.50431 26.1123 5.57534 26.083C5.749 26.0125 6.19212 26.1347 6.17697 25.8281C6.33036 25.9168 6.48376 26.0055 6.63715 26.0942C6.76253 26.0385 6.88791 25.9827 7.01329 25.927C7.01266 25.8313 7.01202 25.7356 7.01139 25.6399C7.26386 25.966 7.66056 25.8407 7.85627 25.9187C7.89521 25.9345 7.90362 26.0665 8.02468 26.1025C8.16616 26.1452 8.4298 26.1062 8.5984 26.1474C8.66394 26.0012 8.72948 25.8549 8.79503 25.7087C9.09652 25.6294 9.2025 26.0154 9.37953 26.0454C9.41141 26.0506 9.99296 26.0229 10.0243 26.0146C10.2808 25.9493 10.2081 25.6205 10.9501 25.6909C11.0822 25.7036 11.189 25.8174 11.3084 25.822C11.5194 25.8302 12.155 25.5722 12.205 25.3337C12.4609 25.6322 13.1454 25.5102 13.3471 25.5964C13.4079 25.6229 13.4217 25.813 13.6087 25.8535C13.7604 25.8865 14.1509 25.7343 14.3432 25.7597C14.5474 25.7875 14.6203 25.9472 14.7118 25.9585C14.7982 25.969 14.8778 25.84 14.9956 25.8408C15.3632 25.8453 15.6961 26.0528 15.9867 26.0566C16.4069 26.0626 16.7781 25.6809 17.1297 25.5114C17.217 25.5362 17.3027 25.6181 17.3942 25.6189C18.526 25.6309 19.8028 25.7012 20.938 25.7829C21.465 25.8205 22.7755 26.3386 22.4258 25.4741C22.6089 25.3227 23.9406 25.6712 24.1939 25.6765C24.4471 25.6817 24.6478 25.5267 24.8469 25.5244C25.4475 25.5176 25.8705 25.6293 26.6017 25.4944C26.7905 25.4591 26.9928 25.2754 27.1046 25.2776C27.2393 25.2806 27.3843 25.4582 27.5588 25.4694C27.9748 25.4949 28.7499 25.4365 29.149 25.4673C29.2218 25.4733 29.2474 25.6292 29.3516 25.6779C29.5264 25.7599 29.7101 25.8036 29.8564 25.7869L28.8059 27.6065C28.6901 27.45 28.5158 27.403 28.2932 27.5845C28.2779 26.9927 27.814 26.7049 27.5594 26.2954C27.0218 25.4289 26.1942 23.763 25.5691 23.0986C25.1749 22.6798 24.9886 22.8039 24.7434 21.9937C24.6889 21.8139 24.6478 21.6273 24.581 21.4096C24.4248 20.8991 24.5435 20.2796 23.9147 20.1848C23.7375 19.62 23.4282 19.2672 23.5821 18.6834C23.4685 18.6907 23.355 18.6979 23.2414 18.7051C23.2038 18.645 23.1662 18.585 23.1286 18.5249C23.2018 18.4571 23.2749 18.3894 23.3481 18.3216C23.1171 17.8691 22.449 17.5114 22.2368 17.138C21.8806 16.5121 21.0877 14.8282 20.86 14.1712C20.7391 13.8224 20.5489 13.9096 20.8159 13.5158C20.7496 13.4605 20.6833 13.4052 20.6169 13.3498C20.5104 13.3528 20.4038 13.3557 20.2972 13.3586C20.0614 12.9577 19.9117 12.4072 19.6889 12.0242C19.2826 11.3265 18.453 10.4055 18.1943 9.61864C18.1297 9.42121 18.1701 9.10446 18.0686 8.93315C17.9212 8.68372 17.6081 8.78315 17.4191 8.46772C17.0938 7.92379 16.8265 6.71536 16.5023 6.21088C16.4062 6.06094 16.2613 6.04875 16.1888 5.94874C15.8839 5.53002 15.6809 5.15891 15.2741 4.8234C15.2752 4.21038 15.6418 4.05163 15.9064 3.70908C16.1059 3.45009 16.5215 2.76912 16.7236 2.58981C16.8656 2.46385 17.1439 2.46738 17.2945 2.31882C17.7537 2.78735 17.7314 3.10851 17.74 3.69931C18.2263 4.51874 18.7127 5.33817 19.199 6.1576C19.1456 6.28854 19.0922 6.41948 19.0387 6.55042C19.0385 6.55054 19.0383 6.55067 19.0381 6.55079C19.1094 6.93216 19.4361 6.92259 19.5914 7.06083C21.0776 8.38429 22.513 11.8494 23.4919 13.6858C23.703 14.0815 24.5624 15.2688 24.559 15.6259C24.5579 15.7185 24.4197 15.8238 24.4556 15.9009C24.9227 16.5051 25.3899 17.1093 25.857 17.7135C26.4033 19.1952 27.3993 20.478 28.2191 21.8155C29.1479 23.3307 30.0766 24.8373 30.9931 26.3437C31.6023 27.3034 30.9921 28.2647 29.8564 28.3125C27.4093 28.3687 24.9743 28.4046 22.5485 28.3806C21.742 28.3723 20.7184 28.5014 19.9288 28.4182C19.5993 28.3837 19.462 28.107 19.0291 28.3132C19.0245 28.2387 19.02 28.1641 19.0155 28.0896C18.6377 28.1796 18.3962 28.3492 17.9727 28.3664C17.616 28.3807 16.6723 28.3917 16.3571 28.3633C16.1936 28.349 16.2545 28.2097 16.1021 28.2104C15.8412 28.2127 15.2837 28.4052 14.9236 28.4052C14.5974 28.4052 14.0476 28.2448 13.7968 28.268C12.8937 28.3505 11.9099 28.5884 10.9475 28.5246C10.6817 28.5066 10.3397 28.326 10.2565 28.331C10.0938 28.3415 10.0454 28.517 9.93613 28.5395C9.38124 28.6535 8.51627 28.445 7.97235 28.4367C6.19999 28.4097 4.3224 28.4863 2.55767 28.4541C2.42871 28.4517 2.28988 28.4501 2.14359 28.4488C0.890032 28.5015 0.307835 27.3876 0.888922 26.2756C1.45678 25.312 2.22467 23.9607 2.78088 23.2307C2.91655 23.0527 3.05342 23.2001 3.14661 23.0387C3.2499 22.8597 3.19342 22.6978 3.23261 22.6089C3.50322 21.9933 4.12741 20.6496 4.55792 20.1694C4.6401 20.078 4.81413 20.0778 4.84964 20.0152C4.86786 19.9836 4.82001 19.861 4.86809 19.7567C5.2925 18.8356 5.71256 18.2279 6.23786 17.3886C7.24323 15.7807 8.17559 13.7834 9.26065 12.1109C9.49702 11.7465 9.90373 11.6379 9.93163 11.5835C9.99336 11.4646 9.86268 11.2902 9.95537 11.0307C10.2652 10.1688 11.0573 9.22435 11.399 8.43167C11.5679 8.04011 11.6386 7.40889 11.7983 7.01977C11.9258 6.70897 12.4053 6.07796 12.3824 5.89434C12.3689 5.78286 12.202 5.63855 12.2322 5.53188ZM9.54572 16.9312C9.27534 16.7066 9.21304 17.3903 9.49101 17.2808C9.5536 17.2561 9.61594 16.9894 9.54572 16.9312ZM18.9089 26.2256C18.9032 26.1266 18.8975 26.0276 18.8918 25.9287C18.8099 25.9699 18.7281 26.011 18.6463 26.0522C18.6923 26.1117 18.7383 26.1712 18.7843 26.2307C18.8258 26.229 18.8673 26.2273 18.9089 26.2256Z" fill="black" style="fill:black;fill-opacity:1;"/>
<path d="M17.997 18.6077C18.021 18.6173 17.8913 18.6307 17.8845 18.642C17.8545 18.6891 17.7646 18.7066 17.7136 18.7492C17.6379 18.8124 17.8083 19 16.9072 19C16.9072 19 16.9072 19 16.9072 19C16.8983 19 16.8894 19 16.8803 18.9999C16.7087 18.9993 16.5213 18.9833 16.3271 18.981C16.1329 18.9786 14.879 18.9804 14.8086 18.9577C14.7157 18.9248 15.0372 18.846 15.0229 18.8285C15.0131 18.8165 14.8991 18.8018 14.8789 18.7864C14.8136 18.737 14.897 18.7112 14.5874 18.6667C14.7505 18.6489 14.9137 18.6311 15.0769 18.6133C15.0012 18.5901 15.2164 18.5549 15.2046 18.5407C15.1948 18.5292 15.0658 18.5224 15.0598 18.5103C15.0523 18.4968 15.1916 18.476 15.1706 18.4514C15.1369 18.411 14.8003 18.4039 14.7575 18.3796C14.7133 18.3545 14.8962 18.3155 14.7778 18.2835C14.7408 18.2794 14.7037 18.2754 14.6667 18.2714C14.583 18.2743 14.4992 18.2772 14.4155 18.28C14.3765 18.2639 14.5481 18.257 14.5512 18.2421C14.555 18.2247 14.3923 18.2158 14.393 18.204C14.3938 18.1944 14.5243 18.1814 14.5161 18.1689C14.5048 18.1507 14.3165 18.1547 14.2812 18.1449C14.2675 18.141 14.1636 18.0689 14.1621 18.0648C14.1546 18.0338 14.4125 18.0311 14.435 18.0064C14.4965 17.938 14.2882 17.8677 14.2094 17.8043C14.1742 17.776 14.1892 17.7465 14.2304 17.7183C14.8903 17.7627 15.4039 17.6644 14.3713 17.7012C14.5182 17.6698 14.2395 17.6476 14.2866 17.6178C14.3173 17.5986 14.4605 17.5853 14.4568 17.5578C14.4492 17.5091 14.0422 17.4557 14.7778 17.4417C14.6481 17.3845 14.9149 17.3349 14.2656 17.3143C14.2259 17.2995 14.6127 17.2617 14.6652 17.2452C14.7147 17.2295 14.8894 17.1094 14.8991 17.0898C14.9089 17.0701 14.9195 17.0357 14.8625 17.0192C14.792 16.9984 14.1186 16.9839 14.906 16.9469C14.8423 16.9038 14.8648 16.8885 14.9563 16.8485C14.9728 16.8412 15.0897 16.8404 15.0898 16.8362C15.0898 16.8275 15.0034 16.8126 14.9929 16.7971C14.9756 16.7715 15.2216 16.7569 14.8459 16.7597C14.7829 16.7428 14.7199 16.726 14.6569 16.7091C14.7295 16.7032 14.802 16.6972 14.8745 16.6913C14.7955 16.6823 14.7164 16.6733 14.6374 16.6642C15.1811 16.6748 14.8603 16.6113 14.5483 16.632C14.6608 16.5992 14.7732 16.5665 14.8857 16.5338C15.5036 16.5384 14.957 16.462 14.6211 16.4684C14.6215 16.4647 14.622 16.4609 14.6225 16.4572C14.7867 16.4244 14.6524 16.3943 14.7627 16.3544C14.8729 16.3144 14.9331 16.3182 15.2173 16.306C15.201 16.2966 15.1847 16.2872 15.1684 16.2778C14.3893 16.2285 15.7383 16.2372 15.1406 16.1528C15.6303 16.1258 15.3731 16.0593 15.2246 16.0152C15.2073 16.01 15.1123 16.0099 15.083 16.0031C15.0125 15.9864 15.1347 15.9438 14.8281 15.9452C14.9168 15.9305 15.0055 15.9157 15.0942 15.9009C15.0385 15.8889 14.9827 15.8768 14.927 15.8647C14.8313 15.8648 14.7356 15.8649 14.6399 15.8649C14.966 15.8406 14.8407 15.8025 14.9187 15.7836C14.9345 15.7799 15.0665 15.7791 15.1025 15.7674C15.1452 15.7538 15.1062 15.7284 15.1474 15.7122C15.0012 15.7059 14.8549 15.6996 14.7087 15.6933C14.6294 15.6643 15.0154 15.6541 15.0454 15.6371C15.0506 15.634 15.0229 15.578 15.0146 15.575C14.9493 15.5503 14.6205 15.5573 14.6909 15.4859C14.7036 15.4732 14.8174 15.4629 14.822 15.4514C14.8302 15.4311 14.5722 15.37 14.3337 15.3652C14.6322 15.3406 14.5102 15.2747 14.5964 15.2553C14.6229 15.2494 14.813 15.2481 14.8535 15.2301C14.8865 15.2155 14.7343 15.1779 14.7597 15.1594C14.7875 15.1398 14.9472 15.1328 14.9585 15.124C14.969 15.1156 14.84 15.108 14.8408 15.0966C14.8453 15.0613 15.0528 15.0292 15.0566 15.0013C15.0626 14.9608 14.6809 14.9251 14.5114 14.8913C14.5362 14.8829 14.6181 14.8746 14.6189 14.8658C14.6309 14.7569 14.7012 14.6341 14.7829 14.5248C14.8205 14.4741 15.3386 14.348 14.4741 14.3817C14.3227 14.3641 14.6712 14.2359 14.6765 14.2115C14.6817 14.1872 14.5267 14.1679 14.5244 14.1487C14.5176 14.0909 14.6293 14.0502 14.4944 13.9799C14.4591 13.9617 14.2754 13.9422 14.2776 13.9315C14.2806 13.9185 14.4582 13.9045 14.4694 13.8878C14.4949 13.8477 14.4365 13.7731 14.4673 13.7347C14.4732 13.7277 14.6292 13.7253 14.6779 13.7152C14.8684 13.6762 14.8519 13.6324 14.354 13.6402C14.6366 13.5901 14.3788 13.5438 14.363 13.4974C14.3308 13.3994 14.447 13.2207 14.2378 13.1353C14.1058 13.0814 13.8825 13.0828 14.0752 13.0035C14.1179 12.9859 14.1755 12.9683 14.2265 12.947C14.3465 12.8969 14.7591 12.851 14.2619 12.8129C14.3909 12.7573 14.2994 12.713 14.7246 12.6717C14.6226 12.6669 14.5206 12.662 14.4187 12.6572C14.4161 12.6503 14.4136 12.6435 14.4111 12.6367C14.5083 12.6346 14.6056 12.6325 14.7028 12.6303C14.729 12.5815 14.3293 12.5196 14.3322 12.4782C14.3367 12.4089 14.492 12.2305 14.6233 12.1648C14.6929 12.1299 14.4847 12.128 14.9128 12.108C14.883 12.1002 14.8532 12.0924 14.8235 12.0846C14.7297 12.0797 14.636 12.0749 14.5422 12.07C14.5385 12.0252 14.6841 11.9721 14.6826 11.9295C14.6796 11.8518 14.4216 11.7351 14.591 11.6571C14.6338 11.6376 14.8271 11.6131 14.8249 11.594C14.8219 11.5661 14.5011 11.5593 14.4951 11.5239C14.4853 11.4629 14.8581 11.3494 14.8296 11.2917C14.8213 11.2746 14.7019 11.2666 14.6892 11.2548C14.6344 11.2052 14.6442 11.1646 14.4597 11.117C14.7671 11.066 15.164 11.0704 15.5644 11.0546C15.8667 11.0426 16.5671 11.0058 16.8318 11.0006C17.0177 10.997 17.2569 11.0107 17.4616 11.0055C17.6251 11.0667 17.4452 11.0923 17.1572 11.142C17.1687 11.2337 17.1801 11.3254 17.1916 11.417C17.0799 11.4254 16.9682 11.4337 16.8564 11.4421C16.8562 11.4421 16.8559 11.4421 16.8557 11.4421C16.7267 11.4773 17.0145 11.4922 17.0798 11.5112C17.7052 11.693 17.2157 12.0508 17.1452 12.2509C17.1302 12.2941 17.2808 12.4344 17.0993 12.464C17.0521 12.4716 16.8798 12.4737 16.8723 12.4819C16.9747 12.5547 17.0772 12.6275 17.1797 12.7004C16.912 12.8501 17.133 13.005 17.1743 13.1558C17.286 13.5641 17.4218 13.9683 17.3806 14.3699C17.3723 14.4475 17.5014 14.546 17.4182 14.6219C17.3837 14.6537 17.107 14.6669 17.3132 14.7085C17.2387 14.709 17.1641 14.7094 17.0896 14.7098C17.1796 14.7462 17.3492 14.7694 17.3664 14.8102C17.3807 14.8445 17.3917 14.9353 17.3633 14.9656C17.349 14.9814 17.2097 14.9755 17.2104 14.9902C17.2127 15.0153 17.4052 15.0689 17.4052 15.1036C17.4052 15.135 17.2448 15.1879 17.268 15.212C17.3505 15.2989 17.5884 15.3936 17.5246 15.4862C17.5066 15.5118 17.326 15.5447 17.331 15.5527C17.3415 15.5683 17.517 15.573 17.5395 15.5835C17.6535 15.6369 17.445 15.7201 17.4367 15.7725C17.4097 15.943 17.4863 16.1237 17.4541 16.2935C17.4338 16.4008 17.4647 16.5791 17.3327 16.6781C17.3042 16.6995 17.112 16.6938 17.112 16.7117C17.1121 16.7316 17.2419 16.7424 17.2524 16.7517C17.3259 16.816 17.4572 16.958 17.3244 17.0187C17.299 17.0303 17.1484 17.0387 17.1489 17.0456C17.1489 17.0491 17.2517 17.057 17.2622 17.068C17.3552 17.1652 17.2952 17.2361 17.26 17.3313C17.1932 17.5136 17.3845 17.7249 17.281 17.9165C17.2585 17.9582 16.9606 17.9869 16.9636 17.9927C16.9696 18.0056 17.17 18.0139 17.2195 18.04C17.3821 18.1267 17.1683 18.2435 17.2688 18.326C17.3183 18.3668 17.5726 18.4228 17.6289 18.4629C17.6739 18.4949 17.5741 18.5706 17.6858 18.5848C17.7532 18.5934 17.9699 18.5974 17.997 18.6077ZM14.624 17.5285C14.9704 17.5342 14.6825 17.4743 14.4965 17.4968C14.4547 17.5018 14.5341 17.5271 14.624 17.5285ZM15.2256 14.7201C15.1266 14.7206 15.0276 14.7212 14.9287 14.7217C14.9699 14.7296 15.011 14.7375 15.0522 14.7454C15.1117 14.7409 15.1712 14.7365 15.2307 14.7321C15.229 14.7281 15.2273 14.7241 15.2256 14.7201Z" fill="black" style="fill:black;fill-opacity:1;"/>
<path d="M17.997 23.8529C18.021 23.8565 17.8913 23.8615 17.8845 23.8657C17.8545 23.8834 17.7646 23.89 17.7136 23.9059C17.6379 23.9296 17.8083 24 16.9072 24C16.9072 24 16.9072 24 16.9072 24C16.8983 24 16.8894 24 16.8803 24C16.7087 23.9997 16.5213 23.9937 16.3271 23.9929C16.1329 23.992 14.879 23.9926 14.8086 23.9841C14.7157 23.9718 15.0372 23.9423 15.0229 23.9357C15.0131 23.9312 14.8991 23.9257 14.8789 23.9199C14.8136 23.9014 14.897 23.8917 14.5874 23.875C14.7505 23.8683 14.9137 23.8617 15.0769 23.855C15.0012 23.8463 15.2164 23.8331 15.2046 23.8278C15.1948 23.8234 15.0658 23.8209 15.0598 23.8164C15.0523 23.8113 15.1916 23.8035 15.1706 23.7943C15.1369 23.7791 14.8003 23.7764 14.7575 23.7674C14.7133 23.758 14.8962 23.7433 14.7778 23.7313C14.7408 23.7298 14.7037 23.7283 14.6667 23.7268C14.583 23.7279 14.4992 23.7289 14.4155 23.73C14.3765 23.724 14.5481 23.7214 14.5512 23.7158C14.555 23.7093 14.3923 23.7059 14.393 23.7015C14.3938 23.6979 14.5243 23.693 14.5161 23.6883C14.5048 23.6815 14.3165 23.683 14.2812 23.6793C14.2675 23.6779 14.1636 23.6508 14.1621 23.6493C14.1546 23.6377 14.4125 23.6367 14.435 23.6274C14.4965 23.6017 14.2882 23.5754 14.2094 23.5516C14.1742 23.541 14.1892 23.5299 14.2304 23.5194C14.8903 23.536 15.4039 23.4992 14.3713 23.513C14.5182 23.5012 14.2395 23.4928 14.2866 23.4817C14.3173 23.4745 14.4605 23.4695 14.4568 23.4592C14.4492 23.4409 14.0422 23.4209 14.7778 23.4156C14.6481 23.3942 14.9149 23.3756 14.2656 23.3679C14.2259 23.3623 14.6127 23.3481 14.6652 23.3419C14.7147 23.3361 14.8894 23.291 14.8991 23.2837C14.9089 23.2763 14.9195 23.2634 14.8625 23.2572C14.792 23.2494 14.1186 23.244 14.906 23.2301C14.8423 23.2139 14.8648 23.2082 14.9563 23.1932C14.9728 23.1905 15.0897 23.1902 15.0898 23.1886C15.0898 23.1853 15.0034 23.1797 14.9929 23.1739C14.9756 23.1643 15.2216 23.1588 14.8459 23.1599C14.7829 23.1536 14.7199 23.1472 14.6569 23.1409C14.7295 23.1387 14.802 23.1365 14.8745 23.1342C14.7955 23.1309 14.7164 23.1275 14.6374 23.1241C15.1811 23.1281 14.8603 23.1043 14.5483 23.112C14.6608 23.0997 14.7732 23.0874 14.8857 23.0752C15.5036 23.0769 14.957 23.0482 14.6211 23.0507C14.6215 23.0493 14.622 23.0478 14.6225 23.0464C14.7867 23.0342 14.6524 23.0229 14.7627 23.0079C14.8729 22.9929 14.9331 22.9943 15.2173 22.9898C15.201 22.9862 15.1847 22.9827 15.1684 22.9792C14.3893 22.9607 15.7383 22.964 15.1406 22.9323C15.6303 22.9222 15.3731 22.8972 15.2246 22.8807C15.2073 22.8788 15.1123 22.8787 15.083 22.8762C15.0125 22.8699 15.1347 22.8539 14.8281 22.8545C14.9168 22.8489 15.0055 22.8434 15.0942 22.8379C15.0385 22.8333 14.9827 22.8288 14.927 22.8243C14.8313 22.8243 14.7356 22.8243 14.6399 22.8243C14.966 22.8152 14.8407 22.8009 14.9187 22.7939C14.9345 22.7925 15.0665 22.7922 15.1025 22.7878C15.1452 22.7827 15.1062 22.7732 15.1474 22.7671C15.0012 22.7647 14.8549 22.7624 14.7087 22.76C14.6294 22.7491 15.0154 22.7453 15.0454 22.7389C15.0506 22.7377 15.0229 22.7168 15.0146 22.7156C14.9493 22.7064 14.6205 22.709 14.6909 22.6822C14.7036 22.6775 14.8174 22.6736 14.822 22.6693C14.8302 22.6617 14.5722 22.6387 14.3337 22.6369C14.6322 22.6277 14.5102 22.603 14.5964 22.5957C14.6229 22.5935 14.813 22.593 14.8535 22.5863C14.8865 22.5808 14.7343 22.5667 14.7597 22.5598C14.7875 22.5524 14.9472 22.5498 14.9585 22.5465C14.969 22.5434 14.84 22.5405 14.8408 22.5362C14.8453 22.523 15.0528 22.511 15.0566 22.5005C15.0626 22.4853 14.6809 22.4719 14.5114 22.4592C14.5362 22.4561 14.6181 22.453 14.6189 22.4497C14.6309 22.4088 14.7012 22.3628 14.7829 22.3218C14.8205 22.3028 15.3386 22.2555 14.4741 22.2681C14.3227 22.2615 14.6712 22.2135 14.6765 22.2043C14.6817 22.1952 14.5267 22.1879 14.5244 22.1808C14.5176 22.1591 14.6293 22.1438 14.4944 22.1174C14.4591 22.1106 14.2754 22.1033 14.2776 22.0993C14.2806 22.0944 14.4582 22.0892 14.4694 22.0829C14.4949 22.0679 14.4365 22.0399 14.4673 22.0255C14.4733 22.0229 14.6292 22.022 14.6779 22.0182C14.8684 22.0036 14.8519 21.9872 14.354 21.9901C14.6366 21.9713 14.3788 21.9539 14.363 21.9365C14.3308 21.8998 14.447 21.8328 14.2378 21.8007C14.1058 21.7805 13.8825 21.781 14.0752 21.7513C14.1179 21.7447 14.1755 21.7381 14.2265 21.7301C14.3465 21.7113 14.7591 21.6941 14.2619 21.6798C14.3909 21.659 14.2994 21.6424 14.7246 21.6269C14.6226 21.6251 14.5206 21.6233 14.4187 21.6214C14.4161 21.6189 14.4136 21.6163 14.4111 21.6138C14.5083 21.613 14.6056 21.6122 14.7028 21.6114C14.729 21.5931 14.3293 21.5698 14.3322 21.5543C14.3367 21.5284 14.492 21.4614 14.6233 21.4368C14.6929 21.4237 14.4847 21.423 14.9128 21.4155C14.883 21.4126 14.8532 21.4097 14.8235 21.4067C14.7297 21.4049 14.636 21.4031 14.5422 21.4012C14.5385 21.3845 14.6841 21.3645 14.6826 21.3486C14.6796 21.3194 14.4216 21.2757 14.591 21.2464C14.6338 21.2391 14.8271 21.2299 14.8249 21.2227C14.8219 21.2123 14.5011 21.2097 14.4951 21.1965C14.4853 21.1736 14.8581 21.131 14.8296 21.1094C14.8213 21.103 14.7019 21.1 14.6892 21.0956C14.6344 21.077 14.6442 21.0617 14.4597 21.0439C14.7671 21.0247 15.164 21.0264 15.5644 21.0205C15.8667 21.016 16.5671 21.0022 16.8318 21.0002C17.0177 20.9989 17.2569 21.004 17.4616 21.0021C17.6251 21.025 17.4452 21.0346 17.1572 21.0532C17.1687 21.0876 17.1801 21.122 17.1916 21.1564C17.0799 21.1595 16.9682 21.1626 16.8564 21.1658C16.8562 21.1658 16.8559 21.1658 16.8557 21.1658C16.7267 21.179 17.0145 21.1846 17.0798 21.1917C17.7052 21.2599 17.2157 21.3941 17.1452 21.4691C17.1302 21.4853 17.2808 21.5379 17.0993 21.549C17.0521 21.5519 16.8798 21.5527 16.8723 21.5557C16.9747 21.583 17.0772 21.6103 17.1797 21.6376C16.912 21.6938 17.133 21.7519 17.1743 21.8084C17.286 21.9615 17.4218 22.1131 17.3806 22.2637C17.3723 22.2928 17.5014 22.3297 17.4182 22.3582C17.3837 22.3701 17.107 22.3751 17.3132 22.3907C17.2387 22.3909 17.1641 22.391 17.0896 22.3912C17.1796 22.4048 17.3492 22.4135 17.3664 22.4288C17.3807 22.4417 17.3917 22.4757 17.3633 22.4871C17.349 22.493 17.2097 22.4908 17.2104 22.4963C17.2127 22.5057 17.4052 22.5258 17.4052 22.5388C17.4052 22.5506 17.2448 22.5705 17.268 22.5795C17.3505 22.6121 17.5884 22.6476 17.5246 22.6823C17.5066 22.6919 17.326 22.7042 17.331 22.7073C17.3415 22.7131 17.517 22.7149 17.5395 22.7188C17.6535 22.7388 17.445 22.77 17.4367 22.7897C17.4097 22.8536 17.4863 22.9214 17.4541 22.9851C17.4338 23.0253 17.4647 23.0921 17.3327 23.1293C17.3042 23.1373 17.112 23.1352 17.112 23.1419C17.1121 23.1493 17.2419 23.1534 17.2524 23.1569C17.3259 23.181 17.4572 23.2342 17.3244 23.257C17.299 23.2614 17.1484 23.2645 17.1489 23.2671C17.1489 23.2684 17.2517 23.2714 17.2622 23.2755C17.3552 23.312 17.2952 23.3385 17.26 23.3742C17.1932 23.4426 17.3845 23.5219 17.281 23.5937C17.2585 23.6093 16.9606 23.6201 16.9636 23.6223C16.9696 23.6271 17.17 23.6302 17.2195 23.64C17.3821 23.6725 17.1683 23.7163 17.2688 23.7472C17.3183 23.7625 17.5726 23.7835 17.6289 23.7986C17.6739 23.8106 17.5741 23.839 17.6858 23.8443C17.7532 23.8475 17.9699 23.849 17.997 23.8529ZM14.624 23.4482C14.9704 23.4503 14.6825 23.4279 14.4965 23.4363C14.4547 23.4382 14.5341 23.4476 14.624 23.4482ZM15.2256 22.395C15.1266 22.3952 15.0276 22.3954 14.9287 22.3957C14.9699 22.3986 15.011 22.4016 15.0522 22.4045C15.1117 22.4029 15.1712 22.4012 15.2307 22.3995C15.229 22.398 15.2273 22.3965 15.2256 22.395Z" fill="black" style="fill:black;fill-opacity:1;"/>
</g>
<defs>
<clipPath id="clip0_46_15788">
<rect width="32" height="32" fill="white" style="fill:white;fill-opacity:1;" transform="translate(0 0.5)"/>
</clipPath>
</defs>
</svg>
