<svg width="130" height="131" viewBox="0 0 130 131" fill="none" xmlns="http://www.w3.org/2000/svg">
<g clip-path="url(#clip0_46_15662)">
<path d="M63.7249 74.5797C63.8832 74.3894 64.0254 74.0249 63.8192 73.6923L61.9344 56.9947C61.8704 56.2977 61.1094 55.6646 60.4283 55.9029C59.7312 55.9669 59.2724 56.712 59.3364 57.409L61.3954 74.0906C61.4274 74.4392 61.6177 74.5974 61.808 74.7557C59.242 75.5185 57.3748 78.1503 57.6308 80.9386C57.9348 84.2496 60.7889 86.6236 64.0999 86.3196C67.5853 85.9995 69.6107 83.1775 69.481 79.8504C69.2089 76.8879 66.7194 74.6562 63.7249 74.5797Z" fill="black" style="fill:black;fill-opacity:1;"/>
<path d="M24.2622 96.48C28.7876 107.487 38.2068 116.288 49.6177 119.985C63.7545 124.662 79.2625 121.305 93.6289 116.998C96.5435 116.203 96.1612 113.954 93.5152 113.845C91.2177 113.705 88.778 113.929 86.5445 114.485C98.2934 106.553 105.284 92.7308 104.176 76.8405C103.629 67.0495 99.2791 57.9592 92.1432 51.0578L93.5516 49.1711C95.9451 50.3572 97.2432 49.1836 98.9841 47.0906C101.026 44.4428 101.563 42.6362 98.5183 40.1039C96.9962 38.8378 94.5849 35.5445 92.2554 35.0555C89.926 34.5664 87.8845 37.2142 86.4761 39.1009C85.21 40.623 85.1798 42.2074 86.7179 43.6478L85.1353 45.5505C78.8101 41.7379 71.5834 39.5897 63.8517 39.5967L63.5477 36.2856C73.3066 35.3895 75.6843 19.1792 65.5378 12.027C57.0877 6.12494 42.8956 10.4156 41.0212 22.5378C39.7141 31.2689 45.9467 37.9018 53.2659 37.2297L53.5699 40.5408C47.0438 42.1945 40.1549 45.6388 34.6459 50.7138L32.7432 49.1311C33.9453 46.9119 33.1042 45.4075 31.0273 43.8409C30.0759 43.0496 29.3148 42.4165 28.2212 41.9897C26.2243 41.2944 24.4674 43.2131 23.8183 43.7999C23.5018 44.1804 23.011 44.577 22.3619 45.1638C17.3277 49.668 16.6004 51.3164 22.1182 55.9061C23.6403 57.1722 25.2407 57.3767 26.6811 55.8386L28.5838 57.4212C20.514 69.0578 19.2602 84.1105 24.2622 96.48ZM67.0604 118.559C46.1323 120.305 27.8665 105.112 25.3915 83.899C22.8845 62.3379 39.2978 43.9601 60.0516 42.2302C81.6767 40.4202 100.323 55.9302 101.72 76.8902C103.024 98.7376 88.1467 116.623 67.0604 118.559ZM88.5531 40.6675C88.7114 40.4772 90.8951 37.4649 91.7824 37.5592C93.0343 37.7957 95.6198 41.073 96.9357 42.0066C98.0773 42.9562 98.1253 43.479 98.1413 43.6533C97.999 44.0178 98.015 44.1921 96.9232 45.6982C96.4484 46.269 95.9736 46.8398 95.641 47.0461C94.5954 47.1421 90.9003 43.2637 89.5844 42.3302C89.3942 42.1719 88.4588 41.5548 88.4428 41.3806C88.2526 41.2223 88.2366 41.048 88.5531 40.6675ZM88.7949 45.2144C89.5719 46.0218 90.5233 46.8131 91.6649 47.7627L90.3828 49.1106C89.4314 48.3192 88.4801 47.5279 87.3545 46.7526L88.7949 45.2144ZM52.5013 32.7308C52.3271 32.7468 52.1368 32.5885 52.1048 32.24C51.7865 30.6876 51.5625 28.2478 51.5447 26.1406C51.5287 25.9664 51.687 25.7761 51.8613 25.7601C55.5991 24.3625 59.0685 23.8682 62.6338 24.4195C62.8081 24.4035 62.9983 24.5617 63.0143 24.736C63.3646 26.6369 63.5726 28.9024 63.7647 30.9936C63.7807 31.1679 63.6224 31.3581 63.4641 31.5484C60.0428 32.5655 56.922 33.0278 52.5013 32.7308ZM50.2183 13.6094C54.9378 11.4187 60.2138 11.4615 63.9712 14.104C70.5506 18.7719 71.1461 29.0856 65.8416 32.5602C66.4427 31.4506 66.1884 30.5953 65.9964 28.5041C65.8684 27.11 65.7404 25.7158 65.4381 24.3377C65.1518 23.1338 64.1844 22.1682 62.9326 21.9317C58.8284 21.2542 54.8363 21.7965 50.7659 23.4004C49.578 23.8609 48.8027 24.9865 48.7405 26.2224C48.7742 28.5039 49.0142 31.1179 49.3485 32.8445C49.4125 33.5416 49.8251 34.2067 50.2056 34.5232C41.2202 32.3608 41.144 18.1331 50.2183 13.6094ZM55.7359 35.4213C57.6688 35.4195 58.8887 35.3075 60.9639 34.9412L61.3799 39.4722C59.8115 39.6162 58.4014 39.5699 56.1679 40.1265L55.7359 35.4213ZM30.1504 55.3442L28.438 53.9199C29.2454 53.1428 30.2109 52.1754 31.0023 51.2241L32.5404 52.6645C31.9074 53.4256 30.9418 54.3929 30.1504 55.3442ZM24.6042 54.2719C24.6042 54.2719 24.4299 54.2879 23.8591 53.8131C23.6688 53.6548 20.6405 51.2969 20.909 50.3935C21.1456 49.1417 24.6131 46.7144 25.737 45.5568C26.6866 44.4152 27.2094 44.3672 27.3997 44.5255C27.9385 44.6517 28.5093 45.1265 29.0961 45.7756C30.2377 46.7252 30.444 47.0577 30.6502 47.3902C30.7462 48.4358 27.4849 51.1956 25.744 53.2886C25.5857 53.4788 25.76 53.4628 25.5857 53.4788C24.9367 54.0656 24.7784 54.2559 24.6042 54.2719Z" fill="black" style="fill:black;fill-opacity:1;"/>
<path d="M94.4554 32.2175C95.1524 32.1535 95.6112 31.4084 95.5472 30.7114C95.3712 28.7944 95.3694 26.8615 95.7162 24.8965C95.8265 24.1835 95.4139 23.5184 94.7009 23.4082C93.9878 23.2979 93.3227 23.7104 93.2125 24.4235C92.8817 26.5627 92.7412 28.8602 93.1235 31.1096C93.0132 31.8227 93.7743 32.4558 94.4554 32.2175Z" fill="black" style="fill:black;fill-opacity:1;"/>
<path d="M99.9534 32.7669L103.86 25.5544C104.161 24.9996 103.907 24.1443 103.352 23.8437C102.797 23.5432 101.942 23.7975 101.641 24.3523L97.7342 31.5647C97.4337 32.1196 97.6879 32.9749 98.2427 33.2754C98.8135 33.7502 99.6689 33.4959 99.9534 32.7669Z" fill="black" style="fill:black;fill-opacity:1;"/>
<path d="M101.922 36.9796C102.27 36.9476 102.096 36.9636 106.641 34.7889C107.322 34.5506 107.591 33.6473 107.178 32.9822C106.94 32.3012 106.037 32.0326 105.372 32.4452L101.159 34.4136C99.8127 35.0645 100.353 37.1237 101.922 36.9796Z" fill="black" style="fill:black;fill-opacity:1;"/>
<path d="M94.9863 76.2783C92.7211 59.2642 77.3413 46.7933 59.9147 48.3934C42.1394 50.0256 29.0034 65.8179 30.6356 83.5931C32.2678 101.368 48.0601 114.504 65.8353 112.872C83.6105 111.24 96.7465 95.4477 95.1144 77.6725C95.0984 77.4982 95.0824 77.3239 95.0503 76.9754L95.0343 76.8011C95.0183 76.6269 95.0023 76.4526 94.9863 76.2783ZM86.7991 98.1185L85.4672 97.0106C84.8964 96.5358 84.0251 96.6158 83.5503 97.1866C83.0755 97.7574 83.1555 98.6288 83.7263 99.1036L85.0582 100.211C80.753 105 75.1 108.507 68.3676 109.828L68.1915 107.911C68.1275 107.214 67.5407 106.565 66.6694 106.645C65.7981 106.725 65.3233 107.296 65.4033 108.167L65.5793 110.084L65.5953 110.258C65.421 110.274 65.421 110.274 65.2468 110.29C57.4047 111.01 49.9718 108.53 44.1055 103.972L45.071 103.004C45.5458 102.434 45.4818 101.737 45.0693 101.072C44.4985 100.597 43.8014 100.661 43.1364 101.073L42.1868 102.215C38.1431 98.3685 35.0491 93.3806 33.6497 87.7098L35.5666 87.5338C36.2637 87.4697 36.9127 86.8829 36.8327 86.0116C36.7527 85.1403 36.1819 84.6655 35.3106 84.7455L33.0451 84.9535C31.8022 77.1595 33.7602 69.7745 37.779 63.782C38.8886 64.383 39.2852 64.8738 39.9823 64.8098C41.2021 64.6978 41.5809 63.0814 40.6456 62.4643L39.52 61.689C43.9354 56.1872 50.4437 52.4263 57.715 51.2315L57.907 53.3227C57.971 54.0197 58.5578 54.6688 59.4291 54.5888C60.1262 54.5248 60.7753 53.938 60.6952 53.0666L60.4872 50.8012C69.0423 50.1913 76.8878 53.3371 82.8181 58.5919C82.5016 58.9724 81.3938 60.3043 81.552 60.114C80.935 61.0494 81.5858 62.3955 82.8056 62.2835C83.677 62.2035 83.9615 61.4744 84.7528 60.5231C88.4639 64.5757 91.0512 69.786 92.1021 75.4888L91.0565 75.5848C90.3594 75.6488 89.7103 76.2356 89.7903 77.1069C89.8703 77.9783 90.4412 78.4531 91.3125 78.373L92.5324 78.261C93.2044 85.5802 90.866 92.6487 86.7991 98.1185Z" fill="black" style="fill:black;fill-opacity:1;"/>
</g>
<defs>
<clipPath id="clip0_46_15662">
<rect width="119" height="119" fill="white" style="fill:white;fill-opacity:1;" transform="translate(0.308594 11.6899) rotate(-5.24638)"/>
</clipPath>
</defs>
</svg>
