<svg width="81" height="136" viewBox="0 0 81 136" fill="none" xmlns="http://www.w3.org/2000/svg">
<path d="M26.6939 128.754C26.5625 128.883 26.2306 128.868 26.056 128.969C25.302 129.404 24.956 129.464 24.2439 129.822C23.2065 130.356 20.2603 132.396 19.5763 131.219C19.5763 131.219 19.5763 131.219 19.5763 131.219C19.5697 131.207 19.5633 131.196 19.5571 131.183C19.4394 130.954 19.5601 130.559 19.4521 130.285C19.3439 130.011 18.3719 128.401 18.6793 128.099C19.1342 127.674 20.6176 127.345 20.8776 127.159C21.0562 127.032 21.1949 126.747 21.4143 126.575C22.12 126.022 22.5797 125.878 22.9939 125.06C23.3925 125.094 23.7873 125.129 24.202 125.15C24.4999 124.819 25.2185 124.728 25.424 124.568C25.5926 124.437 25.5873 124.207 25.7648 124.076C25.9631 123.927 26.3949 123.886 26.7449 123.604C27.3184 123.144 27.1318 122.656 27.4489 122.353C27.7769 122.039 28.5033 121.854 28.8556 121.375C28.8818 121.286 28.9091 121.197 28.9355 121.109C28.8183 121.039 28.7012 120.969 28.5841 120.9C28.7881 120.677 29.0433 120.808 29.2642 120.65C29.5239 120.463 29.5069 120.17 29.6779 120.042C29.818 119.938 30.1252 119.951 30.2975 119.803C30.5489 119.589 30.3192 119.409 30.4267 119.26C30.4726 119.201 31.3944 118.281 31.4469 118.234C31.8707 117.883 32.1496 118.154 32.5121 117.905C33.4958 117.227 34.3074 116.134 35.0768 115.305C35.4243 114.931 35.8324 114.599 36.2455 114.309C36.3178 115.577 38.1417 114.967 36.6127 114.262C37.1748 114.049 37.1761 113.479 37.6115 113.168C37.8985 112.962 38.2229 112.951 38.5791 112.602C39.2127 111.98 39.4537 110.877 40.4123 111.478C40.9987 110.614 41.8956 110.252 41.4379 109.319C41.5781 109.085 42.471 108.979 42.7323 108.81C42.9859 108.654 44.6235 107.211 44.8572 106.951C45.0985 106.695 45.5075 106.237 45.6299 105.956C45.7897 105.6 45.1787 104.756 46.5174 104.981C46.9346 104.312 47.1316 104.117 47.6833 103.632C47.7829 103.544 47.9306 103.639 47.9774 103.579C48.0736 103.454 48.1334 103.163 48.2893 102.931C48.5454 102.55 48.9964 102.561 48.5141 102.265C48.6192 101.966 48.7154 101.676 48.8226 101.368C48.9738 101.345 49.1252 101.322 49.2765 101.298C49.2766 101.095 49.2757 100.893 49.2739 100.691C49.8278 101.322 50.1001 100.101 49.5012 100.138C49.9776 99.7532 50.4491 99.3637 50.9157 98.9698C51.6432 99.5538 51.7164 97.9519 51.2261 97.7772C51.2629 97.7219 51.2995 97.6666 51.3361 97.6112C51.8571 97.2572 51.9851 96.6779 52.5009 96.1523C53.0174 95.6226 53.0577 95.7263 53.537 95.7564C53.6034 95.5975 53.6691 95.4386 53.7342 95.2798C53.17 93.9252 54.8514 95.0758 54.8118 93.3018C55.6957 93.2231 55.9347 91.9589 56.0949 91.1483C56.1139 91.0537 55.9876 90.9877 56.004 90.8579C56.0467 90.5418 56.5501 89.9354 56.1246 89.7569C56.3601 89.5784 56.5947 89.3985 56.8284 89.2172C56.8459 88.9862 56.8652 88.7491 56.8817 88.5158C56.7511 88.4562 56.6206 88.3965 56.49 88.3369C57.12 88.1452 57.2346 87.4363 57.4782 87.1739C57.5272 87.1217 57.7144 87.1886 57.8486 87.0173C58.0067 86.8174 58.1346 86.3735 58.3053 86.1283C58.1477 85.938 57.9895 85.7486 57.8306 85.56C57.9199 85.0371 58.5235 85.0883 58.68 84.8216C58.7085 84.7761 59.0447 83.8117 59.0509 83.7568C59.1187 83.3034 58.6201 83.247 59.16 82.0821C59.2556 81.8746 59.4785 81.7585 59.5538 81.5665C59.69 81.2256 59.6737 80.07 59.36 79.8741C59.927 79.5952 60.1108 78.4088 60.3331 78.1147C60.4016 78.0258 60.6818 78.086 60.8327 77.7929C60.956 77.5549 60.9247 76.8437 61.05 76.5358C61.1847 76.2089 61.4485 76.1511 61.5064 76.0033C61.5604 75.8646 61.4106 75.6778 61.4642 75.4804C61.6349 74.8637 62.0778 74.3779 62.2028 73.887C62.3843 73.1768 61.9688 72.4213 61.8478 71.7799C61.9158 71.6416 62.0667 71.5237 62.1003 71.37C62.5269 69.4452 63.0006 67.316 63.3856 65.366C63.5724 64.4715 64.5854 62.2947 63.2306 62.7624C63.0452 62.4282 63.7675 60.1783 63.7974 59.7399C63.8353 59.3035 63.6243 58.9438 63.6402 58.6023C63.6868 57.5679 63.8869 56.8334 63.7149 55.5673C63.6695 55.2401 63.3996 54.8879 63.4053 54.6964C63.4128 54.4655 63.6817 54.2205 63.7001 53.9188C63.7441 53.1951 63.6422 51.8541 63.669 51.1659C63.6749 51.0401 63.9076 50.9899 63.9756 50.8076C64.242 50.0987 64.1823 49.3077 63.4422 49.4793C63.8272 48.5572 63.3932 47.7423 63.3124 46.9173C63.1565 45.1766 62.9937 41.9556 62.4649 40.4737C62.1359 39.5401 61.8123 39.6143 61.8811 38.1739C61.8952 37.8532 61.9315 37.5369 61.9423 37.1404C61.9701 36.2205 62.4283 35.2883 61.5667 34.7564C61.5692 33.7453 61.2724 32.9925 61.7372 32.1257C61.569 32.0719 61.4008 32.0186 61.2326 31.9656C61.2026 31.8463 61.1723 31.7272 61.1419 31.6082C61.276 31.5391 61.41 31.4698 61.5439 31.4004C61.389 30.5259 60.5507 29.5978 60.3702 28.8638C60.0843 27.6444 59.4455 24.4918 59.2734 23.3025C59.1888 22.6728 58.8803 22.7366 59.3852 22.2022C59.3011 22.0848 59.2137 21.958 59.1277 21.8363C58.9664 21.7941 58.8052 21.7524 58.6439 21.711C58.3877 20.9369 58.2881 19.9596 58.0336 19.2412C57.5652 17.906 56.4715 16.0964 56.1717 14.6842C56.0981 14.33 56.1981 13.8097 56.0621 13.492C55.8643 13.0303 55.3741 13.1052 55.119 12.5343C54.6642 11.5041 54.3437 9.45868 53.8314 8.50937C53.6838 8.2331 53.4592 8.18206 53.3478 7.99917C52.8765 7.23066 52.5739 6.60603 51.9171 5.95503C51.8912 4.9244 52.4502 4.7142 52.8408 4.17445C53.1359 3.76743 53.7306 2.67576 54.029 2.39783C54.2393 2.20256 54.6746 2.24472 54.8963 2.01255C55.6608 2.87803 55.6572 3.44439 55.7153 4.48437C56.5158 5.97877 57.3059 7.56624 58.0165 9.08845C57.9285 9.29981 57.8401 9.51103 57.7512 9.72213C57.7508 9.72228 57.7505 9.72243 57.7502 9.72258C57.8432 10.4029 58.3509 10.4887 58.5854 10.7823C60.8426 13.506 62.4636 20.1328 63.3514 23.7359C63.5691 24.5334 64.4626 26.9761 64.3304 27.5936C64.297 27.7505 64.0562 27.8523 64.0824 28.0032C64.5643 29.2969 65.0132 30.5569 65.4489 31.8713C65.6352 34.6856 66.4516 37.466 66.8812 40.268C68.0409 47.8162 68.42 55.4612 67.5896 62.9947C67.4327 64.4378 67.3871 66.3068 67.0385 67.7123C66.8945 68.2926 66.4466 68.4668 66.6175 69.2896C66.506 69.2784 66.3944 69.2672 66.2829 69.2559C66.2974 69.9494 66.468 70.4267 66.3442 71.1882C66.2425 71.835 65.8975 73.5031 65.7211 74.0492C65.6324 74.3328 65.4545 74.1772 65.3915 74.4455C65.2862 74.9044 65.3199 75.9576 65.1483 76.5944C64.9958 77.1708 64.496 78.0555 64.4002 78.5009C64.0606 80.1006 63.8401 81.9299 63.1538 83.5371C62.9637 83.9832 62.4903 84.4709 62.4432 84.6147C62.3525 84.8969 62.566 85.0741 62.5251 85.273C62.3135 86.2969 61.4306 87.6089 61.0166 88.5114C59.6783 91.4597 58.2063 94.5622 56.5392 97.2723C55.4827 99.0239 53.6882 101.838 52.4133 103.252C52.1412 103.557 51.971 103.3 51.7707 103.576C51.5473 103.882 51.5897 104.152 51.4983 104.301C50.8878 105.327 49.374 107.563 48.4683 108.319C48.3014 108.459 48.0284 108.432 47.9463 108.53C47.9044 108.58 47.9271 108.792 47.8061 108.958C46.7368 110.42 45.7587 111.368 44.4841 112.634C42.0821 115.019 39.3827 117.946 36.4948 120.154C35.8523 120.648 35.1814 120.616 35.0963 120.692C34.9183 120.848 34.9904 121.178 34.6594 121.538C33.5676 122.731 31.5748 123.841 30.436 124.846C29.8735 125.346 29.243 126.259 28.6689 126.757C28.2142 127.156 26.9398 127.833 26.8042 128.122C26.7226 128.297 26.8377 128.611 26.6939 128.754ZM39.1351 112.414C39.4243 112.86 39.8986 111.79 39.4122 111.877C39.3035 111.896 39.0608 112.299 39.1351 112.414ZM63.4966 68.9554C63.3487 68.9392 63.2009 68.9229 63.053 68.9066C63.0889 69.0572 63.1244 69.2082 63.1594 69.3594C63.2616 69.2968 63.3638 69.2339 63.4658 69.1708C63.4762 69.099 63.4865 69.0272 63.4966 68.9554ZM22.1387 130.281C22.1567 130.325 21.9638 130.274 21.9381 130.302C21.8288 130.417 21.6831 130.405 21.5523 130.493C21.3582 130.622 21.3099 131.277 20.107 130.661C20.107 130.661 20.1069 130.661 20.1069 130.661C20.0951 130.655 20.0832 130.649 20.0712 130.642C19.843 130.523 19.6163 130.349 19.3606 130.21C19.1048 130.07 17.4284 129.217 17.3676 129.104C17.292 128.946 17.8371 128.94 17.8438 128.88C17.8483 128.839 17.7179 128.718 17.7134 128.661C17.699 128.474 17.8483 128.457 17.5004 128.117C17.7444 128.178 17.9884 128.238 18.2324 128.299C18.1655 128.181 18.5046 128.227 18.5095 128.178C18.5135 128.138 18.3513 128.031 18.361 127.992C18.3709 127.948 18.5874 127.984 18.5956 127.899C18.6099 127.76 18.1712 127.509 18.1497 127.41C18.1276 127.308 18.4292 127.321 18.3182 127.148C18.2747 127.111 18.2312 127.074 18.1877 127.037C18.0717 126.988 17.9556 126.939 17.8396 126.89C17.8113 126.817 18.0506 126.915 18.0766 126.874C18.1072 126.827 17.9031 126.69 17.9214 126.657C17.9365 126.63 18.1299 126.681 18.1373 126.64C18.149 126.58 17.8917 126.463 17.8591 126.411C17.8465 126.39 17.8139 126.112 17.8179 126.099C17.8535 126.005 18.2017 126.174 18.2681 126.118C18.4509 125.964 18.2761 125.62 18.2642 125.384C18.2588 125.279 18.3222 125.204 18.4187 125.152C19.2342 125.73 20.0644 125.8 18.6319 125.199C18.8742 125.209 18.5348 124.955 18.6415 124.902C18.7108 124.867 18.9215 124.927 18.9569 124.846C19.0185 124.701 18.5537 124.269 19.5562 124.732C19.4673 124.479 19.8963 124.52 19.0598 124.016C19.0286 123.947 19.6005 124.103 19.695 124.091C19.7841 124.08 20.1939 123.855 20.2358 123.805C20.2777 123.755 20.3424 123.664 20.2907 123.578C20.2272 123.47 19.3496 122.967 20.4551 123.4C20.4333 123.233 20.4859 123.204 20.6669 123.152C20.6997 123.142 20.8569 123.22 20.8633 123.208C20.8761 123.183 20.7826 123.081 20.7914 123.029C20.8061 122.944 21.1559 123.07 20.6502 122.822C20.5909 122.73 20.5317 122.638 20.4724 122.547C20.5779 122.58 20.6834 122.612 20.7889 122.645C20.6967 122.565 20.6045 122.485 20.5123 122.405C21.2224 122.807 20.8875 122.406 20.4408 122.251C20.639 122.234 20.8373 122.217 21.0355 122.2C21.8536 122.636 21.2364 122.043 20.7784 121.832C20.7846 121.821 20.7907 121.811 20.7969 121.801C21.0643 121.819 20.9293 121.641 21.1352 121.601C21.3411 121.562 21.4159 121.614 21.8131 121.774C21.8052 121.735 21.7973 121.697 21.7894 121.659C20.8219 120.985 22.6098 121.933 21.9362 121.281C22.6296 121.539 22.384 121.172 22.2507 120.944C22.2352 120.917 22.1085 120.852 22.0794 120.812C22.0099 120.716 22.2357 120.677 21.8243 120.472C21.9644 120.49 22.1045 120.509 22.2446 120.527C22.188 120.454 22.1313 120.381 22.0746 120.309C21.9468 120.243 21.8189 120.178 21.6911 120.113C22.1622 120.266 22.051 120.071 22.1828 120.07C22.2095 120.07 22.3869 120.158 22.4521 120.149C22.5292 120.14 22.5143 120.04 22.5933 120.022C22.4073 119.904 22.2214 119.785 22.0354 119.667C21.9722 119.53 22.5025 119.765 22.5676 119.736C22.579 119.731 22.6243 119.551 22.6178 119.537C22.5669 119.422 22.1176 119.217 22.3166 119.06C22.3523 119.032 22.5193 119.08 22.5423 119.051C22.5832 118.998 22.3287 118.646 22.0174 118.469C22.452 118.603 22.3861 118.33 22.5297 118.333C22.5737 118.335 22.8294 118.461 22.9099 118.437C22.9754 118.418 22.8275 118.206 22.8887 118.17C22.9546 118.133 23.1782 118.222 23.2062 118.204C23.2324 118.187 23.0716 118.077 23.0893 118.045C23.1473 117.947 23.4714 117.997 23.5176 117.919C23.5851 117.807 23.1281 117.444 22.9516 117.231C22.997 117.223 23.1185 117.256 23.1325 117.231C23.3087 116.927 23.5832 116.622 23.853 116.365C23.9777 116.245 24.8548 116.237 23.6513 115.743C23.4751 115.588 24.1288 115.459 24.1717 115.393C24.2144 115.326 24.0359 115.165 24.061 115.108C24.137 114.938 24.346 114.897 24.2693 114.603C24.2489 114.527 24.0324 114.345 24.0511 114.316C24.0741 114.281 24.3318 114.362 24.3715 114.322C24.4644 114.224 24.4961 113.97 24.5936 113.881C24.6119 113.865 24.8237 113.965 24.9036 113.969C25.2152 113.988 25.2576 113.851 24.5815 113.532C25.0325 113.582 24.7563 113.273 24.8035 113.129C24.9047 112.825 25.3225 112.392 25.1689 112.004C25.0719 111.759 24.7718 111.61 25.1457 111.514C25.2286 111.493 25.3314 111.482 25.4308 111.456C25.6646 111.394 26.2829 111.545 25.6754 111.095C25.9292 111.024 25.8723 110.834 26.5005 111.007C26.3715 110.923 26.2426 110.839 26.1136 110.756C26.1202 110.734 26.1269 110.713 26.1336 110.692C26.2665 110.752 26.3995 110.813 26.5324 110.873C26.6392 110.751 26.1967 110.3 26.2614 110.183C26.3693 109.987 26.8391 109.581 27.1109 109.482C27.2552 109.43 26.9799 109.282 27.5809 109.518C27.5526 109.475 27.5243 109.432 27.496 109.389C27.378 109.311 27.2601 109.233 27.1421 109.155C27.2029 109.024 27.4754 108.971 27.5361 108.848C27.6464 108.623 27.4735 108.111 27.8145 108.003C27.9003 107.977 28.1943 108.039 28.2196 107.982C28.2566 107.9 27.8383 107.661 27.8823 107.556C27.959 107.374 28.6235 107.303 28.6703 107.118C28.6844 107.063 28.5368 106.959 28.5372 106.916C28.537 106.736 28.6098 106.626 28.4335 106.364C28.9189 106.428 29.4422 106.712 30 106.94C30.4211 107.113 31.4101 107.486 31.7712 107.652C32.0248 107.769 32.324 107.972 32.6048 108.097C32.7331 108.385 32.4551 108.335 31.9977 108.281C31.8782 108.552 31.7586 108.823 31.6391 109.094C31.4777 109.041 31.3163 108.989 31.1548 108.936C31.1545 108.936 31.1542 108.936 31.1539 108.936C30.9299 108.948 31.2921 109.188 31.3514 109.287C31.9189 110.237 30.7392 110.929 30.3508 111.455C30.2673 111.569 30.262 112.074 29.9762 112.035C29.9019 112.025 29.6687 111.913 29.6467 111.931C29.6764 112.21 29.7061 112.489 29.7357 112.768C29.1581 113.015 29.2255 113.611 29.0587 114.072C28.6074 115.32 28.1942 116.573 27.5486 117.697C27.4234 117.914 27.4509 118.285 27.228 118.446C27.1353 118.514 26.7465 118.362 26.9605 118.623C26.8604 118.573 26.7602 118.523 26.6601 118.474C26.7267 118.64 26.919 118.822 26.8821 118.951C26.8506 119.059 26.7318 119.327 26.6492 119.395C26.6071 119.43 26.4297 119.318 26.4091 119.361C26.3752 119.434 26.5533 119.72 26.5024 119.82C26.4562 119.91 26.1642 119.952 26.1598 120.037C26.1421 120.343 26.3203 120.777 26.0991 120.999C26.0374 121.06 25.7479 121.031 25.7428 121.058C25.7338 121.11 25.9612 121.243 25.9758 121.289C26.0494 121.52 25.6487 121.616 25.5607 121.761C25.2738 122.232 25.1103 122.803 24.8175 123.268C24.6327 123.562 24.4117 124.095 24.0899 124.289C24.0204 124.33 23.7722 124.183 23.7459 124.234C23.7167 124.291 23.8742 124.411 23.8745 124.445C23.878 124.68 23.8444 125.177 23.5779 125.26C23.5268 125.276 23.3135 125.197 23.304 125.217C23.2988 125.228 23.4244 125.321 23.4222 125.359C23.4034 125.702 23.2192 125.864 23.0321 126.113C22.6748 126.591 22.6193 127.328 22.1994 127.807C22.108 127.912 21.6683 127.79 21.6636 127.809C21.6527 127.85 21.9081 128.011 21.9358 128.119C22.0253 128.48 21.5681 128.669 21.5809 128.974C21.587 129.125 21.8442 129.46 21.8603 129.613C21.8732 129.736 21.6288 129.885 21.757 130.002C21.8343 130.073 22.1177 130.233 22.1387 130.281ZM19.2232 124.876C19.6773 125.13 19.3811 124.76 19.0998 124.698C19.0364 124.684 19.1053 124.81 19.2232 124.876ZM24.1567 117.228C24.0238 117.162 23.8909 117.096 23.758 117.029C23.8014 117.08 23.8447 117.131 23.8881 117.182C23.9741 117.21 24.06 117.238 24.1459 117.266C24.1495 117.253 24.1531 117.24 24.1567 117.228ZM41.8107 125.805C41.8377 125.768 41.889 125.96 41.9236 125.968C42.069 126.005 42.1292 126.137 42.2626 126.207C42.4605 126.31 43.0157 126.024 43.0885 127.373C43.0885 127.373 43.0885 127.373 43.0885 127.373C43.0892 127.387 43.0899 127.4 43.0905 127.414C43.1024 127.671 43.0691 127.954 43.0776 128.245C43.0861 128.537 43.1928 130.414 43.1297 130.524C43.0375 130.668 42.7725 130.2 42.7205 130.224C42.6849 130.24 42.6494 130.414 42.6045 130.446C42.46 130.552 42.3748 130.431 42.2648 130.903C42.1977 130.661 42.1305 130.42 42.0633 130.178C41.999 130.295 41.8748 129.979 41.833 129.999C41.7987 130.015 41.7885 130.21 41.7524 130.221C41.7119 130.234 41.6377 130.029 41.5647 130.064C41.445 130.121 41.4504 130.627 41.3804 130.695C41.3078 130.765 41.1746 130.497 41.087 130.68C41.0778 130.736 41.0686 130.792 41.0594 130.848C41.0749 130.973 41.0904 131.098 41.1059 131.223C41.0601 131.284 41.0252 131.028 40.98 131.026C40.9267 131.023 40.9129 131.268 40.8772 131.269C40.848 131.27 40.7979 131.076 40.7607 131.091C40.7065 131.111 40.7338 131.392 40.7069 131.446C40.6962 131.468 40.4857 131.635 40.4735 131.638C40.3802 131.654 40.3512 131.268 40.2745 131.239C40.0618 131.158 39.8654 131.481 39.6796 131.61C39.5966 131.667 39.5059 131.649 39.4171 131.592C39.4985 130.597 39.1588 129.843 39.3537 131.384C39.2467 131.169 39.2017 131.59 39.1077 131.525C39.0469 131.482 38.9949 131.269 38.9119 131.28C38.7646 131.299 38.6357 131.917 38.5338 130.818C38.3707 131.021 38.1988 130.63 38.1887 131.606C38.1472 131.667 38.0012 131.094 37.9468 131.018C37.8953 130.947 37.5169 130.705 37.4565 130.693C37.3962 130.682 37.291 130.672 37.2454 130.76C37.188 130.869 37.1983 131.88 37.0225 130.707C36.8971 130.809 36.8488 130.778 36.72 130.647C36.6967 130.624 36.6848 130.449 36.6719 130.449C36.6455 130.451 36.6074 130.583 36.5611 130.601C36.4848 130.631 36.4206 130.265 36.4596 130.827C36.4135 130.924 36.3674 131.021 36.3213 131.118C36.2975 131.011 36.2737 130.903 36.2499 130.796C36.2289 130.915 36.2079 131.035 36.1869 131.155C36.1752 130.339 36.0084 130.83 36.0962 131.294C35.9879 131.131 35.8796 130.968 35.7712 130.804C35.7352 129.878 35.5476 130.709 35.5942 131.212C35.5828 131.211 35.5714 131.211 35.5601 131.211C35.4474 130.971 35.3669 131.177 35.2369 131.018C35.1068 130.86 35.1133 130.769 35.0535 130.345C35.0263 130.371 34.9992 130.397 34.972 130.423C34.8853 131.598 34.8028 129.576 34.5949 130.485C34.4735 129.756 34.2925 130.152 34.1707 130.382C34.1565 130.408 34.1639 130.551 34.1456 130.596C34.1006 130.704 33.9614 130.528 33.9906 130.987C33.9386 130.857 33.8867 130.726 33.8347 130.596C33.8027 130.681 33.7706 130.767 33.7385 130.852C33.7464 130.995 33.7543 131.139 33.7622 131.282C33.6622 130.797 33.5565 130.991 33.4931 130.878C33.4805 130.855 33.4673 130.657 33.4291 130.605C33.3843 130.543 33.3106 130.606 33.258 130.547C33.2507 130.767 33.2434 130.987 33.2361 131.207C33.1545 131.331 33.0924 130.754 33.0383 130.712C33.0285 130.705 32.861 130.755 32.8526 130.768C32.783 130.87 32.8307 131.361 32.6085 131.268C32.5689 131.251 32.5285 131.082 32.4933 131.077C32.4311 131.068 32.2664 131.464 32.271 131.822C32.1723 131.379 31.9823 131.573 31.9165 131.447C31.8966 131.408 31.8772 131.124 31.8194 131.066C31.7725 131.019 31.6708 131.253 31.6126 131.218C31.5507 131.18 31.5166 130.942 31.489 130.926C31.4629 130.912 31.45 131.106 31.4156 131.107C31.3079 131.106 31.194 130.8 31.1089 130.799C30.9858 130.797 30.9083 131.374 30.8193 131.634C30.7918 131.598 30.7602 131.477 30.7334 131.477C30.4021 131.477 30.0238 131.391 29.6858 131.287C29.529 131.239 29.1047 130.484 29.2766 131.773C29.2353 132.003 28.8185 131.501 28.7442 131.498C28.6698 131.494 28.6237 131.729 28.5658 131.736C28.3911 131.755 28.2586 131.595 28.0561 131.808C28.0038 131.864 27.9596 132.142 27.9268 132.141C27.8872 132.139 27.8306 131.875 27.7787 131.861C27.6553 131.829 27.4337 131.929 27.3148 131.889C27.293 131.881 27.273 131.648 27.2386 131.577C27.1048 131.298 26.9734 131.33 27.0371 132.074C26.8624 131.659 26.7428 132.053 26.6034 132.084C26.3085 132.148 25.7573 132.003 25.515 132.331C25.3623 132.537 25.3845 132.871 25.1283 132.596C25.0715 132.535 25.0137 132.451 24.9448 132.378C24.7833 132.207 24.6107 131.596 24.5351 132.347C24.3561 132.163 24.2291 132.307 24.0697 131.677C24.0632 131.831 24.0567 131.984 24.0502 132.138C24.0297 132.143 24.0092 132.148 23.9887 132.153C23.9744 132.007 23.9601 131.862 23.9458 131.717C23.7956 131.685 23.64 132.294 23.5144 132.297C23.3039 132.301 22.75 132.098 22.5401 131.912C22.4286 131.813 22.4398 132.126 22.3446 131.488C22.3233 131.533 22.3021 131.579 22.2808 131.625C22.2736 131.766 22.2663 131.908 22.2591 132.049C22.1237 132.062 21.9509 131.852 21.8217 131.862C21.5863 131.879 21.2532 132.284 21.0029 132.043C20.9401 131.982 20.8503 131.697 20.7924 131.703C20.7081 131.712 20.7134 132.194 20.6066 132.209C20.4224 132.233 20.0479 131.694 19.8753 131.746C19.8241 131.761 19.8095 131.941 19.7747 131.962C19.6287 132.052 19.5045 132.044 19.3753 132.328C19.1956 131.876 19.177 131.281 19.0967 130.684C19.0359 130.233 18.8679 129.19 18.8307 128.794C18.8045 128.516 18.8267 128.156 18.7946 127.85C18.9669 127.595 19.0593 127.861 19.2332 128.284C19.5103 128.252 19.7875 128.219 20.0647 128.187C20.099 128.353 20.1333 128.519 20.1677 128.685C20.1677 128.686 20.1677 128.686 20.1677 128.686C20.2849 128.874 20.307 128.44 20.3593 128.339C20.8602 127.373 21.9851 128.048 22.5978 128.12C22.7299 128.136 23.1432 127.887 23.2477 128.154C23.2747 128.224 23.2951 128.482 23.3204 128.492C23.533 128.326 23.7457 128.161 23.9583 127.995C24.4341 128.372 24.8859 128.015 25.3403 127.929C26.5696 127.695 27.7846 127.425 29.006 127.421C29.2421 127.421 29.5304 127.212 29.7676 127.324C29.8666 127.37 29.929 127.783 30.0387 127.467C30.046 127.579 30.0534 127.69 30.0607 127.802C30.1637 127.661 30.2205 127.403 30.3427 127.371C30.4457 127.344 30.7202 127.312 30.8145 127.35C30.8634 127.369 30.8569 127.578 30.9013 127.575C30.9773 127.567 31.1244 127.27 31.2295 127.265C31.3247 127.259 31.4982 127.491 31.5695 127.452C31.8264 127.315 32.0944 126.943 32.3804 127.023C32.4595 127.046 32.5739 127.311 32.5978 127.302C32.6444 127.284 32.6443 127.02 32.6744 126.985C32.8272 126.805 33.0965 127.104 33.2559 127.108C33.7754 127.121 34.3172 126.976 34.8349 126.997C35.1619 127.01 35.7002 126.934 36.0113 127.116C36.0784 127.155 36.0766 127.444 36.131 127.441C36.1914 127.437 36.2135 127.241 36.2409 127.224C36.4301 127.103 36.8502 126.884 37.0451 127.072C37.0823 127.109 37.1199 127.333 37.1408 127.331C37.1515 127.33 37.1672 127.175 37.1997 127.158C37.487 127.002 37.7067 127.081 37.9984 127.118C38.5569 127.188 39.1824 126.867 39.7719 126.991C39.9003 127.018 40.0112 127.459 40.0287 127.454C40.0673 127.442 40.0761 127.141 40.1513 127.063C40.4012 126.805 40.7728 127.106 41.0149 126.942C41.1345 126.861 41.2839 126.471 41.401 126.38C41.4945 126.308 41.7321 126.445 41.7661 126.275C41.7869 126.173 41.7815 125.847 41.8107 125.805ZM38.8096 131.034C38.7989 130.514 38.6403 130.955 38.7235 131.23C38.7423 131.292 38.8124 131.169 38.8096 131.034ZM30.2424 130.592C30.252 130.74 30.2617 130.888 30.2713 131.036C30.2919 130.973 30.3124 130.91 30.333 130.848C30.3148 130.759 30.2965 130.671 30.2783 130.582C30.2663 130.586 30.2543 130.589 30.2424 130.592Z" fill="#F1F0E3" style="fill:#F1F0E3;fill:color(display-p3 0.9451 0.9412 0.8902);fill-opacity:1;"/>
</svg>
