<svg width="166" height="38" viewBox="0 0 166 38" fill="none" xmlns="http://www.w3.org/2000/svg">
<path d="M154.608 12.5471C154.782 12.4613 155.09 12.5769 155.3 12.5274C156.219 12.3106 156.577 12.3445 157.419 12.1663C158.664 11.929 162.085 10.4428 162.486 11.7029C162.486 11.703 162.486 11.703 162.486 11.703C162.491 11.7153 162.496 11.7277 162.501 11.7402C162.525 11.7999 162.556 11.8586 162.553 11.932C162.552 11.9687 162.542 12.0093 162.519 12.055C162.512 12.0945 162.516 12.1301 162.511 12.169C162.501 12.3224 162.457 12.4929 162.482 12.6391C162.53 12.9322 163.248 14.6734 162.839 14.9389C162.247 15.3136 160.49 15.403 160.184 15.522C159.956 15.6124 159.676 15.8824 159.411 15.9983C158.461 16.401 157.934 16.4289 157.149 17.1419C156.703 17.0164 156.321 16.8706 155.893 16.736C155.456 16.9767 154.658 16.8578 154.395 16.9454C154.171 17.0198 154.085 17.2426 153.843 17.3146C153.573 17.3962 153.084 17.306 152.62 17.4535C151.835 17.6996 151.799 18.226 151.312 18.4073C150.83 18.5891 149.996 18.4983 149.368 18.8168C149.297 18.8893 149.225 18.9617 149.153 19.0341C149.239 19.1439 149.326 19.2536 149.413 19.3633C149.081 19.4952 148.905 19.2695 148.605 19.3283C148.255 19.3964 148.123 19.6727 147.883 19.7208C147.686 19.76 147.379 19.6225 147.122 19.686C146.747 19.7775 146.881 20.0388 146.696 20.1288C146.629 20.165 145.188 20.5946 145.097 20.6111C144.455 20.7383 144.326 20.3675 143.826 20.4196C142.421 20.5675 141.018 21.0994 139.724 21.3974C139.134 21.5323 138.531 21.5888 137.945 21.5993C138.73 20.5044 136.626 19.9878 137.566 21.433C136.895 21.2923 136.467 21.7621 135.846 21.7582C135.449 21.7545 135.155 21.5697 134.588 21.6313C133.58 21.7427 132.513 22.4429 132.144 21.3647C130.989 21.6519 129.906 21.317 129.552 22.3132C129.251 22.3909 128.439 21.853 128.092 21.7898C127.757 21.7376 125.269 21.5617 124.863 21.549C124.457 21.5436 123.74 21.5383 123.393 21.6265C122.97 21.7357 122.671 22.7488 121.907 21.5662C121.018 21.6582 120.693 21.6204 119.864 21.4681C119.716 21.4403 119.703 21.2646 119.617 21.2626C119.439 21.2588 119.132 21.3813 118.811 21.388C118.283 21.3989 117.993 21.0187 118.033 21.5841C117.68 21.6664 117.325 21.7471 116.967 21.8262C116.848 21.7122 116.729 21.5979 116.611 21.4835C116.415 21.5931 116.228 21.7026 116.036 21.8115C116.296 21.0094 114.967 21.4185 115.363 21.909C114.697 21.7022 114.029 21.4896 113.36 21.2709C113.517 20.3554 111.894 21.048 111.98 21.559C111.903 21.5516 111.826 21.5442 111.749 21.5367C111.096 21.2319 110.454 21.3737 109.64 21.1214C108.828 20.8678 108.925 20.7857 108.723 20.3341C108.529 20.3364 108.335 20.3382 108.14 20.3394C106.985 21.3739 107.423 19.3971 105.568 20.0435C105.128 19.2402 103.73 19.418 102.788 19.4829C102.679 19.4907 102.654 19.631 102.506 19.6504C102.141 19.6964 101.312 19.3613 101.259 19.8186C100.984 19.6333 100.71 19.4468 100.436 19.2591C100.176 19.2947 99.9149 19.3293 99.6532 19.3629C99.6266 19.504 99.6001 19.645 99.5735 19.7861C99.1734 19.2091 98.3563 19.2324 97.9967 19.0354C97.9265 18.9961 97.9516 18.7992 97.7297 18.696C97.4707 18.5746 96.9491 18.5192 96.6366 18.3845C96.4613 18.5696 96.2851 18.7543 96.1082 18.9385C95.4933 18.9181 95.4201 18.3046 95.0872 18.178C95.0268 18.1569 93.8862 17.9163 93.8279 17.9126C93.3122 17.8801 93.3293 18.4013 91.9238 17.9126C91.6735 17.8244 91.5127 17.6028 91.284 17.5317C90.8783 17.4076 89.5501 17.4235 89.3539 17.7366C88.993 17.1645 87.6314 16.9336 87.2833 16.6837C87.1789 16.6083 87.2399 16.3288 86.9015 16.1548C86.6244 16.013 85.8166 15.9847 85.4676 15.8244C85.097 15.6536 85.0386 15.3793 84.8725 15.3035C84.7156 15.232 84.5018 15.3619 84.2804 15.2822C83.5901 15.03 83.0707 14.5073 82.5269 14.2966C82.5185 14.2934 82.5102 14.2902 82.5019 14.2871C81.7402 14.004 80.8771 14.2905 80.1643 14.3059C80.0187 14.2152 79.9037 14.0449 79.7382 13.9862C77.6957 13.2564 75.3824 12.4268 73.2881 11.7259C72.3268 11.3935 70.0587 10.0309 70.4032 11.4532C70.0046 11.5807 67.6308 10.4982 67.1568 10.398C66.676 10.288 66.2483 10.4379 65.8712 10.3659C64.7283 10.1495 63.9846 9.8386 62.5442 9.80005C62.175 9.79167 61.747 10.0016 61.536 9.96501C61.2818 9.92016 61.0481 9.61416 60.7202 9.54767C59.949 9.39038 58.4375 9.27325 57.6868 9.13759C57.5491 9.11175 57.5284 8.87355 57.3382 8.77728C56.6009 8.40126 55.7173 8.33455 55.7948 9.09362C54.8353 8.56657 53.8746 8.86751 52.9598 8.81837C50.9936 8.69645 47.4286 8.36156 45.7291 8.65983C44.6416 8.84316 44.6665 9.17393 43.0975 8.8891C42.753 8.82696 42.3968 8.74377 41.966 8.67373C40.9568 8.5089 40.0275 7.91706 39.2921 8.69076C38.1593 8.5399 37.2887 8.72344 36.4358 8.13595C36.3504 8.29435 36.2586 8.45327 36.1703 8.6121C36.0324 8.62457 35.8949 8.63727 35.7577 8.65017C35.7051 8.50746 35.6525 8.36479 35.5997 8.22214C34.6005 8.24932 33.4503 8.94456 32.6037 9.01915C31.213 9.12731 27.6797 9.3105 26.3101 9.32138C25.6028 9.318 25.6157 9.63307 25.1281 9.0573C24.9842 9.12446 24.8331 9.19301 24.6815 9.26196C24.6043 9.41637 24.5277 9.57081 24.4518 9.72527C23.5461 9.87459 22.5073 9.8305 21.6332 9.99236C20.1032 10.2716 17.9013 11.1173 16.3049 11.2262C15.9167 11.2491 15.3761 11.0779 14.9898 11.1741C14.44 11.3115 14.4205 11.8112 13.7578 11.9872C12.5268 12.3084 10.2735 12.3489 9.12285 12.7432C8.80239 12.8523 8.72343 13.0636 8.48276 13.1575C7.54273 13.5334 6.79207 13.7613 5.96989 14.3354C4.91588 14.2125 4.71926 13.656 4.25854 13.1834C3.84367 12.8506 2.79699 12.125 2.53137 11.8066C2.47529 11.6789 2.40341 11.5358 2.40789 11.3584C2.42962 11.1743 2.40417 11.0056 2.29184 10.8848C3.43696 10.1793 4.00719 10.2734 5.16843 10.3343C6.94756 9.71843 8.80533 9.14372 10.616 8.63114C10.8363 8.74468 11.0439 8.86215 11.247 8.98118C11.2471 8.98153 11.2472 8.98189 11.2473 8.98224C11.9799 8.98639 12.1784 8.49012 12.5457 8.29489C15.9363 6.40849 23.4436 5.70569 27.5472 5.3348C28.4153 5.23574 31.2932 4.69164 31.9262 4.91375C32.0914 4.96936 32.1595 5.22257 32.3293 5.21824C33.8186 4.92735 35.3038 4.66354 36.7976 4.42599C39.9286 4.65269 43.0761 4.26147 46.2291 4.26353C54.6749 4.26534 63.0974 5.12066 71.2045 7.16088C72.7727 7.55297 74.7974 7.89807 76.285 8.47003C76.8998 8.70646 77.0386 9.18083 77.9566 9.14303C77.9318 9.25246 77.9071 9.36188 77.8823 9.47129C78.6406 9.56831 79.1882 9.4775 79.9992 9.72104C80.6764 9.92055 82.4634 10.5327 83.0451 10.7974C83.3468 10.9317 83.1589 11.0848 83.4469 11.1912C83.5043 11.2122 83.5705 11.2325 83.6439 11.2525C84.1848 11.3984 85.1213 11.5005 85.6979 11.7034C86.2902 11.9142 87.2045 12.4793 87.6778 12.5977C89.3924 13.0338 91.2714 13.2299 93.0472 13.8131C93.5332 13.9742 94.0984 14.4024 94.2551 14.4349C94.561 14.4977 94.7157 14.2654 94.9258 14.2838C96.0023 14.3827 97.5561 15.067 98.5681 15.295C101.915 16.0595 105.472 16.5289 108.858 16.972C110.985 17.2647 114.561 17.5063 116.517 17.7875C116.941 17.8506 116.818 18.1334 117.18 18.1493C117.584 18.1665 117.808 17.9797 117.995 17.9708C119.283 17.916 122.151 17.7547 123.349 17.9339C123.584 17.9699 123.757 18.1936 123.898 18.1908C123.969 18.1898 124.128 18.0335 124.35 18.0138C126.291 17.8375 127.737 17.869 129.626 17.8092C133.304 17.6899 137.482 16.9547 141.318 16.5053C142.166 16.4065 142.8 16.7511 142.916 16.7272C143.171 16.6747 143.27 16.3534 143.779 16.1882C145.483 15.642 147.794 15.5027 149.414 14.9791C150.174 14.7326 151.22 14.0914 151.949 13.8206C152.561 13.6008 154.04 13.3637 154.283 13.1213C154.427 12.9767 154.419 12.6418 154.608 12.5471ZM133.957 21.4397C134.03 20.9122 132.817 21.4543 133.311 21.6904C133.424 21.7438 133.94 21.5771 133.957 21.4397ZM77.2436 12.2015C77.2095 12.3464 77.1754 12.4913 77.1412 12.6361C77.311 12.625 77.4812 12.6144 77.6517 12.6043C77.5938 12.492 77.5356 12.3797 77.4773 12.2675C77.3994 12.2454 77.3215 12.2234 77.2436 12.2015ZM163.478 9.67425C163.53 9.66121 163.487 9.8591 163.523 9.89009C163.673 10.0249 163.655 10.17 163.779 10.3354C163.879 10.4637 164.126 10.5795 164.294 10.8645C164.473 11.1565 164.481 11.564 163.984 12.0225C163.984 12.0225 163.984 12.0225 163.984 12.0226C163.974 12.0317 163.965 12.0409 163.955 12.0502C163.765 12.224 163.518 12.3736 163.309 12.5772C163.1 12.7803 161.778 14.1179 161.707 14.1969C161.623 14.3059 161.834 13.8589 161.789 13.8541C161.763 13.8543 161.646 13.9816 161.607 13.9923C161.477 14.0252 161.493 13.8898 161.191 14.2521C161.281 14.022 161.364 13.7885 161.441 13.5521C161.339 13.6266 161.406 13.2983 161.369 13.2998C161.337 13.3004 161.237 13.4667 161.207 13.4622C161.173 13.4581 161.218 13.2474 161.146 13.2486C161.028 13.2497 160.802 13.7018 160.719 13.7349C160.637 13.7709 160.66 13.4817 160.515 13.6133C160.484 13.6605 160.453 13.7078 160.422 13.7551C160.38 13.8737 160.338 13.9922 160.296 14.1107C160.237 14.1494 160.32 13.9053 160.287 13.8865C160.248 13.8643 160.135 14.0816 160.107 14.0693C160.085 14.059 160.127 13.8647 160.091 13.8638C160.041 13.862 159.948 14.129 159.906 14.1693C159.89 14.1849 159.668 14.266 159.657 14.2645C159.581 14.2472 159.711 13.8829 159.661 13.8284C159.519 13.6766 159.246 13.9108 159.049 13.9673C158.961 13.9927 158.894 13.9458 158.841 13.8625C159.277 12.9653 159.262 12.1468 158.864 13.6473C158.851 13.4101 158.667 13.7895 158.613 13.6974C158.579 13.6376 158.613 13.4224 158.54 13.4046C158.409 13.374 158.084 13.9112 158.38 12.8474C158.168 12.9842 158.16 12.563 157.818 13.4767C157.762 13.5218 157.833 12.9366 157.811 12.8476C157.792 12.764 157.538 12.4143 157.492 12.3859C157.444 12.3564 157.357 12.3141 157.288 12.3831C157.202 12.468 156.882 13.4271 157.11 12.2635C156.966 12.3214 156.933 12.277 156.86 12.1134C156.847 12.0838 156.893 11.9146 156.881 11.9112C156.858 11.9045 156.783 12.0179 156.736 12.0212C156.66 12.0266 156.72 11.6603 156.576 12.205C156.505 12.2831 156.433 12.3613 156.362 12.4395C156.375 12.3303 156.388 12.221 156.401 12.1117C156.345 12.2191 156.289 12.3264 156.232 12.4338C156.479 11.6561 156.176 12.0715 156.108 12.5382C156.064 12.3509 156.018 12.1633 155.972 11.9759C156.228 11.0851 155.804 11.8194 155.69 12.3107C155.68 12.3073 155.67 12.3038 155.66 12.3004C155.636 12.0384 155.501 12.2108 155.434 12.0217C155.366 11.8326 155.4 11.7481 155.476 11.3272C155.443 11.3438 155.411 11.3604 155.378 11.3771C154.942 12.4705 155.483 10.5203 155.022 11.3262C155.134 10.5962 154.851 10.9211 154.672 11.105C154.652 11.1263 154.616 11.2643 154.586 11.3019C154.513 11.3922 154.439 11.1841 154.329 11.6305C154.321 11.4911 154.313 11.3515 154.305 11.2121C154.251 11.2846 154.197 11.3571 154.143 11.4296C154.107 11.5687 154.072 11.7078 154.036 11.8469C154.091 11.3558 153.939 11.5111 153.915 11.3844C153.911 11.3588 153.957 11.1663 153.938 11.1057C153.916 11.034 153.831 11.0729 153.801 11.0015C153.73 11.2097 153.658 11.4179 153.587 11.6262C153.477 11.7212 153.591 11.1526 153.554 11.097C153.547 11.0872 153.38 11.0882 153.369 11.0981C153.277 11.176 153.177 11.6594 153.004 11.5074C152.974 11.4801 152.986 11.3074 152.956 11.2927C152.903 11.2667 152.639 11.6001 152.54 11.944C152.579 11.4925 152.351 11.6247 152.328 11.4858C152.321 11.4431 152.385 11.1654 152.35 11.0941C152.321 11.036 152.162 11.232 152.119 11.1822C152.074 11.1284 152.112 10.8909 152.091 10.8684C152.072 10.8474 152.004 11.03 151.973 11.0212C151.876 10.9905 151.86 10.6662 151.783 10.6416C151.672 10.6052 151.437 11.1373 151.282 11.3613C151.267 11.3195 151.273 11.1945 151.249 11.1874C150.948 11.0959 150.63 10.9108 150.351 10.7175C150.221 10.6283 150.049 9.7877 149.841 11.0713C149.738 11.2802 149.502 10.6859 149.434 10.6614C149.367 10.6373 149.258 10.8503 149.203 10.8407C149.038 10.8115 148.963 10.6211 148.719 10.7708C148.655 10.81 148.537 11.0649 148.507 11.0544C148.471 11.0411 148.493 10.7725 148.45 10.7446C148.345 10.6801 148.114 10.7146 148.017 10.6438C147.999 10.6303 148.047 10.4013 148.036 10.3234C147.993 10.0192 147.865 10.0139 147.712 10.7451C147.67 10.2988 147.446 10.6425 147.309 10.6337C147.021 10.6138 146.555 10.3205 146.237 10.5652C146.036 10.7197 145.962 11.0464 145.805 10.7098C145.77 10.6348 145.74 10.5383 145.697 10.4487C145.596 10.238 145.617 9.6052 145.326 10.301C145.218 10.0741 145.058 10.1749 145.095 9.52617C145.043 9.67076 144.991 9.81533 144.939 9.95988C144.918 9.95849 144.898 9.9571 144.877 9.95572C144.907 9.81285 144.937 9.67 144.967 9.52714C144.837 9.45314 144.511 9.98795 144.396 9.95326C144.192 9.89339 143.745 9.53254 143.604 9.28884C143.528 9.15968 143.439 9.4591 143.553 8.82424C143.519 8.86099 143.484 8.89772 143.45 8.93445C143.398 9.06592 143.346 9.19737 143.293 9.32878C143.159 9.29699 143.081 9.04735 142.945 9.01034C142.708 8.94638 142.27 9.21863 142.097 8.8965C142.058 8.8165 142.075 8.51725 142.018 8.50227C141.934 8.47931 141.774 8.93337 141.651 8.90139C141.442 8.84646 141.297 8.19945 141.085 8.15872C141.025 8.14794 140.931 8.30281 140.886 8.30432C140.705 8.31777 140.53 8.2241 140.224 8.37708C140.225 7.85623 140.524 7.33638 140.784 6.79267C140.963 6.37155 141.49 5.45716 141.745 5.15122C141.915 4.9297 142.116 4.63246 142.301 4.38709C142.359 4.1291 142.244 4.38243 142.115 4.79905C142.268 4.85527 142.476 4.92 142.693 4.98054C142.655 5.14493 142.617 5.3097 142.581 5.47481C142.581 5.47515 142.581 5.4755 142.581 5.47584C142.603 5.68909 142.785 5.2952 142.865 5.21895C143.596 4.48196 144.308 5.45341 144.842 5.70549C144.948 5.75808 145.394 5.64276 145.409 5.92792C145.411 6.00186 145.352 6.25336 145.371 6.26998C145.606 6.17261 145.845 6.07561 146.088 5.97903C146.397 6.47236 146.921 6.26116 147.348 6.30251C148.526 6.41977 149.708 6.49198 150.826 6.82407C151.041 6.88842 151.365 6.76732 151.55 6.94036C151.627 7.01222 151.567 7.42462 151.757 7.15231C151.732 7.2613 151.707 7.37029 151.682 7.47928C151.816 7.37282 151.942 7.14138 152.063 7.14413C152.165 7.14681 152.426 7.19309 152.501 7.25548C152.541 7.28707 152.475 7.48604 152.517 7.49511C152.588 7.50909 152.808 7.2655 152.907 7.28949C152.995 7.31122 153.088 7.58167 153.164 7.56457C153.439 7.50477 153.794 7.22513 154.034 7.38332C154.1 7.42764 154.127 7.71373 154.151 7.71206C154.199 7.70785 154.276 7.45586 154.314 7.43054C154.509 7.30297 154.669 7.66607 154.814 7.71578C155.285 7.87705 155.831 7.89987 156.303 8.07524C156.603 8.18625 157.119 8.27825 157.353 8.54897C157.402 8.60711 157.309 8.88033 157.359 8.89452C157.416 8.91019 157.499 8.73119 157.529 8.72342C157.737 8.66683 158.206 8.5963 158.322 8.83802C158.345 8.88435 158.305 9.10811 158.325 9.11306C158.335 9.11597 158.4 8.97463 158.436 8.96869C158.744 8.91415 158.938 9.06625 159.19 9.19952C159.677 9.45493 160.388 9.38523 160.887 9.73083C160.996 9.80623 160.931 10.2585 160.948 10.2601C160.989 10.2657 161.118 9.99309 161.221 9.95265C161.557 9.81825 161.796 10.2591 162.095 10.2252C162.237 10.2053 162.579 9.94049 162.745 9.92565C162.881 9.91468 163.041 10.1611 163.178 10.0444C163.255 9.97035 163.42 9.68994 163.478 9.67425ZM158.541 13.1412C158.716 12.6516 158.424 13.0114 158.399 13.2963C158.393 13.3603 158.496 13.2683 158.541 13.1412ZM151.054 10.2041C151.021 10.3487 150.988 10.4934 150.954 10.6381C150.991 10.5833 151.028 10.5286 151.064 10.4739C151.073 10.3842 151.081 10.2945 151.09 10.2047C151.078 10.2045 151.066 10.2043 151.054 10.2041ZM149.629 34.0578C149.637 34.1046 149.459 34.0155 149.427 34.0374C149.295 34.1278 149.155 34.0865 149.008 34.1457C148.789 34.2333 148.601 34.8686 147.554 34.0133C147.554 34.0132 147.554 34.0132 147.554 34.0132C147.544 34.0048 147.533 33.9963 147.523 33.9876C147.325 33.823 147.14 33.6048 146.919 33.4146C146.699 33.2242 145.239 32.0385 145.204 31.9144C145.164 31.7433 145.7 31.8496 145.719 31.7918C145.732 31.7523 145.63 31.6068 145.639 31.549C145.665 31.3624 145.815 31.3763 145.547 30.97C145.773 31.08 145.999 31.19 146.226 31.2999C146.186 31.1695 146.508 31.2849 146.524 31.2381C146.536 31.1996 146.4 31.06 146.418 31.0238C146.437 30.9826 146.642 31.0624 146.668 30.9803C146.712 30.8465 146.336 30.5088 146.337 30.4072C146.337 30.3018 146.63 30.3769 146.559 30.1836C146.524 30.1384 146.489 30.0931 146.454 30.0478C146.351 29.9756 146.248 29.9033 146.145 29.8311C146.133 29.7534 146.346 29.8988 146.381 29.8643C146.421 29.8238 146.25 29.6469 146.275 29.618C146.296 29.5945 146.475 29.6854 146.491 29.6462C146.515 29.5896 146.288 29.4208 146.268 29.3627C146.26 29.3399 146.288 29.0591 146.294 29.0474C146.35 28.9622 146.655 29.2001 146.732 29.1592C146.944 29.0447 146.847 28.6696 146.887 28.435C146.904 28.3302 146.982 28.2699 147.088 28.2379C147.763 28.9764 148.562 29.2157 147.287 28.3284C147.523 28.3886 147.245 28.0679 147.361 28.0376C147.436 28.0182 147.63 28.1205 147.682 28.0476C147.774 27.9174 147.411 27.3965 148.295 28.0594C148.262 27.7919 148.674 27.9201 147.963 27.2516C147.947 27.1767 148.474 27.4485 148.569 27.4566C148.659 27.464 149.11 27.3267 149.161 27.2864C149.213 27.2461 149.297 27.1693 149.265 27.0735C149.226 26.9541 148.473 26.2782 149.464 26.9322C149.479 26.7631 149.537 26.7458 149.725 26.7317C149.76 26.7291 149.897 26.838 149.906 26.8274C149.924 26.8054 149.854 26.6859 149.874 26.6367C149.907 26.5557 150.223 26.7523 149.78 26.4029C149.742 26.3005 149.704 26.1981 149.665 26.0957C149.762 26.1496 149.858 26.2035 149.955 26.2574C149.881 26.1596 149.808 26.0618 149.735 25.9641C150.345 26.5069 150.103 26.0421 149.698 25.798C149.896 25.8222 150.094 25.8464 150.293 25.8706C151.001 26.4686 150.524 25.757 150.12 25.4543C150.128 25.4453 150.137 25.4364 150.145 25.4274C150.403 25.5006 150.309 25.2971 150.52 25.3009C150.73 25.3048 150.792 25.3713 151.147 25.6104C151.148 25.5713 151.148 25.5321 151.149 25.4929C150.346 24.6289 151.894 25.9314 151.374 25.1509C151.999 25.5476 151.837 25.1356 151.756 24.8834C151.746 24.854 151.636 24.7636 151.616 24.7185C151.569 24.6094 151.799 24.6178 151.44 24.3305C151.573 24.3774 151.707 24.4244 151.84 24.4713C151.8 24.388 151.76 24.3046 151.72 24.2212C151.609 24.1306 151.498 24.0399 151.387 23.9492C151.816 24.1975 151.749 23.9822 151.878 24.0087C151.904 24.0142 152.059 24.1375 152.125 24.1423C152.203 24.1485 152.21 24.0474 152.291 24.0456C152.134 23.8909 151.977 23.7361 151.821 23.5814C151.788 23.4329 152.258 23.7735 152.328 23.759C152.34 23.7562 152.423 23.5887 152.42 23.5732C152.395 23.4489 151.998 23.1545 152.228 23.0411C152.269 23.0212 152.422 23.1032 152.451 23.0786C152.502 23.0352 152.329 22.6358 152.062 22.3974C152.459 22.6185 152.453 22.3365 152.594 22.3694C152.636 22.3798 152.86 22.5569 152.944 22.5499C153.012 22.5444 152.913 22.305 152.981 22.2825C153.054 22.2593 153.254 22.3931 153.285 22.3816C153.314 22.3706 153.18 22.2289 153.205 22.201C153.283 22.116 153.59 22.2321 153.652 22.1652C153.742 22.0689 153.373 21.6164 153.246 21.3702C153.292 21.3725 153.404 21.4294 153.423 21.4079C153.661 21.1444 153.996 20.9011 154.317 20.703C154.465 20.6107 155.327 20.7842 154.253 20.0486C154.114 19.8604 154.783 19.8679 154.839 19.8114C154.896 19.7548 154.755 19.5589 154.792 19.5084C154.904 19.3561 155.117 19.3594 155.106 19.0538C155.102 18.9744 154.929 18.751 154.954 18.7258C154.984 18.696 155.219 18.8294 155.267 18.7977C155.379 18.7209 155.465 18.4772 155.58 18.4095C155.601 18.3975 155.787 18.5393 155.865 18.5602C156.166 18.6425 156.237 18.5163 155.643 18.0632C156.075 18.2053 155.871 17.8437 155.948 17.7116C156.113 17.4335 156.616 17.093 156.549 16.6788C156.507 16.4176 156.245 16.2091 156.632 16.1918C156.718 16.1879 156.822 16.1984 156.925 16.1929C157.167 16.1805 157.741 16.4562 157.243 15.8881C157.507 15.8701 157.492 15.6716 158.071 15.9711C157.963 15.862 157.854 15.753 157.746 15.6439C157.757 15.6243 157.768 15.6047 157.779 15.5851C157.896 15.6721 158.014 15.759 158.131 15.8459C158.262 15.7476 157.926 15.2118 158.014 15.1103C158.162 14.9397 158.711 14.6367 158.999 14.5954C159.152 14.5736 158.914 14.3711 159.452 14.7271C159.434 14.6792 159.415 14.6312 159.397 14.5832C159.298 14.4819 159.199 14.3806 159.1 14.2793C159.188 14.1628 159.467 14.167 159.553 14.058C159.71 13.8591 159.651 13.3198 160.008 13.2838C160.098 13.275 160.373 13.3968 160.41 13.3463C160.464 13.2731 160.106 12.9515 160.172 12.8565C160.286 12.6934 160.953 12.7606 161.039 12.5881C161.065 12.537 160.943 12.4036 160.952 12.3616C160.991 12.1846 161.086 12.0911 160.97 11.7961C161.432 11.9591 161.884 12.3469 162.382 12.6871C162.757 12.9438 163.647 13.5158 163.965 13.7539C164.189 13.9212 164.438 14.1828 164.687 14.3642C164.75 14.6736 164.488 14.5676 164.051 14.4196C163.876 14.6619 163.7 14.9041 163.524 15.1464C163.377 15.0614 163.23 14.9764 163.083 14.8914C163.083 14.8911 163.083 14.8909 163.082 14.8907C162.86 14.8571 163.163 15.1679 163.2 15.2779C163.551 16.3303 162.245 16.7687 161.75 17.2068C161.644 17.3015 161.529 17.7984 161.258 17.7008C161.187 17.6753 160.982 17.5172 160.957 17.5306C160.926 17.8117 160.895 18.0927 160.863 18.3737C160.244 18.4976 160.181 19.0981 159.918 19.5181C159.205 20.6545 158.53 21.8034 157.653 22.7777C157.484 22.9657 157.431 23.3368 157.177 23.4495C157.072 23.4968 156.723 23.2675 156.877 23.5684C156.789 23.4987 156.702 23.4291 156.614 23.3594C156.644 23.5366 156.793 23.7562 156.729 23.8755C156.675 23.9756 156.5 24.2153 156.404 24.2648C156.355 24.2909 156.206 24.1439 156.176 24.1816C156.127 24.2471 156.24 24.5653 156.169 24.6527C156.104 24.7319 155.809 24.7132 155.786 24.7961C155.702 25.0937 155.783 25.5584 155.518 25.7316C155.445 25.7791 155.167 25.6907 155.156 25.7157C155.136 25.7651 155.33 25.9434 155.335 25.9913C155.357 26.2343 154.943 26.2464 154.826 26.3707C154.443 26.7754 154.159 27.3041 153.771 27.702C153.526 27.9535 153.195 28.4328 152.837 28.5575C152.76 28.5843 152.548 28.3875 152.511 28.4328C152.47 28.483 152.599 28.6334 152.592 28.6668C152.545 28.8989 152.404 29.3819 152.125 29.4092C152.071 29.4142 151.879 29.2924 151.866 29.3104C151.858 29.3193 151.961 29.4368 151.951 29.4745C151.858 29.808 151.643 29.9299 151.405 30.1368C150.952 30.5337 150.738 31.2484 150.223 31.6337C150.111 31.7176 149.706 31.5071 149.697 31.5248C149.677 31.563 149.893 31.774 149.897 31.8868C149.907 32.2601 149.417 32.3519 149.364 32.6555C149.337 32.8053 149.517 33.1881 149.5 33.3427C149.486 33.4663 149.214 33.5625 149.315 33.7043C149.375 33.7902 149.619 34.0059 149.629 34.0578ZM147.937 28.1325C148.328 28.4758 148.117 28.0511 147.854 27.9313C147.795 27.9044 147.836 28.0434 147.937 28.1325ZM154.428 21.6159C154.312 21.5234 154.196 21.4309 154.08 21.3383C154.111 21.3973 154.143 21.4562 154.175 21.5152C154.253 21.5605 154.331 21.6058 154.409 21.6511C154.416 21.6394 154.422 21.6277 154.428 21.6159Z" fill="#F1F0E3" style="fill:#F1F0E3;fill:color(display-p3 0.9451 0.9412 0.8902);fill-opacity:1;"/>
</svg>
