<svg width="100" height="100" viewBox="0 0 100 100" fill="none" xmlns="http://www.w3.org/2000/svg">
<path d="M95.4322 6.99265C95.478 6.82373 95.2977 6.55931 95.2974 6.36869C95.2943 5.54556 95.1726 5.23355 95.1244 4.48145C95.0648 3.37941 95.3561 0.00349076 93.9955 0C93.9954 0 93.9954 0 93.9954 0C93.9821 2.79717e-06 93.9687 0.000330118 93.9551 0.000981642C93.6977 0.013033 93.4163 0.298246 93.1248 0.339293C92.8333 0.380248 90.9531 0.345152 90.8452 0.73889C90.7047 1.31102 91.1631 2.67888 91.1324 2.9793C91.1126 3.18484 90.9348 3.43288 90.8964 3.69305C90.7718 4.53069 90.8786 4.97446 90.3792 5.69788C90.6092 6.00824 90.8383 6.31369 91.0647 6.6439C90.9288 7.04302 91.2119 7.67436 91.1771 7.91791C91.1488 8.11748 90.9475 8.22113 90.9234 8.42814C90.8953 8.66013 91.0767 9.03356 91.0107 9.4523C90.9026 10.1381 90.3877 10.2135 90.2862 10.6153C90.1808 11.0313 90.3882 11.7136 90.1528 12.2268C90.0903 12.2872 90.0272 12.3528 89.9643 12.4156C89.845 12.3519 89.7257 12.2884 89.6063 12.225C89.5175 12.4963 89.7597 12.6445 89.7347 12.8999C89.7052 13.2002 89.4444 13.3228 89.421 13.5228C89.402 13.6866 89.5683 13.9329 89.5287 14.143C89.4719 14.4492 89.2004 14.3448 89.1261 14.5027C89.0986 14.5679 88.7745 15.7534 88.7607 15.8186C88.6733 16.3305 89.0484 16.4333 89.0178 16.8475C88.9342 17.9725 88.4089 19.1454 88.0885 20.1651C87.9448 20.6246 87.8678 21.115 87.8302 21.5897C88.9545 21.0606 89.3609 22.8478 87.9769 21.9143C88.081 22.476 87.5924 22.744 87.5495 23.2435C87.5196 23.5757 87.6763 23.8482 87.5595 24.304C87.3506 25.1154 86.5313 25.8246 87.5351 26.3392C87.0966 27.2238 87.2475 28.1334 86.2162 28.1858C86.0898 28.4057 86.4564 29.1969 86.4468 29.4909C86.4437 29.7727 86.0552 31.7971 85.9544 32.1113C85.8599 32.4301 85.6807 32.981 85.5053 33.212C85.2857 33.5054 84.2534 33.389 85.1335 34.3979C84.7802 35.0533 84.7162 35.307 84.5885 35.9902C84.5652 36.1137 84.7223 36.1928 84.6951 36.2596C84.639 36.3971 84.4232 36.581 84.307 36.8178C84.1159 37.2068 84.3573 37.578 83.8583 37.3121C83.6592 37.5371 83.4625 37.7527 83.2588 37.9803C83.3173 38.1171 83.3755 38.2541 83.4334 38.3914C83.262 38.4848 83.0905 38.5772 82.9189 38.6686C83.7377 38.8407 82.8459 39.6303 82.5687 39.1128C82.4889 39.6878 82.4031 40.2612 82.3115 40.8328C83.1797 41.1725 81.8658 41.9713 81.4656 41.6411C81.4379 41.6973 81.4102 41.7535 81.3824 41.8095C81.355 42.4048 80.9316 42.7812 80.756 43.4549C80.577 44.1318 80.6851 44.118 80.9579 44.5064C80.8586 44.6353 80.7589 44.7636 80.659 44.8914C79.2294 45.0402 81.0628 45.9256 79.5551 46.7059C79.9455 47.4858 79.0084 48.2698 78.4126 48.7782C78.3433 48.8379 78.2228 48.7617 78.1225 48.8354C77.88 49.0169 77.6326 49.7209 77.2637 49.4441C77.2361 49.7249 77.2069 50.0057 77.1761 50.2867C76.9933 50.406 76.8049 50.532 76.6186 50.6534C76.5013 50.5706 76.3841 50.4877 76.2668 50.4049C76.432 51.0254 75.8995 51.4491 75.8064 51.7761C75.7882 51.8416 75.9406 51.9691 75.867 52.1617C75.7819 52.3876 75.4778 52.7007 75.3616 52.9583C75.1217 52.9126 74.8822 52.866 74.6432 52.8184C74.2539 53.135 74.6079 53.6229 74.4666 53.8786C74.4455 53.921 73.8152 54.6532 73.7731 54.6835C73.4311 54.9505 73.1269 54.553 72.4379 55.5495C72.3149 55.7266 72.3334 55.9696 72.2128 56.1224C72.0004 56.3952 71.0325 56.9172 70.7109 56.7385C70.7716 57.3498 69.8839 58.0554 69.755 58.3811C69.7167 58.4806 69.9105 58.6915 69.7456 58.956C69.6121 59.1714 69.0079 59.4743 68.818 59.7239C68.6171 59.9905 68.7048 60.2424 68.6124 60.3605C68.5251 60.4714 68.2958 60.4282 68.1598 60.5661C67.7382 60.9981 67.5645 61.6024 67.2236 61.9376C66.7308 62.423 65.8954 62.4189 65.3056 62.6137C65.2266 62.7361 65.2066 62.9204 65.0975 63.0205C63.7324 64.2809 62.2263 65.6805 60.8226 66.9249C60.184 67.5039 58.915 69.3978 58.6107 68.0118C58.2447 68.0072 56.7688 69.6877 56.4259 69.9202C56.0883 70.1583 55.6877 70.1457 55.4167 70.3203C54.597 70.8468 54.0966 71.3671 52.977 71.8168C52.6871 71.9322 52.264 71.8656 52.1108 71.961C51.9265 72.0766 51.8609 72.4256 51.6256 72.5834C51.0577 72.9639 49.9133 73.5119 49.3661 73.862C49.2665 73.9268 49.3422 74.1521 49.2278 74.2976C48.783 74.8652 48.1106 75.1891 47.8798 74.4668C47.3213 75.2389 46.4409 75.2514 45.7294 75.5749C44.2374 76.2684 41.5342 77.6709 40.0708 77.9233C39.1492 78.0864 39.0498 77.7695 37.9137 78.5224C37.6599 78.6892 37.4217 78.8727 37.1054 79.0731C36.3718 79.5405 35.8395 80.3886 34.9839 79.8973C34.1632 80.3883 33.4085 80.494 32.9315 81.318C32.8053 81.198 32.6795 81.0777 32.5541 80.9572C32.4425 80.9889 32.3309 81.0204 32.2194 81.0517C32.2289 81.2016 32.2382 81.3516 32.2474 81.5017C31.4603 81.7914 30.2988 81.5129 29.614 81.713C28.4834 82.057 25.614 83.0382 24.5635 83.471C24.0108 83.7054 23.9132 83.4061 23.7234 84.1063C23.5867 84.0908 23.4435 84.0765 23.3023 84.0615C23.1899 83.942 23.0779 83.8223 22.9664 83.7024C22.2132 83.8588 21.3706 84.2515 20.6638 84.3831C19.3544 84.631 17.3541 84.5717 16.0639 85.0077C15.7405 85.1185 15.365 85.4623 15.0413 85.5011C14.5708 85.5573 14.397 85.0946 13.8105 85.1553C12.7566 85.2693 10.9362 86.005 9.92016 86.0321C9.62481 86.0412 9.47644 85.8717 9.27447 85.866C8.42414 85.8391 7.77201 85.8875 6.93016 85.6425C6.07761 86.1337 6.17033 86.7232 5.91445 87.331C5.72178 87.7897 5.11067 88.8501 5.02431 89.2474C4.96398 89.5271 5.20456 89.8832 5.11949 90.1912C6.19031 90.4214 6.65257 90.1359 7.53054 89.668C9.13238 89.6176 10.8052 89.5144 12.3879 89.3767C12.5184 89.1955 12.6485 89.0141 12.7782 88.8323C12.7782 88.8319 12.7781 88.8316 12.7781 88.8312C13.3777 88.5749 13.6907 88.9732 14.0426 89.0316C17.346 89.6411 23.5323 87.7894 26.8968 86.8031C27.6527 86.602 30.0755 86.1878 30.5146 85.7724C30.6261 85.667 30.5913 85.4082 30.727 85.3575C32.0135 85.1473 33.2609 84.9247 34.545 84.6658C36.9266 83.4635 39.5926 82.8299 42.0898 81.8544C48.8129 79.2311 55.2517 75.9181 61.0129 71.6557C62.1161 70.8422 63.6314 69.9227 64.6086 68.9655C65.0129 68.5696 64.9278 68.1034 65.6926 67.8647C65.6265 67.7742 65.5603 67.6837 65.4941 67.5932C66.0726 67.281 66.553 67.2039 67.1177 66.7416C67.5996 66.3511 68.7977 65.2782 69.1594 64.872C69.3482 64.6638 69.1286 64.5841 69.3181 64.405C69.6432 64.1009 70.5312 63.6387 70.9703 63.1953C71.3671 62.7985 71.8447 61.9586 72.1642 61.6701C73.3158 60.6357 74.7192 59.6001 75.7037 58.2702C75.977 57.9015 76.1393 57.2732 76.2348 57.1665C76.4231 56.9586 76.6806 57.0578 76.8252 56.9308C77.5689 56.2767 78.2075 54.9216 78.7483 54.1531C80.5194 51.6573 82.3613 48.9827 83.7834 46.3292C84.713 44.6304 86.1625 41.8302 86.7039 40.1104C86.8221 39.7419 86.5168 39.7184 86.6471 39.4237C86.7897 39.0997 87.0413 39.0078 87.1209 38.8629C87.6751 37.8797 88.7962 35.5805 88.9733 34.4812C89.0066 34.2775 88.8436 34.0627 88.8852 33.9488C88.9058 33.8911 89.0977 33.812 89.1769 33.6345C89.8726 32.069 90.1805 30.8143 90.607 29.1749C91.4141 26.0765 92.5438 22.4877 92.9749 19.076C93.0729 18.3161 92.7049 17.7803 92.7267 17.6744C92.7709 17.4549 93.0907 17.3606 93.2331 16.9196C93.7052 15.4637 93.6534 13.3035 93.945 11.8995C94.0918 11.2032 94.5614 10.2572 94.7022 9.55183C94.8174 8.99111 94.7604 7.62717 94.9414 7.3804C95.0519 7.23099 95.3807 7.17802 95.4322 6.99265ZM87.6829 24.8502C88.2116 24.8828 87.5394 25.77 87.3645 25.328C87.3253 25.2294 87.546 24.8423 87.6829 24.8502ZM63.8254 65.3427C63.7367 65.2233 63.6478 65.104 63.559 64.9848C63.7011 64.9453 63.8433 64.9053 63.9855 64.8647C63.9862 64.9816 63.9866 65.0986 63.9868 65.2157C63.9331 65.2581 63.8793 65.3004 63.8254 65.3427ZM21.8232 75.8881C21.8667 75.8961 21.7574 75.7311 21.7721 75.7026C21.8321 75.5819 21.7721 75.4523 21.8015 75.3174C21.845 75.1172 22.3863 74.9492 21.4464 73.9779C21.4463 73.9779 21.4463 73.9779 21.4463 73.9778C21.4371 73.9683 21.4277 73.9587 21.4182 73.949C21.2379 73.7652 21.0115 73.5931 20.8043 73.3883C20.5972 73.1834 19.2927 71.8285 19.1752 71.795C19.0147 71.7565 19.1973 72.2509 19.1485 72.2684C19.115 72.2802 18.9675 72.185 18.9168 72.192C18.753 72.2143 18.7899 72.3526 18.3807 72.1023C18.5164 72.3115 18.6521 72.5208 18.7878 72.73C18.6639 72.692 18.8201 72.99 18.7804 73.0037C18.7478 73.0149 18.6001 72.8885 18.5705 72.9047C18.5365 72.922 18.6415 73.1111 18.5719 73.1347C18.4585 73.1739 18.0935 72.8246 18.002 72.8239C17.9072 72.8233 18.0224 73.0937 17.8368 73.0261C17.7904 72.9937 17.744 72.9614 17.6975 72.929C17.6158 72.8333 17.534 72.7377 17.4522 72.642C17.3803 72.6302 17.5459 72.8282 17.5204 72.8594C17.4905 72.8961 17.3035 72.7374 17.2816 72.7603C17.2637 72.7791 17.3745 72.9442 17.3419 72.9588C17.2949 72.9807 17.1061 72.7702 17.0504 72.7506C17.0285 72.7431 16.7803 72.7664 16.7708 72.7724C16.7031 72.8225 16.9668 73.1054 16.9425 73.176C16.874 73.3707 16.5205 73.2779 16.3156 73.3118C16.224 73.3269 16.1825 73.3984 16.1709 73.4957C16.9453 74.1237 17.2905 74.8616 16.2846 73.6797C16.3771 73.8968 16.0432 73.6381 16.0347 73.7447C16.0295 73.8139 16.1531 73.9932 16.0959 74.0406C15.9936 74.1239 15.4658 73.7852 16.2059 74.6044C15.9598 74.5719 16.1421 74.9524 15.4247 74.2912C15.3548 74.2761 15.685 74.7639 15.7077 74.8516C15.729 74.9343 15.6785 75.3477 15.6506 75.395C15.6227 75.4424 15.5671 75.5183 15.4757 75.4879C15.3618 75.4509 14.6312 74.7522 15.3808 75.6704C15.231 75.6824 15.2248 75.7354 15.2427 75.9091C15.2459 75.9405 15.3663 76.068 15.3582 76.0761C15.3413 76.0924 15.2224 76.0271 15.1813 76.0449C15.1137 76.0743 15.3419 76.3669 14.9556 75.9566C14.8572 75.9203 14.7588 75.8841 14.6604 75.8478C14.7245 75.9371 14.7887 76.0263 14.8529 76.1156C14.7529 76.0473 14.653 75.9791 14.5531 75.9108C15.1408 76.4769 14.6831 76.2502 14.3976 75.8753C14.4515 76.0579 14.5055 76.2404 14.5594 76.423C15.2128 77.0804 14.4946 76.6345 14.1566 76.2604C14.1499 76.2679 14.1432 76.2754 14.1364 76.283C14.2442 76.5215 14.0458 76.4331 14.0834 76.6268C14.121 76.8205 14.191 76.8783 14.4639 77.2075C14.4287 77.2075 14.3935 77.2076 14.3584 77.2077C13.4501 76.4604 14.8741 77.8981 14.087 77.4122C14.5455 77.9906 14.1484 77.8381 13.908 77.7607C13.8801 77.7518 13.7808 77.6495 13.737 77.6307C13.6311 77.5861 13.6759 77.7977 13.3589 77.4645C13.4228 77.5878 13.4868 77.7111 13.5507 77.8344C13.4692 77.7969 13.3877 77.7594 13.3061 77.722C13.2064 77.6187 13.1067 77.5154 13.007 77.4122C13.3002 77.8093 13.0954 77.7458 13.1403 77.8651C13.1495 77.8892 13.2857 78.033 13.3007 78.0937C13.3189 78.1653 13.229 78.1707 13.2406 78.2456C13.0758 78.0998 12.911 77.954 12.7463 77.8082C12.6073 77.7771 12.9902 78.2123 12.9885 78.2765C12.988 78.2879 12.8506 78.3629 12.8362 78.3597C12.7202 78.3356 12.3908 77.968 12.3259 78.1778C12.3146 78.2154 12.4133 78.3573 12.3959 78.3838C12.3651 78.4307 11.9774 78.2672 11.7194 78.0192C11.983 78.3871 11.7281 78.3791 11.7805 78.5084C11.7968 78.548 11.9925 78.7554 11.9999 78.8327C12.006 78.8956 11.7744 78.802 11.7651 78.8642C11.756 78.9309 11.909 79.1162 11.9037 79.1449C11.8986 79.1718 11.7492 79.0472 11.728 79.0693C11.6642 79.1404 11.8186 79.4242 11.7684 79.4807C11.6963 79.563 11.229 79.2185 10.9866 79.0993C10.9962 79.1417 11.0656 79.2455 11.0494 79.2628C10.8509 79.48 10.6862 79.7861 10.5598 80.079C10.5007 80.2146 10.7968 81.0095 9.96028 80.0146C9.76821 79.8844 9.88351 80.5004 9.84176 80.5517C9.79998 80.603 9.60085 80.4721 9.56136 80.5056C9.44233 80.6067 9.47999 80.8034 9.20288 80.7898C9.13086 80.7859 8.90158 80.6244 8.88295 80.6469C8.86097 80.6744 9.01922 80.892 8.99845 80.9357C8.9475 81.0382 8.74204 81.1151 8.6997 81.2202C8.69237 81.2398 8.85028 81.4125 8.88169 81.4839C9.00471 81.7624 8.90267 81.8267 8.39829 81.2754C8.59619 81.674 8.23751 81.4828 8.13117 81.5528C7.90752 81.7019 7.68263 82.1621 7.29885 82.0968C7.0568 82.0556 6.82653 81.8123 6.87387 82.1687C6.88434 82.2478 6.91051 82.3428 6.92232 82.4378C6.9505 82.6609 7.29187 83.1917 6.69938 82.7274C6.72616 82.9706 6.545 82.9551 6.90857 83.4907C6.79279 83.3899 6.677 83.2891 6.56121 83.1883C6.54537 83.1984 6.52954 83.2084 6.5137 83.2185C6.61102 83.3273 6.70835 83.4361 6.80567 83.5449C6.73839 83.6647 6.20142 83.35 6.12439 83.4306C5.99482 83.5654 5.81101 84.0674 5.82059 84.3321C5.8257 84.4726 5.60479 84.2516 6.01272 84.7506C5.96653 84.7331 5.92034 84.7156 5.87415 84.6981C5.7669 84.6062 5.65965 84.5143 5.55239 84.4224C5.46177 84.5023 5.51082 84.7588 5.42666 84.8371C5.27301 84.9796 4.77782 84.9202 4.80344 85.2492C4.81012 85.3319 4.96442 85.5861 4.92502 85.6197C4.86788 85.6688 4.52007 85.3356 4.44526 85.3955C4.31695 85.4993 4.48571 86.114 4.34432 86.1914C4.30254 86.2146 4.16254 86.1009 4.12634 86.1093C3.9732 86.1432 3.9045 86.23 3.61998 86.1203C3.84182 86.5474 4.26433 86.9669 4.6514 87.4281C4.94344 87.7764 5.60285 88.6003 5.86886 88.8954C6.05574 89.1027 6.33179 89.3349 6.53537 89.5652C6.82436 89.6267 6.6864 89.3846 6.48222 88.9811C6.67183 88.8216 6.86144 88.662 7.05105 88.5025C6.95065 88.3664 6.85026 88.2303 6.74987 88.0943C6.74961 88.094 6.74936 88.0937 6.7491 88.0935C6.68281 87.8884 7.01189 88.1706 7.11682 88.2054C8.12143 88.5387 8.30409 87.3402 8.61833 86.8889C8.68625 86.7919 9.11512 86.6912 8.98316 86.4401C8.94871 86.3748 8.77311 86.185 8.78109 86.1617C9.02906 86.1356 9.27704 86.1095 9.52501 86.0834C9.53591 85.514 10.0665 85.462 10.4019 85.2236C11.3095 84.5785 12.2342 83.967 12.9693 83.1696C13.111 83.0152 13.4365 82.9697 13.4969 82.7375C13.5223 82.6409 13.2593 82.3179 13.5551 82.462C13.4782 82.3809 13.4013 82.2997 13.3244 82.2185C13.4887 82.2473 13.7106 82.3866 13.8076 82.3288C13.8889 82.2798 14.0764 82.1215 14.1055 82.0339C14.1211 81.989 13.9644 81.8499 13.9936 81.8231C14.0446 81.7785 14.3494 81.8855 14.4165 81.8205C14.4773 81.7617 14.4125 81.4895 14.4835 81.4693C14.7379 81.3953 15.1694 81.4742 15.2824 81.2318C15.3131 81.1644 15.1885 80.908 15.2092 80.8985C15.2505 80.8804 15.4426 81.0608 15.4865 81.0654C15.7088 81.0881 15.6526 80.7074 15.7454 80.6003C16.0476 80.2514 16.4776 79.9952 16.7729 79.6421C16.9597 79.4191 17.3373 79.1181 17.3915 78.7901C17.4032 78.7194 17.1917 78.5228 17.2264 78.4892C17.265 78.452 17.4213 78.5717 17.4503 78.5656C17.6516 78.5242 18.0636 78.3995 18.0428 78.1425C18.0386 78.0934 17.8978 77.9153 17.9118 77.9029C17.9186 77.8963 18.0411 77.9923 18.0734 77.983C18.3587 77.901 18.4334 77.7035 18.5812 77.487C18.8649 77.0731 19.4737 76.8831 19.737 76.4123C19.7944 76.3098 19.5391 75.935 19.5536 75.9273C19.5848 75.9096 19.8098 76.1101 19.912 76.1145C20.2497 76.1273 20.253 75.6778 20.5176 75.6314C20.6482 75.6083 21.022 75.7774 21.1584 75.7629C21.2674 75.7513 21.3099 75.5019 21.4539 75.5957C21.541 75.6522 21.7748 75.8783 21.8232 75.8881ZM16.2137 74.2758C16.5861 74.6385 16.1696 74.4406 16.0192 74.198C15.9853 74.1433 16.117 74.1816 16.2137 74.2758ZM11.3998 80.19C11.2977 80.0824 11.1955 79.9747 11.0933 79.867C11.1515 79.8966 11.2098 79.9262 11.268 79.9558C11.3215 80.0282 11.3749 80.1007 11.4284 80.1731C11.4189 80.1787 11.4094 80.1844 11.3998 80.19ZM18.1746 99.5882C18.1743 99.6302 18.302 99.4803 18.3292 99.4849C18.444 99.5025 18.5483 99.4083 18.6708 99.3937C18.8527 99.3719 19.0825 99.8127 19.7889 98.6603C19.7889 98.6602 19.7889 98.6602 19.7889 98.6602C19.7959 98.6489 19.8028 98.6374 19.8098 98.6258C19.9431 98.4055 20.0591 98.1469 20.2067 97.8957C20.3544 97.6445 21.3406 96.0431 21.352 95.926C21.3611 95.7682 20.9564 96.0858 20.9336 96.0467C20.9181 96.02 20.9788 95.8567 20.965 95.8126C20.9204 95.6705 20.805 95.7464 20.9615 95.2976C20.7991 95.4851 20.6367 95.6727 20.4743 95.8602C20.4886 95.7359 20.2518 95.9693 20.2337 95.9373C20.2189 95.9111 20.3069 95.7381 20.2882 95.7161C20.2679 95.6905 20.1184 95.8439 20.0872 95.7878C20.0354 95.6968 20.2854 95.2578 20.272 95.1743C20.258 95.088 20.0389 95.2755 20.0697 95.086C20.0909 95.0339 20.1122 94.9818 20.1334 94.9296C20.2046 94.826 20.2759 94.7223 20.3471 94.6186C20.3464 94.5496 20.1984 94.7608 20.1672 94.7472C20.1305 94.7313 20.2408 94.5126 20.2174 94.4996C20.1982 94.4892 20.0707 94.6406 20.0529 94.6153C20.0265 94.5793 20.1819 94.3431 20.1906 94.2865C20.1937 94.2643 20.1354 94.0457 20.1287 94.0389C20.0745 93.9926 19.8672 94.3192 19.8017 94.3187C19.6208 94.316 19.6479 93.9661 19.5869 93.7902C19.5597 93.7115 19.4908 93.6957 19.4038 93.7149C18.9726 94.6116 18.3796 95.1516 19.2602 93.8747C19.0843 94.0253 19.2597 93.6424 19.1651 93.6674C19.1037 93.6839 18.9657 93.8511 18.9154 93.8137C18.8269 93.7462 19.0426 93.1624 18.4388 94.0865C18.4296 93.8527 18.1244 94.1351 18.5935 93.2801C18.596 93.2118 18.2195 93.6616 18.1463 93.7091C18.0772 93.7538 17.7076 93.8346 17.6619 93.8237C17.6162 93.8129 17.5412 93.7856 17.5538 93.6931C17.5688 93.5782 18.0685 92.6997 17.3796 93.6628C17.3462 93.5302 17.2988 93.5408 17.1496 93.6102C17.1226 93.6228 17.0293 93.7713 17.0211 93.7664C17.0042 93.7561 17.0431 93.628 17.0212 93.596C16.9851 93.5436 16.764 93.8408 17.0641 93.3637C17.0807 93.2631 17.0974 93.1625 17.1141 93.0619C17.0458 93.1476 16.9775 93.2333 16.9092 93.319C16.9536 93.2072 16.9981 93.0955 17.0425 92.9837C16.6369 93.6915 16.7654 93.2058 17.0498 92.8314C16.8983 92.9364 16.7467 93.0414 16.5952 93.1463C16.1197 93.942 16.4001 93.1522 16.6759 92.7302C16.6683 92.7264 16.6607 92.7226 16.653 92.7188C16.4608 92.8899 16.5078 92.6823 16.344 92.7759C16.1802 92.8694 16.1403 92.9508 15.894 93.2999C15.8885 93.2679 15.8831 93.2359 15.8776 93.2039C16.3928 92.1489 15.3523 93.8845 15.6571 93.0198C15.221 93.614 15.2938 93.2061 15.3247 92.9638C15.3283 92.9357 15.4026 92.814 15.4123 92.7684C15.4352 92.6584 15.2568 92.7641 15.5 92.3737C15.4018 92.4696 15.3037 92.5655 15.2056 92.6614C15.2259 92.5758 15.2462 92.4902 15.2665 92.4046C15.3417 92.2823 15.4168 92.1599 15.4919 92.0376C15.1892 92.4259 15.2135 92.2203 15.1159 92.2976C15.0962 92.3134 14.9912 92.4813 14.9404 92.5135C14.8805 92.552 14.862 92.4719 14.7982 92.5054C14.9006 92.3109 15.003 92.1164 15.1054 91.9219C15.1114 91.786 14.7891 92.2675 14.7326 92.2856C14.7225 92.2887 14.6359 92.1867 14.6365 92.1726C14.6398 92.0598 14.9112 91.6475 14.7176 91.6528C14.683 91.654 14.5739 91.7873 14.5481 91.7795C14.5023 91.766 14.586 91.3633 14.7636 91.0526C14.482 91.4051 14.45 91.1708 14.3448 91.2581C14.3127 91.285 14.1611 91.5266 14.0945 91.557C14.0404 91.5818 14.0869 91.3425 14.0311 91.3531C13.9713 91.3653 13.8325 91.5612 13.8066 91.5652C13.7822 91.5687 13.8684 91.3948 13.8459 91.3823C13.7738 91.346 13.5491 91.5733 13.492 91.545C13.4089 91.5047 13.6389 90.9741 13.7062 90.7172C13.6705 90.7389 13.5903 90.8338 13.5727 90.8244C13.3522 90.7104 13.0591 90.6544 12.7834 90.6292C12.6557 90.617 12.0053 91.1299 12.7481 90.0643C12.8326 89.8497 12.3111 90.1433 12.2598 90.1211C12.2085 90.0988 12.2926 89.8776 12.2573 89.8519C12.1506 89.7747 11.9842 89.8692 11.9537 89.613C11.9461 89.5463 12.0523 89.2883 12.0298 89.2783C12.0024 89.2667 11.8361 89.4773 11.7947 89.4718C11.6972 89.4569 11.5985 89.2936 11.5 89.2873C11.4817 89.2866 11.3547 89.4831 11.2971 89.5336C11.0721 89.7308 11.0003 89.6577 11.4055 89.0301C11.087 89.3322 11.1994 88.9474 11.1219 88.8721C10.9572 88.7144 10.52 88.6509 10.5184 88.2819C10.5175 88.0491 10.6952 87.7652 10.3905 87.9174C10.3229 87.9512 10.2437 88.0041 10.1624 88.0439C9.97139 88.138 9.55904 88.611 9.87479 87.9299C9.66602 88.0288 9.65191 87.8593 9.23874 88.3541C9.30925 88.2179 9.37976 88.0817 9.45027 87.9455C9.43904 87.9342 9.42781 87.9229 9.41658 87.9115C9.33623 88.0334 9.25589 88.1552 9.17554 88.2771C9.06041 88.2526 9.2537 87.6679 9.17134 87.6225C9.03356 87.546 8.56604 87.5326 8.33587 87.6224C8.21366 87.6701 8.37328 87.4015 7.99899 87.9254C8.00722 87.878 8.01545 87.8307 8.02368 87.7833C8.0877 87.6576 8.15173 87.5319 8.21575 87.4062C8.13198 87.3483 7.91499 87.4715 7.83355 87.4189C7.68538 87.3228 7.66159 86.8543 7.3776 86.9784C7.3062 87.0098 7.10727 87.228 7.07187 87.2025C7.0202 87.1656 7.25856 86.7472 7.19471 86.6975C7.08421 86.6126 6.57203 86.9544 6.48269 86.8496C6.45599 86.8187 6.53409 86.6565 6.52118 86.6262C6.46806 86.4973 6.38159 86.4614 6.43411 86.1691C6.09424 86.5017 5.79171 87.0144 5.44719 87.5078C5.18707 87.88 4.56685 88.7322 4.34926 89.0645C4.19639 89.298 4.03539 89.6202 3.86499 89.8758C3.85531 90.1575 4.04614 89.9579 4.36804 89.6486C4.53669 89.7721 4.70533 89.8957 4.87398 90.0192C4.97773 89.8862 5.08147 89.7532 5.18521 89.6202C5.18541 89.6199 5.1856 89.6196 5.18579 89.6193C5.35508 89.4962 5.15844 89.8819 5.14404 89.988C5.00605 91.0037 6.08299 90.8026 6.52601 90.9501C6.62132 90.9822 6.77512 91.3413 6.9747 91.1444C7.02659 91.093 7.16577 90.8752 7.18744 90.8753C7.24823 91.0928 7.30902 91.3103 7.3698 91.5279C7.8698 91.3633 7.99646 91.8299 8.2565 92.0619C8.95992 92.6896 9.63658 93.3432 10.447 93.7674C10.6038 93.849 10.6934 94.131 10.9059 94.1148C10.9944 94.1083 11.2368 93.7701 11.1559 94.0833C11.2152 93.9885 11.2745 93.8937 11.3338 93.7989C11.3337 93.9571 11.2457 94.2017 11.3112 94.2721C11.3665 94.3311 11.5337 94.4531 11.6148 94.4527C11.6565 94.4531 11.7543 94.268 11.7822 94.2863C11.8291 94.319 11.7821 94.629 11.8492 94.6702C11.91 94.7074 12.1383 94.5651 12.1668 94.6235C12.2705 94.8321 12.2675 95.2487 12.4969 95.2772C12.5606 95.2845 12.7659 95.0926 12.7775 95.1086C12.7996 95.1406 12.6711 95.3705 12.6738 95.4118C12.6879 95.621 13.0126 95.4532 13.1205 95.5047C13.4721 95.6727 13.7621 95.9852 14.1164 96.1456C14.3401 96.2471 14.6613 96.4983 14.9567 96.4472C15.0204 96.4361 15.16 96.1835 15.1948 96.2048C15.2333 96.2285 15.1524 96.4073 15.1621 96.4318C15.2292 96.6022 15.4014 96.9387 15.6231 96.841C15.6655 96.8222 15.7998 96.6395 15.8128 96.6485C15.8196 96.6526 15.7544 96.7935 15.7675 96.82C15.8828 97.0543 16.0671 97.0618 16.2792 97.1298C16.6848 97.261 16.9444 97.7564 17.3966 97.8516C17.4952 97.8724 17.7841 97.5254 17.7931 97.5362C17.8134 97.5592 17.6723 97.8252 17.684 97.9195C17.7246 98.2305 18.1185 98.0958 18.1996 98.3223C18.2398 98.4339 18.1489 98.8257 18.1825 98.9453C18.2093 99.0409 18.4341 99.0031 18.3741 99.1628C18.3379 99.2594 18.1758 99.5412 18.1746 99.5882ZM18.7276 93.9929C18.4671 94.4427 18.5766 94.0033 18.766 93.7921C18.8086 93.7446 18.7953 93.8761 18.7276 93.9929ZM12.8147 91.4272C12.8934 91.3013 12.972 91.1754 13.0506 91.0494C13.0336 91.1115 13.0166 91.1735 12.9996 91.2355C12.9443 91.3063 12.8891 91.3771 12.8339 91.448C12.8275 91.441 12.8211 91.4341 12.8147 91.4272Z" fill="#1D79E9" style="fill:#1D79E9;fill:color(display-p3 0.1137 0.4730 0.9122);fill-opacity:1;"/>
</svg>
