<svg width="100" height="100" viewBox="0 0 100 100" fill="none" xmlns="http://www.w3.org/2000/svg">
<path d="M90.6447 86.1885C90.6904 86.3532 90.51 86.6097 90.5098 86.7985C90.5065 87.6 90.3847 87.9041 90.3363 88.6365C90.2765 89.7094 90.5676 92.9968 89.207 93C89.207 93 89.2069 93 89.2069 93C89.1936 93 89.1802 92.9997 89.1667 92.9991C88.9092 92.9873 88.6278 92.7098 88.3364 92.6699C88.0448 92.6301 86.1646 92.6644 86.0568 92.2818C85.9162 91.7258 86.3748 90.3959 86.3442 90.1038C86.3244 89.904 86.1467 89.6632 86.1083 89.4104C85.984 88.5964 86.0909 88.1649 85.5918 87.4631C85.8219 87.162 86.0509 86.8605 86.2775 86.54C86.1418 86.1526 86.425 85.5381 86.3904 85.3014C86.3622 85.1075 86.161 85.0075 86.137 84.8064C86.109 84.5811 86.2906 84.2174 86.2248 83.8107C86.1172 83.1445 85.6024 83.0736 85.5012 82.6836C85.396 82.2793 85.6042 81.6182 85.3688 81.1164C85.3061 81.0549 85.2433 80.9937 85.1804 80.9326C85.0611 80.9951 84.9417 81.0575 84.8223 81.1197C84.7338 80.8567 84.976 80.7114 84.9513 80.4634C84.9221 80.1719 84.6615 80.0543 84.6382 79.8602C84.6194 79.7013 84.7858 79.461 84.7465 79.2571C84.69 78.96 84.4185 79.0633 84.3444 78.9103C84.317 78.8472 83.9944 77.698 83.9807 77.6348C83.8939 77.1383 84.2689 77.0356 84.2387 76.6334C84.157 75.5434 83.632 74.3988 83.3139 73.414C83.1711 72.9689 83.0949 72.4934 83.0582 72.0324C84.1802 72.5351 84.5887 70.7932 83.2052 71.7155C83.3095 71.1665 82.824 70.9195 82.7792 70.4227C82.7499 70.1003 82.9068 69.8336 82.791 69.392C82.5839 68.6057 81.7677 67.9271 82.7704 67.4135C82.3341 66.5577 82.4881 65.6759 81.457 65.6315C81.3299 65.4145 81.6983 64.6432 81.689 64.3565C81.6866 64.0825 81.3036 62.118 81.2039 61.8135C81.1102 61.5041 80.9336 60.9725 80.7582 60.7472C80.5362 60.4547 79.5102 60.5934 80.3889 59.5937C80.0385 58.9614 79.9754 58.7154 79.85 58.0518C79.827 57.9319 79.9836 57.852 79.9568 57.7873C79.9012 57.6542 79.6869 57.4789 79.5717 57.2502C79.3825 56.8744 79.6236 56.5077 79.1263 56.7765C78.9296 56.5629 78.7311 56.3488 78.5287 56.1301C78.5873 55.9956 78.6456 55.8608 78.7035 55.7258C78.5332 55.6381 78.3629 55.5514 78.1925 55.4657C79.0074 55.2816 78.1225 54.5291 77.8454 55.0395C77.7676 54.4802 77.684 53.9225 77.5945 53.3663C78.4586 53.0167 77.1545 52.2635 76.756 52.5946C76.7286 52.5403 76.7012 52.486 76.6738 52.4319C76.6416 51.8386 76.2267 51.4889 76.0534 50.8326C75.8776 50.1751 75.985 50.1862 76.257 49.8004C76.1587 49.6766 76.0601 49.5533 75.9613 49.4306C74.5416 49.3153 76.3684 48.4157 74.8676 47.6748C75.2572 46.9027 74.33 46.1567 73.741 45.6728C73.6725 45.616 73.5528 45.6935 73.4537 45.6236C73.2138 45.4517 72.9708 44.7677 72.6045 45.0477C72.5775 44.7726 72.5512 44.5006 72.5189 44.222C72.3347 44.1045 72.1503 43.9882 71.9659 43.8733C71.8495 43.9574 71.7331 44.0414 71.6168 44.1255C71.7824 43.5133 71.2566 43.1108 71.1656 42.7924C71.1477 42.7286 71.299 42.5997 71.2268 42.4126C71.1432 42.1931 70.8433 41.8934 70.7291 41.6433C70.4916 41.6941 70.2546 41.7458 70.0179 41.7985C69.6334 41.4967 69.9871 41.0113 69.8453 40.7601C69.8204 40.7138 69.2025 40.0142 69.1604 39.9847C68.8233 39.731 68.5213 40.1294 67.844 39.1675C67.7231 38.9965 67.7422 38.7572 67.6236 38.61C67.4147 38.3473 66.4604 37.8579 66.1395 38.0386C66.2015 37.4359 65.3281 36.7643 65.2021 36.447C65.1647 36.35 65.3566 36.1373 65.1948 35.8811C65.0638 35.6724 64.4691 35.3894 64.2826 35.1482C64.0851 34.8904 64.1737 34.6411 64.0808 34.5249C63.9935 34.4162 63.767 34.4642 63.6336 34.332C63.2198 33.9171 63.0507 33.3256 62.7161 33.0036C62.2322 32.5373 61.4098 32.5624 60.8299 32.3849C60.7528 32.2662 60.7328 32.084 60.6243 31.9866C59.2859 30.7773 57.8042 29.4268 56.4318 28.2311C55.8068 27.6745 54.5662 25.8283 54.2632 27.2079C53.8996 27.2183 52.461 25.5906 52.1248 25.3672C51.7946 25.1389 51.4018 25.1605 51.1368 24.9935C50.3294 24.4865 49.845 23.9845 48.7491 23.5622C48.4656 23.454 48.0512 23.5294 47.9014 23.438C47.721 23.327 47.6595 22.9829 47.4258 22.829C46.8709 22.4635 45.7533 21.9435 45.2191 21.6069C45.1219 21.5445 45.1967 21.3191 45.0852 21.177C44.6534 20.6228 43.9908 20.3112 43.7646 21.0346C43.2211 20.2785 42.3607 20.2834 41.6665 19.9754C40.2029 19.3115 37.5771 17.9687 36.1425 17.7386C35.2439 17.5919 35.1461 17.9093 34.0402 17.1778C33.7946 17.0163 33.557 16.8351 33.25 16.6408C32.5363 16.1867 32.0195 15.3494 31.1843 15.852C30.3875 15.3754 29.6452 15.2785 29.1845 14.464C29.0613 14.5855 28.9385 14.7072 28.816 14.8291C28.7073 14.7991 28.5987 14.7692 28.4902 14.7396C28.4998 14.5899 28.5092 14.4401 28.5186 14.2903C27.7544 14.0128 26.6149 14.3037 25.9508 14.1132C24.8527 13.7855 22.0544 12.8373 21.0352 12.416C20.4978 12.1877 20.4023 12.4876 20.2189 11.7901C20.0817 11.8061 19.9431 11.822 19.8057 11.8384C19.6961 11.9589 19.587 12.0795 19.4782 12.2003C18.7459 12.0516 17.927 11.667 17.2397 11.5417C15.9585 11.3042 14.0224 11.3803 12.7613 10.9517C12.447 10.8432 12.0824 10.502 11.7676 10.4651C11.3102 10.4117 11.1408 10.8753 10.5706 10.8178C9.54042 10.7092 7.77746 9.98243 6.78494 9.95818C6.49781 9.95006 6.35346 10.12 6.1571 10.1264C5.33096 10.1559 4.6947 10.1089 3.87665 10.3554C3.04782 9.86561 3.13808 9.2758 2.88936 8.66835C2.70211 8.20989 2.10781 7.14992 2.02383 6.75255C1.96517 6.47291 2.1993 6.11674 2.11657 5.80871C3.15847 5.57796 3.6081 5.86276 4.46191 6.32893C6.02119 6.37634 7.65032 6.47416 9.18871 6.60465C9.31546 6.78515 9.44184 6.96595 9.56787 7.14705C9.56783 7.14742 9.56779 7.14778 9.56776 7.14815C10.1506 7.40151 10.4553 7.00161 10.7976 6.94142C14.0137 6.317 20.0338 8.11722 23.3123 9.06385C24.0455 9.25605 26.412 9.64293 26.8367 10.051C26.945 10.1549 26.9106 10.4136 27.0427 10.4624C28.3028 10.6581 29.5127 10.862 30.7646 11.1024C33.0886 12.2697 35.6892 12.8606 38.1234 13.7891C44.6903 16.2919 50.9809 19.4503 56.6303 23.5412C57.7172 24.326 59.1976 25.1959 60.1594 26.1219C60.559 26.5064 60.4719 26.9678 61.224 27.1856C61.1587 27.2767 61.0934 27.3678 61.0281 27.4589C61.5962 27.7534 62.0687 27.8179 62.6231 28.2608C63.0943 28.6332 64.2781 29.6693 64.6317 30.0597C64.8172 30.2605 64.6006 30.3446 64.7868 30.5167C65.1062 30.8088 65.9802 31.2427 66.4119 31.6689C66.8084 32.0567 67.2734 32.869 67.5889 33.1463C68.7207 34.1352 70.1108 35.1277 71.0791 36.4103C71.3483 36.7665 71.5072 37.3804 71.6014 37.4829C71.787 37.6827 72.0419 37.5789 72.1847 37.7002C72.9172 38.3236 73.5528 39.6484 74.0847 40.388C75.8366 42.8028 77.6555 45.3795 79.0676 47.9555C79.9851 49.595 81.4283 52.3187 81.9619 53.9849C82.0788 54.3426 81.7749 54.3713 81.904 54.6567C82.0475 54.9752 82.2989 55.0631 82.3775 55.2023C82.928 56.1545 84.0382 58.3729 84.2168 59.4526C84.2511 59.6548 84.0873 59.8644 84.1288 59.9754C84.1492 60.0314 84.3404 60.1055 84.4191 60.2775C85.1108 61.7962 85.4132 63.0058 85.8405 64.6115C86.6404 67.6177 87.7674 71.1138 88.1943 74.4288C88.2912 75.1658 87.9246 75.6998 87.9459 75.8002C87.9898 76.0136 88.3093 76.103 88.4512 76.5313C88.9221 77.9466 88.8682 80.0442 89.1598 81.417C89.3062 82.094 89.7752 83.013 89.9156 83.6992C90.0306 84.2447 89.9731 85.5727 90.1541 85.8124C90.2645 85.9575 90.5932 86.0082 90.6447 86.1885ZM82.9152 68.8596C83.443 68.8214 82.7736 67.967 82.5982 68.3989C82.5589 68.4954 82.7786 68.8689 82.9152 68.8596ZM59.3802 29.7243C59.2925 29.8444 59.2048 29.9645 59.117 30.0846C59.2566 30.1201 59.3963 30.1561 59.536 30.1926C59.5371 30.0771 59.5379 29.9615 59.5385 29.8458C59.4857 29.8052 59.433 29.7647 59.3802 29.7243ZM89.7212 90.3919C89.7668 90.3959 89.6256 90.5355 89.6351 90.5689C89.6736 90.7102 89.5888 90.8271 89.5936 90.9744C89.6006 91.193 90.1178 91.5177 88.9858 92.2563C88.9858 92.2564 88.9858 92.2564 88.9857 92.2564C88.9746 92.2636 88.9634 92.2709 88.952 92.2782C88.7353 92.4173 88.4741 92.5315 88.2263 92.6847C87.9785 92.8381 86.4063 93.8703 86.2811 93.8719C86.1114 93.8667 86.3879 93.4081 86.3417 93.3763C86.31 93.3547 86.143 93.4116 86.0928 93.3903C85.9311 93.3215 85.994 93.1892 85.5332 93.3328C85.7094 93.155 85.8856 92.9772 86.0618 92.7993C85.9293 92.8039 86.1427 92.5403 86.105 92.5151C86.0741 92.4944 85.901 92.5834 85.874 92.5584C85.8428 92.5311 85.9842 92.3654 85.9181 92.3217C85.8105 92.2495 85.376 92.5076 85.2832 92.4827C85.1871 92.4568 85.3538 92.2102 85.1533 92.2279C85.1003 92.2484 85.0473 92.2688 84.9943 92.2892C84.8937 92.3649 84.7932 92.4407 84.6926 92.5165C84.6176 92.5085 84.822 92.3506 84.8019 92.3114C84.7785 92.2651 84.5597 92.3764 84.5417 92.3468C84.5271 92.3223 84.6699 92.1831 84.6395 92.1589C84.596 92.1232 84.3658 92.2874 84.3057 92.2921C84.2822 92.2936 84.0351 92.2002 84.0266 92.1913C83.9673 92.1208 84.2868 91.9028 84.2752 91.8232C84.2419 91.6032 83.8666 91.6 83.6653 91.5077C83.5754 91.4666 83.5466 91.3812 83.5528 91.2776C84.4535 90.8467 84.9398 90.1823 83.7021 91.1197C83.8359 90.9216 83.4498 91.095 83.461 90.9828C83.4685 90.9099 83.6269 90.7596 83.5778 90.6947C83.4895 90.5802 82.8922 90.7818 83.7936 90.1441C83.5382 90.1088 83.7934 89.7673 82.9443 90.2486C82.8706 90.2445 83.2954 89.8339 83.3347 89.7498C83.3716 89.6705 83.397 89.23 83.3775 89.1734C83.358 89.1168 83.3158 89.023 83.2175 89.0287C83.0953 89.035 82.2259 89.5511 83.1552 88.814C83.0057 88.7597 83.0092 88.7033 83.0595 88.5292C83.0685 88.4977 83.2141 88.3999 83.2074 88.3893C83.1933 88.3677 83.0608 88.4018 83.0224 88.3719C82.9594 88.3227 83.2448 88.0849 82.7774 88.3999C82.671 88.4098 82.5647 88.4196 82.4583 88.4295C82.5398 88.3554 82.6213 88.2813 82.7028 88.2072C82.589 88.2496 82.4752 88.292 82.3613 88.3345C83.0614 87.9151 82.5558 88.0208 82.1972 88.3276C82.2857 88.1544 82.3741 87.9812 82.4625 87.8081C83.2461 87.3129 82.4361 87.5718 82.0244 87.8631C82.019 87.8534 82.0136 87.8438 82.0081 87.8341C82.1615 87.6183 81.9441 87.6539 82.0181 87.4647C82.092 87.2755 82.1737 87.2354 82.5111 86.9724C82.4754 86.9625 82.4398 86.9525 82.4042 86.9426C81.3457 87.4592 83.0544 86.375 82.1672 86.6558C82.7387 86.1876 82.3082 86.2338 82.0504 86.2463C82.0204 86.2477 81.9009 86.3254 81.853 86.3325C81.7375 86.3489 81.8221 86.1432 81.4393 86.3982C81.5269 86.2889 81.6145 86.1796 81.7021 86.0704C81.6126 86.0862 81.5231 86.102 81.4336 86.1179C81.3134 86.1965 81.1933 86.2751 81.0732 86.3537C81.4437 86.0262 81.2245 86.0344 81.2921 85.9239C81.3059 85.9016 81.4704 85.7914 81.4969 85.7331C81.5286 85.6643 81.4385 85.6335 81.4641 85.5596C81.2702 85.6638 81.0763 85.7681 80.8824 85.8723C80.7359 85.8655 81.2043 85.5239 81.2145 85.4571C81.2161 85.4453 81.0909 85.3295 81.0756 85.3288C80.9537 85.3212 80.5519 85.6081 80.525 85.3736C80.5205 85.3317 80.6469 85.213 80.634 85.1808C80.6116 85.1237 80.1886 85.1839 79.8813 85.3674C80.2164 85.0618 79.9568 84.9988 80.0338 84.88C80.0576 84.8438 80.2943 84.6847 80.316 84.607C80.3339 84.5438 80.082 84.5755 80.0841 84.5089C80.0872 84.4375 80.2765 84.2892 80.2765 84.2582C80.2762 84.229 80.1019 84.3157 80.0845 84.287C80.033 84.1957 80.2419 83.9463 80.2016 83.874C80.1438 83.769 79.6066 83.9934 79.3391 84.0486C79.3566 84.0075 79.4462 83.9199 79.4329 83.8975C79.272 83.6181 79.1619 83.2563 79.0881 82.9189C79.0534 82.7625 79.5005 82.0257 78.4689 82.8176C78.2503 82.8981 78.4811 82.2952 78.4483 82.2305C78.4155 82.1659 78.1896 82.2452 78.1558 82.1996C78.0539 82.0621 78.1285 81.8698 77.8453 81.8062C77.7716 81.7902 77.5094 81.8925 77.4947 81.8641C77.4776 81.8296 77.6782 81.6494 77.6652 81.5986C77.6326 81.4786 77.4387 81.3419 77.4153 81.2216C77.4115 81.1993 77.6034 81.0654 77.6484 81.0006C77.8246 80.7479 77.7332 80.653 77.1202 81.0803C77.3944 80.7247 76.9957 80.8215 76.901 80.7196C76.702 80.5032 76.5595 79.9657 76.1586 79.9257C75.9058 79.9005 75.6275 80.087 75.7414 79.7327C75.7667 79.6541 75.8108 79.5634 75.8403 79.4688C75.9102 79.2465 76.3543 78.7947 75.6681 79.1077C75.7403 78.8644 75.5539 78.8297 76.0214 78.3791C75.8854 78.4507 75.7495 78.5222 75.6135 78.5938C75.5993 78.579 75.5852 78.5642 75.571 78.5494C75.6897 78.4644 75.8085 78.3794 75.9272 78.2944C75.8812 78.1521 75.279 78.3264 75.2159 78.2217C75.1096 78.0464 75.0164 77.4773 75.0751 77.2071C75.1063 77.0636 74.8416 77.2297 75.3472 76.8293C75.2972 76.8344 75.2472 76.8395 75.1972 76.8446C75.0715 76.9093 74.9458 76.9741 74.8202 77.0389C74.7432 76.9311 74.8404 76.6804 74.7696 76.576C74.6403 76.3862 74.1278 76.3088 74.2146 75.9768C74.2367 75.8933 74.4401 75.6743 74.4064 75.6287C74.3576 75.5621 73.9436 75.8083 73.8789 75.7257C73.7682 75.5827 74.0529 74.996 73.924 74.8767C73.886 74.8411 73.7231 74.9192 73.688 74.9004C73.5392 74.8225 73.4857 74.7138 73.1771 74.7474C73.4809 74.369 73.9866 74.0546 74.4641 73.6872C74.8244 73.4098 75.6449 72.7447 75.969 72.5148C76.1967 72.3533 76.5193 72.1911 76.7681 72.0106C77.0723 72.028 76.8877 72.2391 76.6061 72.598C76.7687 72.8156 76.9312 73.0331 77.0937 73.2507C76.9668 73.363 76.8399 73.4752 76.713 73.5874C76.7127 73.5876 76.7124 73.5878 76.7121 73.588C76.607 73.7809 76.9926 73.582 77.1053 73.5754C78.1846 73.5129 78.1477 74.7999 78.3825 75.3531C78.4333 75.4722 78.8491 75.6961 78.6689 75.9181C78.6219 75.9758 78.4089 76.1223 78.4127 76.1486C78.659 76.245 78.9054 76.3413 79.1517 76.4376C79.0574 77.0277 79.5852 77.2298 79.8808 77.5695C80.6806 78.4887 81.5041 79.3779 82.101 80.4059C82.216 80.6048 82.5373 80.7428 82.5555 80.9991C82.5633 81.1059 82.2371 81.3654 82.5634 81.2995C82.4705 81.3617 82.3776 81.4239 82.2846 81.4861C82.4564 81.5023 82.707 81.4208 82.7945 81.5075C82.8679 81.5808 83.0284 81.7966 83.0416 81.895C83.0492 81.9456 82.8647 82.0453 82.8893 82.081C82.9327 82.1413 83.2613 82.1163 83.3172 82.2021C83.3679 82.2798 83.2518 82.5423 83.32 82.583C83.564 82.7305 84.0157 82.7699 84.0852 83.0514C84.1039 83.1295 83.9302 83.359 83.9495 83.3747C83.9879 83.4048 84.2158 83.2726 84.2612 83.2801C84.4906 83.3188 84.3631 83.6958 84.4373 83.8321C84.6789 84.2765 85.0669 84.661 85.3007 85.1078C85.4486 85.39 85.7754 85.806 85.7696 86.1594C85.7683 86.2357 85.5177 86.3791 85.5466 86.4235C85.5788 86.4727 85.7593 86.3929 85.7875 86.4073C85.9837 86.5063 86.378 86.7503 86.3094 87.0094C86.2961 87.059 86.1204 87.2032 86.1323 87.2199C86.138 87.2286 86.2799 87.1639 86.3108 87.1826C86.5846 87.3469 86.6238 87.5714 86.7333 87.8361C86.9441 88.3422 87.5256 88.7086 87.7051 89.2677C87.7442 89.3894 87.4163 89.7045 87.4295 89.7166C87.4579 89.7435 87.7229 89.5997 87.8272 89.6237C88.1717 89.7051 88.0918 90.1695 88.3512 90.2914C88.4792 90.3517 88.8892 90.2819 89.0247 90.3351C89.133 90.3775 89.1298 90.6466 89.2931 90.5902C89.3918 90.5563 89.6704 90.3885 89.7212 90.3919ZM83.7406 90.4851C84.185 90.2153 83.7265 90.3028 83.5292 90.511C83.4848 90.5578 83.6253 90.5552 83.7406 90.4851ZM79.9596 83.0394C79.8362 83.1219 79.7127 83.2044 79.5893 83.2868C79.6538 83.2726 79.7182 83.2583 79.7826 83.244C79.8502 83.1843 79.9178 83.1246 79.9854 83.0649C79.9768 83.0564 79.9682 83.0479 79.9596 83.0394ZM94.8365 72.7995C94.8166 72.7595 95.0068 72.8149 95.0302 72.7918C95.13 72.6956 95.2722 72.7139 95.3944 72.6433C95.5757 72.5386 95.5862 71.9576 96.789 72.5742C96.7891 72.5742 96.7891 72.5742 96.7891 72.5742C96.8009 72.5803 96.8128 72.5865 96.8249 72.5927C97.0532 72.7118 97.2831 72.8796 97.5392 73.0183C97.7954 73.1571 99.4713 74.0108 99.5367 74.1151C99.6189 74.26 99.0898 74.2351 99.0865 74.2883C99.0844 74.3247 99.2179 74.4392 99.2254 74.491C99.2498 74.6579 99.1057 74.6648 99.4625 74.9869C99.2221 74.9193 98.9817 74.8517 98.7414 74.7841C98.8129 74.8934 98.4809 74.8333 98.4789 74.8763C98.4772 74.9117 98.6408 75.0168 98.6335 75.0507C98.6263 75.0893 98.414 75.0455 98.4107 75.1208C98.4046 75.2438 98.8447 75.4919 98.8711 75.5811C98.8982 75.6735 98.6045 75.645 98.7219 75.8054C98.7663 75.8406 98.8106 75.8759 98.8549 75.9112C98.9703 75.9614 99.0858 76.0116 99.2012 76.0618C99.2327 76.1284 98.9949 76.0281 98.9719 76.0627C98.9447 76.1033 99.1506 76.2367 99.1347 76.2652C99.1215 76.2885 98.9308 76.2315 98.9259 76.268C98.9178 76.3207 99.1743 76.4398 99.2089 76.4881C99.2223 76.5071 99.2694 76.7569 99.2663 76.768C99.2369 76.8498 98.8893 76.68 98.8279 76.7257C98.6589 76.8531 98.8477 77.1697 98.8724 77.3804C98.8836 77.4746 98.8261 77.5374 98.7353 77.579C97.9109 77.0174 97.1006 76.9093 98.5255 77.525C98.2896 77.5021 98.6334 77.7479 98.5328 77.7893C98.4673 77.8159 98.2593 77.7509 98.2294 77.8215C98.1777 77.9473 98.6532 78.3578 97.6536 77.8892C97.754 78.1196 97.335 78.0597 98.1755 78.5551C98.2098 78.6188 97.6455 78.4477 97.5543 78.4527C97.4684 78.4576 97.0829 78.6354 97.0449 78.6774C97.007 78.7193 96.9492 78.7972 97.0042 78.8772C97.0719 78.9769 97.9524 79.4737 96.8544 79.0265C96.8848 79.1766 96.8353 79.1992 96.6624 79.2357C96.6311 79.2423 96.474 79.1643 96.4685 79.1747C96.4575 79.1963 96.5539 79.2922 96.5483 79.3379C96.5388 79.4131 96.1919 79.2809 96.697 79.5309C96.7597 79.6158 96.8223 79.7007 96.885 79.7856C96.7807 79.7506 96.6764 79.7157 96.5721 79.6807C96.6661 79.7571 96.7601 79.8335 96.8542 79.91C96.1419 79.5117 96.4896 79.8884 96.9321 80.0509C96.7405 80.0549 96.5488 80.0589 96.3572 80.0629C95.5382 79.6288 96.1708 80.192 96.6274 80.406C96.622 80.4149 96.6166 80.4238 96.6112 80.4328C96.3504 80.4015 96.4915 80.5679 96.2937 80.5914C96.0959 80.6148 96.0203 80.5644 95.6255 80.4C95.6353 80.4344 95.6451 80.4688 95.6549 80.5032C96.6323 81.1585 94.8428 80.2137 95.5333 80.8318C94.8455 80.5635 95.1044 80.9042 95.2466 81.115C95.2631 81.1395 95.3899 81.2048 95.4203 81.2418C95.4932 81.3314 95.276 81.3533 95.687 81.5595C95.5499 81.5353 95.4128 81.5112 95.2756 81.487C95.3347 81.555 95.3938 81.623 95.4529 81.6911C95.5807 81.7564 95.7086 81.8217 95.8364 81.8871C95.3702 81.724 95.489 81.9043 95.361 81.8976C95.3352 81.896 95.1579 81.8077 95.0951 81.8119C95.0208 81.8163 95.0407 81.9059 94.9651 81.9178C95.1523 82.0335 95.3394 82.1492 95.5266 82.2649C95.5957 82.391 95.0675 82.1521 95.0059 82.1737C94.995 82.1777 94.961 82.3352 94.9682 82.3484C95.024 82.4542 95.4719 82.6619 95.2872 82.7904C95.2541 82.8132 95.0892 82.7608 95.0685 82.7861C95.0317 82.8307 95.2985 83.1587 95.6107 83.3338C95.1811 83.1905 95.2603 83.4371 95.1206 83.4261C95.0778 83.4224 94.8224 83.2956 94.7455 83.3125C94.6829 83.326 94.8384 83.5232 94.7809 83.5516C94.719 83.5813 94.4969 83.4893 94.4707 83.5034C94.4461 83.5168 94.6084 83.624 94.5931 83.6516C94.5422 83.7361 94.2245 83.6734 94.1839 83.74C94.1246 83.836 94.5888 84.1856 94.772 84.3853C94.7283 84.3892 94.6085 84.3535 94.5963 84.3748C94.4421 84.6362 94.1923 84.8922 93.9445 85.1067C93.8301 85.2066 92.9784 85.1642 94.1751 85.6725C94.3548 85.8197 93.7269 85.8984 93.689 85.9552C93.6511 86.0119 93.8335 86.1658 93.8122 86.2148C93.7479 86.3625 93.5471 86.3868 93.638 86.6534C93.6621 86.7225 93.8825 86.8964 93.866 86.9216C93.8455 86.9516 93.5907 86.8646 93.5544 86.8984C93.4695 86.9801 93.4528 87.2047 93.3631 87.2788C93.3462 87.292 93.1349 87.1914 93.0571 87.1828C92.7533 87.1492 92.7198 87.2688 93.3942 87.5904C92.9534 87.5209 93.2388 87.8119 93.201 87.9376C93.1196 88.2024 92.7377 88.5652 92.9086 88.9198C93.0163 89.1435 93.3162 89.2929 92.9583 89.3574C92.8789 89.3717 92.7797 89.3757 92.6846 89.3937C92.4609 89.4355 91.8519 89.2668 92.4671 89.7015C92.2244 89.7509 92.2903 89.9231 91.6704 89.7342C91.8004 89.816 91.9303 89.8979 92.0602 89.9797C92.0549 89.9983 92.0497 90.0169 92.0444 90.0355C91.9119 89.9742 91.7794 89.9129 91.6469 89.8516C91.5499 89.9546 92.0048 90.3814 91.9485 90.4818C91.8545 90.6502 91.4207 90.9858 91.1622 91.0587C91.0249 91.0973 91.3005 91.2445 90.7037 91.001C90.7335 91.0407 90.7634 91.0804 90.7932 91.1201C90.9122 91.1963 91.0311 91.2725 91.1501 91.3488C91.0983 91.4622 90.8365 91.4939 90.7844 91.6005C90.6898 91.7949 90.8861 92.2603 90.5609 92.3374C90.479 92.3566 90.1899 92.2848 90.1685 92.3337C90.1371 92.4048 90.5568 92.6412 90.5199 92.7329C90.4555 92.8905 89.8139 92.9166 89.7787 93.0787C89.768 93.1268 89.9172 93.2282 89.9193 93.2662C89.9294 93.4264 89.8648 93.5205 90.0507 93.7644C89.5755 93.6803 89.0514 93.3978 88.4968 93.1629C88.0782 92.9858 87.0967 92.5975 86.7367 92.4292C86.4839 92.311 86.1819 92.1135 85.9022 91.9861C85.7616 91.7229 86.0344 91.7824 86.4817 91.8566C86.5828 91.6217 86.6839 91.3869 86.7849 91.1521C86.9446 91.2079 87.1044 91.2637 87.2641 91.3195C87.2644 91.3197 87.2648 91.3199 87.2651 91.32C87.4819 91.3211 87.1167 91.0872 87.0537 90.9955C86.4496 90.1175 87.5571 89.5666 87.9052 89.1194C87.98 89.0229 87.9571 88.5726 88.2369 88.6235C88.3097 88.6369 88.5423 88.7495 88.5627 88.7344C88.5184 88.484 88.474 88.2336 88.4297 87.9832C88.9771 87.7957 88.8785 87.2611 89.015 86.8593C89.384 85.7722 89.7158 84.6786 90.2805 83.7127C90.39 83.5262 90.3427 83.1941 90.5503 83.0629C90.6366 83.008 91.0226 83.1647 90.8003 82.9204C90.9003 82.9704 91.0004 83.0203 91.1004 83.0702C91.0265 82.9186 90.8295 82.7451 90.8582 82.6323C90.8828 82.5376 90.9833 82.3053 91.0598 82.2497C91.0988 82.2205 91.2773 82.3303 91.2949 82.2935C91.3238 82.2298 91.1349 81.9652 91.1788 81.8794C91.2187 81.8017 91.5 81.7806 91.4996 81.7049C91.4998 81.4333 91.3025 81.0362 91.5051 80.8506C91.5616 80.7996 91.8445 80.8417 91.8479 80.8184C91.8537 80.7725 91.6255 80.6409 91.6087 80.5995C91.5244 80.3893 91.9083 80.3259 91.9858 80.202C92.2383 79.7983 92.3653 79.2986 92.6239 78.9003C92.7871 78.6485 92.9722 78.186 93.274 78.0311C93.3392 77.9978 93.5885 78.1434 93.6113 78.099C93.6365 78.0497 93.4768 77.9342 93.4746 77.904C93.4582 77.6945 93.4632 77.2531 93.7174 77.1936C93.7661 77.1824 93.9778 77.2647 93.9859 77.2472C93.9903 77.2385 93.8632 77.1486 93.8631 77.1141C93.8623 76.8099 94.0323 76.6755 94.2002 76.4639C94.5207 76.0581 94.5337 75.4042 94.915 75.0007C94.998 74.9128 95.4319 75.0458 95.4354 75.0292C95.4437 74.9932 95.1867 74.8357 95.1538 74.7372C95.0467 74.4112 95.4803 74.2683 95.451 73.9954C95.4367 73.8606 95.1682 73.5479 95.144 73.4101C95.1246 73.3 95.3538 73.181 95.2228 73.0694C95.1437 73.0019 94.8596 72.8437 94.8365 72.7995ZM97.9691 77.7795C97.5139 77.5283 97.8221 77.8738 98.0989 77.9454C98.1612 77.9615 98.0872 77.8447 97.9691 77.7795ZM93.6015 84.3205C93.7343 84.3868 93.8671 84.4532 93.9999 84.5195C93.9549 84.4719 93.91 84.4242 93.865 84.3765C93.78 84.3468 93.6949 84.317 93.6099 84.2873C93.6071 84.2983 93.6043 84.3094 93.6015 84.3205Z" fill="#F1F0E3" style="fill:#F1F0E3;fill:color(display-p3 0.9451 0.9412 0.8902);fill-opacity:1;"/>
</svg>
