<svg width="166" height="38" viewBox="0 0 166 38" fill="none" xmlns="http://www.w3.org/2000/svg">
<path d="M154.608 21.1049C154.782 21.1907 155.09 21.0751 155.3 21.1246C156.219 21.3414 156.577 21.3075 157.419 21.4857C158.664 21.7231 162.085 23.2092 162.486 21.9491C162.486 21.9491 162.486 21.949 162.486 21.949C162.491 21.9367 162.496 21.9243 162.501 21.9118C162.525 21.8521 162.556 21.7934 162.553 21.72C162.552 21.6833 162.542 21.6427 162.519 21.5971C162.512 21.5576 162.516 21.5219 162.511 21.483C162.501 21.3296 162.457 21.1591 162.482 21.013C162.53 20.7198 163.248 18.9787 162.839 18.7132C162.247 18.3384 160.49 18.249 160.184 18.13C159.956 18.0396 159.676 17.7696 159.411 17.6538C158.461 17.2511 157.934 17.2231 157.149 16.5102C156.703 16.6357 156.321 16.7814 155.893 16.916C155.456 16.6753 154.658 16.7942 154.395 16.7066C154.171 16.6322 154.085 16.4095 153.843 16.3374C153.573 16.2558 153.084 16.346 152.62 16.1985C151.835 15.9524 151.799 15.4261 151.312 15.2447C150.83 15.0629 149.996 15.1537 149.368 14.8352C149.297 14.7628 149.225 14.6903 149.153 14.6179C149.239 14.5081 149.326 14.3984 149.413 14.2887C149.081 14.1568 148.905 14.3826 148.605 14.3237C148.255 14.2556 148.123 13.9793 147.883 13.9312C147.686 13.8921 147.379 14.0295 147.122 13.966C146.747 13.8745 146.881 13.6132 146.696 13.5232C146.629 13.487 145.188 13.0574 145.097 13.0409C144.455 12.9138 144.326 13.2845 143.826 13.2325C142.421 13.0845 141.018 12.5526 139.724 12.2546C139.134 12.1197 138.531 12.0633 137.945 12.0527C138.73 13.1476 136.626 13.6643 137.566 12.2191C136.895 12.3597 136.467 11.89 135.846 11.8938C135.449 11.8976 135.155 12.0824 134.588 12.0208C133.58 11.9093 132.513 11.2092 132.144 12.2873C130.989 12.0001 129.906 12.335 129.552 11.3388C129.251 11.2611 128.439 11.799 128.092 11.8623C127.757 11.9144 125.269 12.0903 124.863 12.103C124.457 12.1085 123.74 12.1138 123.393 12.0256C122.97 11.9163 122.671 10.9033 121.907 12.0858C121.018 11.9938 120.693 12.0317 119.864 12.184C119.716 12.2117 119.703 12.3874 119.617 12.3894C119.439 12.3932 119.132 12.2708 118.811 12.264C118.283 12.2532 117.993 12.6334 118.033 12.0679C117.68 11.9856 117.325 11.9049 116.967 11.8258C116.848 11.9399 116.729 12.0541 116.611 12.1685C116.415 12.0589 116.228 11.9494 116.036 11.8406C116.296 12.6426 114.967 12.2335 115.363 11.743C114.697 11.9498 114.029 12.1625 113.36 12.3812C113.517 13.2966 111.894 12.604 111.98 12.0931C111.903 12.1004 111.826 12.1078 111.749 12.1153C111.096 12.4201 110.454 12.2783 109.64 12.5307C108.828 12.7843 108.925 12.8663 108.723 13.3179C108.529 13.3156 108.335 13.3138 108.14 13.3126C106.985 12.2781 107.423 14.2549 105.568 13.6085C105.128 14.4118 103.73 14.234 102.788 14.1691C102.679 14.1613 102.654 14.0211 102.506 14.0016C102.141 13.9557 101.312 14.2907 101.259 13.8335C100.984 14.0188 100.71 14.2053 100.436 14.3929C100.176 14.3573 99.9149 14.3227 99.6532 14.2892C99.6266 14.1481 99.6001 14.007 99.5735 13.8659C99.1734 14.4429 98.3563 14.4197 97.9967 14.6166C97.9265 14.6559 97.9516 14.8528 97.7297 14.956C97.4707 15.0774 96.9491 15.1328 96.6366 15.2676C96.4613 15.0825 96.2851 14.8978 96.1082 14.7135C95.4933 14.7339 95.4201 15.3475 95.0872 15.4741C95.0268 15.4952 93.8862 15.7358 93.8279 15.7394C93.3122 15.7719 93.3293 15.2508 91.9238 15.7395C91.6735 15.8276 91.5127 16.0492 91.284 16.1203C90.8783 16.2444 89.5501 16.2285 89.3539 15.9154C88.993 16.4875 87.6314 16.7184 87.2833 16.9684C87.1789 17.0438 87.2399 17.3232 86.9015 17.4972C86.6244 17.639 85.8166 17.6674 85.4676 17.8277C85.097 17.9984 85.0386 18.2728 84.8725 18.3485C84.7156 18.42 84.5018 18.2901 84.2804 18.3698C83.5901 18.622 83.0707 19.1448 82.5269 19.3554C82.5185 19.3586 82.5102 19.3618 82.5019 19.3649C81.7402 19.6481 80.8771 19.3615 80.1643 19.3461C80.0187 19.4368 79.9037 19.6072 79.7382 19.6658C77.6957 20.3957 75.3824 21.2253 73.2881 21.9261C72.3268 22.2585 70.0587 23.6212 70.4032 22.1988C70.0046 22.0713 67.6308 23.1539 67.1568 23.254C66.676 23.364 66.2483 23.2141 65.8712 23.2862C64.7283 23.5025 63.9846 23.8134 62.5442 23.852C62.175 23.8604 61.747 23.6504 61.536 23.687C61.2818 23.7319 61.0481 24.0379 60.7202 24.1044C59.949 24.2617 58.4375 24.3788 57.6868 24.5144C57.5491 24.5403 57.5284 24.7785 57.3382 24.8748C56.6009 25.2508 55.7173 25.3175 55.7948 24.5584C54.8353 25.0855 53.8746 24.7845 52.9598 24.8337C50.9936 24.9556 47.4286 25.2905 45.7291 24.9922C44.6416 24.8089 44.6665 24.4781 43.0975 24.7629C42.753 24.8251 42.3968 24.9083 41.966 24.9783C40.9568 25.1431 40.0275 25.735 39.2921 24.9613C38.1593 25.1121 37.2887 24.9286 36.4358 25.5161C36.3504 25.3577 36.2586 25.1988 36.1703 25.0399C36.0324 25.0275 35.8949 25.0148 35.7577 25.0019C35.7051 25.1446 35.6525 25.2872 35.5997 25.4299C34.6005 25.4027 33.4503 24.7075 32.6037 24.6329C31.213 24.5247 27.6797 24.3415 26.3101 24.3307C25.6028 24.334 25.6157 24.019 25.1281 24.5947C24.9842 24.5276 24.8331 24.459 24.6815 24.3901C24.6043 24.2357 24.5277 24.0812 24.4518 23.9268C23.5461 23.7774 22.5073 23.8215 21.6332 23.6597C20.1032 23.3805 17.9013 22.5347 16.3049 22.4259C15.9167 22.4029 15.3761 22.5742 14.9898 22.4779C14.44 22.3406 14.4205 21.8408 13.7578 21.6648C12.5268 21.3436 10.2735 21.3032 9.12285 20.9088C8.80239 20.7998 8.72343 20.5884 8.48276 20.4945C7.54273 20.1186 6.79207 19.8908 5.96989 19.3166C4.91588 19.4396 4.71926 19.996 4.25854 20.4686C3.84367 20.8014 2.79699 21.527 2.53137 21.8454C2.47529 21.9731 2.40341 22.1162 2.40789 22.2936C2.42962 22.4777 2.40417 22.6464 2.29184 22.7672C3.43696 23.4727 4.00719 23.3787 5.16843 23.3178C6.94756 23.9336 8.80533 24.5083 10.616 25.0209C10.8363 24.9074 11.0439 24.7899 11.247 24.6709C11.2471 24.6705 11.2472 24.6702 11.2473 24.6698C11.9799 24.6656 12.1784 25.1619 12.5457 25.3572C15.9363 27.2435 23.4436 27.9463 27.5472 28.3172C28.4153 28.4163 31.2932 28.9604 31.9262 28.7383C32.0914 28.6827 32.1595 28.4295 32.3293 28.4338C33.8186 28.7247 35.3038 28.9885 36.7976 29.226C39.9286 28.9993 43.0761 29.3906 46.2291 29.3885C54.6749 29.3867 63.0974 28.5314 71.2045 26.4912C72.7727 26.0991 74.7974 25.754 76.285 25.182C76.8998 24.9456 77.0386 24.4712 77.9566 24.509C77.9318 24.3996 77.9071 24.2902 77.8823 24.1807C78.6406 24.0837 79.1882 24.1745 79.9992 23.931C80.6764 23.7315 82.4634 23.1193 83.0451 22.8547C83.3468 22.7203 83.1589 22.5672 83.4469 22.4609C83.5043 22.4398 83.5705 22.4195 83.6439 22.3996C84.1848 22.2537 85.1213 22.1515 85.6979 21.9486C86.2902 21.7378 87.2045 21.1727 87.6778 21.0544C89.3924 20.6183 91.2714 20.4221 93.0472 19.8389C93.5332 19.6778 94.0984 19.2497 94.2551 19.2172C94.561 19.1543 94.7157 19.3866 94.9258 19.3682C96.0023 19.2693 97.5561 18.5851 98.5681 18.357C101.915 17.5926 105.472 17.1232 108.858 16.68C110.985 16.3873 114.561 16.1458 116.517 15.8645C116.941 15.8014 116.818 15.5186 117.18 15.5027C117.584 15.4856 117.808 15.6723 117.995 15.6812C119.283 15.736 122.151 15.8973 123.349 15.7182C123.584 15.6822 123.757 15.4585 123.898 15.4612C123.969 15.4622 124.128 15.6186 124.35 15.6382C126.291 15.8145 127.737 15.783 129.626 15.8429C133.304 15.9621 137.482 16.6974 141.318 17.1467C142.166 17.2456 142.8 16.9009 142.916 16.9249C143.171 16.9774 143.27 17.2986 143.779 17.4639C145.483 18.01 147.794 18.1493 149.414 18.673C150.174 18.9194 151.22 19.5606 151.949 19.8315C152.561 20.0513 154.04 20.2883 154.283 20.5308C154.427 20.6753 154.419 21.0103 154.608 21.1049ZM133.957 12.2123C134.03 12.7398 132.817 12.1977 133.311 11.9617C133.424 11.9082 133.94 12.0749 133.957 12.2123ZM77.2436 21.4506C77.2095 21.3057 77.1754 21.1608 77.1412 21.0159C77.311 21.027 77.4812 21.0376 77.6517 21.0478C77.5938 21.1601 77.5356 21.2723 77.4773 21.3846C77.3994 21.4067 77.3215 21.4287 77.2436 21.4506ZM163.726 23.9107C163.777 23.9202 163.713 23.7291 163.743 23.6968C163.87 23.5573 163.837 23.416 163.934 23.2522C164.014 23.124 164.233 23.0067 164.36 22.7413C164.5 22.4662 164.478 22.0904 163.984 21.6295C163.984 21.6295 163.984 21.6295 163.984 21.6295C163.974 21.6203 163.965 21.6111 163.955 21.6019C163.765 21.4273 163.521 21.2748 163.311 21.0732C163.1 20.8718 161.77 19.5423 161.685 19.4776C161.577 19.3907 161.769 19.859 161.721 19.8679C161.691 19.8722 161.562 19.7561 161.516 19.7524C161.365 19.7429 161.387 19.8796 161.04 19.5541C161.144 19.7796 161.243 20.0081 161.337 20.239C161.223 20.1782 161.314 20.5031 161.275 20.5067C161.242 20.5105 161.124 20.3561 161.092 20.3652C161.056 20.3744 161.119 20.5816 161.043 20.5907C160.919 20.6066 160.642 20.1838 160.551 20.1634C160.46 20.1402 160.51 20.4284 160.345 20.3185C160.308 20.2758 160.271 20.2331 160.234 20.1903C160.178 20.0773 160.122 19.9645 160.067 19.8517C160 19.8223 160.112 20.0552 160.078 20.0795C160.039 20.1081 159.898 19.9077 159.87 19.9246C159.847 19.9387 159.91 20.1275 159.873 20.1342C159.819 20.1447 159.694 19.8911 159.645 19.8575C159.627 19.8443 159.383 19.8 159.372 19.8034C159.293 19.8337 159.469 20.1778 159.424 20.2405C159.292 20.4159 158.978 20.2275 158.766 20.2041C158.671 20.1936 158.607 20.2518 158.562 20.344C159.128 21.1665 159.218 21.985 158.614 20.5549C158.629 20.7941 158.389 20.4467 158.346 20.5476C158.318 20.6131 158.381 20.822 158.308 20.852C158.178 20.9043 157.769 20.4251 158.218 21.4337C157.98 21.3344 158.032 21.7538 157.552 20.9039C157.489 20.8686 157.643 21.4385 157.633 21.5307C157.626 21.6167 157.414 22.0084 157.372 22.0442C157.327 22.0817 157.243 22.1388 157.163 22.0822C157.063 22.0126 156.595 21.1162 156.999 22.2316C156.843 22.199 156.816 22.2488 156.766 22.4238C156.756 22.4554 156.828 22.6155 156.817 22.621C156.793 22.6318 156.7 22.5323 156.652 22.5371C156.574 22.5449 156.69 22.8978 156.461 22.3828C156.376 22.3178 156.292 22.2527 156.207 22.1876C156.237 22.2936 156.267 22.3997 156.297 22.5058C156.223 22.4092 156.149 22.3127 156.076 22.2161C156.445 22.9438 156.073 22.5851 155.933 22.1343C155.916 22.3279 155.898 22.5218 155.879 22.716C156.275 23.5539 155.731 22.9005 155.54 22.4339C155.531 22.4391 155.521 22.4443 155.511 22.4495C155.526 22.7134 155.362 22.5664 155.323 22.7657C155.283 22.965 155.33 23.0428 155.472 23.4462C155.437 23.4355 155.401 23.4248 155.365 23.414C154.752 22.4083 155.603 24.2443 155.01 23.5278C155.237 24.2308 154.899 23.9592 154.689 23.809C154.664 23.7916 154.606 23.6614 154.57 23.6295C154.481 23.5531 154.44 23.7722 154.257 23.35C154.271 23.4895 154.284 23.629 154.298 23.7685C154.231 23.7067 154.165 23.6445 154.099 23.5824C154.041 23.451 153.983 23.3197 153.925 23.1883C154.057 23.6647 153.878 23.5383 153.874 23.6678C153.874 23.694 153.951 23.8761 153.942 23.9395C153.93 24.0145 153.838 23.9912 153.819 24.0672C153.713 23.874 153.608 23.6807 153.502 23.4874C153.376 23.4131 153.581 23.9555 153.552 24.0171C153.547 24.0279 153.377 24.0568 153.364 24.0491C153.258 23.9888 153.079 23.5285 152.928 23.7099C152.901 23.7424 152.941 23.9111 152.913 23.931C152.863 23.9664 152.542 23.6841 152.386 23.3617C152.497 23.8014 152.245 23.7116 152.243 23.8533C152.243 23.8967 152.353 24.1599 152.328 24.2368C152.308 24.2995 152.115 24.1343 152.08 24.1912C152.043 24.2526 152.119 24.4807 152.101 24.5067C152.085 24.531 151.987 24.3625 151.957 24.3769C151.863 24.4249 151.899 24.7484 151.824 24.7866C151.717 24.8426 151.393 24.3589 151.2 24.1653C151.192 24.2092 151.218 24.3318 151.194 24.3432C150.903 24.4882 150.61 24.7286 150.358 24.97C150.241 25.0815 150.201 25.9438 149.783 24.7121C149.646 24.5241 149.502 25.154 149.437 25.1905C149.372 25.2264 149.228 25.0352 149.174 25.0546C149.011 25.1131 148.965 25.3149 148.694 25.2107C148.623 25.1832 148.462 24.9523 148.434 24.968C148.4 24.9875 148.465 25.249 148.426 25.2844C148.33 25.3669 148.09 25.374 148.003 25.4613C147.987 25.4778 148.072 25.6958 148.073 25.7748C148.079 26.0832 147.95 26.1112 147.678 25.4154C147.707 25.8637 147.425 25.5639 147.288 25.5966C146.999 25.6673 146.575 26.0387 146.215 25.8519C145.988 25.7337 145.861 25.4238 145.757 25.7831C145.733 25.8634 145.718 25.9641 145.688 26.06C145.619 26.2858 145.738 26.9084 145.338 26.2693C145.263 26.5125 145.087 26.4392 145.224 27.0751C145.149 26.9407 145.075 26.8064 145 26.6721C144.98 26.677 144.959 26.6818 144.938 26.6866C144.991 26.8229 145.043 26.9593 145.095 27.0956C144.975 27.1908 144.565 26.7157 144.455 26.7689C144.26 26.8612 143.864 27.2912 143.759 27.554C143.702 27.6938 143.569 27.4111 143.776 28.0222C143.736 27.9912 143.696 27.9602 143.656 27.9292C143.585 27.8071 143.513 27.685 143.442 27.5629C143.312 27.615 143.27 27.8743 143.14 27.931C142.911 28.0304 142.44 27.822 142.313 28.1636C142.285 28.2481 142.341 28.5424 142.287 28.5646C142.207 28.5982 141.99 28.1688 141.875 28.2144C141.678 28.2937 141.621 28.9481 141.42 29.0065C141.364 29.0221 141.257 28.8765 141.213 28.8782C141.045 28.8753 140.889 28.9788 140.599 28.8303C140.665 29.3293 140.982 29.8355 141.266 30.367C141.468 30.7763 142 31.6874 142.246 32.0005C142.411 32.225 142.628 32.5108 142.808 32.7595C142.95 32.959 142.861 32.6941 142.725 32.2734C142.925 32.177 143.147 32.0805 143.377 31.9839C143.322 31.8241 143.267 31.664 143.214 31.5036C143.213 31.5032 143.213 31.5029 143.213 31.5026C143.216 31.2851 143.447 31.6524 143.54 31.7161C144.4 32.3371 145.026 31.2445 145.533 30.9049C145.636 30.8346 146.111 30.8719 146.084 30.5867C146.075 30.5129 145.977 30.2738 145.994 30.254C146.249 30.31 146.509 30.3646 146.772 30.4177C147.013 29.875 147.579 29.9922 148.009 29.8751C149.192 29.5496 150.383 29.2645 151.465 28.7345C151.673 28.6321 152.023 28.6931 152.182 28.4888C152.249 28.4038 152.122 28.0069 152.359 28.2419C152.316 28.1386 152.273 28.0353 152.23 27.9321C152.383 28.0132 152.548 28.2194 152.67 28.1949C152.773 28.1738 153.031 28.0811 153.097 28.0058C153.132 27.9675 153.033 27.7826 153.074 27.7662C153.144 27.7394 153.407 27.9408 153.502 27.8994C153.589 27.862 153.639 27.578 153.719 27.5812C154.008 27.591 154.413 27.8041 154.629 27.605C154.689 27.5495 154.671 27.2617 154.696 27.259C154.745 27.2546 154.864 27.4901 154.907 27.5083C155.123 27.5999 155.228 27.2124 155.367 27.1375C155.818 26.8945 156.366 26.7765 156.816 26.5208C157.102 26.359 157.61 26.1789 157.803 25.8716C157.844 25.8056 157.708 25.551 157.757 25.5283C157.812 25.5033 157.923 25.6664 157.955 25.669C158.173 25.6899 158.657 25.6809 158.738 25.4227C158.753 25.3731 158.679 25.158 158.699 25.1498C158.708 25.1453 158.796 25.2745 158.832 25.2745C159.153 25.2769 159.323 25.0958 159.558 24.9232C160.013 24.5912 160.735 24.5511 161.185 24.1385C161.286 24.0476 161.159 23.6086 161.177 23.6043C161.217 23.5931 161.382 23.8457 161.49 23.8719C161.841 23.96 162.022 23.492 162.322 23.4915C162.465 23.4948 162.832 23.7206 162.994 23.7202C163.127 23.7182 163.253 23.4621 163.397 23.5676C163.479 23.6348 163.67 23.8988 163.726 23.9107ZM158.344 21.1141C158.591 21.5722 158.242 21.263 158.177 20.9838C158.162 20.9209 158.281 20.9952 158.344 21.1141ZM151.155 25.3508C151.098 25.2138 151.041 25.0767 150.984 24.9397C151.029 24.9872 151.075 25.0347 151.121 25.0822C151.144 25.1694 151.168 25.2566 151.191 25.3438C151.179 25.3461 151.167 25.3485 151.155 25.3508ZM149.947 2.74526C149.954 2.70047 149.787 2.80704 149.757 2.79067C149.63 2.72351 149.498 2.78042 149.357 2.74442C149.149 2.69118 148.958 2.12284 147.983 3.05824C147.983 3.05826 147.983 3.05829 147.982 3.05831C147.973 3.06748 147.963 3.0768 147.954 3.08626C147.769 3.26583 147.598 3.49366 147.393 3.70014C147.187 3.90669 145.826 5.20457 145.795 5.32502C145.76 5.49 146.266 5.32071 146.285 5.37206C146.299 5.40725 146.205 5.55634 146.213 5.60931C146.242 5.78008 146.384 5.74748 146.137 6.16173C146.35 6.02949 146.562 5.89725 146.774 5.76501C146.739 5.892 147.042 5.74206 147.057 5.78379C147.07 5.81807 146.944 5.96616 146.962 5.99756C146.981 6.03352 147.173 5.9323 147.199 6.00543C147.244 6.12465 146.893 6.48904 146.896 6.58392C146.898 6.68221 147.174 6.57377 147.11 6.76355C147.078 6.81037 147.046 6.8572 147.014 6.90401C146.917 6.98494 146.821 7.06586 146.724 7.14678C146.715 7.22091 146.914 7.05724 146.947 7.08494C146.986 7.11744 146.828 7.30491 146.852 7.32862C146.872 7.3479 147.04 7.23967 147.056 7.27417C147.08 7.32377 146.868 7.51102 146.849 7.56801C146.842 7.59037 146.874 7.84882 146.881 7.85887C146.934 7.93118 147.219 7.66915 147.293 7.69726C147.496 7.77628 147.411 8.1392 147.453 8.35308C147.471 8.44865 147.546 8.49467 147.648 8.51069C148.273 7.73303 149.026 7.40502 147.834 8.40018C148.056 8.31315 147.799 8.64892 147.909 8.66205C147.981 8.67027 148.163 8.54943 148.214 8.61063C148.303 8.72018 147.969 9.25388 148.793 8.51955C148.767 8.77354 149.156 8.59995 148.494 9.31705C148.48 9.38902 148.975 9.0664 149.065 9.04638C149.15 9.02766 149.579 9.0969 149.629 9.12777C149.679 9.15863 149.759 9.21938 149.73 9.31304C149.695 9.42958 148.995 10.159 149.922 9.41881C149.939 9.57473 149.994 9.58332 150.173 9.57186C150.206 9.5698 150.334 9.45017 150.342 9.45889C150.36 9.47708 150.296 9.59771 150.316 9.64112C150.348 9.71242 150.644 9.48757 150.231 9.87161C150.197 9.9722 150.162 10.0728 150.128 10.1734C150.218 10.1105 150.309 10.0475 150.399 9.98463C150.331 10.0855 150.264 10.1863 150.196 10.2872C150.764 9.70073 150.543 10.1662 150.164 10.447C150.352 10.3985 150.539 10.35 150.726 10.3015C151.386 9.65062 150.947 10.3774 150.57 10.7127C150.578 10.72 150.586 10.7273 150.594 10.7346C150.838 10.6325 150.752 10.8347 150.952 10.8036C151.151 10.7725 151.209 10.7023 151.541 10.4326C151.542 10.4691 151.543 10.5056 151.544 10.5421C150.799 11.4538 152.242 10.0353 151.764 10.8319C152.348 10.3798 152.203 10.7856 152.13 11.0318C152.122 11.0604 152.019 11.1592 152.001 11.2039C151.958 11.3119 152.176 11.274 151.841 11.5893C151.966 11.528 152.092 11.4667 152.218 11.4054C152.181 11.4884 152.145 11.5715 152.109 11.6545C152.005 11.7537 151.901 11.8529 151.798 11.9522C152.199 11.6642 152.14 11.874 152.262 11.8323C152.287 11.8237 152.431 11.6884 152.494 11.6753C152.567 11.6593 152.576 11.7528 152.653 11.7438C152.507 11.9088 152.361 12.0738 152.215 12.2387C152.188 12.3816 152.626 12.0022 152.692 12.0066C152.704 12.0076 152.786 12.1531 152.783 12.1679C152.762 12.2872 152.392 12.614 152.611 12.6898C152.65 12.7031 152.794 12.6065 152.822 12.6257C152.871 12.6595 152.714 13.055 152.466 13.3125C152.838 13.0541 152.838 13.3181 152.97 13.2691C153.01 13.2538 153.219 13.0592 153.299 13.0547C153.364 13.0509 153.274 13.2873 153.338 13.2995C153.408 13.3117 153.595 13.1605 153.625 13.1672C153.653 13.1736 153.528 13.3235 153.552 13.3463C153.627 13.4155 153.916 13.2669 153.976 13.3212C154.064 13.3994 153.722 13.8701 153.606 14.1166C153.649 14.1084 153.755 14.0406 153.773 14.0582C154.004 14.2729 154.326 14.4562 154.633 14.5993C154.775 14.6661 155.588 14.3913 154.585 15.2185C154.456 15.4124 155.09 15.318 155.144 15.3633C155.198 15.4088 155.069 15.61 155.105 15.6523C155.213 15.7799 155.416 15.7489 155.41 16.0358C155.408 16.1103 155.248 16.3415 155.272 16.3618C155.301 16.3857 155.522 16.2304 155.567 16.2537C155.675 16.3108 155.761 16.527 155.871 16.5752C155.892 16.5836 156.065 16.4269 156.138 16.3972C156.423 16.281 156.492 16.3894 155.938 16.8901C156.344 16.7011 156.157 17.0654 156.233 17.1785C156.394 17.4166 156.877 17.6686 156.822 18.064C156.786 18.3134 156.542 18.5424 156.909 18.5078C156.991 18.5001 157.088 18.4769 157.186 18.4685C157.416 18.4484 157.955 18.1159 157.493 18.7116C157.743 18.6937 157.733 18.881 158.276 18.5257C158.175 18.6417 158.074 18.7577 157.974 18.8737C157.985 18.8905 157.995 18.9073 158.006 18.9242C158.116 18.8277 158.225 18.7311 158.335 18.6346C158.461 18.7093 158.152 19.2534 158.238 19.3366C158.381 19.4765 158.907 19.6877 159.18 19.6885C159.325 19.6889 159.103 19.9091 159.607 19.5063C159.59 19.5535 159.574 19.6007 159.557 19.6479C159.465 19.7554 159.374 19.8629 159.282 19.9704C159.367 20.0676 159.631 20.0272 159.715 20.1177C159.867 20.2829 159.821 20.7941 160.16 20.781C160.246 20.7774 160.504 20.6277 160.54 20.67C160.592 20.7312 160.259 21.0784 160.323 21.1585C160.434 21.2958 161.065 21.1458 161.149 21.2956C161.175 21.3399 161.061 21.4805 161.071 21.5184C161.111 21.6786 161.203 21.7534 161.098 22.044C161.533 21.8313 161.954 21.4102 162.419 21.0275C162.771 20.7388 163.603 20.0884 163.9 19.8245C164.108 19.6391 164.34 19.3622 164.572 19.1604C164.627 18.8632 164.38 18.9964 163.969 19.1918C163.798 18.9886 163.627 18.7854 163.456 18.5822C163.319 18.6808 163.181 18.7794 163.043 18.878C163.043 18.8782 163.043 18.8785 163.043 18.8787C162.833 18.9391 163.114 18.6093 163.147 18.5019C163.461 17.4734 162.215 17.2351 161.738 16.8907C161.636 16.8163 161.518 16.3674 161.263 16.494C161.196 16.5271 161.005 16.7015 160.981 16.6923C160.946 16.434 160.912 16.1757 160.877 15.9174C160.287 15.8829 160.217 15.3304 159.96 14.9728C159.265 14.0051 158.603 13.021 157.755 12.226C157.591 12.0727 157.534 11.7332 157.292 11.6611C157.191 11.6308 156.865 11.8904 157.005 11.5895C156.924 11.6659 156.842 11.7424 156.76 11.8189C156.785 11.6496 156.922 11.4251 156.859 11.3222C156.806 11.2358 156.637 11.0348 156.545 11.0012C156.498 10.9831 156.359 11.1399 156.331 11.1086C156.283 11.0539 156.384 10.7421 156.315 10.6698C156.252 10.6043 155.972 10.6605 155.949 10.586C155.865 10.3191 155.933 9.87474 155.679 9.74771C155.608 9.71306 155.347 9.8319 155.336 9.80996C155.316 9.76641 155.497 9.57456 155.5 9.52922C155.517 9.29952 155.125 9.34231 155.011 9.24171C154.641 8.91395 154.362 8.45755 153.988 8.13677C153.751 7.93398 153.428 7.53 153.087 7.46036C153.014 7.44538 152.817 7.65679 152.781 7.61937C152.741 7.57785 152.86 7.42059 152.853 7.39031C152.804 7.17983 152.662 6.74734 152.397 6.75842C152.346 6.76074 152.166 6.89957 152.153 6.88455C152.146 6.87724 152.241 6.75403 152.231 6.72017C152.137 6.42092 151.931 6.33533 151.702 6.17328C151.265 5.86212 151.049 5.22283 150.554 4.93059C150.446 4.86687 150.067 5.11638 150.058 5.10102C150.039 5.06792 150.239 4.84273 150.241 4.73693C150.243 4.38712 149.778 4.36538 149.722 4.08901C149.694 3.95261 149.858 3.57176 149.838 3.42966C149.823 3.31613 149.564 3.26187 149.656 3.11633C149.712 3.02828 149.938 2.795 149.947 2.74526ZM148.453 8.49808C148.817 8.12655 148.625 8.55054 148.379 8.69665C148.323 8.72955 148.359 8.59452 148.453 8.49808ZM154.722 13.7325C154.613 13.834 154.505 13.9356 154.397 14.0372C154.426 13.978 154.454 13.9189 154.483 13.8597C154.557 13.8072 154.63 13.7546 154.703 13.7021C154.709 13.7122 154.715 13.7224 154.722 13.7325Z" fill="#1D79E9" style="fill:#1D79E9;fill:color(display-p3 0.1137 0.4730 0.9122);fill-opacity:1;"/>
</svg>
