<svg width="81" height="136" viewBox="0 0 81 136" fill="none" xmlns="http://www.w3.org/2000/svg">
<path d="M65.8956 116.677C66.0561 116.768 66.3727 116.667 66.5675 116.72C67.4084 116.945 67.7582 116.913 68.5385 117.074C69.6789 117.322 73.0526 118.53 73.4087 117.216C73.4087 117.216 73.4087 117.216 73.4087 117.216C73.4122 117.203 73.4153 117.19 73.4182 117.177C73.4724 116.925 73.2537 116.575 73.287 116.282C73.3206 115.989 73.8429 114.182 73.4677 113.97C72.9183 113.677 71.4003 113.743 71.1009 113.631C70.8957 113.555 70.6878 113.315 70.4315 113.206C69.6065 112.854 69.1254 112.834 68.5134 112.151C68.1374 112.287 67.7651 112.423 67.3699 112.551C66.9966 112.309 66.2789 112.407 66.039 112.305C65.8422 112.222 65.7878 111.999 65.5823 111.918C65.3524 111.826 64.9245 111.897 64.5136 111.716C63.8406 111.42 63.8945 110.901 63.5098 110.69C63.1116 110.471 62.3622 110.481 61.8978 110.109C61.8496 110.03 61.8002 109.951 61.7517 109.873C61.847 109.775 61.942 109.677 62.037 109.58C61.7824 109.417 61.5698 109.61 61.3154 109.514C61.0163 109.401 60.9569 109.114 60.7587 109.035C60.5963 108.97 60.3028 109.062 60.0983 108.964C59.8001 108.822 59.9753 108.589 59.8328 108.472C59.7732 108.427 58.6449 107.778 58.5819 107.746C58.0816 107.516 57.8824 107.85 57.4677 107.703C56.3422 107.303 55.2755 106.458 54.3175 105.855C53.8852 105.585 53.405 105.369 52.931 105.197C53.1894 106.44 51.2697 106.323 52.5641 105.246C51.9659 105.186 51.8171 104.635 51.3161 104.448C50.9856 104.323 50.6696 104.397 50.2351 104.152C49.4621 103.715 48.9439 102.712 48.1733 103.54C47.3833 102.857 46.4233 102.74 46.6239 101.72C46.428 101.531 45.5381 101.659 45.2419 101.564C44.9567 101.479 43.0014 100.509 42.7084 100.318C42.4089 100.133 41.8953 99.7964 41.7046 99.5573C41.4578 99.2541 41.8296 98.2809 40.5947 98.8446C40.0187 98.3066 39.7779 98.1692 39.1194 97.8431C39.0004 97.7839 38.8825 97.9144 38.8216 97.8681C38.6964 97.7726 38.5634 97.5072 38.3528 97.3235C38.0067 97.0217 37.5739 97.1485 37.9631 96.7381C37.7842 96.4763 37.6162 96.2211 37.4331 95.9516C37.281 95.9686 37.1288 95.9851 36.9765 96.0012C36.9239 95.8055 36.8724 95.61 36.8219 95.4147C36.4501 96.1669 35.8711 95.0582 36.4593 94.9394C35.8994 94.6906 35.3432 94.4365 34.7905 94.1768C34.239 94.9291 33.7537 93.4007 34.182 93.1051C34.1322 93.0612 34.0825 93.0172 34.0328 92.9732C33.4379 92.7661 33.1644 92.2397 32.5301 91.8655C31.8941 91.4876 31.8821 91.5982 31.4269 91.7512C31.3216 91.615 31.217 91.4785 31.113 91.342C31.3074 89.8875 29.9811 91.4341 29.5602 89.7102C28.686 89.863 28.128 88.7038 27.7635 87.9622C27.7206 87.8758 27.8256 87.7794 27.7761 87.6582C27.653 87.364 27.0099 86.9084 27.3746 86.626C27.101 86.5145 26.8279 86.4014 26.5551 86.2868C26.4784 86.0682 26.3984 85.8442 26.3221 85.6231C26.4328 85.5317 26.5435 85.4402 26.6542 85.3488C25.9961 85.3268 25.7018 84.6717 25.3987 84.4813C25.3378 84.4436 25.1743 84.5566 25.0003 84.4259C24.7959 84.2737 24.5574 83.878 24.3291 83.6854C24.4321 83.4608 24.5359 83.2368 24.6405 83.0136C24.4189 82.5316 23.8492 82.7373 23.629 82.5202C23.5897 82.4836 23.0154 81.6391 22.9952 81.5876C22.8123 81.1672 23.2793 80.9838 22.4563 79.9982C22.3102 79.8225 22.0649 79.7681 21.9425 79.6021C21.7227 79.3082 21.4394 78.1877 21.6916 77.9173C21.0718 77.7946 20.5871 76.6963 20.2963 76.4697C20.2072 76.4016 19.9521 76.5322 19.7305 76.2882C19.5498 76.0902 19.3959 75.3951 19.1952 75.1302C18.9805 74.8493 18.7107 74.8617 18.6165 74.7339C18.5284 74.6139 18.6248 74.3947 18.522 74.2179C18.1975 73.6664 17.6439 73.3118 17.3961 72.8699C17.037 72.2309 17.2429 71.3936 17.1936 70.7428C17.0922 70.6268 16.9159 70.552 16.8437 70.4122C15.9334 68.6634 14.9248 66.7293 14.0482 64.9454C13.6362 64.1297 12.0944 62.2893 13.5241 62.3904C13.6167 62.0196 12.3366 60.0333 12.1943 59.6176C12.0447 59.2059 12.1555 58.8038 12.0517 58.4781C11.739 57.491 11.3556 56.8332 11.1941 55.5658C11.1533 55.238 11.3228 54.828 11.2678 54.6445C11.2007 54.4234 10.8776 54.2563 10.7817 53.9697C10.5519 53.282 10.3032 51.9603 10.0992 51.3025C10.061 51.1825 9.82319 51.1942 9.71033 51.0358C9.26951 50.4199 9.12245 49.6405 9.88182 49.6147C9.27127 48.8236 9.47957 47.9242 9.34407 47.1064C9.04414 45.3846 8.36776 42.2313 8.49497 40.663C8.57115 39.676 8.90288 39.664 8.46363 38.2905C8.36704 37.9843 8.25011 37.6882 8.13699 37.308C7.8721 36.4267 7.18829 35.6448 7.88279 34.9081C7.61871 33.932 7.71058 33.1281 7.03726 32.4112C7.18578 32.3156 7.33443 32.2206 7.4832 32.1259C7.48135 32.0029 7.47972 31.88 7.4783 31.7572C7.33093 31.7251 7.18358 31.6929 7.03624 31.6605C6.95949 30.7757 7.52908 29.6622 7.51346 28.9065C7.47393 27.6547 7.2751 24.4442 7.13347 23.2508C7.05221 22.6207 7.36668 22.6025 6.74075 22.217C6.79159 22.0819 6.84316 21.9367 6.89477 21.7969C7.03962 21.7144 7.18457 21.6324 7.32959 21.5507C7.37677 20.7367 7.22001 19.7668 7.27986 19.0071C7.38674 17.5961 7.97484 15.5651 7.89892 14.1234C7.87837 13.7623 7.64704 13.2856 7.69617 12.9435C7.7678 12.4464 8.26068 12.3918 8.35931 11.7743C8.532 10.6616 8.31213 8.60288 8.56129 7.55332C8.63237 7.24826 8.83611 7.14082 8.89638 6.93533C9.15274 6.07103 9.28336 5.38936 9.74924 4.59056C9.50757 3.58833 8.91318 3.52999 8.39616 3.10973C8.00585 2.79294 7.1488 1.89239 6.78862 1.70117C6.53501 1.56697 6.12545 1.72036 5.85116 1.5535C5.33673 2.58735 5.48678 3.13349 5.69984 4.15306C5.31343 5.80371 4.96107 7.5416 4.66865 9.19586C4.80836 9.37724 4.94847 9.55837 5.089 9.73927C5.08936 9.73933 5.08972 9.73938 5.09008 9.73944C5.17634 10.4207 4.70813 10.635 4.55755 10.9792C3.08227 14.1943 3.23165 21.0149 3.30659 24.725C3.3027 25.5516 3.07185 28.1424 3.35937 28.7046C3.43226 28.8475 3.69126 28.8835 3.705 29.0361C3.57432 30.4104 3.46682 31.7436 3.38617 33.1261C3.9346 35.8927 3.86569 38.7896 4.17596 41.6073C5.00937 49.1985 6.62185 56.6811 9.37379 63.743C9.89884 65.0963 10.4265 66.8898 11.1271 68.1572C11.4164 68.6805 11.8941 68.7328 11.942 69.5718C12.0468 69.5321 12.1516 69.4924 12.2565 69.4527C12.422 70.1263 12.3807 70.6315 12.6973 71.335C12.963 71.9335 13.728 73.4553 14.0397 73.9372C14.1988 74.1882 14.3303 73.9918 14.4606 74.2347C14.6811 74.6507 14.9212 75.6767 15.2517 76.2474C15.5482 76.7647 16.26 77.49 16.4677 77.8954C17.2098 79.3527 17.8963 81.0625 18.9751 82.4373C19.2743 82.819 19.8577 83.1676 19.9404 83.2944C20.1011 83.5435 19.9408 83.7699 20.0318 83.9514C20.5011 84.8856 21.6935 85.9244 22.327 86.689C24.3827 89.1904 26.6075 91.8063 28.9193 93.9926C30.3931 95.4111 32.855 97.6653 34.4522 98.7004C34.794 98.9247 34.892 98.6325 35.1568 98.8469C35.4519 99.085 35.4806 99.3564 35.6077 99.4774C36.4628 100.31 38.5037 102.078 39.5742 102.574C39.7717 102.666 40.0285 102.569 40.1333 102.643C40.1866 102.68 40.2194 102.891 40.3793 103.02C41.7906 104.155 42.9808 104.818 44.5394 105.71C47.4769 107.393 50.8419 109.521 54.203 110.907C54.9514 111.218 55.5912 111.013 55.693 111.064C55.9054 111.169 55.921 111.506 56.3341 111.769C57.6974 112.638 59.9096 113.195 61.2697 113.871C61.9424 114.208 62.7878 114.927 63.4713 115.26C64.0138 115.527 65.4199 115.851 65.6256 116.095C65.7498 116.243 65.7196 116.576 65.8956 116.677ZM49.6494 104.114C49.4854 104.619 48.7504 103.709 49.2426 103.666C49.3525 103.657 49.6913 103.983 49.6494 104.114ZM14.87 68.4412C15.0086 68.3873 15.1473 68.3333 15.2859 68.2793C15.2902 68.4341 15.295 68.5891 15.3003 68.7442C15.1854 68.7102 15.0704 68.6759 14.9555 68.6413C14.9269 68.5746 14.8984 68.5079 14.87 68.4412ZM70.6909 116.973C70.6848 117.02 70.8582 116.921 70.8901 116.941C71.0254 117.024 71.1632 116.975 71.3122 117.026C71.5332 117.101 71.7494 117.721 72.7518 116.814C72.7518 116.814 72.7518 116.814 72.7518 116.814C72.7617 116.805 72.7716 116.796 72.7815 116.787C72.9711 116.613 73.145 116.386 73.3559 116.185C73.5668 115.984 74.9654 114.726 74.9948 114.601C75.027 114.429 74.4988 114.564 74.4768 114.508C74.4618 114.469 74.5567 114.319 74.546 114.262C74.5117 114.079 74.3631 114.101 74.6112 113.683C74.3912 113.804 74.1712 113.926 73.9512 114.048C73.9851 113.916 73.6695 114.048 73.6522 114.003C73.638 113.965 73.7669 113.819 73.7474 113.784C73.7264 113.744 73.5266 113.835 73.4966 113.755C73.4469 113.624 73.8058 113.268 73.8009 113.167C73.7958 113.063 73.5078 113.154 73.5703 112.958C73.6028 112.911 73.6353 112.864 73.6678 112.817C73.7672 112.74 73.8665 112.662 73.9659 112.585C73.9744 112.507 73.7685 112.663 73.7329 112.631C73.691 112.593 73.8527 112.408 73.8265 112.381C73.8049 112.358 73.6315 112.459 73.6136 112.421C73.5868 112.366 73.805 112.186 73.823 112.127C73.8298 112.104 73.7893 111.827 73.7822 111.815C73.7234 111.734 73.4308 111.987 73.3523 111.95C73.1358 111.849 73.2154 111.471 73.166 111.24C73.144 111.137 73.0635 111.081 72.9566 111.056C72.3186 111.826 71.5347 112.108 72.7628 111.156C72.5316 111.229 72.7935 110.895 72.6767 110.872C72.6009 110.857 72.4128 110.969 72.3575 110.899C72.2605 110.775 72.5978 110.238 71.7493 110.945C71.7697 110.678 71.3657 110.828 72.0434 110.125C72.0556 110.05 71.5435 110.348 71.4493 110.362C71.3604 110.374 70.9063 110.263 70.8529 110.225C70.7996 110.188 70.7134 110.117 70.741 110.02C70.7744 109.899 71.4921 109.187 70.5362 109.89C70.5139 109.723 70.4557 109.709 70.2674 109.706C70.2333 109.705 70.1015 109.821 70.0922 109.811C70.0733 109.79 70.1373 109.668 70.1154 109.62C70.0792 109.541 69.774 109.754 70.1981 109.382C70.2316 109.279 70.2652 109.175 70.2987 109.071C70.2053 109.13 70.1118 109.189 70.0183 109.248C70.0867 109.147 70.1551 109.045 70.2235 108.944C69.6417 109.517 69.8611 109.042 70.2527 108.777C70.0569 108.812 69.861 108.847 69.6651 108.882C68.9877 109.515 69.4304 108.782 69.818 108.46C69.8094 108.451 69.8007 108.443 69.7921 108.434C69.5385 108.521 69.6228 108.314 69.4138 108.329C69.2047 108.345 69.1459 108.414 68.8035 108.671C68.8013 108.632 68.7991 108.593 68.7968 108.555C69.5568 107.653 68.0751 109.031 68.5572 108.228C67.9542 108.656 68.0964 108.238 68.1661 107.983C68.1742 107.953 68.2797 107.858 68.2976 107.812C68.3398 107.701 68.1117 107.722 68.4558 107.417C68.3252 107.471 68.1946 107.525 68.064 107.579C68.0999 107.494 68.1358 107.409 68.1718 107.324C68.2783 107.228 68.3849 107.131 68.4915 107.035C68.0761 107.305 68.133 107.088 68.0055 107.121C67.9798 107.128 67.8312 107.259 67.7659 107.268C67.6889 107.278 67.6775 107.178 67.5965 107.181C67.7456 107.019 67.8946 106.856 68.0436 106.694C68.0691 106.545 67.6177 106.909 67.5475 106.898C67.535 106.896 67.4448 106.735 67.4474 106.719C67.4667 106.594 67.8476 106.28 67.6148 106.18C67.5732 106.163 67.4243 106.253 67.3944 106.23C67.3413 106.19 67.496 105.784 67.7509 105.532C67.3657 105.774 67.3588 105.493 67.2209 105.534C67.1788 105.546 66.9645 105.734 66.8805 105.732C66.8122 105.73 66.9003 105.487 66.8319 105.469C66.7585 105.45 66.5657 105.594 66.5341 105.584C66.5044 105.575 66.6313 105.427 66.6059 105.4C66.5244 105.32 66.2243 105.452 66.1595 105.389C66.0654 105.299 66.4127 104.829 66.528 104.578C66.4823 104.583 66.3733 104.645 66.3535 104.625C66.1045 104.377 65.7605 104.154 65.4332 103.975C65.2818 103.891 64.4326 104.111 65.4671 103.321C65.5974 103.127 64.9324 103.171 64.8739 103.118C64.8154 103.065 64.946 102.863 64.9071 102.815C64.7896 102.67 64.5773 102.685 64.5752 102.381C64.5752 102.302 64.7373 102.071 64.7117 102.047C64.6803 102.019 64.4526 102.164 64.4037 102.136C64.2887 102.066 64.1923 101.828 64.0751 101.767C64.0532 101.757 63.8744 101.908 63.7985 101.933C63.5022 102.031 63.4259 101.91 63.9965 101.427C63.5738 101.592 63.7604 101.222 63.6777 101.095C63.5014 100.828 62.9856 100.518 63.0335 100.103C63.0638 99.8413 63.3152 99.6199 62.9292 99.6241C62.8436 99.625 62.7416 99.6411 62.6386 99.6414C62.3969 99.6424 61.8386 99.9478 62.3091 99.3563C62.0454 99.3531 62.0513 99.1552 61.4892 99.4844C61.5921 99.3701 61.695 99.2559 61.7979 99.1416C61.786 99.1228 61.774 99.104 61.7621 99.0851C61.6493 99.1779 61.5365 99.2707 61.4238 99.3635C61.289 99.273 61.5996 98.7227 61.507 98.6268C61.352 98.4656 60.7932 98.1951 60.5051 98.17C60.3521 98.1567 60.5797 97.9426 60.0602 98.3257C60.0765 98.277 60.0928 98.2284 60.109 98.1798C60.2027 98.0738 60.2964 97.9678 60.3902 97.8617C60.2975 97.7509 60.0207 97.7705 59.9301 97.6671C59.7654 97.4783 59.8 96.9396 59.4427 96.9236C59.3529 96.9198 59.0849 97.0559 59.0459 97.0079C58.9889 96.9382 59.3311 96.5991 59.2613 96.5085C59.1402 96.3528 58.4799 96.4563 58.3869 96.2898C58.3591 96.2406 58.4746 96.1014 58.4632 96.0603C58.4168 95.8866 58.318 95.7991 58.4204 95.4998C57.968 95.6872 57.5361 96.0971 57.0564 96.4622C56.6943 96.7377 55.8357 97.3546 55.5299 97.6085C55.3152 97.7869 55.0787 98.0603 54.8399 98.254C54.7903 98.5647 55.046 98.4451 55.4738 98.274C55.6593 98.5048 55.8449 98.7356 56.0305 98.9664C56.1728 98.8739 56.3152 98.7815 56.4575 98.689C56.4578 98.6887 56.4581 98.6885 56.4583 98.6882C56.6779 98.6427 56.3901 98.9679 56.3586 99.0791C56.0562 100.143 57.3748 100.506 57.8862 100.914C57.9961 101.002 58.1322 101.489 58.398 101.377C58.4672 101.348 58.6634 101.18 58.6894 101.192C58.733 101.469 58.7766 101.746 58.8202 102.023C59.4419 102.112 59.5309 102.705 59.8115 103.107C60.5704 104.196 61.2938 105.299 62.2084 106.218C62.3855 106.395 62.455 106.761 62.7119 106.859C62.8189 106.9 63.1553 106.653 63.016 106.96C63.0999 106.886 63.1838 106.812 63.2676 106.738C63.2462 106.916 63.1077 107.142 63.1767 107.257C63.2351 107.353 63.4193 107.581 63.5166 107.625C63.5665 107.649 63.7087 107.494 63.7397 107.53C63.7915 107.592 63.6933 107.915 63.7683 107.997C63.8362 108.072 64.1291 108.038 64.1555 108.119C64.2517 108.409 64.192 108.875 64.4632 109.033C64.5386 109.076 64.8107 108.972 64.8224 108.997C64.8446 109.045 64.6595 109.232 64.6572 109.28C64.6459 109.523 65.0579 109.512 65.1803 109.629C65.5793 110.009 65.885 110.518 66.2882 110.892C66.5428 111.128 66.8942 111.586 67.2553 111.69C67.3332 111.712 67.5347 111.505 67.5735 111.548C67.6164 111.596 67.4953 111.752 67.5037 111.785C67.5611 112.013 67.7223 112.484 68.0014 112.496C68.0547 112.498 68.2404 112.367 68.2548 112.384C68.2624 112.392 68.1652 112.514 68.1773 112.551C68.2841 112.877 68.5041 112.986 68.7493 113.179C69.218 113.548 69.4624 114.245 69.992 114.599C70.1073 114.676 70.5006 114.445 70.51 114.462C70.5311 114.499 70.3261 114.72 70.3275 114.833C70.3342 115.204 70.8247 115.268 70.8915 115.566C70.9246 115.713 70.7628 116.103 70.787 116.256C70.8062 116.378 71.0809 116.458 70.9874 116.605C70.931 116.693 70.6986 116.921 70.6909 116.973ZM72.1082 110.998C71.7352 111.36 71.9257 110.927 72.1812 110.794C72.2388 110.763 72.205 110.904 72.1082 110.998ZM65.3633 104.887C65.4745 104.789 65.5858 104.69 65.6971 104.592C65.6683 104.652 65.6395 104.713 65.6108 104.773C65.535 104.822 65.4593 104.871 65.3835 104.921C65.3768 104.909 65.37 104.898 65.3633 104.887ZM50.5308 117.741C50.495 117.712 50.4952 117.911 50.4639 117.928C50.3331 118.001 50.3091 118.144 50.1982 118.246C50.0337 118.397 49.4234 118.264 49.7024 119.587C49.7024 119.587 49.7024 119.587 49.7024 119.587C49.7051 119.6 49.708 119.613 49.7109 119.626C49.766 119.878 49.8714 120.143 49.9386 120.426C50.0058 120.71 50.3888 122.551 50.478 122.64C50.6044 122.756 50.7391 122.235 50.7956 122.245C50.8343 122.252 50.9134 122.41 50.9652 122.43C51.1323 122.494 51.1833 122.356 51.4114 122.782C51.4138 122.532 51.4162 122.281 51.4186 122.03C51.511 122.127 51.549 121.789 51.5946 121.798C51.6321 121.805 51.6922 121.99 51.7299 121.991C51.7724 121.993 51.7911 121.776 51.8707 121.791C52.0011 121.816 52.1267 122.305 52.2119 122.353C52.3002 122.402 52.3596 122.109 52.4915 122.263C52.5149 122.314 52.5383 122.366 52.5618 122.418C52.5791 122.543 52.5965 122.667 52.6139 122.792C52.6739 122.839 52.6414 122.583 52.6845 122.569C52.7352 122.553 52.812 122.786 52.8467 122.778C52.875 122.77 52.8734 122.571 52.913 122.575C52.9705 122.58 53.017 122.859 53.057 122.905C53.0728 122.922 53.3195 123.03 53.3321 123.029C53.4264 123.021 53.3546 122.641 53.421 122.592C53.6055 122.459 53.8789 122.72 54.0916 122.796C54.1866 122.83 54.2696 122.79 54.3407 122.712C54.0043 121.771 54.1375 120.956 54.348 122.494C54.3957 122.259 54.5482 122.654 54.622 122.566C54.6697 122.509 54.6649 122.29 54.7477 122.279C54.8949 122.259 55.1795 122.823 54.9933 121.735C55.2036 121.889 55.2683 121.466 55.5306 122.407C55.5868 122.456 55.5794 121.864 55.6123 121.777C55.6435 121.694 55.9464 121.363 56.0018 121.336C56.0571 121.309 56.1561 121.272 56.2229 121.345C56.3065 121.436 56.5582 122.415 56.4244 121.236C56.5721 121.303 56.6106 121.26 56.7013 121.101C56.7177 121.072 56.6839 120.9 56.6965 120.897C56.7224 120.892 56.7932 121.009 56.8428 121.015C56.9242 121.024 56.8914 120.654 56.9993 121.207C57.069 121.289 57.1386 121.371 57.2083 121.453C57.2034 121.343 57.1986 121.232 57.1937 121.122C57.245 121.233 57.2963 121.343 57.3476 121.453C57.1477 120.662 57.4358 121.093 57.4712 121.564C57.5336 121.378 57.596 121.193 57.6584 121.007C57.4535 120.103 57.8498 120.857 57.9347 121.354C57.9457 121.351 57.9567 121.348 57.9676 121.345C58.0142 121.084 58.1452 121.262 58.2298 121.075C58.3144 120.888 58.2846 120.802 58.2327 120.378C58.2657 120.396 58.2987 120.414 58.3317 120.432C58.7195 121.544 58.2759 119.57 58.712 120.394C58.6406 119.658 58.9179 119.994 59.095 120.184C59.1156 120.206 59.1453 120.346 59.1746 120.385C59.2461 120.478 59.335 120.272 59.4256 120.722C59.442 120.583 59.4584 120.444 59.4748 120.304C59.528 120.378 59.5811 120.453 59.6342 120.527C59.6637 120.667 59.6931 120.808 59.7226 120.948C59.6938 120.454 59.8461 120.614 59.8779 120.488C59.8841 120.463 59.8456 120.268 59.8691 120.208C59.8963 120.137 59.9838 120.178 60.0193 120.108C60.0833 120.318 60.1473 120.529 60.2114 120.74C60.3222 120.838 60.2329 120.265 60.2743 120.21C60.2818 120.201 60.4567 120.206 60.4682 120.217C60.5618 120.297 60.6429 120.784 60.8332 120.636C60.8671 120.609 60.8624 120.436 60.8951 120.422C60.9529 120.397 61.2146 120.737 61.3028 121.084C61.2835 120.631 61.5171 120.769 61.548 120.63C61.5572 120.587 61.5023 120.307 61.5433 120.237C61.5764 120.179 61.7352 120.379 61.7824 120.33C61.8322 120.277 61.8036 120.038 61.8262 120.016C61.8477 119.995 61.9104 120.18 61.9438 120.172C62.0476 120.143 62.0785 119.818 62.1605 119.795C62.2788 119.761 62.5031 120.299 62.6562 120.526C62.6735 120.485 62.6726 120.359 62.6986 120.353C63.0185 120.267 63.3619 120.086 63.6613 119.898C63.8004 119.811 64.0148 118.972 64.1824 120.262C64.2817 120.473 64.5546 119.881 64.6254 119.858C64.6962 119.835 64.8016 120.05 64.8593 120.042C65.0332 120.015 65.1195 119.826 65.3705 119.98C65.4354 120.02 65.5501 120.278 65.5814 120.268C65.619 120.255 65.6055 119.986 65.6519 119.959C65.763 119.896 66.0028 119.935 66.1074 119.866C66.1264 119.853 66.0854 119.622 66.1001 119.544C66.1572 119.24 66.2924 119.237 66.4236 119.973C66.4848 119.527 66.7022 119.876 66.845 119.87C67.1465 119.856 67.6414 119.573 67.9602 119.827C68.1611 119.987 68.2262 120.315 68.4023 119.983C68.4414 119.909 68.4756 119.813 68.5233 119.725C68.6349 119.518 68.6436 118.883 68.911 119.589C69.0363 119.365 69.1962 119.471 69.1871 118.822C69.2331 118.968 69.2792 119.115 69.3252 119.261C69.3462 119.261 69.3673 119.26 69.3883 119.26C69.3645 119.116 69.3407 118.972 69.3169 118.827C69.4539 118.758 69.7618 119.306 69.8838 119.276C70.0883 119.226 70.5707 118.886 70.7254 118.652C70.8075 118.528 70.8775 118.833 70.8043 118.192C70.8367 118.231 70.8691 118.269 70.9016 118.308C70.9451 118.443 70.9886 118.577 71.0322 118.712C71.1664 118.689 71.2791 118.442 71.4062 118.418C71.6381 118.373 72.0647 118.679 72.2441 118.381C72.289 118.306 72.3018 118.007 72.3595 117.998C72.4433 117.985 72.5627 118.452 72.6698 118.439C72.854 118.415 73.0761 117.796 73.2563 117.802C73.3097 117.803 73.3704 117.974 73.4095 117.985C73.5738 118.034 73.6917 117.994 73.8901 118.235C73.9466 117.752 73.8106 117.172 73.7336 116.575C73.6756 116.124 73.5679 115.073 73.5015 114.681C73.4548 114.406 73.34 114.063 73.2919 113.759C73.0596 113.558 73.0389 113.838 72.9806 114.292C72.7045 114.333 72.4284 114.373 72.1524 114.414C72.1622 114.583 72.172 114.752 72.1818 114.922C72.1819 114.922 72.182 114.922 72.182 114.923C72.1173 115.134 71.9838 114.721 71.9072 114.637C71.1732 113.833 70.2613 114.776 69.6882 115.005C69.5647 115.054 69.1011 114.921 69.0693 115.206C69.0612 115.28 69.1082 115.534 69.0863 115.55C68.8381 115.446 68.59 115.341 68.3418 115.236C67.9796 115.723 67.4509 115.496 66.9897 115.53C65.7416 115.622 64.4983 115.676 63.3175 115.988C63.0894 116.049 62.7567 115.921 62.5566 116.091C62.473 116.162 62.5195 116.576 62.3318 116.3C62.3536 116.409 62.3754 116.519 62.3971 116.629C62.2612 116.519 62.1397 116.285 62.0132 116.285C61.9067 116.286 61.6334 116.326 61.5521 116.387C61.5098 116.418 61.5703 116.619 61.5265 116.627C61.4512 116.639 61.2321 116.39 61.1291 116.412C61.0358 116.432 60.9283 116.701 60.8493 116.682C60.5655 116.615 60.2105 116.325 59.955 116.477C59.8845 116.519 59.8427 116.805 59.8173 116.803C59.7675 116.797 59.6993 116.543 59.6611 116.516C59.4671 116.382 59.2843 116.74 59.1313 116.785C58.6328 116.932 58.0721 116.933 57.5773 117.087C57.2647 117.184 56.7253 117.25 56.4718 117.506C56.4171 117.561 56.4935 117.84 56.4402 117.851C56.3811 117.863 56.3089 117.68 56.278 117.67C56.0641 117.602 55.6014 117.499 55.462 117.732C55.4355 117.776 55.4572 118.003 55.4364 118.006C55.426 118.008 55.3706 117.863 55.3347 117.854C55.0171 117.779 54.825 117.911 54.5529 118.022C54.0316 118.235 53.3444 118.087 52.807 118.359C52.6899 118.418 52.6971 118.873 52.6787 118.872C52.6386 118.871 52.552 118.583 52.4592 118.526C52.151 118.342 51.87 118.729 51.5937 118.633C51.4572 118.586 51.212 118.248 51.0754 118.191C50.9662 118.145 50.7723 118.339 50.6955 118.184C50.6489 118.09 50.5699 117.774 50.5308 117.741ZM54.7829 122.015C54.6587 121.51 54.9261 121.895 54.9168 122.182C54.9147 122.247 54.8151 122.146 54.7829 122.015ZM62.9439 119.371C62.9729 119.516 63.0019 119.662 63.0309 119.808C62.9948 119.752 62.9586 119.697 62.9225 119.641C62.9172 119.551 62.9119 119.461 62.9067 119.371C62.9191 119.371 62.9315 119.371 62.9439 119.371Z" fill="#1D79E9" style="fill:#1D79E9;fill:color(display-p3 0.1137 0.4730 0.9122);fill-opacity:1;"/>
</svg>
