<svg width="376" height="16" viewBox="0 0 376 16" fill="none" xmlns="http://www.w3.org/2000/svg">
<path d="M18.4366 0.0118225C17.9884 -0.0841296 17.3559 0.434689 16.8272 0.462019C14.6127 0.581994 13.7921 0.941639 11.7885 1.14561C8.81752 1.44859 0.000249015 0.766691 0 4.3711C0 4.37119 0 4.37128 0 4.37137C-4.9803e-06 4.40671 0.000846651 4.44246 0.00255489 4.47863C0.0334925 5.1653 0.783406 5.91493 0.894706 6.69153C1.00589 7.46841 0.922456 12.4838 1.98766 12.7658C3.53205 13.1373 7.237 11.8513 8.0606 11.9083C8.62385 11.9476 9.31696 12.4035 10.0371 12.4845C12.3588 12.7454 13.5737 12.412 15.6654 13.6505C16.5021 12.9979 17.3388 12.3452 18.1755 11.6925C19.2672 11.9951 20.9217 11.1344 21.5849 11.1818C22.1289 11.2208 22.4479 11.7369 23.0149 11.7609C23.6509 11.7907 24.6277 11.2336 25.7846 11.3175C27.6813 11.4525 28.0187 12.7989 29.1567 12.9699C30.3367 13.1468 32.172 12.415 33.6777 12.8888C33.8666 13.0369 34.0554 13.185 34.2443 13.3331C34.109 13.6681 33.9737 14.0031 33.8384 14.338C34.5968 14.494 34.9229 13.8075 35.6198 13.7951C36.4398 13.7801 36.8581 14.4309 37.4098 14.4279C37.8619 14.4248 38.4747 13.903 39.0608 13.9357C39.9153 13.9807 39.7283 14.7342 40.1881 14.8751C40.3717 14.9299 43.7633 15.3457 43.9547 15.3517C45.41 15.3814 45.5367 14.3501 46.6971 14.2599C49.9157 14.0139 53.2196 14.8473 56.1967 15.1622C57.5261 15.3031 58.9131 15.2432 60.2387 15.0783C58.1508 12.4388 62.7713 10.3846 61.0433 14.5148C62.5181 13.9272 63.5637 15.0422 64.9619 14.8537C65.8662 14.7307 66.492 14.158 67.7832 14.173C70.0744 14.2033 72.5804 15.8311 73.2394 12.8888C75.9289 13.4075 78.2584 12.3402 79.2277 14.9376C79.9213 15.0963 81.6986 13.5492 82.4765 13.339C83.2121 13.141 88.8567 12.4424 89.7801 12.4035C90.7034 12.3645 92.3199 12.3221 93.0977 12.5499C94.0747 12.8319 94.7575 15.5256 96.497 12.3761C98.5196 12.631 99.2402 12.5408 101.121 12.1749C101.462 12.1088 101.5 11.6412 101.699 11.6408C102.109 11.6408 102.806 11.9863 103.538 12.0285C104.741 12.0974 105.428 11.1136 105.294 12.6163C106.087 12.8683 106.88 13.1203 107.673 13.3722C107.952 13.0822 108.23 12.7921 108.508 12.5021C108.932 12.8182 109.356 13.1342 109.78 13.4503C109.282 11.2757 112.267 12.559 111.298 13.8068C112.835 13.3569 114.373 12.907 115.911 12.4572C115.696 9.98566 119.287 12.1719 118.984 13.5158C119.16 13.5138 119.336 13.5119 119.512 13.5099C121.053 12.853 122.467 13.3903 124.345 12.9494C126.222 12.5084 126.046 12.2678 126.617 11.131C127.058 11.1961 127.5 11.2612 127.942 11.3263C130.26 14.4428 129.85 9.04699 133.82 11.4376C135.088 9.47893 138.214 10.5078 140.287 11.1017C140.528 11.1707 140.532 11.5509 140.854 11.6681C141.639 11.95 143.643 11.4613 143.575 12.6876C144.268 12.3328 144.962 11.978 145.656 11.6232C146.223 11.8462 146.79 12.0691 147.357 12.2921C147.354 12.6749 147.351 13.0578 147.348 13.4406C148.49 12.1359 150.284 12.6373 151.169 12.3253C151.345 12.2621 151.383 11.734 151.931 11.59C152.571 11.419 153.763 11.5753 154.526 11.4103C154.822 11.9952 155.119 12.5802 155.415 13.1652C156.779 13.4825 157.258 11.9385 158.058 11.8185C158.203 11.7976 160.833 11.9086 160.974 11.9415C162.135 12.2028 161.806 13.5182 165.161 13.2365C165.759 13.1855 166.242 12.7303 166.782 12.712C167.736 12.6791 170.611 13.7113 170.837 14.6652C171.994 13.4714 175.09 13.9593 176.002 13.6144C176.277 13.5083 176.339 12.7479 177.185 12.5861C177.871 12.4541 179.637 13.063 180.507 12.9611C181.43 12.8501 181.76 12.2113 182.174 12.1661C182.565 12.1242 182.925 12.6398 183.458 12.6369C185.12 12.6189 186.626 11.7888 187.94 11.7736C189.84 11.7496 191.519 13.2763 193.109 13.9542C193.504 13.8553 193.892 13.5275 194.305 13.5245C199.424 13.4765 205.198 13.1952 210.333 12.8683C212.716 12.7181 218.643 10.6457 217.061 14.1037C217.889 14.7092 223.912 13.3151 225.057 13.2941C226.203 13.2733 227.111 13.8933 228.011 13.9025C230.727 13.9295 232.64 13.4827 235.947 14.0226C236.801 14.1638 237.716 14.8983 238.222 14.8898C238.831 14.8778 239.486 14.1673 240.276 14.1222C242.157 14.0202 245.663 14.2539 247.467 14.131C247.797 14.107 247.913 13.4832 248.384 13.2882C250.219 12.5264 252.276 12.5925 251.912 14.5841C254.265 13.4534 256.441 14.4848 258.621 14.548C263.23 14.677 271.626 14.2121 275.642 15.049C278.174 15.5769 278.109 16.4702 281.837 15.6994C282.664 15.5284 283.488 15.2978 284.492 15.0939C286.844 14.614 289.002 12.9638 290.796 14.9523C293.408 14.4366 295.489 14.8023 297.428 13.1017C297.656 13.5096 297.885 13.9175 298.113 14.3253C298.434 14.3354 298.754 14.3455 299.074 14.3556C299.174 13.9666 299.274 13.5776 299.374 13.1886C301.669 13.0839 304.58 14.6827 306.523 14.671C309.78 14.653 318.168 14.0319 321.256 13.507C322.896 13.2282 322.984 14.0614 323.923 12.3488C324.289 12.4679 324.656 12.587 325.023 12.7062C325.252 13.0812 325.482 13.4562 325.711 13.8312C327.815 13.8462 330.31 13.2637 332.314 13.2697C335.965 13.2817 341.448 14.3138 345.115 13.6359C346.034 13.4649 347.184 12.6916 348.084 12.7003C349.394 12.7123 349.713 13.9957 351.376 14.0197C354.242 14.0587 359.579 12.5678 362.288 12.6818C363.093 12.7148 363.468 13.1923 364.024 13.2433C366.353 13.4623 368.266 13.4234 370.5 14.1613C372.898 12.9315 372.691 11.3441 373.434 9.74231C373.998 8.5334 375.725 5.73175 375.97 4.67297C376.143 3.92911 375.499 2.97223 375.741 2.15343C372.867 1.49955 371.66 2.21939 369.326 3.37121C365.017 3.32531 360.708 3.27941 356.399 3.23351C356.007 3.68045 355.615 4.12739 355.223 4.57433C355.223 4.57531 355.223 4.57629 355.223 4.57726C353.568 5.09306 352.866 3.94205 351.974 3.68078C343.43 1.17915 326.612 3.1371 317.206 3.41906C315.179 3.47903 308.585 2.87677 307.194 3.60265C306.834 3.7917 306.734 4.48086 306.351 4.51086C302.928 4.10102 299.505 3.69119 296.082 3.28136C289.044 4.35219 281.767 3.46782 274.675 3.30285C255.487 2.85592 236.49 2.31268 217.616 2.47765C213.968 2.51064 209.34 1.99431 205.769 2.32726C204.278 2.4653 203.657 3.57203 201.699 2.74718C201.679 3.04536 201.658 3.34354 201.638 3.64171C199.929 3.28174 198.837 2.60327 196.922 2.53429C195.308 2.4773 191.041 2.43302 189.615 2.54698C188.876 2.60397 189.151 3.16114 188.462 3.15831C187.282 3.14932 184.76 2.37904 183.132 2.37902C181.657 2.37902 179.17 3.02083 178.036 2.92784C173.951 2.59789 169.502 1.64651 165.15 1.90148C163.947 1.97361 162.401 2.69605 162.024 2.67589C161.289 2.63391 161.07 1.93213 160.576 1.8419C158.066 1.386 154.154 2.21995 151.694 2.25304C143.679 2.36102 135.187 2.05472 127.206 2.1837C122.164 2.26468 113.784 2.14118 109.129 2.66906C108.125 2.78304 108.393 3.55187 107.55 3.55187C106.615 3.5517 106.109 3.03233 105.672 2.99034C102.649 2.69638 95.975 2.17137 93.1206 2.70226C92.5769 2.80419 92.1825 3.4066 91.857 3.40441C91.6922 3.40441 91.3199 2.9933 90.8028 2.95128C86.2355 2.57934 82.9055 2.81909 78.4302 2.96007C69.8592 3.227 59.9281 2.46219 50.9241 2.87609C48.9624 2.96607 47.617 4.15762 47.3411 4.14562C46.7358 4.12159 46.3483 3.32015 45.1222 3.12218C41.0458 2.47148 35.5556 3.32669 31.6783 2.92492C29.7628 2.72697 27.1304 1.7096 25.2453 1.48448C23.7397 1.30453 20.1839 1.70361 19.5166 1.25694C19.1106 0.987084 18.9228 0.120329 18.4366 0.0118225ZM69.1587 13.504C68.8905 12.1183 71.7093 13.2699 70.6519 14.0138C70.4138 14.1813 69.2281 13.8638 69.1587 13.504ZM201.156 11.0978C201.13 11.4936 201.104 11.8895 201.078 12.2853C200.708 12.1206 200.338 11.9559 199.968 11.7911C200.176 11.5532 200.384 11.3152 200.592 11.0773C200.78 11.0841 200.968 11.0909 201.156 11.0978Z" fill="#F1F0E3" style="fill:#F1F0E3;fill:color(display-p3 0.9451 0.9412 0.8902);fill-opacity:1;"/>
</svg>
