<svg width="600" height="16" viewBox="0 0 600 16" fill="none" xmlns="http://www.w3.org/2000/svg">
<path d="M29.42 15.9882C28.7048 16.0841 27.6956 15.5653 26.852 15.538C23.3182 15.418 22.0087 15.0584 18.8113 14.8544C14.0705 14.5514 0.000427246 15.2333 0 11.6289C0 11.6288 0 11.6287 0 11.6286C0 11.5933 0.00146484 11.5575 0.00408936 11.5214C0.0533447 10.8347 1.25024 10.0851 1.42773 9.30847C1.60504 8.53159 1.47205 3.5162 3.17181 3.23424C5.63635 2.86268 11.5484 4.14865 12.8627 4.09167C13.7614 4.05239 14.8676 3.59645 16.0167 3.51549C19.7215 3.25457 21.6602 3.58799 24.998 2.34947C26.3332 3.00214 27.6683 3.65482 29.0035 4.30749C30.7455 4.00487 33.3856 4.86564 34.444 4.81823C35.3123 4.77924 35.8211 4.26312 36.726 4.23913C37.7409 4.20931 39.2995 4.7664 41.1457 4.68249C44.1723 4.54751 44.7107 3.20111 46.5267 3.03014C48.4098 2.85321 51.3383 3.58498 53.7411 3.11119C54.0425 2.96308 54.3438 2.81497 54.6451 2.66686C54.4292 2.3319 54.2134 1.99693 53.9974 1.66197C55.2076 1.50605 55.728 2.19251 56.8401 2.20494C58.1486 2.21994 58.8161 1.56913 59.6966 1.57213C60.4178 1.57516 61.3959 2.09701 62.331 2.06432C63.6945 2.01932 63.3964 1.26584 64.13 1.12486C64.4228 1.0701 69.8351 0.65429 70.1405 0.648298C72.4627 0.618587 72.665 1.64992 74.5167 1.7401C79.6526 1.98606 84.9249 1.1527 89.6756 0.837752C91.797 0.696856 94.0103 0.756786 96.1255 0.921736C92.7939 3.56123 100.167 5.61544 97.4095 1.48521C99.7629 2.07279 101.432 0.957827 103.663 1.14635C105.106 1.26933 106.104 1.84201 108.165 1.82701C111.821 1.79675 115.82 0.168887 116.871 3.11119C121.163 2.5925 124.88 3.6598 126.427 1.06236C127.534 0.903687 130.37 2.45082 131.611 2.661C132.785 2.85897 141.793 3.55755 143.266 3.59655C144.74 3.63553 147.319 3.67795 148.56 3.45006C150.119 3.16811 151.209 0.474366 153.985 3.62389C157.212 3.36903 158.362 3.45916 161.364 3.82506C161.907 3.89123 161.969 4.35882 162.286 4.35924C162.94 4.35924 164.053 4.01369 165.22 3.97155C167.14 3.90256 168.236 4.88643 168.022 3.38366C169.288 3.1317 170.553 2.87975 171.819 2.62779C172.263 2.91783 172.707 3.20787 173.151 3.49791C173.828 3.18183 174.505 2.86575 175.181 2.54967C174.387 4.72428 179.15 3.441 177.603 2.19322C180.057 2.64309 182.51 3.09297 184.964 3.54284C184.621 6.01434 190.351 3.82805 189.869 2.48424C190.15 2.48619 190.43 2.48815 190.711 2.4901C193.169 3.147 195.426 2.60971 198.422 3.05065C201.418 3.49156 201.137 3.73221 202.048 4.86901C202.753 4.80391 203.458 4.7388 204.163 4.6737C207.862 1.55718 207.208 6.95301 213.542 4.56237C215.566 6.52107 220.555 5.49222 223.862 4.89831C224.247 4.82932 224.254 4.44913 224.766 4.3319C226.02 4.04997 229.218 4.5387 229.108 3.31237C230.215 3.66719 231.323 4.022 232.429 4.37682C233.334 4.15384 234.239 3.93086 235.144 3.70788C235.139 3.32506 235.135 2.94225 235.13 2.55944C236.952 3.86414 239.815 3.36273 241.228 3.67467C241.509 3.7379 241.569 4.26598 242.443 4.41003C243.464 4.581 245.367 4.42474 246.584 4.58971C247.057 4.00475 247.53 3.41979 248.003 2.83483C250.178 2.51755 250.943 4.06155 252.221 4.18151C252.451 4.20236 256.648 4.09144 256.874 4.05846C258.725 3.79718 258.201 2.4818 263.555 2.76354C264.509 2.81451 265.28 3.26966 266.142 3.28795C267.664 3.32095 272.251 2.28868 272.612 1.33482C274.458 2.52864 279.399 2.04066 280.854 2.38561C281.293 2.49166 281.392 3.25207 282.742 3.41393C283.837 3.5459 286.655 2.93703 288.043 3.03893C289.517 3.1499 290.043 3.78869 290.703 3.83385C291.326 3.87585 291.902 3.36017 292.751 3.36315C295.405 3.38114 297.807 4.21115 299.904 4.22643C302.937 4.25043 305.616 2.72366 308.153 2.04576C308.783 2.14475 309.401 2.47245 310.062 2.47545C318.23 2.52346 327.444 2.80477 335.637 3.1317C339.44 3.28186 348.898 5.35428 346.374 1.89635C347.696 1.29076 357.306 2.68493 359.134 2.70592C360.962 2.72672 362.41 2.10667 363.847 2.09752C368.182 2.07052 371.234 2.51732 376.511 1.9774C377.874 1.83625 379.334 1.10167 380.141 1.11021C381.113 1.12221 382.159 1.83266 383.418 1.87779C386.42 1.97977 392.015 1.74608 394.895 1.869C395.42 1.893 395.605 2.51681 396.357 2.71178C399.286 3.4736 402.569 3.40753 401.988 1.41588C405.741 2.54659 409.214 1.51519 412.693 1.45201C420.048 1.32303 433.446 1.78791 439.854 0.951033C443.894 0.423092 443.791 -0.470165 449.739 0.300641C451.06 0.471589 452.374 0.702167 453.976 0.906111C457.73 1.38603 461.174 3.03623 464.035 1.04771C468.205 1.56344 471.525 1.1977 474.619 2.8983C474.984 2.49042 475.348 2.08255 475.713 1.67467C476.224 1.66458 476.735 1.65449 477.246 1.64439C477.406 2.03339 477.565 2.42239 477.725 2.81139C481.387 2.91614 486.033 1.3173 489.132 1.32896C494.329 1.34696 507.715 1.96811 512.643 2.49303C515.259 2.77178 515.4 1.93864 516.898 3.65123C517.483 3.53209 518.068 3.41295 518.654 3.29381C519.02 2.91881 519.386 2.54381 519.752 2.16881C523.109 2.15381 527.09 2.73629 530.288 2.73033C536.114 2.71834 544.864 1.68625 550.715 2.36412C552.183 2.53507 554.017 3.3084 555.453 3.29967C557.544 3.28767 558.053 2.00433 560.706 1.98033C565.28 1.94134 573.797 3.43221 578.119 3.31823C579.403 3.28521 580.002 2.80769 580.889 2.7567C584.606 2.53773 587.658 2.57662 591.223 1.83873C595.05 3.06854 594.72 4.65594 595.906 6.25769C596.805 7.4666 599.561 10.2682 599.953 11.327C600.227 12.0709 599.201 13.0278 599.586 13.8466C595.001 14.5005 593.074 13.7806 589.351 12.6288C582.474 12.6747 575.598 12.7206 568.722 12.7665C568.096 12.3195 567.47 11.8726 566.845 11.4257C566.845 11.4247 566.845 11.4237 566.845 11.4227C564.204 10.9069 563.085 12.058 561.661 12.3192C548.026 14.8208 521.19 12.8629 506.18 12.5809C502.945 12.521 492.423 13.1232 490.204 12.3973C489.629 12.2083 489.469 11.5191 488.858 11.4891C483.396 11.899 477.934 12.3088 472.472 12.7186C461.24 11.6478 449.629 12.5322 438.311 12.6972C407.692 13.1441 377.378 13.6873 347.26 13.5224C341.439 13.4894 334.052 14.0057 328.354 13.6727C325.976 13.5347 324.985 12.428 321.861 13.2528C321.828 12.9546 321.795 12.6565 321.762 12.3583C319.036 12.7183 317.293 13.3967 314.237 13.4657C311.662 13.5227 304.852 13.567 302.577 13.453C301.397 13.396 301.837 12.8389 300.737 12.8417C298.854 12.8507 294.83 13.621 292.232 13.621C289.878 13.621 285.909 12.9792 284.1 13.0722C277.582 13.4021 270.483 14.3535 263.537 14.0985C261.618 14.0264 259.15 13.304 258.549 13.3241C257.376 13.3661 257.026 14.0679 256.238 14.1581C252.233 14.614 245.991 13.78 242.065 13.747C229.275 13.639 215.724 13.9453 202.988 13.8163C194.942 13.7353 181.571 13.8588 174.142 13.3309C172.54 13.217 172.967 12.4481 171.622 12.4481C170.131 12.4483 169.323 12.9677 168.626 13.0097C163.802 13.3036 153.152 13.8286 148.597 13.2977C147.729 13.1958 147.1 12.5934 146.58 12.5956C146.317 12.5956 145.723 13.0067 144.898 13.0487C137.61 13.4207 132.296 13.1809 125.155 13.0399C111.478 12.773 95.6299 13.5378 81.2619 13.1239C78.1314 13.0339 75.9846 11.8424 75.5444 11.8544C74.5785 11.8784 73.9601 12.6799 72.0036 12.8778C65.4985 13.5285 56.7377 12.6733 50.5505 13.0751C47.4938 13.273 43.2931 14.2904 40.2851 14.5155C37.8824 14.6955 32.2085 14.2964 31.1435 14.7431C30.4957 15.0129 30.1959 15.8797 29.42 15.9882ZM110.36 2.49596C109.932 3.88175 114.43 2.73008 112.742 1.98619C112.362 1.8187 110.47 2.13623 110.36 2.49596ZM320.993 4.90221C320.952 4.50638 320.911 4.11055 320.87 3.71471C320.279 3.87943 319.689 4.04414 319.098 4.20885C319.43 4.44681 319.762 4.68477 320.094 4.92272C320.393 4.91589 320.693 4.90905 320.993 4.90221Z" fill="white" style="fill:white;fill-opacity:1;"/>
</svg>
