<svg width="1920" height="32" viewBox="0 0 1920 32" fill="none" xmlns="http://www.w3.org/2000/svg">
<path d="M1825.86 31.9767C1828.14 32.1686 1831.37 31.1311 1834.07 31.0763C1845.38 30.8364 1849.57 30.1171 1859.8 29.7092C1874.97 29.1032 1920 30.4658 1920 23.257C1920 23.1866 1920 23.1152 1919.99 23.0431C1919.83 21.6699 1916 20.1704 1915.43 18.6174C1914.86 17.0636 1915.29 7.03335 1909.85 6.46892C1901.96 5.7258 1883.04 8.29773 1878.84 8.18376C1875.96 8.10513 1872.42 7.19333 1868.75 7.03142C1856.89 6.50961 1850.69 7.17638 1840.01 4.69939C1835.73 6.00468 1831.46 7.31011 1827.19 8.6154C1821.61 8.01027 1813.17 9.73163 1809.78 9.63688C1807 9.55889 1805.37 8.52667 1802.48 8.47868C1799.23 8.41912 1794.24 9.53318 1788.33 9.3654C1778.65 9.09544 1776.93 6.40266 1771.11 6.06071C1765.09 5.70691 1755.72 7.17036 1748.03 6.22281C1747.06 5.92664 1746.1 5.63032 1745.14 5.33414C1745.83 4.6643 1746.52 3.99422 1747.21 3.32438C1743.34 3.01258 1741.67 4.38546 1738.11 4.41031C1733.92 4.44026 1731.79 3.13869 1728.97 3.14469C1726.66 3.15081 1723.53 4.19438 1720.54 4.12906C1716.18 4.03908 1717.13 2.53221 1714.78 2.25016C1713.85 2.14063 1696.53 1.30901 1695.55 1.29703C1688.12 1.2377 1687.47 3.30026 1681.55 3.48062C1665.11 3.9725 1648.24 2.30583 1633.04 1.67593C1626.25 1.39414 1619.17 1.514 1612.4 1.8439C1623.06 7.12277 1599.47 11.2308 1608.29 2.97085C1600.76 4.14586 1595.42 1.91608 1588.28 2.29311C1583.66 2.53912 1580.47 3.68442 1573.87 3.65444C1562.17 3.59391 1549.38 0.338182 1546.01 6.2228C1532.28 5.18541 1520.38 7.31999 1515.43 2.12514C1511.89 1.80795 1502.82 4.90193 1498.84 5.3224C1495.09 5.71833 1466.27 7.11544 1461.55 7.19349C1456.83 7.27147 1448.58 7.3563 1444.61 6.90052C1439.62 6.33654 1436.13 0.949173 1427.25 7.24818C1416.92 6.73846 1413.24 6.91871 1403.64 7.65052C1401.9 7.78284 1401.7 8.71775 1400.68 8.71888C1398.59 8.71888 1395.03 8.02782 1391.29 7.94349C1385.15 7.80551 1381.65 9.77303 1382.33 6.7677C1378.28 6.2638 1374.23 5.75989 1370.18 5.25598L1365.92 6.99622C1363.75 6.36406 1361.58 5.7319 1359.42 5.09973C1361.96 9.44879 1346.72 6.88232 1351.67 4.38684L1328.12 7.08606C1329.21 12.0287 1310.88 7.65648 1312.42 4.96887L1309.72 4.98059C1301.86 6.29439 1294.64 5.21981 1285.05 6.10168C1275.46 6.98348 1276.36 7.46483 1273.45 9.7384L1266.68 9.34777C1254.84 3.11488 1256.93 13.9064 1236.67 9.12511C1230.19 13.0422 1214.23 10.9848 1203.64 9.79699C1202.41 9.65902 1202.39 8.89863 1200.75 8.66417C1196.74 8.10037 1186.5 9.07747 1186.85 6.62511C1183.31 7.33475 1179.77 8.04438 1176.23 8.75401L1167.54 7.41612L1167.58 5.11925C1161.75 7.72851 1152.59 6.72583 1148.07 7.34972C1147.17 7.47624 1146.98 8.53228 1144.18 8.82042C1140.92 9.16237 1134.83 8.84984 1130.93 9.17979C1129.42 8.00989 1127.91 6.83993 1126.39 5.67003C1119.43 5.03551 1116.98 8.12328 1112.89 8.36338C1112.16 8.40509 1098.73 8.18325 1098 8.11729C1092.08 7.59471 1093.76 4.96397 1076.62 5.52744C1073.57 5.62947 1071.1 6.53968 1068.35 6.57627C1063.47 6.64213 1048.8 4.57761 1047.64 2.67002C1041.73 5.05763 1025.92 4.08169 1021.27 4.77158C1019.86 4.98389 1019.54 6.50451 1015.22 6.82822C1011.72 7.09216 1002.7 5.87449 998.262 6.07822C993.547 6.30014 991.864 7.57765 989.751 7.66806C987.756 7.75205 985.915 6.72069 983.195 6.72665C974.706 6.76267 967.017 8.42262 960.308 8.45321C950.603 8.50121 942.031 5.44771 933.911 4.09188C931.896 4.28985 929.916 4.94521 927.803 4.95126C901.664 5.04728 872.178 5.60988 845.961 6.26375C833.79 6.56417 803.526 10.7087 811.603 3.79305C807.374 2.58188 776.62 5.37019 770.77 5.41218C764.923 5.45372 760.287 4.2137 755.69 4.19538C741.818 4.14139 732.05 5.03498 715.165 3.95515C710.804 3.67279 706.131 2.20368 703.549 2.22077C700.438 2.24484 697.09 3.66566 693.061 3.75593C683.454 3.95987 665.553 3.4925 656.337 3.73834C654.654 3.78644 654.063 5.03392 651.657 5.42389C642.286 6.94752 631.781 6.81529 633.64 2.83209C621.628 5.09352 610.515 3.03071 599.384 2.90435C575.846 2.64639 532.971 3.57614 512.467 1.90239C499.538 0.84651 499.869 -0.939972 480.834 0.60161C476.608 0.943505 472.401 1.40466 467.276 1.81255C455.264 2.7724 444.243 6.07253 435.087 2.09575C421.745 3.1272 411.119 2.3958 401.22 5.79692C400.053 4.98124 398.886 4.16533 397.719 3.34965L392.812 3.2891C392.301 4.06709 391.791 4.8451 391.28 5.62309C379.562 5.83256 364.695 2.63492 354.776 2.65824C338.146 2.69424 295.312 3.93652 279.542 4.98636C271.17 5.54386 270.719 3.87757 265.926 7.30276C264.053 7.0645 262.181 6.82618 260.309 6.58792C259.137 5.83796 257.965 5.08788 256.793 4.33792C246.052 4.30792 233.312 5.47288 223.079 5.46096C204.433 5.43694 176.435 3.37283 157.711 4.72854C153.016 5.07042 147.147 6.61702 142.55 6.59963C135.858 6.57563 134.232 4.00895 125.74 3.96095C111.105 3.88299 83.8503 6.8647 70.0176 6.63673C65.9091 6.57069 63.9922 5.61567 61.1553 5.51368C49.2595 5.07575 39.4926 5.15352 28.0859 3.67774C15.8387 6.13735 16.8962 9.31218 13.1006 12.5156C10.2236 14.9336 1.40344 20.5368 0.151366 22.6543C-0.727454 24.142 2.55565 26.0559 1.32324 27.6934C15.9969 29.0011 22.1622 27.5614 34.0771 25.2578L100.091 25.5332C102.093 24.6394 104.095 23.7454 106.097 22.8516L106.097 22.8457C114.547 21.8141 118.129 24.1161 122.687 24.6387C166.318 29.6419 252.193 25.7261 300.226 25.1621C310.576 25.0422 344.246 26.2467 351.349 24.795C353.187 24.4169 353.699 23.0386 355.655 22.9786L408.09 25.4375C444.031 23.2959 481.188 25.0646 517.403 25.3946C615.386 26.2884 712.39 27.3749 808.769 27.045C827.395 26.979 851.033 28.0117 869.268 27.3458C876.878 27.0696 880.048 24.8563 890.046 26.5059C890.151 25.9096 890.256 25.3132 890.361 24.7169C899.086 25.4368 904.662 26.7938 914.443 26.9317C922.681 27.0457 944.474 27.1343 951.753 26.9063C955.528 26.7923 954.122 25.678 957.642 25.6837C963.668 25.7017 976.543 27.2422 984.858 27.2423C992.391 27.2422 1005.09 25.9587 1010.88 26.1446C1031.74 26.8045 1054.46 28.7072 1076.68 28.1974C1082.82 28.0531 1090.72 26.6082 1092.64 26.6485C1096.4 26.7325 1097.52 28.136 1100.04 28.3165C1112.85 29.2283 1132.83 27.5604 1145.39 27.4942C1186.32 27.2783 1229.68 27.8909 1270.44 27.6329C1296.19 27.471 1338.97 27.718 1362.74 26.6622C1367.87 26.4343 1366.5 24.8966 1370.81 24.8966C1375.58 24.8969 1378.17 25.9357 1380.4 26.0197C1395.84 26.6076 1429.91 27.6576 1444.49 26.5958C1447.27 26.392 1449.28 25.1872 1450.94 25.1915C1451.78 25.1918 1453.69 26.0137 1456.33 26.0978C1479.65 26.8417 1496.65 26.3622 1519.5 26.0802C1563.27 25.5464 1613.98 27.076 1659.96 26.2482C1669.98 26.0682 1676.85 23.6851 1678.26 23.7091C1681.35 23.7572 1683.33 25.36 1689.59 25.756C1710.4 27.0574 1738.44 25.347 1758.24 26.1506C1768.02 26.5464 1781.46 28.5812 1791.09 29.0314C1798.78 29.3913 1816.93 28.5932 1820.34 29.4865C1822.41 30.0263 1823.37 31.7596 1825.86 31.9767ZM1566.85 4.99233C1568.22 7.7638 1553.82 5.46056 1559.22 3.9728C1560.44 3.6379 1566.49 4.27291 1566.85 4.99233ZM892.822 9.80477L893.218 7.42977L898.887 8.41805C897.825 8.89397 896.762 9.36987 895.7 9.84579C894.741 9.83212 893.782 9.81844 892.822 9.80477Z" fill="#F1F0E3" style="fill:#F1F0E3;fill:color(display-p3 0.9451 0.9412 0.8902);fill-opacity:1;"/>
</svg>
