<svg width="20" height="21" viewBox="0 0 20 21" fill="none" xmlns="http://www.w3.org/2000/svg">
<g clip-path="url(#clip0_40_1747)">
<path d="M17.8354 8.00621C17.8427 8.06857 17.93 8.13225 17.9535 8.20183C18.0509 8.49275 18.1203 8.59225 18.2017 8.86188C18.3473 9.26307 18.3324 10.4902 18.7651 10.5C18.7651 10.5 18.7652 10.5 18.7652 10.5C18.7696 10.5 18.7741 10.4999 18.7786 10.4996C18.8646 10.4954 18.9576 10.3827 19.0542 10.364C19.1508 10.3453 19.779 10.3505 19.8091 10.1737C19.8526 9.91684 19.6353 9.32621 19.6204 9.19624C19.6132 9.10536 19.6532 8.98575 19.6435 8.86732C19.6105 8.48664 19.5268 8.30446 19.5892 7.93095C19.4744 7.81757 19.3579 7.70883 19.2396 7.60418C19.2232 7.42227 19.0326 7.20617 18.9999 7.10503C18.9735 7.02156 19.0149 6.95009 18.9832 6.86371C18.948 6.76672 18.823 6.64823 18.7548 6.47519C18.6414 6.19255 18.7642 6.06789 18.6963 5.89187C18.6249 5.70868 18.3968 5.49377 18.3146 5.25437C18.3137 5.21825 18.3125 5.18206 18.3112 5.14581C18.3585 5.14188 18.4059 5.13824 18.4533 5.13487C18.4013 5.01719 18.2995 5.01881 18.2336 4.924C18.1555 4.81259 18.1815 4.70894 18.127 4.63402C18.0823 4.5727 17.9692 4.52941 17.9132 4.44967C17.8309 4.33367 17.9238 4.30033 17.8896 4.22864C17.8794 4.19831 17.5483 3.72764 17.5237 3.70526C17.3599 3.52041 17.251 3.59427 17.1076 3.46393C16.7094 3.10436 16.3579 2.66764 15.9735 2.33768C15.8028 2.19062 15.6038 2.0639 15.4038 1.96161C15.5165 2.42344 14.7407 2.23964 15.2516 1.94958C15.0037 1.8839 14.921 1.6766 14.7009 1.58633C14.5588 1.52915 14.4331 1.5449 14.2395 1.45136C13.8991 1.28511 13.5714 0.943804 13.3431 1.25345C12.9461 1.04041 12.5426 1.07166 12.4647 0.717575C12.3555 0.668512 12.021 0.791853 11.892 0.794859C11.7678 0.784454 10.8376 0.748411 10.6885 0.754726C10.5367 0.74819 10.2752 0.743196 10.148 0.713608C10.0964 0.701437 10.0499 0.658092 10 0.618492C9.89703 0.535961 9.77425 0.468918 9.59252 0.742594C9.26124 0.726316 9.14336 0.747757 8.84351 0.827374C8.78932 0.842176 8.79043 0.901028 8.75855 0.905123C8.69279 0.913507 8.57585 0.885847 8.45697 0.89954C8.26131 0.922243 8.17593 1.06534 8.16204 0.876465C8.02916 0.869635 7.89418 0.865856 7.75938 0.864765C7.72274 0.910469 7.68671 0.956364 7.65129 1.00243C7.57473 0.980616 7.49723 0.959789 7.419 0.939943C7.56765 1.17929 7.05777 1.15891 7.16458 0.965672C6.93566 1.09232 6.71368 1.22725 6.49892 1.36988C6.64097 1.64223 6.0076 1.60909 5.98103 1.44096C5.95448 1.45302 5.92799 1.46519 5.90157 1.47748C5.70517 1.65755 5.46582 1.70076 5.22149 1.89921C4.98005 2.09892 5.02245 2.1127 5.01674 2.28127C4.95181 2.3112 4.88717 2.34188 4.82283 2.37329C4.29318 2.25693 4.72393 2.76573 4.0428 2.90975C4.03266 3.22585 3.5787 3.44306 3.28859 3.62678C3.25491 3.6477 3.22109 3.61423 3.17389 3.64044C3.05739 3.70433 2.88018 3.98252 2.77529 3.87152C2.73112 3.98523 2.68946 4.0991 2.65023 4.21312C2.56947 4.2646 2.48914 4.31756 2.4094 4.37187C2.37248 4.34143 2.33556 4.31098 2.29865 4.28052C2.3066 4.52843 2.08253 4.72302 2.03098 4.8648C2.0209 4.89285 2.07098 4.93586 2.03549 5.01881C1.99406 5.11583 1.87179 5.2653 1.82413 5.38088C1.73679 5.38251 1.64915 5.38528 1.56127 5.38914C1.41083 5.56199 1.54044 5.72732 1.49112 5.84747C1.48017 5.86803 1.27227 6.2403 1.26041 6.2606C1.15192 6.4168 1.01529 6.29505 0.834936 6.8214C0.804083 6.91543 0.828659 7.01012 0.800002 7.09395C0.746976 7.23904 0.479567 7.65047 0.356393 7.65573C0.441166 7.88284 0.261083 8.36494 0.276309 8.52443C0.280477 8.57171 0.371005 8.60019 0.365878 8.73975C0.361109 8.85239 0.241159 9.12707 0.237163 9.27126C0.232413 9.42383 0.306895 9.48672 0.305923 9.55349C0.30512 9.6169 0.235654 9.66967 0.229434 9.75681C0.211187 10.0307 0.307883 10.2769 0.309559 10.4902C0.309587 10.4935 0.309596 10.4967 0.309584 10.5C0.308669 10.8035 0.134238 11.0795 0.0727172 11.3495C0.0905927 11.4139 0.137331 11.4734 0.144833 11.5417C0.235309 12.3861 0.497405 13.3147 0.846969 14.0842C0.996863 14.4541 1.67042 15.1874 1.171 15.1605C1.15914 15.3277 1.83289 16.0949 1.95386 16.2357C2.06562 16.3875 2.09499 16.554 2.18716 16.6725C2.46799 17.0281 2.71648 17.2288 3.06142 17.6616C3.15082 17.7731 3.20161 17.9445 3.26602 18.0007C3.34358 18.0683 3.48464 18.0738 3.58884 18.1539C3.83433 18.3485 4.28798 18.7202 4.55137 18.8688C4.59914 18.8963 4.65757 18.8413 4.73629 18.8622C5.04218 18.9442 5.33119 19.1102 5.15984 19.3002C5.57127 19.3653 5.83862 19.6348 6.17633 19.783C6.88182 20.1176 8.26523 20.3922 8.92962 20.5438C9.34643 20.6477 9.33554 20.7674 9.97212 20.6811C9.98141 20.6798 9.9907 20.6783 10 20.6769C10.132 20.656 10.264 20.6271 10.4205 20.5969C10.8187 20.5204 11.1454 20.2778 11.4768 20.4803C11.9013 20.3524 12.2566 20.3198 12.5134 20.033C12.5629 20.0727 12.6129 20.112 12.6633 20.151C12.7154 20.138 12.7673 20.1245 12.8191 20.1107C12.8215 20.0593 12.8236 20.008 12.8255 19.9567C13.182 19.8388 13.7055 19.8567 14.0065 19.7223C14.5223 19.5245 15.6961 18.7346 16.0434 18.3509C16.2352 18.1573 16.3127 18.2258 16.2935 17.9632C16.3488 17.936 16.404 17.9082 16.459 17.8798C16.5182 17.8903 16.5776 17.9003 16.6373 17.9097C16.9003 17.6778 17.1405 17.3331 17.3602 17.0873C17.7666 16.6484 18.4093 15.9772 18.6318 15.3984C18.6892 15.2547 18.6931 15.0427 18.7601 14.9118C18.8569 14.7204 19.0253 14.7427 19.1408 14.4895C19.3476 14.0522 19.4459 13.1539 19.5497 12.7273C19.5833 12.6 19.6544 12.5515 19.6789 12.4629C19.781 12.0909 19.821 11.7784 19.9474 11.4165C19.8272 11.006 19.6214 11.0311 19.428 10.9047C19.2819 10.8074 18.9361 10.5384 18.8029 10.5044C18.71 10.4794 18.5901 10.5725 18.4878 10.537C18.4014 10.9444 18.4785 11.1119 18.5872 11.4627C18.513 12.0808 18.3719 12.6895 18.1668 13.2753C18.2015 13.3467 18.2354 13.419 18.2683 13.492C18.2685 13.4921 18.2686 13.4921 18.2687 13.4921C18.2453 13.7439 18.0708 13.7867 17.991 13.8923C17.2954 14.9301 15.9848 16.945 14.7982 17.6937C14.564 17.877 13.6948 18.2619 13.5436 18.4142C13.5057 18.4571 13.527 18.5419 13.4767 18.5677C12.9954 18.7197 12.5051 18.8281 12.0133 18.8929C11.3834 19.1346 10.6836 19.2 10 19.1709C9.64264 19.1562 9.29168 19.1172 8.94467 19.0678C6.1895 18.6883 3.77739 16.9105 2.49292 14.5507C2.23778 14.0949 2.04459 13.4633 1.86049 12.9908C1.78383 12.7948 1.62408 12.7413 1.65946 12.4445C1.62249 12.45 1.58551 12.4556 1.54852 12.4611C1.53741 12.2085 1.59092 12.0407 1.55807 11.7691C1.52542 11.5421 1.47986 10.9334 1.46595 10.7314C1.45639 10.6259 1.38746 10.6666 1.38671 10.5669C1.38669 10.5471 1.38801 10.5246 1.3904 10.5C1.40762 10.3116 1.49412 10.0107 1.51166 9.80657C1.52647 9.59918 1.49269 9.23514 1.53278 9.07572C1.6698 8.50144 1.95087 7.92705 2.15029 7.34806C2.2041 7.18801 2.21231 6.95008 2.23781 6.90222C2.28705 6.80912 2.37985 6.81934 2.4207 6.76178C2.62427 6.47001 2.81493 5.94315 3.01551 5.65363C3.65337 4.70607 4.57212 3.88744 5.52613 3.28092C6.12188 2.87691 7.22689 2.42944 7.85968 2.21746C7.99476 2.16861 7.93507 2.08445 8.05383 2.05662C8.18597 2.02649 8.27136 2.07582 8.33327 2.06888C8.72757 2.01611 9.54647 1.98833 10 1.95856C10.0462 1.95457 10.0887 1.94995 10.1265 1.94438C10.2045 1.93279 10.2633 1.85925 10.3104 1.86116C10.3343 1.86202 10.3856 1.91527 10.4593 1.9244C11.1105 2.00969 11.5835 2.05468 12.2107 2.19828C13.4184 2.47484 14.662 3.23237 15.6551 4.04953C15.8728 4.22575 16.1143 4.25728 16.1426 4.28691C16.2033 4.35157 16.1726 4.46156 16.2756 4.60657C16.6198 5.0825 17.1754 5.6525 17.411 6.16485C17.5307 6.41519 17.589 6.80647 17.6697 7.05817C17.7397 7.2579 17.9628 7.70752 17.9366 7.81537C17.9228 7.8801 17.828 7.93855 17.8354 8.00621ZM13.9967 1.43269C13.9682 1.60715 13.5978 1.296 13.7934 1.27673C13.8382 1.27195 14.0048 1.38663 13.9967 1.43269ZM0.623314 12.5954C0.574115 12.6021 0.524903 12.6087 0.475681 12.6153C0.48275 12.5519 0.490364 12.4883 0.498736 12.4257C0.534504 12.4526 0.570503 12.4797 0.606545 12.5062C0.611997 12.536 0.617587 12.5657 0.623314 12.5954Z" fill="#1D79E9" style="fill:#1D79E9;fill:color(display-p3 0.1137 0.4730 0.9122);fill-opacity:1;"/>
<path d="M7.21729 10.2989C7.21655 10.2812 7.15768 10.314 7.14438 10.3055C7.08822 10.2706 7.03954 10.2855 6.98029 10.2623C6.89238 10.228 6.77124 9.98627 6.45265 10.3049C6.45264 10.3049 6.45263 10.3049 6.45262 10.3049C6.4495 10.308 6.44636 10.3112 6.4432 10.3144C6.38314 10.3757 6.33231 10.4574 6.26596 10.5284C6.19958 10.5993 5.75457 11.0409 5.75156 11.0877C5.75049 11.1524 5.94039 11.1149 5.9523 11.1369C5.96041 11.152 5.93438 11.2065 5.94204 11.2285C5.96674 11.2993 6.02121 11.2949 5.95478 11.4474C6.02968 11.4069 6.10458 11.3664 6.17949 11.3259C6.1752 11.3752 6.28532 11.3331 6.29478 11.3509C6.30253 11.3656 6.26347 11.4178 6.27302 11.4316C6.28347 11.4473 6.35281 11.4181 6.36919 11.4494C6.39629 11.5003 6.28422 11.6263 6.29253 11.6648C6.30117 11.7047 6.40361 11.6778 6.39271 11.7506C6.38351 11.7676 6.3743 11.7846 6.36509 11.8016C6.3327 11.8284 6.30031 11.8552 6.26792 11.882C6.26974 11.9114 6.33713 11.8575 6.35257 11.8707C6.37076 11.8862 6.32185 11.9524 6.33347 11.9635C6.34303 11.9725 6.40177 11.939 6.41094 11.9539C6.42454 11.9755 6.3541 12.0382 6.3511 12.0602C6.35003 12.0688 6.38306 12.1753 6.38647 12.1798C6.41379 12.2123 6.50755 12.1238 6.5394 12.1397C6.62736 12.1842 6.62168 12.3258 6.6551 12.4149C6.67 12.4547 6.70383 12.478 6.74568 12.4906C6.93603 12.2144 7.21266 12.1279 6.81204 12.4574C6.89432 12.4358 6.81729 12.5559 6.86272 12.568C6.89219 12.5757 6.95569 12.538 6.98093 12.5659C7.02539 12.6157 6.93308 12.8111 7.2067 12.5646C7.21619 12.6658 7.35845 12.6194 7.14882 12.8689C7.14906 12.8972 7.32238 12.797 7.35696 12.7945C7.38959 12.7921 7.56748 12.8465 7.58992 12.862C7.61237 12.8776 7.64938 12.9071 7.64524 12.9432C7.64042 12.9883 7.41637 13.2404 7.73054 12.9978C7.74963 13.062 7.77242 13.0688 7.84347 13.0752C7.85632 13.0763 7.89845 13.0358 7.90258 13.0399C7.91101 13.0483 7.89482 13.0932 7.90614 13.112C7.9248 13.1428 8.02589 13.07 7.8903 13.2C7.88435 13.2386 7.8784 13.2772 7.87245 13.3158C7.90382 13.2959 7.93518 13.276 7.96654 13.2561C7.94733 13.2927 7.92811 13.3294 7.9089 13.3661C8.09086 13.1636 8.03885 13.3384 7.90862 13.4288C7.98002 13.4207 8.05142 13.4125 8.12282 13.4044C8.33685 13.1815 8.21749 13.4487 8.09249 13.5612C8.09629 13.5647 8.10008 13.5681 8.10387 13.5716C8.13834 13.5614 8.15686 13.5665 8.171 13.5766C8.47109 13.7839 8.87554 13.8766 9.08288 13.5765C9.099 13.5539 9.12798 13.5425 9.12777 13.4947C9.12742 13.4171 9.10252 13.3995 9.01379 13.2872C9.02864 13.2839 9.04348 13.2806 9.05832 13.2772C9.38148 13.505 8.89612 13.0365 9.1891 13.1661C9.04207 12.9669 9.19733 12.9935 9.29247 13.0034C9.30353 13.0045 9.33722 13.038 9.35419 13.0418C9.39527 13.0505 9.39331 12.9661 9.50029 13.0759C9.4832 13.0303 9.46612 12.9846 9.44903 12.939C9.4804 12.947 9.51178 12.9551 9.54315 12.9631C9.57693 12.997 9.61071 13.0309 9.64449 13.0648C9.55266 12.926 9.63389 12.9334 9.62453 12.8876C9.62257 12.8784 9.57667 12.831 9.5752 12.807C9.57326 12.7787 9.6116 12.768 9.61271 12.7377C9.67051 12.7833 9.72831 12.8289 9.78612 12.8745C9.84221 12.8745 9.7156 12.7282 9.72147 12.7011C9.7226 12.6963 9.78652 12.652 9.79235 12.652C9.83931 12.6512 9.94881 12.7742 9.99295 12.6803C10.0007 12.6635 9.97045 12.6133 9.97994 12.6006C9.99666 12.578 10.147 12.6101 10.236 12.6898C10.1543 12.5605 10.2611 12.5399 10.2494 12.4906C10.2457 12.4756 10.1798 12.4071 10.1829 12.3754C10.1853 12.3496 10.2755 12.3671 10.2843 12.3402C10.2935 12.3114 10.2439 12.2481 10.2484 12.2356C10.2527 12.2239 10.3057 12.2621 10.3164 12.2508C10.349 12.215 10.3066 12.1107 10.3323 12.0823C10.3693 12.0411 10.5388 12.1415 10.6314 12.1687C10.6308 12.1518 10.6098 12.1149 10.6181 12.1061C10.7191 11.9965 10.8131 11.8529 10.8898 11.7183C10.9256 11.656 10.8643 11.3509 11.1374 11.6891C11.208 11.7256 11.2087 11.4784 11.2304 11.453C11.2521 11.4276 11.3256 11.4637 11.3449 11.446C11.4032 11.3925 11.4031 11.3137 11.5188 11.2934C11.5489 11.2883 11.6326 11.3344 11.6423 11.3232C11.6538 11.3096 11.6045 11.2333 11.6167 11.2131C11.6464 11.1654 11.7392 11.1139 11.7655 11.0659C11.7701 11.057 11.7174 10.9995 11.7098 10.9726C11.6802 10.8675 11.7284 10.831 11.897 11.0145C11.8454 10.8662 11.9814 10.9125 12.0318 10.8733C12.138 10.7898 12.2697 10.576 12.4263 10.5673C12.525 10.5619 12.6027 10.6422 12.6112 10.4974C12.6131 10.4652 12.6097 10.4279 12.6123 10.3892C12.6183 10.2984 12.5169 10.1081 12.7295 10.247C12.7377 10.1477 12.8128 10.1372 12.7024 9.94698C12.7432 9.97833 12.7839 10.0097 12.8247 10.041C12.8322 10.0353 12.8396 10.0296 12.8471 10.0239C12.8148 9.9875 12.7825 9.95106 12.7501 9.91462C12.7881 9.85815 12.9893 9.93956 13.0283 9.89857C13.0937 9.82997 13.2114 9.60247 13.2285 9.49254C13.2376 9.43416 13.3131 9.50599 13.181 9.3353C13.1991 9.33829 13.2172 9.34127 13.2352 9.34426C13.2731 9.37268 13.311 9.40111 13.3488 9.42953C13.3934 9.38758 13.3933 9.28476 13.435 9.24406C13.5112 9.16999 13.7153 9.1484 13.7308 9.01304C13.7346 8.97901 13.6899 8.88701 13.7092 8.86926C13.7372 8.84336 13.8572 8.95024 13.8935 8.91814C13.9559 8.86262 13.934 8.62103 13.9998 8.57537C14.0193 8.56173 14.0692 8.59622 14.0851 8.58929C14.1524 8.56072 14.1883 8.51793 14.2995 8.53719C14.2402 8.37914 14.0956 8.24309 13.9693 8.08622C13.8741 7.96778 13.662 7.6846 13.5734 7.58598C13.5112 7.51668 13.4134 7.44534 13.346 7.368C13.2291 7.36933 13.2679 7.45779 13.3217 7.60761C13.2289 7.69222 13.1362 7.77682 13.0435 7.86143C13.0749 7.909 13.1064 7.95657 13.1378 8.00414C13.1379 8.00422 13.138 8.00431 13.1381 8.0044C13.1496 8.08404 13.0335 7.99673 12.992 7.992C12.5951 7.94669 12.4221 8.46576 12.2535 8.68422C12.2171 8.73123 12.0282 8.81366 12.0638 8.90644C12.0731 8.93056 12.1319 8.99353 12.1267 9.00407C12.02 9.03826 11.9134 9.07246 11.8067 9.10666C11.7566 9.34613 11.5287 9.41768 11.3682 9.54902C10.9339 9.90431 10.495 10.2472 10.1212 10.6501C10.0491 10.728 9.90824 10.7776 9.86419 10.8805C9.84573 10.9234 9.93078 11.034 9.81759 11.0014C9.84352 11.0282 9.86945 11.0549 9.89538 11.0817C9.82841 11.0851 9.74598 11.0475 9.70047 11.0809C9.66224 11.109 9.57052 11.1929 9.55126 11.2323C9.54108 11.2526 9.596 11.2961 9.58157 11.3101C9.55649 11.3336 9.43653 11.3174 9.40302 11.3509C9.37267 11.3812 9.37823 11.4891 9.34668 11.5042C9.23348 11.5591 9.05785 11.5665 8.99083 11.6786C8.97247 11.7097 9.0045 11.8054 8.99497 11.8114C8.97613 11.8228 8.90959 11.7653 8.89145 11.7675C8.79952 11.7788 8.79275 11.933 8.74506 11.9866C8.58968 12.161 8.3879 12.3087 8.23508 12.4843C8.20265 12.5215 8.16043 12.5645 8.1168 12.6105L9.13706 12.6105C9.04605 12.5242 8.94304 12.4323 8.84843 12.3997C8.8177 12.3891 8.75526 12.4626 8.73791 12.4453C8.7187 12.426 8.75419 12.3697 8.74891 12.357C8.71269 12.2688 8.62177 12.0851 8.51612 12.0733C8.49593 12.0711 8.43457 12.1162 8.42806 12.1093C8.42467 12.106 8.45335 12.062 8.44642 12.0476C8.38532 11.9208 8.29562 11.8734 8.19108 11.7938C7.99113 11.6411 7.8544 11.3691 7.63256 11.2205C7.58424 11.1881 7.45124 11.2657 7.44663 11.259C7.4363 11.2444 7.49916 11.1656 7.49143 11.1228C7.46507 10.9815 7.27652 10.9441 7.23226 10.8288C7.21034 10.7719 7.2461 10.6278 7.22721 10.5691C7.21214 10.5222 7.10371 10.4844 7.12946 10.4311C7.14496 10.3989 7.2177 10.3185 7.21729 10.2989ZM7.06836 12.535C7.18533 12.407 7.14153 12.5668 7.05402 12.6108C7.03432 12.6207 7.03799 12.5683 7.06836 12.535ZM10.5445 11.7507C10.579 11.7862 10.6134 11.8217 10.6479 11.8572C10.6257 11.8503 10.6035 11.8433 10.5813 11.8364C10.5646 11.8111 10.5478 11.7858 10.5311 11.7604C10.5356 11.7572 10.54 11.7539 10.5445 11.7507Z" fill="#1D79E9" style="fill:#1D79E9;fill:color(display-p3 0.1137 0.4730 0.9122);fill-opacity:1;"/>
</g>
<defs>
<clipPath id="clip0_40_1747">
<rect width="20" height="20" fill="white" style="fill:white;fill-opacity:1;" transform="translate(0 0.5)"/>
</clipPath>
</defs>
</svg>
