<svg width="20" height="20" viewBox="0 0 20 20" fill="none" xmlns="http://www.w3.org/2000/svg">
<g clip-path="url(#clip0_46_15596)">
<path d="M17.8354 7.50621C17.8427 7.56857 17.93 7.63225 17.9535 7.70183C18.0509 7.99275 18.1203 8.09225 18.2017 8.36188C18.3473 8.76307 18.3324 9.99024 18.7651 10C18.7651 10 18.7652 10 18.7652 10C18.7696 10 18.7741 9.99987 18.7786 9.99962C18.8646 9.99539 18.9576 9.88268 19.0542 9.86401C19.1508 9.84534 19.779 9.85054 19.8091 9.67373C19.8526 9.41684 19.6353 8.82621 19.6204 8.69624C19.6132 8.60537 19.6532 8.48575 19.6435 8.36732C19.6105 7.98664 19.5268 7.80446 19.5892 7.43095C19.4744 7.31757 19.3579 7.20883 19.2396 7.10418C19.2232 6.92227 19.0326 6.70617 18.9999 6.60503C18.9735 6.52156 19.0149 6.45009 18.9832 6.36371C18.948 6.26672 18.823 6.14823 18.7548 5.97519C18.6414 5.69255 18.7642 5.56789 18.6963 5.39187C18.6249 5.20868 18.3968 4.99377 18.3146 4.75437C18.3137 4.71825 18.3125 4.68206 18.3112 4.64581C18.3585 4.64188 18.4059 4.63824 18.4533 4.63487C18.4013 4.51719 18.2995 4.51881 18.2336 4.424C18.1555 4.31259 18.1815 4.20894 18.127 4.13402C18.0823 4.0727 17.9692 4.02941 17.9132 3.94967C17.8309 3.83367 17.9238 3.80033 17.8896 3.72864C17.8794 3.69831 17.5483 3.22764 17.5237 3.20526C17.3599 3.02041 17.251 3.09427 17.1076 2.96393C16.7094 2.60437 16.3579 2.16764 15.9735 1.83768C15.8028 1.69062 15.6038 1.5639 15.4038 1.46161C15.5165 1.92344 14.7407 1.73964 15.2516 1.44958C15.0037 1.3839 14.921 1.1766 14.7009 1.08633C14.5588 1.02915 14.4331 1.0449 14.2395 0.951364C13.8991 0.785114 13.5714 0.443804 13.3431 0.753454C12.9461 0.540414 12.5426 0.571655 12.4647 0.217575C12.3555 0.168512 12.021 0.291853 11.892 0.29486C11.7678 0.284454 10.8376 0.248412 10.6885 0.254727C10.5367 0.24819 10.2752 0.243196 10.148 0.213607C10.0964 0.201436 10.0499 0.158093 10 0.118491C9.89703 0.0359604 9.77425 -0.031082 9.59252 0.242594C9.26124 0.226317 9.14336 0.247757 8.84351 0.327374C8.78932 0.342176 8.79043 0.401027 8.75855 0.405123C8.69279 0.413508 8.57585 0.385847 8.45697 0.399539C8.26131 0.422243 8.17593 0.565344 8.16204 0.376464C8.02916 0.369636 7.89418 0.365857 7.75938 0.364766C7.72274 0.41047 7.68671 0.456364 7.65129 0.502435C7.57473 0.480616 7.49723 0.459789 7.419 0.439943C7.56765 0.679291 7.05777 0.658912 7.16458 0.465671C6.93566 0.592316 6.71368 0.727246 6.49892 0.869879C6.64097 1.14222 6.0076 1.10909 5.98103 0.940956C5.95448 0.953018 5.92799 0.965194 5.90157 0.977481C5.70517 1.15755 5.46582 1.20076 5.22149 1.39921C4.98005 1.59892 5.02245 1.6127 5.01674 1.78127C4.95181 1.8112 4.88717 1.84188 4.82283 1.87329C4.29318 1.75693 4.72393 2.26573 4.0428 2.40975C4.03266 2.72585 3.5787 2.94306 3.28859 3.12678C3.25491 3.1477 3.22109 3.11423 3.17389 3.14044C3.05739 3.20433 2.88018 3.48252 2.77529 3.37152C2.73112 3.48523 2.68946 3.5991 2.65023 3.71312C2.56947 3.7646 2.48914 3.81756 2.4094 3.87187C2.37248 3.84143 2.33556 3.81098 2.29865 3.78052C2.3066 4.02843 2.08253 4.22302 2.03098 4.3648C2.0209 4.39285 2.07098 4.43586 2.03549 4.51881C1.99406 4.61583 1.87179 4.7653 1.82413 4.88088C1.73679 4.88251 1.64915 4.88528 1.56127 4.88914C1.41083 5.06199 1.54044 5.22732 1.49112 5.34747C1.48017 5.36803 1.27227 5.7403 1.26041 5.7606C1.15192 5.9168 1.01529 5.79505 0.834936 6.3214C0.804083 6.41543 0.828659 6.51012 0.800002 6.59395C0.746976 6.73904 0.479567 7.15047 0.356393 7.15573C0.441166 7.38284 0.261083 7.86494 0.276309 8.02443C0.280477 8.07171 0.371005 8.10019 0.365878 8.23975C0.361109 8.35239 0.241159 8.62707 0.237163 8.77126C0.232413 8.92383 0.306895 8.98672 0.305923 9.05349C0.30512 9.1169 0.235654 9.16966 0.229434 9.25681C0.211187 9.53075 0.307883 9.77686 0.309559 9.99021C0.309587 9.99348 0.309596 9.99674 0.309584 10C0.308669 10.3035 0.134238 10.5795 0.0727172 10.8495C0.0905927 10.9139 0.137331 10.9734 0.144833 11.0417C0.235309 11.8861 0.497405 12.8147 0.846969 13.5842C0.996863 13.9541 1.67042 14.6874 1.171 14.6605C1.15914 14.8277 1.83289 15.5949 1.95386 15.7357C2.06562 15.8875 2.09499 16.054 2.18716 16.1725C2.46799 16.5281 2.71648 16.7288 3.06142 17.1616C3.15082 17.2731 3.20161 17.4445 3.26602 17.5007C3.34358 17.5683 3.48464 17.5738 3.58884 17.6539C3.83433 17.8485 4.28798 18.2202 4.55137 18.3688C4.59914 18.3963 4.65757 18.3413 4.73629 18.3622C5.04218 18.4442 5.33119 18.6102 5.15984 18.8002C5.57127 18.8653 5.83862 19.1348 6.17633 19.283C6.88182 19.6176 8.26523 19.8922 8.92962 20.0438C9.34643 20.1477 9.33554 20.2674 9.97212 20.1811C9.98141 20.1798 9.9907 20.1783 10 20.1769C10.132 20.156 10.264 20.1271 10.4205 20.0969C10.8187 20.0204 11.1454 19.7778 11.4768 19.9803C11.9013 19.8524 12.2566 19.8198 12.5134 19.533C12.5629 19.5727 12.6129 19.612 12.6633 19.651C12.7154 19.638 12.7673 19.6245 12.8191 19.6107C12.8215 19.5593 12.8236 19.508 12.8255 19.4567C13.182 19.3388 13.7055 19.3567 14.0065 19.2223C14.5223 19.0245 15.6961 18.2346 16.0434 17.8509C16.2352 17.6573 16.3127 17.7258 16.2935 17.4632C16.3488 17.436 16.404 17.4082 16.459 17.3798C16.5182 17.3903 16.5776 17.4003 16.6373 17.4097C16.9003 17.1778 17.1405 16.8331 17.3602 16.5873C17.7666 16.1484 18.4093 15.4772 18.6318 14.8984C18.6892 14.7547 18.6931 14.5427 18.7601 14.4118C18.8569 14.2204 19.0253 14.2427 19.1408 13.9895C19.3476 13.5522 19.4459 12.6539 19.5497 12.2273C19.5833 12.1 19.6544 12.0515 19.6789 11.9629C19.781 11.5909 19.821 11.2784 19.9474 10.9165C19.8272 10.506 19.6214 10.5311 19.428 10.4047C19.2819 10.3074 18.9361 10.0384 18.8029 10.0044C18.71 9.97941 18.5901 10.0725 18.4878 10.037C18.4014 10.4444 18.4785 10.6119 18.5872 10.9627C18.513 11.5808 18.3719 12.1895 18.1668 12.7753C18.2015 12.8467 18.2354 12.919 18.2683 12.992C18.2685 12.9921 18.2686 12.9921 18.2687 12.9921C18.2453 13.2439 18.0708 13.2867 17.991 13.3923C17.2954 14.4301 15.9848 16.445 14.7982 17.1937C14.564 17.377 13.6948 17.7619 13.5436 17.9142C13.5057 17.9571 13.527 18.0419 13.4767 18.0677C12.9954 18.2197 12.5051 18.3281 12.0133 18.3929C11.3834 18.6346 10.6836 18.7 10 18.6709C9.64264 18.6562 9.29168 18.6172 8.94467 18.5678C6.1895 18.1883 3.77739 16.4105 2.49292 14.0507C2.23778 13.5949 2.04459 12.9633 1.86049 12.4908C1.78383 12.2948 1.62408 12.2413 1.65946 11.9445C1.62249 11.95 1.58551 11.9556 1.54852 11.9611C1.53741 11.7085 1.59092 11.5407 1.55807 11.2691C1.52542 11.0421 1.47986 10.4334 1.46595 10.2314C1.45639 10.1259 1.38746 10.1666 1.38671 10.0669C1.38669 10.0471 1.38801 10.0246 1.3904 10C1.40762 9.8116 1.49412 9.51069 1.51166 9.30657C1.52647 9.09918 1.49269 8.73514 1.53278 8.57572C1.6698 8.00143 1.95087 7.42705 2.15029 6.84806C2.2041 6.68801 2.21231 6.45008 2.23781 6.40222C2.28705 6.30912 2.37985 6.31934 2.4207 6.26178C2.62427 5.97001 2.81493 5.44315 3.01551 5.15363C3.65337 4.20607 4.57212 3.38744 5.52613 2.78092C6.12188 2.37692 7.22689 1.92944 7.85968 1.71747C7.99476 1.66861 7.93507 1.58445 8.05383 1.55662C8.18597 1.52649 8.27136 1.57582 8.33327 1.56888C8.72757 1.51611 9.54647 1.48833 10 1.45856C10.0462 1.45457 10.0887 1.44994 10.1265 1.44438C10.2045 1.43279 10.2633 1.35925 10.3104 1.36116C10.3343 1.36202 10.3856 1.41527 10.4593 1.4244C11.1105 1.50969 11.5835 1.55468 12.2107 1.69828C13.4184 1.97484 14.662 2.73237 15.6551 3.54953C15.8728 3.72575 16.1143 3.75728 16.1426 3.78691C16.2033 3.85158 16.1726 3.96156 16.2756 4.10657C16.6198 4.5825 17.1754 5.1525 17.411 5.66485C17.5307 5.91519 17.589 6.30647 17.6697 6.55817C17.7397 6.7579 17.9628 7.20752 17.9366 7.31537C17.9228 7.3801 17.828 7.43855 17.8354 7.50621ZM13.9967 0.932687C13.9682 1.10715 13.5978 0.795996 13.7934 0.776734C13.8382 0.771948 14.0048 0.886628 13.9967 0.932687ZM0.623314 12.0954C0.574115 12.1021 0.524903 12.1087 0.475681 12.1153C0.48275 12.0519 0.490364 11.9883 0.498736 11.9257C0.534504 11.9526 0.570503 11.9797 0.606545 12.0062C0.611997 12.036 0.617587 12.0657 0.623314 12.0954Z" fill="#1D79E9" style="fill:#1D79E9;fill:color(display-p3 0.1137 0.4730 0.9122);fill-opacity:1;"/>
<path d="M7.21723 9.79882C7.21649 9.78112 7.15762 9.81396 7.14432 9.8055C7.08815 9.77054 7.03948 9.78545 6.98023 9.76225C6.89232 9.72791 6.77118 9.48622 6.45259 9.80481C6.45258 9.80481 6.45257 9.80482 6.45256 9.80483C6.44944 9.80795 6.4463 9.81113 6.44313 9.81436C6.38308 9.87569 6.33225 9.95738 6.2659 10.0283C6.19952 10.0993 5.7545 10.5409 5.7515 10.5877C5.75043 10.6523 5.94032 10.6149 5.95224 10.6369C5.96035 10.6519 5.93432 10.7065 5.94198 10.7285C5.96668 10.7993 6.02115 10.7948 5.95472 10.9473C6.02962 10.9068 6.10452 10.8664 6.17943 10.8259C6.17514 10.8751 6.28526 10.8331 6.29472 10.8509C6.30247 10.8655 6.26341 10.9177 6.27296 10.9315C6.28341 10.9472 6.35274 10.9181 6.36913 10.9493C6.39622 11.0003 6.28416 11.1262 6.29247 11.1647C6.30111 11.2047 6.40355 11.1777 6.39265 11.2506C6.38344 11.2676 6.37424 11.2845 6.36503 11.3015C6.33264 11.3283 6.30025 11.3552 6.26786 11.382C6.26968 11.4114 6.33707 11.3574 6.35251 11.3707C6.3707 11.3862 6.32179 11.4523 6.3334 11.4634C6.34297 11.4724 6.40171 11.4389 6.41088 11.4539C6.42448 11.4754 6.35404 11.5382 6.35104 11.5601C6.34997 11.5687 6.383 11.6753 6.38641 11.6797C6.41373 11.7123 6.50749 11.6237 6.53934 11.6397C6.6273 11.6841 6.62162 11.8258 6.65504 11.9149C6.66994 11.9547 6.70377 11.9779 6.74562 11.9906C6.93597 11.7143 7.2126 11.6278 6.81198 11.9574C6.89426 11.9358 6.81723 12.0558 6.86266 12.0679C6.89213 12.0757 6.95563 12.0379 6.98087 12.0658C7.02533 12.1156 6.93301 12.3111 7.20664 12.0646C7.21613 12.1657 7.35839 12.1193 7.14876 12.3689C7.149 12.3972 7.32232 12.297 7.3569 12.2944C7.38953 12.292 7.56742 12.3464 7.58986 12.362C7.61231 12.3775 7.64932 12.407 7.64518 12.4432C7.64036 12.4882 7.41631 12.7404 7.73048 12.4978C7.74957 12.5619 7.77236 12.5688 7.84341 12.5751C7.85626 12.5763 7.89839 12.5358 7.90252 12.5398C7.91095 12.5482 7.89475 12.5931 7.90608 12.6119C7.92474 12.6428 8.02583 12.5699 7.89024 12.7C7.88429 12.7386 7.87834 12.7772 7.87239 12.8158C7.90375 12.7959 7.93512 12.7759 7.96648 12.756C7.94726 12.7927 7.92805 12.8294 7.90884 12.866C8.0908 12.6636 8.03879 12.8384 7.90856 12.9287C7.97996 12.9206 8.05136 12.9125 8.12276 12.9044C8.33679 12.6815 8.21743 12.9486 8.09243 13.0612C8.09622 13.0646 8.10002 13.0681 8.10381 13.0715C8.13828 13.0614 8.1568 13.0664 8.17094 13.0765C8.47103 13.2838 8.87548 13.3766 9.08282 13.0765C9.09894 13.0538 9.12792 13.0425 9.12771 12.9947C9.12736 12.9171 9.10246 12.8994 9.01373 12.7872C9.02857 12.7839 9.04342 12.7805 9.05826 12.7772C9.38142 13.005 8.89606 12.5365 9.18904 12.6661C9.04201 12.4669 9.19727 12.4935 9.29241 12.5033C9.30347 12.5045 9.33716 12.538 9.35413 12.5417C9.39521 12.5505 9.39325 12.4661 9.50023 12.5759C9.48314 12.5302 9.46606 12.4846 9.44897 12.439C9.48034 12.447 9.51172 12.455 9.54309 12.4631C9.57687 12.497 9.61065 12.5309 9.64443 12.5648C9.5526 12.426 9.63383 12.4334 9.62447 12.3876C9.6225 12.3784 9.57661 12.3309 9.57514 12.3069C9.5732 12.2786 9.61154 12.2679 9.61265 12.2376C9.67045 12.2833 9.72825 12.3289 9.78606 12.3745C9.84215 12.3745 9.71554 12.2281 9.72141 12.201C9.72254 12.1962 9.78646 12.1519 9.79229 12.1519C9.83925 12.1511 9.94875 12.2742 9.99289 12.1802C10.0007 12.1634 9.97039 12.1133 9.97988 12.1005C9.99659 12.078 10.147 12.1101 10.2359 12.1897C10.1542 12.0604 10.2611 12.0398 10.2493 11.9906C10.2456 11.9756 10.1797 11.9071 10.1828 11.8754C10.1852 11.8496 10.2754 11.8671 10.2843 11.8402C10.2935 11.8113 10.2438 11.7481 10.2483 11.7356C10.2526 11.7238 10.3056 11.762 10.3163 11.7508C10.349 11.715 10.3066 11.6106 10.3323 11.5823C10.3692 11.541 10.5387 11.6414 10.6314 11.6686C10.6307 11.6518 10.6097 11.6148 10.618 11.6061C10.7191 11.4965 10.813 11.3528 10.8897 11.2183C10.9255 11.156 10.8643 10.8509 11.1374 11.189C11.2079 11.2255 11.2086 10.9784 11.2303 10.953C11.2521 10.9276 11.3255 10.9637 11.3449 10.946C11.4032 10.8925 11.403 10.8136 11.5188 10.7933C11.5488 10.7882 11.6326 10.8343 11.6422 10.8232C11.6537 10.8096 11.6044 10.7333 11.6167 10.713C11.6463 10.6653 11.7391 10.6139 11.7654 10.5659C11.7701 10.557 11.7173 10.4994 11.7098 10.4725C11.6802 10.3674 11.7284 10.3309 11.8969 10.5144C11.8454 10.3661 11.9813 10.4125 12.0317 10.3732C12.138 10.2898 12.2696 10.076 12.4262 10.0673C12.525 10.0619 12.6026 10.1422 12.6112 9.99733C12.6131 9.96519 12.6097 9.92786 12.6123 9.88919C12.6183 9.79837 12.5168 9.6081 12.7295 9.74697C12.7376 9.64763 12.8128 9.63714 12.7024 9.44694C12.7431 9.47829 12.7839 9.50964 12.8246 9.54099C12.8321 9.53529 12.8396 9.52959 12.8471 9.52389C12.8147 9.48745 12.7824 9.45101 12.7501 9.41457C12.788 9.3581 12.9893 9.43952 13.0282 9.39852C13.0936 9.32992 13.2113 9.10243 13.2284 8.99249C13.2375 8.93412 13.313 9.00594 13.1809 8.83526C13.199 8.83824 13.2171 8.84123 13.2352 8.84421C13.273 8.87264 13.3109 8.90106 13.3488 8.92949C13.3934 8.88753 13.3932 8.78472 13.435 8.74401C13.5112 8.66994 13.7152 8.64835 13.7307 8.51299C13.7345 8.47897 13.6898 8.38697 13.7091 8.36921C13.7372 8.34331 13.8571 8.45019 13.8935 8.4181C13.9559 8.36258 13.9339 8.12098 13.9997 8.07532C14.0192 8.06169 14.0691 8.09617 14.0851 8.08925C14.1524 8.06067 14.1883 8.01788 14.2995 8.03714C14.2401 7.87909 14.0955 7.74305 13.9693 7.58618C13.874 7.46773 13.6619 7.18456 13.5734 7.08593C13.5112 7.01664 13.4133 6.94529 13.3459 6.86795C13.229 6.86928 13.2678 6.95775 13.3216 7.10757C13.2289 7.19217 13.1362 7.27677 13.0435 7.36138C13.0749 7.40895 13.1063 7.45652 13.1378 7.50409C13.1379 7.50418 13.1379 7.50426 13.138 7.50435C13.1496 7.58399 13.0334 7.49669 12.9919 7.49196C12.595 7.44664 12.4221 7.96572 12.2535 8.18418C12.2171 8.23118 12.0282 8.31362 12.0637 8.40639C12.073 8.43051 12.1318 8.49349 12.1266 8.50402C12.02 8.53822 11.9133 8.57242 11.8067 8.60662C11.7565 8.84608 11.5286 8.91763 11.3681 9.04897C10.9338 9.40427 10.4949 9.74711 10.1212 10.15C10.0491 10.228 9.90818 10.2776 9.86413 10.3805C9.84567 10.4234 9.93072 10.534 9.81753 10.5013C9.84346 10.5281 9.86939 10.5549 9.89532 10.5817C9.82835 10.585 9.74592 10.5475 9.70041 10.5808C9.66218 10.609 9.57045 10.6929 9.5512 10.7323C9.54102 10.7525 9.59594 10.7961 9.58151 10.81C9.55643 10.8335 9.43647 10.8173 9.40296 10.8508C9.37261 10.8812 9.37817 10.9891 9.34662 11.0042C9.23342 11.0591 9.05779 11.0665 8.99077 11.1786C8.97241 11.2097 9.00444 11.3054 8.99491 11.3113C8.97607 11.3228 8.90953 11.2652 8.89139 11.2674C8.79946 11.2788 8.79269 11.433 8.745 11.4865C8.58962 11.661 8.38783 11.8086 8.23502 11.9842C8.20259 12.0215 8.16037 12.0644 8.11674 12.1104L9.137 12.1104C9.04599 12.0241 8.94298 11.9323 8.84837 11.8997C8.81764 11.8891 8.75519 11.9626 8.73785 11.9452C8.71864 11.926 8.75413 11.8696 8.74885 11.857C8.71263 11.7688 8.62171 11.585 8.51606 11.5732C8.49586 11.5711 8.4345 11.6162 8.428 11.6093C8.42461 11.6059 8.45329 11.5619 8.44636 11.5476C8.38526 11.4207 8.29556 11.3734 8.19102 11.2938C7.99107 11.141 7.85434 10.8691 7.6325 10.7204C7.58418 10.688 7.45118 10.7656 7.44657 10.7589C7.43624 10.7443 7.4991 10.6655 7.49137 10.6228C7.46501 10.4814 7.27646 10.444 7.2322 10.3288C7.21028 10.2718 7.24604 10.1278 7.22715 10.0691C7.21208 10.0222 7.10365 9.98431 7.1294 9.9311C7.14489 9.89889 7.21764 9.81842 7.21723 9.79882ZM7.0683 12.035C7.18527 11.907 7.14147 12.0668 7.05396 12.1108C7.03426 12.1207 7.03793 12.0682 7.0683 12.035ZM10.5444 11.2506C10.5789 11.2861 10.6133 11.3217 10.6478 11.3572C10.6256 11.3502 10.6035 11.3433 10.5813 11.3363C10.5645 11.311 10.5478 11.2857 10.531 11.2604C10.5355 11.2571 10.54 11.2539 10.5444 11.2506Z" fill="#1D79E9" style="fill:#1D79E9;fill:color(display-p3 0.1137 0.4730 0.9122);fill-opacity:1;"/>
</g>
<defs>
<clipPath id="clip0_46_15596">
<rect width="20" height="20" fill="white" style="fill:white;fill-opacity:1;"/>
</clipPath>
</defs>
</svg>
