<svg width="120" height="120" viewBox="0 0 120 120" fill="none" xmlns="http://www.w3.org/2000/svg">
<path d="M48.4239 19.7647C48.0004 20.1883 48.0004 20.753 48.2827 21.3177C49.5533 22.7294 50.5415 24.4236 51.1063 26.2589C51.2474 26.6824 51.671 26.9647 52.0945 26.9647C52.8004 26.9647 53.3651 26.2589 53.0827 25.553C52.3768 23.4353 51.2474 21.4589 49.8357 19.7647C49.5533 19.4824 48.8474 19.3412 48.4239 19.7647Z" fill="black" style="fill:black;fill-opacity:1;"/>
<path d="M67.906 11.0118C69.3178 9.31768 69.7413 4.80003 69.6001 2.82356C69.6001 2.25886 69.0354 1.83533 68.4707 1.83533C67.906 1.83533 67.4825 2.40003 67.4825 2.96474C67.6236 4.80003 67.0589 8.6118 66.2119 9.74121C65.7883 10.1647 65.3648 10.5883 64.9413 11.0118C63.3883 7.62356 59.7178 7.05886 58.0236 9.45886C56.1883 12 58.7295 15.953 63.6707 14.1177C64.2354 17.5059 63.5295 21.0353 62.8236 24.5647C62.6825 25.2706 63.2472 25.8353 63.8119 25.8353C64.3766 25.8353 64.8001 25.553 64.8001 24.9883C65.6472 21.1765 66.3531 16.9412 65.6472 12.9883C66.4942 12.4236 67.3413 11.7177 67.906 11.0118ZM60.5648 12.2824C59.8589 12 59.153 11.2942 59.7178 10.5883C60.4236 9.60003 62.2589 9.88239 63.106 12C62.4001 12.2824 61.4119 12.5647 60.5648 12.2824Z" fill="black" style="fill:black;fill-opacity:1;"/>
<path d="M74.9653 20.1882C73.977 21.3177 73.13 22.7294 72.5653 24.2824C72.4241 24.8471 72.7064 25.4118 73.2712 25.6941C73.8359 25.8353 74.4006 25.5529 74.6829 24.9882C75.1064 23.7177 75.8123 22.5882 76.6594 21.6C77.0829 21.1765 76.9417 20.4706 76.5182 20.0471C75.9535 19.7647 75.2476 19.7647 74.9653 20.1882Z" fill="black" style="fill:black;fill-opacity:1;"/>
<path d="M91.0595 12.4235C90.7772 11.8588 90.2125 11.5765 89.6478 11.8588C88.0948 12.5647 86.5419 13.2706 85.1301 14.1176C84.5654 14.4 84.4243 15.1059 84.7066 15.5294C84.989 16.0941 85.6948 16.2353 86.1184 15.9529C87.389 15.1059 88.9419 14.4 90.3537 13.8353C91.0595 13.5529 91.3419 12.9882 91.0595 12.4235Z" fill="black" style="fill:black;fill-opacity:1;"/>
<path d="M87.8123 30.6353C86.2593 31.0588 84.7064 31.4823 83.2946 32.3294C82.3064 32.8941 82.5887 34.3058 83.7181 34.3058C84.424 34.3058 85.2711 33.4588 88.2358 32.7529C88.8005 32.6117 89.224 32.047 89.0828 31.4823C88.9417 30.9176 88.377 30.6353 87.8123 30.6353Z" fill="black" style="fill:black;fill-opacity:1;"/>
<path d="M78.4943 5.92941C77.9296 5.78823 77.3649 6.07059 77.2237 6.63529C77.0826 7.2 76.8002 7.90588 76.659 8.47059C76.5178 9.03529 76.8002 9.6 77.3649 9.74117C77.9296 9.88235 78.4943 9.6 78.6355 9.03529C78.7767 8.47059 79.059 7.7647 79.2002 7.2C79.3414 6.63529 79.059 6.07059 78.4943 5.92941Z" fill="black" style="fill:black;fill-opacity:1;"/>
<path d="M43.6242 12.847C44.1889 12.7059 44.6124 12.1412 44.4712 11.5764C44.3301 11.0117 43.7653 10.5882 43.2006 10.7294L42.6359 10.8706C41.3653 11.1529 41.6477 12.9882 42.9183 12.9882C42.9183 12.9882 43.483 12.9882 43.6242 12.847Z" fill="black" style="fill:black;fill-opacity:1;"/>
<path d="M33.8829 17.647C33.3182 17.3647 32.7535 17.647 32.4711 18.2117C32.1888 18.7764 32.4711 19.3411 33.0358 19.6235C34.7299 20.3294 36.1417 21.6 36.9888 23.2941C37.2711 23.8588 37.977 24 38.4005 23.7176C38.9652 23.4353 39.1064 22.7294 38.8241 22.3058C37.6946 20.1882 36.0005 18.6353 33.8829 17.647Z" fill="black" style="fill:black;fill-opacity:1;"/>
<path d="M110.118 22.1647C108.283 23.1529 106.165 23.4353 104.33 23.0118C106.306 18.6353 102.918 14.6824 99.5299 16.3765C96.8475 17.6471 96.7063 21.6 101.083 24C98.2593 26.9647 94.7299 26.8235 92.7534 24.8471C92.3299 24.4235 91.624 24.4235 91.2005 24.8471C90.7769 25.2706 90.7769 25.9765 91.2005 26.4C94.5887 29.9294 99.9534 28.8 103.059 24.9882C105.6 25.6941 108.424 25.4118 110.965 24.1412C111.53 23.8588 111.671 23.2941 111.389 22.7294C111.106 22.1647 110.542 21.8824 110.118 22.1647ZM102.212 22.3059C99.2475 20.7529 99.2475 18.9176 100.377 18.2118C102.071 17.5059 103.624 19.7647 102.212 22.3059Z" fill="black" style="fill:black;fill-opacity:1;"/>
<path d="M93.7414 35.2941L93.4591 35.4353C93.0355 35.8588 93.0355 36.4235 93.3179 36.9882C93.7414 37.4117 94.3061 37.4117 94.8708 37.1294L95.1532 36.9882C95.5767 36.5647 95.5767 36 95.2943 35.4353C94.8708 34.8706 94.1649 34.8706 93.7414 35.2941Z" fill="black" style="fill:black;fill-opacity:1;"/>
<path d="M44.8942 32.8941C44.3295 32.753 43.7648 33.0353 43.4825 33.6C43.2001 34.1647 43.6236 34.7294 44.1883 35.0118L44.6119 35.153C45.1766 35.2941 45.7413 35.0118 46.0236 34.4471C46.1648 33.8824 45.8825 33.3177 45.3177 33.0353L44.8942 32.8941Z" fill="black" style="fill:black;fill-opacity:1;"/>
<path d="M75.1068 38.1176C75.248 37.6941 75.1068 37.2706 74.8245 36.9882C74.1186 36.4235 73.5539 36.847 72.848 37.2706C72.2833 35.8588 72.4245 35.0118 71.7186 34.7294C71.0127 34.3059 70.5892 35.0117 66.9186 36.5647L65.5068 32.8941C65.2245 32.3294 64.5186 32.047 63.9539 32.3294C62.2598 33.3176 60.7068 34.447 59.1539 35.7176L56.048 32.7529C55.4833 32.3294 54.7774 32.4706 54.3539 33.0353L52.9421 35.7176C52.2362 34.8706 51.3892 34.1647 50.5421 33.6C49.5539 32.8941 48.4245 34.0235 48.9892 35.0117L49.5539 36C47.4362 51.5294 46.7304 54.9176 43.7657 69.6C43.2009 69.3176 42.6362 69.6 42.3539 70.0235C42.0715 70.5882 42.3539 71.1529 42.7774 71.4353L43.6245 71.8588V72C44.1892 75.8118 46.7304 79.4823 50.9657 81.0353C51.248 81.1765 51.6715 81.4588 51.9539 81.6C51.9539 82.5882 51.1068 83.5765 50.1186 84.1412C48.848 84.9882 47.1539 85.5529 45.7421 86.6823C43.7657 88.2353 42.7774 90.9176 43.2009 93.4588C43.3421 94.0235 43.9068 94.4471 44.4715 94.3059C45.0362 94.1647 45.4598 93.6 45.3186 93.0353C45.0362 91.3412 45.7421 89.3647 47.0127 88.2353C48.1421 87.247 49.8362 86.8235 51.248 85.8353C52.5186 84.9882 53.648 83.7176 53.9304 82.0235C57.7421 82.447 63.1068 80.1882 65.3657 77.9294C69.1774 73.9765 69.3186 67.0588 76.2362 41.2235C75.8127 40.2353 75.3892 39.3882 74.9657 38.4C74.9657 38.2588 75.1068 38.1176 75.1068 38.1176ZM48.2833 57.7412C51.9539 63.6706 57.8833 68.047 64.5186 69.8823C64.2362 71.2941 63.8127 72.847 63.3892 74.5412C57.1774 74.2588 51.248 72.9882 45.7421 70.447C46.8715 65.0823 47.5774 61.2706 48.2833 57.7412ZM49.9774 48C53.7892 53.647 60.2833 57.6 67.0598 58.3059C66.3539 61.4117 65.9304 63.9529 64.9421 67.9059C58.3068 66.0706 52.3774 61.4117 49.1304 55.2C48.9892 55.0588 48.848 54.9176 48.7068 54.7765C49.2715 52.5176 49.5539 50.4 49.9774 48ZM51.5304 37.2706C53.7892 39.6706 55.3421 42.9176 55.4833 46.3059C55.4833 46.7294 55.7657 47.1529 56.1892 47.2941C57.6009 47.7176 57.4598 45.6 62.401 41.9294C62.6833 43.2 63.248 44.4706 63.9539 45.6C64.0951 45.8823 64.3774 46.0235 64.8009 46.0235C65.7892 46.0235 65.7892 44.8941 71.8598 40.5176C70.5892 43.6235 68.4715 52.2353 67.4833 56.3294C60.2833 55.7647 53.648 51.1059 50.5421 44.7529C50.8245 42.4941 51.1068 40.0941 51.5304 37.2706ZM55.6245 35.2941L58.448 37.9765C58.8715 38.4 59.4362 38.4 59.8598 37.9765C61.1304 36.847 62.4009 35.7176 63.9539 34.8706L64.9421 37.4117C65.3657 38.4 66.0715 38.6823 66.6362 38.8235C67.3421 38.8235 67.6245 38.6823 70.7304 37.2706L71.1539 38.6823C69.1774 40.0941 66.7774 42.0706 65.2245 43.4823C63.9539 41.0823 64.9421 39.9529 63.9539 39.3882C63.6715 39.247 63.248 39.247 62.8245 39.3882C60.848 40.6588 59.0127 42.2118 57.3186 43.9059C56.7539 41.647 55.7657 39.5294 54.4951 37.6941L55.6245 35.2941ZM46.0245 72.9882C50.9657 75.1059 56.1892 76.2353 61.6951 76.6588C56.7539 81.8823 48.0009 79.9059 46.0245 72.9882Z" fill="black" style="fill:black;fill-opacity:1;"/>
</svg>
