<svg width="50" height="50" viewBox="0 0 50 50" fill="none" xmlns="http://www.w3.org/2000/svg">
<path d="M8.48462 11.1651L16.8168 19.4974C18.7082 17.9844 21.0052 17.0011 23.5352 16.7164V4.92383C17.7735 5.26143 12.542 7.55576 8.48462 11.1651Z" fill="black" style="fill:black;fill-opacity:1;"/>
<path d="M6.41318 13.2365C2.49844 17.6371 0 23.4125 0 29.7519C0 30.5616 0.655176 31.2168 1.46484 31.2168H10.3516C11.1612 31.2168 11.8164 30.5616 11.8164 29.7519C11.8164 26.6452 12.9411 23.8243 14.7454 21.5687L6.41318 13.2365Z" fill="black" style="fill:black;fill-opacity:1;"/>
<path d="M36.3182 18.2979C35.8246 17.8674 35.1094 17.8116 34.5644 18.1649L21.8515 26.2744C20.1534 27.3587 19.1406 29.2055 19.1406 31.2168C19.1406 34.4483 21.7685 37.0762 25 37.0762C27.2717 37.0762 29.3573 35.7458 30.3129 33.6873L36.6801 20.0174C36.9548 19.428 36.8074 18.727 36.3182 18.2979Z" fill="black" style="fill:black;fill-opacity:1;"/>
<path d="M43.5868 13.2365L39.2813 17.542C39.8235 18.6993 39.8948 20.0541 39.3351 21.2547L37.4089 25.3899C37.9048 26.7521 38.1835 28.2163 38.1835 29.7519C38.1835 30.5616 38.8387 31.2168 39.6484 31.2168H48.5351C49.3448 31.2168 50 30.5616 50 29.7519C50 23.4125 47.5015 17.6371 43.5868 13.2365Z" fill="black" style="fill:black;fill-opacity:1;"/>
<path d="M26.4648 4.92383V16.7164C27.6981 16.8552 28.8732 17.1656 29.9759 17.6167L32.9895 15.6942C34.1968 14.9118 35.6722 14.7439 37.2087 15.4719L41.5154 11.1651C37.458 7.55576 32.2266 5.26143 26.4648 4.92383Z" fill="black" style="fill:black;fill-opacity:1;"/>
</svg>
