<svg width="120" height="120" viewBox="0 0 120 120" fill="none" xmlns="http://www.w3.org/2000/svg">
<path d="M57.9223 69.6043C70.1066 69.6043 76.4799 56.6702 72.5435 47.2977C68.9819 38.4875 56.6102 33.4264 48.7373 39.4248C45.3632 42.0491 42.9263 46.5479 42.3639 51.4216C41.0518 62.1063 48.1749 69.6043 57.9223 69.6043ZM44.9882 51.7965C45.5506 47.6726 47.4251 43.9236 50.4243 41.6742C52.2988 40.362 54.3608 39.6122 56.7976 39.6122C57.9223 39.6122 59.047 39.7997 60.1717 40.1746C64.4831 41.2993 68.2321 44.6734 69.9192 48.4224C72.356 54.2334 69.9192 61.7314 64.4831 65.1055C59.047 68.4796 51.3616 66.98 47.4251 62.1063C45.5506 59.482 44.6133 55.733 44.9882 51.7965Z" fill="#1D79E9" style="fill:#1D79E9;fill:color(display-p3 0.1137 0.4730 0.9122);fill-opacity:1;"/>
<path d="M53.2359 56.1078C55.4853 56.4827 57.1723 54.9831 58.4845 54.6082C59.6092 54.4208 61.1088 54.9831 61.6712 56.1078C62.2335 57.2325 61.8586 58.7321 60.9213 59.4819C59.9841 60.2317 58.4845 60.2317 57.5472 59.4819C56.9849 58.9196 56.0476 59.107 55.4853 59.6694C54.9229 60.2318 55.1104 61.169 55.6727 61.7314C56.61 62.4812 57.9221 62.8561 59.0468 62.8561C59.7966 62.8561 60.359 62.6686 61.1088 62.4812L61.4837 63.231C61.8586 63.9808 62.6084 64.3557 63.3582 63.9808C64.108 63.6059 64.4829 62.8561 64.108 62.1063L63.5457 60.9815C63.5457 60.9815 63.5457 60.9816 63.5457 60.7941C64.8578 59.107 65.2327 56.8576 64.108 54.7957C62.9833 52.5463 60.359 51.2341 57.7347 51.7965C56.9849 51.9839 56.2351 52.3588 55.6727 52.5463C54.9229 52.9212 54.1731 53.2961 53.6108 53.1086C53.2359 53.1086 53.0484 52.7337 52.861 52.3588C52.4861 51.7965 52.4861 50.8592 52.861 50.2969C53.4233 49.1722 54.7355 48.4224 56.7974 47.6726C57.5472 47.4851 57.9221 46.5479 57.7347 45.7981C57.5472 45.0483 56.61 44.6734 55.8602 44.8608C55.2978 45.0483 54.548 45.4232 53.7982 45.6106L53.2359 44.8608C52.861 44.111 52.1112 43.7361 51.3614 44.111C50.6116 44.4859 50.2367 45.2357 50.6116 45.9855L51.3614 47.86C50.9865 48.2349 50.6116 48.7973 50.2367 49.3596C49.4869 50.6718 49.4869 52.5463 50.2367 53.8584C50.9865 55.1706 51.9237 55.9204 53.2359 56.1078Z" fill="#1D79E9" style="fill:#1D79E9;fill:color(display-p3 0.1137 0.4730 0.9122);fill-opacity:1;"/>
<path d="M66.7325 30.9895C74.9803 25.5534 85.2901 23.4915 95.0375 25.1785C95.225 27.053 95.9748 28.3652 97.4744 28.7401C98.5991 29.115 99.7238 29.115 100.848 28.7401C102.161 34.7385 105.535 45.6106 106.659 48.7973C103.848 48.9847 101.973 50.6718 101.598 52.9212C91.6634 51.609 84.5403 53.2961 77.2297 57.6074C76.4799 57.9823 76.2925 58.9196 76.6674 59.482C77.0423 60.2318 77.9795 60.4192 78.5419 60.0443C85.665 55.9204 92.4132 54.2333 102.723 55.9204C103.66 56.1078 104.41 55.358 104.41 54.4208C104.035 51.7965 106.472 51.4216 108.909 51.7965C110.408 51.9839 111.158 50.1094 110.034 49.3596C109.471 48.4224 108.534 44.8608 108.347 44.111C107.972 43.1738 107.784 42.2365 107.409 41.1118C106.285 37.3628 104.785 33.2389 103.285 25.9283C103.098 24.8036 101.411 24.4287 100.848 25.366C100.474 25.9283 99.5363 26.3032 98.7865 26.1158C98.2242 25.9283 98.2242 24.8036 98.2242 24.0538C98.2242 23.304 97.8493 22.7417 97.0995 22.5542C86.2273 20.4922 74.7929 22.5542 65.6078 28.5526C65.0454 28.9275 64.858 29.8648 65.2329 30.4271C65.2329 31.1769 65.9827 31.3644 66.7325 30.9895Z" fill="#1D79E9" style="fill:#1D79E9;fill:color(display-p3 0.1137 0.4730 0.9122);fill-opacity:1;"/>
<path d="M23.9937 83.663C24.3686 83.2881 25.1184 83.2881 25.6808 83.4756C26.0557 83.663 26.4306 84.4128 26.2431 84.7877C26.0557 85.725 26.618 86.4748 27.5553 86.4748C37.3027 86.8497 47.425 84.2254 56.0477 78.6019C56.6101 78.227 56.7975 77.2897 56.4226 76.7274C56.0477 76.165 55.1105 75.9776 54.5481 76.3525C47.0501 81.2262 38.0525 83.8505 28.8674 83.8505C28.3051 81.6011 26.2431 80.2889 23.9937 80.6638C22.3067 72.416 19.8698 64.3556 16.3082 56.6702C18.1827 56.2953 19.4949 54.7956 19.3074 52.9211C24.931 53.296 30.5545 52.1713 35.4282 49.547C36.178 49.1721 36.3654 48.4223 35.9905 47.6725C35.6156 46.9227 34.8658 46.7353 34.116 47.1102C28.8674 49.9219 22.3067 50.8592 16.3082 49.7345C15.5584 49.547 14.8086 50.1094 14.6212 50.8592C14.4337 51.609 14.9961 52.3588 15.7459 52.5462C15.9333 52.5462 16.1208 52.7337 16.3082 53.1086C16.6831 54.2333 14.9961 54.2333 14.8086 53.6709C14.4337 53.1086 13.6839 52.7337 12.9341 53.1086C12.1843 53.4835 11.9969 54.2333 12.3718 54.9831C16.6831 63.7933 19.8698 73.3533 21.5569 82.9132C21.9318 84.0379 23.2439 84.4128 23.9937 83.663Z" fill="#1D79E9" style="fill:#1D79E9;fill:color(display-p3 0.1137 0.4730 0.9122);fill-opacity:1;"/>
<path d="M99.3488 22.9292C99.5362 23.1166 99.9111 23.3041 100.286 23.3041C101.598 23.3041 102.161 21.8045 101.223 20.8672C100.661 20.3048 99.7237 20.3048 99.1614 20.8672C98.599 21.4295 98.599 22.1794 99.3488 22.9292Z" fill="#1D79E9" style="fill:#1D79E9;fill:color(display-p3 0.1137 0.4730 0.9122);fill-opacity:1;"/>
<path d="M111.721 56.4829C112.47 56.4829 113.22 55.9205 113.22 54.9833V54.6084C113.22 53.8586 112.658 53.1088 111.721 53.1088C109.846 53.4837 109.846 56.4829 111.721 56.4829Z" fill="#1D79E9" style="fill:#1D79E9;fill:color(display-p3 0.1137 0.4730 0.9122);fill-opacity:1;"/>
<path d="M22.6815 85.9124C21.7442 85.9124 21.1819 86.4747 21.1819 87.412C21.1819 88.3492 21.9317 88.9116 22.6815 88.9116C23.4313 88.9116 24.1811 88.3492 24.1811 87.412C24.1811 86.4747 23.4313 85.9124 22.6815 85.9124Z" fill="#1D79E9" style="fill:#1D79E9;fill:color(display-p3 0.1137 0.4730 0.9122);fill-opacity:1;"/>
<path d="M10.3099 48.4223C9.56011 48.4223 8.8103 48.9847 8.8103 49.9219V50.1094C8.8103 50.8592 9.37265 51.4215 10.3099 51.4215C11.2472 51.4215 11.8095 50.6717 11.8095 49.9219C11.8095 49.1721 11.0597 48.4223 10.3099 48.4223Z" fill="#1D79E9" style="fill:#1D79E9;fill:color(display-p3 0.1137 0.4730 0.9122);fill-opacity:1;"/>
<path d="M119.406 61.9189C118.281 49.5472 112.658 29.8649 107.222 19.93C107.222 19.3676 106.847 18.9927 106.472 18.8053C92.6006 11.6822 75.1677 12.6194 61.8587 20.6798C53.7983 25.5535 47.425 33.0515 39.5521 37.7378C28.8674 44.1111 16.1207 45.6107 2.62431 42.0491C1.87451 41.8617 1.1247 42.0491 0.749802 42.6115C0.562352 42.7989 0.562352 42.9864 0.374901 43.3613C8.37969e-08 43.5487 0 44.1111 0 44.486C0.187451 48.4225 2.62431 51.6091 3.93646 54.9832C9.74743 69.7918 12.3717 75.0404 15.1835 91.5361C15.5584 93.4106 15.9333 94.1604 18.1827 94.3478C27.1803 95.2851 36.3654 94.9102 45.363 92.8482C66.5449 87.9745 68.7943 76.9149 79.6665 68.8546C89.9763 61.1691 104.785 60.4193 116.219 66.0428C117.157 66.6052 118.469 66.9801 119.406 66.4177C120.531 65.293 119.781 63.4185 119.406 61.9189ZM40.8642 40.1746C49.112 35.3009 55.2979 27.9904 63.3583 23.1166C75.5426 15.6186 91.6633 14.6814 104.785 20.8672V21.0547C110.033 30.8021 115.47 49.7346 116.594 61.9189C105.535 56.2954 87.9143 56.8577 78.7292 63.606C71.981 68.2922 67.8571 75.2279 61.6712 80.2891C52.4862 87.7871 38.4274 91.1612 19.6823 90.4114C17.4329 75.9777 12.3717 61.1691 3.93646 45.4232C17.4329 48.4225 30.1795 46.548 40.8642 40.1746Z" fill="#1D79E9" style="fill:#1D79E9;fill:color(display-p3 0.1137 0.4730 0.9122);fill-opacity:1;"/>
<path d="M89.2266 78.4145V79.3517V79.5392C84.3529 81.7886 85.1027 88.1619 89.0391 89.849C90.9136 90.5988 93.3505 90.2239 94.2877 91.1611C94.8501 91.536 94.8501 92.6607 94.4752 93.2231C93.5379 94.9101 90.5387 95.0976 89.2266 93.598C88.6642 93.0356 87.9144 92.8482 87.1646 93.4105C86.6023 93.9729 86.4148 94.7227 86.9772 95.4725C87.9144 96.5972 89.2266 97.347 90.7262 97.5344V98.4717C90.7262 99.2215 91.2885 99.7838 92.2258 99.7838C92.9756 99.7838 93.5379 99.2215 93.5379 98.2842V97.1595C97.6619 95.8474 98.5991 91.1611 95.9748 88.9117C93.3505 86.6623 89.7889 88.7243 88.6642 85.5376C87.727 82.7259 90.7262 80.8513 93.163 81.7886C93.9128 82.1635 94.6626 81.7886 95.0375 81.0388C95.4124 80.289 95.0375 79.5392 94.2877 79.1643C93.5379 78.7894 92.7881 78.7894 91.8509 78.7894V78.227C91.8509 76.3525 89.2266 76.54 89.2266 78.4145Z" fill="#1D79E9" style="fill:#1D79E9;fill:color(display-p3 0.1137 0.4730 0.9122);fill-opacity:1;"/>
<path d="M84.5402 104.845C87.352 105.595 90.5386 105.97 93.3504 105.407C101.973 104.658 108.534 97.347 108.534 88.7242C108.534 79.5392 101.036 71.8537 91.8508 71.8537C89.4139 71.4788 85.6649 72.0411 83.0406 73.1659C76.4798 76.1651 71.4187 84.9752 74.043 93.9729C75.73 99.034 79.2916 103.345 84.5402 104.845ZM105.91 88.7242C105.91 96.4097 99.5363 102.783 91.8508 102.783C84.1653 102.783 77.792 96.4097 77.792 88.7242C77.792 81.0388 84.1653 74.6655 91.8508 74.6655C99.5363 74.6655 105.91 81.0388 105.91 88.7242Z" fill="#1D79E9" style="fill:#1D79E9;fill:color(display-p3 0.1137 0.4730 0.9122);fill-opacity:1;"/>
<path d="M19.6823 28.9276C19.12 28.5527 18.1827 28.7401 17.8078 29.3025C17.4329 29.8648 17.6204 30.8021 18.1827 31.177C20.0572 32.3017 22.1192 33.4264 24.1812 34.1762C24.931 34.3637 25.6808 33.9888 26.0557 33.2389C26.2431 32.4891 25.8682 31.7393 25.1184 31.3644C23.2439 30.8021 21.3694 30.0523 19.6823 28.9276Z" fill="#1D79E9" style="fill:#1D79E9;fill:color(display-p3 0.1137 0.4730 0.9122);fill-opacity:1;"/>
<path d="M29.4298 30.2397C30.1796 30.0522 30.5545 29.3024 30.367 28.5526L28.1176 20.3048C27.9302 19.555 27.1804 19.1801 26.4306 19.3675C25.6808 19.555 25.3059 20.3048 25.4933 21.0546L27.7427 29.115C27.9302 29.8648 28.68 30.4271 29.4298 30.2397Z" fill="#1D79E9" style="fill:#1D79E9;fill:color(display-p3 0.1137 0.4730 0.9122);fill-opacity:1;"/>
<path d="M36.9279 28.365L38.9898 23.1164C39.3647 22.3666 38.9898 21.6168 38.24 21.2419C37.4902 20.867 36.7404 21.2419 36.3655 21.9917L34.3036 27.2403C33.9287 27.9901 34.3036 28.7399 35.0534 29.1148C35.8032 29.4897 36.553 29.1148 36.9279 28.365Z" fill="#1D79E9" style="fill:#1D79E9;fill:color(display-p3 0.1137 0.4730 0.9122);fill-opacity:1;"/>
</svg>
