<svg width="144" height="25" viewBox="0 0 144 25" fill="none" xmlns="http://www.w3.org/2000/svg">
<path d="M45.9751 7.84516L45.9001 9.49516C45.9001 10.0452 45.8876 10.6327 45.8626 11.2577V16.2452C45.8626 17.0952 45.8751 17.9202 45.9001 18.7202C45.9501 19.4952 46.0126 20.1452 46.0876 20.6702L48.5251 21.2327V22.7327L42.6376 24.2702L41.7751 23.7452L41.8126 21.2327L41.7001 21.1952C40.9751 22.2952 40.2001 23.0702 39.3751 23.5202C38.5751 23.9452 37.7376 24.1577 36.8626 24.1577C35.1126 24.1577 33.6751 23.6077 32.5501 22.5077C31.4251 21.4077 30.8626 19.7577 30.8626 17.5577V14.3702C30.8626 13.8702 30.8376 13.3327 30.7876 12.7577C30.7626 12.1577 30.7251 11.5452 30.6751 10.9202L28.1251 10.3952V8.85766L34.3876 7.24516L35.2876 7.88266C35.2376 8.63266 35.1876 9.50766 35.1376 10.5077C35.1126 11.5077 35.1001 12.5327 35.1001 13.5827L35.0626 17.0702C35.0626 18.4452 35.3751 19.4452 36.0001 20.0702C36.6251 20.6702 37.4501 20.9702 38.4751 20.9702C39.0251 20.9702 39.5876 20.8202 40.1626 20.5202C40.7626 20.2202 41.2751 19.7202 41.7001 19.0202V15.0077C41.7001 14.4827 41.6876 13.9827 41.6626 13.5077C41.6626 13.0327 41.6376 12.5827 41.5876 12.1577C41.5626 11.7077 41.5251 11.2952 41.4751 10.9202L38.7376 10.3952V8.85766L45.1126 7.24516L45.9751 7.84516Z" fill="#1D79E9" style="fill:#1D79E9;fill:color(display-p3 0.1137 0.4730 0.9122);fill-opacity:1;"/>
<path d="M6.84381 7.50766H12.2251V9.72016H6.81756L6.75006 17.7827C6.75006 18.9077 7.01256 19.7327 7.53756 20.2577C8.06256 20.7577 8.80006 21.0077 9.75006 21.0077C10.2501 21.0077 10.7251 20.9077 11.1751 20.7077C11.6501 20.5077 12.0626 20.2452 12.4126 19.9202L13.2751 20.9327C12.8751 21.9327 12.2001 22.7202 11.2501 23.2952C10.3251 23.8702 9.31256 24.1577 8.21256 24.1577C6.53756 24.1577 5.16256 23.6702 4.08756 22.6952C3.03756 21.7202 2.51256 20.2452 2.51256 18.2702L2.62506 9.72016H6.10352e-05V8.63266L5.81256 3.83266H6.90006L6.84381 7.50766Z" fill="#1D79E9" style="fill:#1D79E9;fill:color(display-p3 0.1137 0.4730 0.9122);fill-opacity:1;"/>
<path d="M74.6113 7.23141C75.8605 7.23142 76.8946 7.40576 77.7138 7.75391C78.5535 8.08159 79.2198 8.50066 79.7113 9.01266C80.2028 9.50416 80.5706 10.0069 80.8163 10.5189C81.0619 11.0102 81.2161 11.4296 81.2776 11.7777C81.3567 12.0943 81.3974 12.2582 81.4001 12.2689H77.2226C77.2189 12.261 77.1567 12.1282 77.0376 11.8702C76.9147 11.5835 76.6591 11.3064 76.2701 11.0402C75.9015 10.7536 75.328 10.6102 74.5501 10.6102C73.7513 10.6102 73.1985 10.775 72.8913 11.1027C72.5842 11.4098 72.4301 11.737 72.4301 12.0852C72.4301 12.4947 72.6044 12.8016 72.9526 13.0064C73.3211 13.2111 73.7919 13.3748 74.3651 13.4977L76.4851 13.9289C78.0415 14.2361 79.3216 14.7782 80.3251 15.5564C81.3285 16.3141 81.83 17.42 81.8301 18.8739C81.8301 19.8568 81.5744 20.7478 81.0626 21.5464C80.5506 22.3451 79.803 22.9804 78.8201 23.4514C77.8371 23.9019 76.6286 24.1276 75.1951 24.1277C73.8434 24.1277 72.727 23.9425 71.8463 23.5739C70.9658 23.2053 70.2587 22.7551 69.7263 22.2227C69.2145 21.6699 68.825 21.1275 68.5588 20.5952C68.3131 20.0424 68.1495 19.5812 68.0676 19.2127C68.0061 18.844 67.9751 18.6589 67.9751 18.6589H72.3076C72.3076 18.6589 72.3374 18.7617 72.3988 18.9664C72.4602 19.1712 72.5941 19.4065 72.7988 19.6727C73.0241 19.9389 73.3417 20.1741 73.7513 20.3789C74.1609 20.5837 74.7137 20.6864 75.4101 20.6864C76.2701 20.6864 76.8541 20.512 77.1613 20.1639C77.4886 19.816 77.6525 19.4681 77.6526 19.1202C77.6526 18.3829 77.0484 17.8909 75.8401 17.6452L73.6276 17.2152C72.6857 17.0308 71.7946 16.7645 70.9551 16.4164C70.1361 16.0478 69.4707 15.5461 68.9588 14.9114C68.4673 14.2561 68.2214 13.4165 68.2213 12.3927C68.2213 11.4096 68.4781 10.5284 68.9901 9.75016C69.5019 8.97229 70.2284 8.3581 71.1701 7.90766C72.1326 7.4571 73.2801 7.23141 74.6113 7.23141Z" fill="#1D79E9" style="fill:#1D79E9;fill:color(display-p3 0.1137 0.4730 0.9122);fill-opacity:1;"/>
<path d="M91.7588 7.23141C93.2129 7.23141 94.4117 7.44633 95.3538 7.87641C96.2957 8.28596 97.0434 8.80791 97.5963 9.44266C98.1697 10.0571 98.5888 10.6828 98.8551 11.3177C99.1212 11.9319 99.2861 12.4539 99.3476 12.8839C99.427 13.2814 99.4677 13.486 99.4701 13.4977H95.1076C95.1045 13.4885 95.0637 13.366 94.9851 13.1302C94.9236 12.864 94.7802 12.5665 94.5551 12.2389C94.3503 11.8908 94.0326 11.5934 93.6026 11.3477C93.1726 11.0815 92.5991 10.949 91.8826 10.9489C91.002 10.9489 90.264 11.1734 89.6701 11.6239C89.0966 12.054 88.6668 12.6284 88.3801 13.3452C88.0935 14.0617 87.9501 14.8396 87.9501 15.6789C87.9501 16.5185 88.0934 17.2971 88.3801 18.0139C88.6668 18.7307 89.0967 19.3146 89.6701 19.7652C90.264 20.1952 91.0019 20.4102 91.8826 20.4102C92.5991 20.4101 93.1726 20.2871 93.6026 20.0414C94.0325 19.7752 94.3503 19.4778 94.5551 19.1502C94.7801 18.8023 94.9236 18.5057 94.9851 18.2602C95.067 17.9939 95.1076 17.8602 95.1076 17.8602H99.4701C99.4701 17.8602 99.4294 18.0754 99.3476 18.5052C99.2861 18.9148 99.1213 19.4378 98.8551 20.0727C98.5888 20.6869 98.1696 21.3117 97.5963 21.9464C97.0434 22.5607 96.2957 23.0826 95.3538 23.5127C94.4117 23.9223 93.2129 24.1277 91.7588 24.1277C90.3255 24.1276 89.0761 23.8924 88.0113 23.4214C86.9464 22.9299 86.0664 22.2838 85.3701 21.4852C84.6739 20.6866 84.1507 19.786 83.8026 18.7827C83.4544 17.7587 83.2801 16.7234 83.2801 15.6789C83.2801 14.6347 83.4545 13.6109 83.8026 12.6077C84.1507 11.6041 84.6737 10.7026 85.3701 9.90391C86.0663 9.08491 86.9466 8.43987 88.0113 7.96891C89.0762 7.47743 90.3254 7.23145 91.7588 7.23141Z" fill="#1D79E9" style="fill:#1D79E9;fill:color(display-p3 0.1137 0.4730 0.9122);fill-opacity:1;"/>
<path fill-rule="evenodd" clip-rule="evenodd" d="M108.35 7.23141C109.394 7.23148 110.254 7.40582 110.93 7.75391C111.606 8.08156 112.118 8.43983 112.466 8.82891C112.835 9.21781 113.059 9.48431 113.141 9.62766H113.388V7.53891H118.058V23.8202H113.388V21.7314H113.141C113.059 21.8748 112.835 22.1414 112.466 22.5302C112.118 22.9193 111.606 23.2882 110.93 23.6364C110.254 23.964 109.394 24.1276 108.35 24.1277C107.142 24.1277 106.086 23.8924 105.185 23.4214C104.304 22.9299 103.568 22.2839 102.974 21.4852C102.38 20.666 101.929 19.7549 101.621 18.7514C101.335 17.7479 101.191 16.7234 101.191 15.6789C101.191 14.6347 101.335 13.6109 101.621 12.6077C101.929 11.6041 102.38 10.7026 102.974 9.90391C103.568 9.08491 104.305 8.43989 105.185 7.96891C106.086 7.47739 107.142 7.23141 108.35 7.23141ZM109.701 11.0102C108.862 11.0102 108.155 11.2454 107.581 11.7164C107.028 12.167 106.608 12.7509 106.321 13.4677C106.055 14.1842 105.923 14.9214 105.923 15.6789C105.923 16.4367 106.055 17.1746 106.321 17.8914C106.608 18.6081 107.028 19.2016 107.581 19.6727C108.155 20.1232 108.862 20.3489 109.701 20.3489C110.541 20.3489 111.237 20.1232 111.79 19.6727C112.363 19.2016 112.784 18.6081 113.05 17.8914C113.337 17.1746 113.48 16.4367 113.48 15.6789C113.48 14.9214 113.337 14.1842 113.05 13.4677C112.784 12.7509 112.363 12.167 111.79 11.7164C111.237 11.2454 110.541 11.0102 109.701 11.0102Z" fill="#1D79E9" style="fill:#1D79E9;fill:color(display-p3 0.1137 0.4730 0.9122);fill-opacity:1;"/>
<path fill-rule="evenodd" clip-rule="evenodd" d="M135.885 7.23141C137.38 7.23141 138.702 7.55855 139.849 8.21391C141.016 8.86925 141.927 9.84249 142.583 11.1327C143.238 12.4024 143.565 13.9487 143.565 15.7714V16.9077H132.414C132.475 17.8905 132.813 18.7409 133.428 19.4577C134.062 20.1744 134.933 20.5326 136.039 20.5327C136.674 20.5327 137.186 20.4407 137.575 20.2564C137.984 20.0517 138.302 19.827 138.528 19.5814C138.753 19.3152 138.907 19.0787 138.989 18.8739C139.067 18.6777 139.108 18.5756 139.111 18.5677H143.413C143.41 18.5781 143.358 18.7722 143.259 19.1502C143.177 19.5188 142.992 19.9798 142.705 20.5327C142.418 21.0855 141.999 21.6386 141.446 22.1914C140.914 22.7443 140.207 23.2053 139.326 23.5739C138.446 23.9425 137.35 24.1277 136.039 24.1277C134.606 24.1276 133.367 23.8922 132.323 23.4214C131.278 22.9299 130.417 22.2839 129.741 21.4852C129.066 20.666 128.553 19.7548 128.205 18.7514C127.877 17.748 127.714 16.7137 127.714 15.6489C127.714 14.6249 127.868 13.6207 128.175 12.6377C128.503 11.6343 128.995 10.723 129.65 9.90391C130.326 9.08499 131.175 8.43986 132.199 7.96891C133.243 7.47745 134.472 7.23147 135.885 7.23141ZM135.794 10.7339C134.893 10.7339 134.125 11.0303 133.49 11.6239C132.855 12.1973 132.496 13.0167 132.414 14.0814H139.08C139.019 12.9553 138.681 12.1155 138.066 11.5627C137.452 11.01 136.695 10.734 135.794 10.7339Z" fill="#1D79E9" style="fill:#1D79E9;fill:color(display-p3 0.1137 0.4730 0.9122);fill-opacity:1;"/>
<path fill-rule="evenodd" clip-rule="evenodd" d="M58.6876 7.17016C60.8626 7.19516 62.5126 7.88266 63.6376 9.23266C64.7876 10.5827 65.3626 12.3452 65.3626 14.5202V15.3452H54.8026C54.8854 16.9512 55.3542 18.2513 56.2126 19.2452C57.1876 20.3452 58.4751 20.8952 60.0751 20.8952C60.9251 20.8952 61.6876 20.7452 62.3626 20.4452C63.0626 20.1202 63.7501 19.5702 64.4251 18.7952L65.5126 19.7702C64.8126 21.2202 63.8501 22.3077 62.6251 23.0327C61.4251 23.7577 60.0876 24.1202 58.6126 24.1202C57.0626 24.1202 55.6626 23.7702 54.4126 23.0702C53.1876 22.3702 52.2251 21.4077 51.5251 20.1827C50.8251 18.9327 50.4751 17.5077 50.4751 15.9077C50.4751 14.1577 50.8626 12.6327 51.6376 11.3327C52.4126 10.0077 53.4251 8.98266 54.6751 8.25766C55.9251 7.50766 57.2626 7.14516 58.6876 7.17016ZM58.3876 9.08266C57.7376 9.08266 57.1376 9.27016 56.5876 9.64516C56.0376 10.0202 55.6001 10.5827 55.2751 11.3327C55.0174 11.9273 54.8634 12.6398 54.8101 13.4702H61.5751V13.1327C61.5751 11.8827 61.2876 10.8952 60.7126 10.1702C60.1626 9.44516 59.3876 9.08266 58.3876 9.08266Z" fill="#1D79E9" style="fill:#1D79E9;fill:color(display-p3 0.1137 0.4730 0.9122);fill-opacity:1;"/>
<path d="M20.5126 7.84516L20.3626 10.8452L20.4751 10.8827C21.2001 9.48266 21.9376 8.53266 22.6876 8.03266C23.4376 7.53266 24.1876 7.28266 24.9376 7.28266C25.5876 7.28266 26.1376 7.45766 26.5876 7.80766C27.0626 8.15766 27.3001 8.69516 27.3001 9.42016C27.3001 10.1452 27.0501 10.7077 26.5501 11.1077C26.0501 11.5077 25.4501 11.7077 24.7501 11.7077C24.2001 11.7077 23.7001 11.6077 23.2501 11.4077C22.9553 11.2766 22.6526 11.083 22.3363 10.8339C22.0734 11.0739 21.8143 11.3513 21.5626 11.6702C21.1876 12.1202 20.8501 12.6577 20.5501 13.2827L20.5876 16.3952C20.6126 17.2202 20.6376 17.9952 20.6626 18.7202C20.6876 19.4202 20.7126 20.0327 20.7376 20.5577C20.7626 21.0577 20.7876 21.4077 20.8126 21.6077L24.0751 22.1327L23.9626 23.8202H13.9501L13.8376 22.2077L16.1626 21.6077C16.1876 21.5077 16.2126 21.2952 16.2376 20.9702C16.2626 20.6452 16.2876 20.2202 16.3126 19.6952C16.3376 19.1452 16.3501 18.5077 16.3501 17.7827L16.3876 14.9327C16.3876 14.1577 16.3626 13.4452 16.3126 12.7952C16.2626 12.1202 16.1751 11.4952 16.0501 10.9202L13.6501 10.3952V8.85766L19.6876 7.24516L20.5126 7.84516Z" fill="#1D79E9" style="fill:#1D79E9;fill:color(display-p3 0.1137 0.4730 0.9122);fill-opacity:1;"/>
<path d="M125.465 23.8202H120.795V0.472656H125.465V23.8202Z" fill="#1D79E9" style="fill:#1D79E9;fill:color(display-p3 0.1137 0.4730 0.9122);fill-opacity:1;"/>
</svg>
