<svg width="113" height="25" viewBox="0 0 113 25" fill="none" xmlns="http://www.w3.org/2000/svg">
<path d="M35.918 6.51953L35.8594 7.80859C35.8594 8.23828 35.8496 8.69727 35.8301 9.18555V13.082C35.8301 13.7461 35.8398 14.3906 35.8594 15.0156C35.8984 15.6211 35.9473 16.1289 36.0059 16.5391L37.9102 16.9785V18.1504L33.3105 19.3516L32.6367 18.9414L32.666 16.9785L32.5781 16.9492C32.0117 17.8086 31.4062 18.4141 30.7617 18.7656C30.1367 19.0977 29.4824 19.2637 28.7988 19.2637C27.4316 19.2637 26.3086 18.834 25.4297 17.9746C24.5508 17.1152 24.1113 15.8262 24.1113 14.1074V11.6172C24.1113 11.2266 24.0918 10.8066 24.0527 10.3574C24.0332 9.88867 24.0039 9.41016 23.9648 8.92188L21.9727 8.51172V7.31055L26.8652 6.05078L27.5684 6.54883C27.5293 7.13477 27.4902 7.81836 27.4512 8.59961C27.4316 9.38086 27.4219 10.1816 27.4219 11.002L27.3926 13.7266C27.3926 14.8008 27.6367 15.582 28.125 16.0703C28.6133 16.5391 29.2578 16.7734 30.0586 16.7734C30.4883 16.7734 30.9277 16.6562 31.377 16.4219C31.8457 16.1875 32.2461 15.7969 32.5781 15.25V12.1152C32.5781 11.7051 32.5684 11.3145 32.5488 10.9434C32.5488 10.5723 32.5293 10.2207 32.4902 9.88867C32.4707 9.53711 32.4414 9.21484 32.4023 8.92188L30.2637 8.51172V7.31055L35.2441 6.05078L35.918 6.51953Z" fill="white" style="fill:white;fill-opacity:1;"/>
<path d="M5.34668 6.25586H9.55078V7.98438H5.32617L5.27344 14.2832C5.27344 15.1621 5.47852 15.8066 5.88867 16.2168C6.29883 16.6074 6.875 16.8027 7.61719 16.8027C8.00781 16.8027 8.37891 16.7246 8.73047 16.5684C9.10156 16.4121 9.42383 16.207 9.69727 15.9531L10.3711 16.7441C10.0586 17.5254 9.53125 18.1406 8.78906 18.5898C8.06641 19.0391 7.27539 19.2637 6.41602 19.2637C5.10742 19.2637 4.0332 18.8828 3.19336 18.1211C2.37305 17.3594 1.96289 16.207 1.96289 14.6641L2.05078 7.98438H0V7.13477L4.54102 3.38477H5.39062L5.34668 6.25586Z" fill="white" style="fill:white;fill-opacity:1;"/>
<path d="M58.29 6.04004C59.266 6.04005 60.0739 6.17625 60.7139 6.44824C61.3699 6.70424 61.8904 7.03164 62.2744 7.43164C62.6584 7.81562 62.9457 8.20842 63.1377 8.6084C63.3296 8.99222 63.45 9.31988 63.498 9.5918C63.5599 9.83916 63.5917 9.96724 63.5938 9.97559H60.3301C60.3272 9.9694 60.2786 9.86568 60.1855 9.66406C60.0895 9.4401 59.8899 9.2236 59.5859 9.01562C59.298 8.79175 58.8499 8.67972 58.2422 8.67969C57.6182 8.67969 57.1863 8.80845 56.9463 9.06445C56.7063 9.30444 56.5859 9.56005 56.5859 9.83203C56.5859 10.152 56.7221 10.3918 56.9941 10.5518C57.2821 10.7117 57.6498 10.8396 58.0977 10.9355L59.7539 11.2725C60.9699 11.5125 61.9699 11.936 62.7539 12.5439C63.5378 13.1359 63.9296 13.9999 63.9297 15.1357C63.9297 15.9036 63.7299 16.5997 63.3301 17.2236C62.9301 17.8476 62.346 18.3439 61.5781 18.7119C60.8102 19.0639 59.866 19.2402 58.7461 19.2402C57.6901 19.2402 56.8179 19.0956 56.1299 18.8076C55.442 18.5196 54.8896 18.1679 54.4736 17.752C54.0738 17.3201 53.7695 16.8963 53.5615 16.4805C53.3696 16.0486 53.2418 15.6883 53.1777 15.4004C53.1297 15.1124 53.1055 14.9678 53.1055 14.9678H56.4902C56.4902 14.9678 56.5135 15.0481 56.5615 15.208C56.6095 15.368 56.7141 15.5518 56.874 15.7598C57.05 15.9678 57.2982 16.1515 57.6182 16.3115C57.9382 16.4715 58.3701 16.5518 58.9141 16.5518C59.586 16.5517 60.0422 16.4155 60.2822 16.1436C60.538 15.8717 60.666 15.6 60.666 15.3281C60.666 14.7521 60.194 14.3678 59.25 14.1758L57.5215 13.8398C56.7857 13.6958 56.0895 13.4878 55.4336 13.2158C54.7938 12.9278 54.2739 12.5359 53.874 12.04C53.4901 11.5281 53.2979 10.8721 53.2979 10.0723C53.2979 9.30427 53.4984 8.61581 53.8984 8.00781C54.2983 7.40011 54.8659 6.92027 55.6016 6.56836C56.3536 6.21636 57.25 6.04004 58.29 6.04004Z" fill="white" style="fill:white;fill-opacity:1;"/>
<path d="M71.6865 6.04004C72.8225 6.04004 73.7591 6.20795 74.4951 6.54395C75.231 6.86391 75.8151 7.27168 76.2471 7.76758C76.6951 8.24758 77.0225 8.73642 77.2305 9.23242C77.4384 9.71233 77.5672 10.1201 77.6152 10.4561C77.6773 10.7666 77.7091 10.9264 77.7109 10.9355H74.3027C74.3003 10.9284 74.2684 10.8327 74.207 10.6484C74.159 10.4405 74.047 10.2081 73.8711 9.95215C73.7111 9.68016 73.4629 9.44786 73.127 9.25586C72.791 9.04791 72.343 8.94438 71.7832 8.94434C71.0952 8.94434 70.5187 9.11971 70.0547 9.47168C69.6067 9.80768 69.2709 10.2564 69.0469 10.8164C68.823 11.3762 68.711 11.9839 68.7109 12.6396C68.7109 13.2956 68.8229 13.9039 69.0469 14.4639C69.2709 15.0238 69.6067 15.48 70.0547 15.832C70.5187 16.168 71.0952 16.3359 71.7832 16.3359C72.343 16.3359 72.791 16.2398 73.127 16.0479C73.4629 15.8399 73.7111 15.6075 73.8711 15.3516C74.0469 15.0798 74.159 14.8481 74.207 14.6562C74.271 14.4483 74.3027 14.3438 74.3027 14.3438H77.7109C77.7109 14.3438 77.6792 14.5119 77.6152 14.8477C77.5672 15.1677 77.4385 15.5763 77.2305 16.0723C77.0225 16.5521 76.6949 17.0403 76.2471 17.5361C75.8151 18.0161 75.231 18.4238 74.4951 18.7598C73.7591 19.0798 72.8225 19.2402 71.6865 19.2402C70.5667 19.2402 69.5907 19.0564 68.7588 18.6885C67.9268 18.3045 67.2393 17.7997 66.6953 17.1758C66.1514 16.5519 65.7427 15.8483 65.4707 15.0645C65.1987 14.2645 65.0625 13.4556 65.0625 12.6396C65.0625 11.8239 65.1988 11.024 65.4707 10.2402C65.7427 9.45623 66.1513 8.75193 66.6953 8.12793C67.2393 7.48809 67.927 6.98415 68.7588 6.61621C69.5907 6.23225 70.5667 6.04007 71.6865 6.04004Z" fill="white" style="fill:white;fill-opacity:1;"/>
<path fill-rule="evenodd" clip-rule="evenodd" d="M84.6484 6.04004C85.4642 6.04009 86.1362 6.1763 86.6641 6.44824C87.192 6.70422 87.5923 6.98412 87.8643 7.28809C88.1521 7.59192 88.3276 7.80012 88.3916 7.91211H88.584V6.28027H92.2324V19H88.584V17.3682H88.3916C88.3275 17.4802 88.152 17.6885 87.8643 17.9922C87.5923 18.2962 87.1921 18.5844 86.6641 18.8564C86.1362 19.1124 85.4642 19.2402 84.6484 19.2402C83.7045 19.2402 82.8798 19.0565 82.1758 18.6885C81.4878 18.3045 80.9122 17.7998 80.4482 17.1758C79.9842 16.5358 79.6316 15.824 79.3916 15.04C79.1676 14.2561 79.0557 13.4556 79.0557 12.6396C79.0557 11.8239 79.1677 11.024 79.3916 10.2402C79.6316 9.45623 79.9842 8.75193 80.4482 8.12793C80.9122 7.48809 81.4879 6.98417 82.1758 6.61621C82.8798 6.23221 83.7044 6.04004 84.6484 6.04004ZM85.7041 8.99219C85.0481 8.99219 84.4959 9.17595 84.0479 9.54395C83.6159 9.89594 83.2875 10.3521 83.0635 10.9121C82.8556 11.4719 82.752 12.0479 82.752 12.6396C82.752 13.2316 82.8555 13.8082 83.0635 14.3682C83.2874 14.9281 83.6159 15.3918 84.0479 15.7598C84.4959 16.1118 85.0481 16.2881 85.7041 16.2881C86.36 16.2881 86.904 16.1117 87.3359 15.7598C87.7839 15.3918 88.1123 14.9281 88.3203 14.3682C88.5443 13.8082 88.6562 13.2316 88.6562 12.6396C88.6562 12.0478 88.5442 11.4719 88.3203 10.9121C88.1123 10.3521 87.7839 9.89595 87.3359 9.54395C86.904 9.17599 86.36 8.99221 85.7041 8.99219Z" fill="white" style="fill:white;fill-opacity:1;"/>
<path fill-rule="evenodd" clip-rule="evenodd" d="M106.16 6.04004C107.328 6.04004 108.361 6.29562 109.257 6.80762C110.169 7.3196 110.881 8.07995 111.393 9.08789C111.905 10.0799 112.16 11.288 112.16 12.7119V13.5996H103.448C103.496 14.3675 103.76 15.0319 104.24 15.5918C104.736 16.1517 105.416 16.4316 106.28 16.4316C106.776 16.4316 107.176 16.3598 107.48 16.2158C107.8 16.0559 108.049 15.8804 108.225 15.6885C108.401 15.4805 108.521 15.2957 108.585 15.1357C108.646 14.9824 108.678 14.9027 108.681 14.8965H112.041C112.039 14.9046 111.999 15.0563 111.921 15.3516C111.857 15.6395 111.712 15.9997 111.488 16.4316C111.264 16.8635 110.937 17.2957 110.505 17.7275C110.089 18.1595 109.537 18.5196 108.849 18.8076C108.161 19.0956 107.304 19.2402 106.28 19.2402C105.161 19.2402 104.193 19.0563 103.377 18.6885C102.561 18.3045 101.888 17.7998 101.36 17.1758C100.832 16.5358 100.432 15.8239 100.16 15.04C99.9042 14.2561 99.7764 13.4481 99.7764 12.6162C99.7764 11.8162 99.8967 11.0317 100.137 10.2637C100.393 9.4798 100.777 8.76784 101.289 8.12793C101.817 7.48815 102.481 6.98414 103.28 6.61621C104.096 6.23226 105.056 6.04009 106.16 6.04004ZM106.089 8.77637C105.385 8.77637 104.785 9.00794 104.289 9.47168C103.793 9.91961 103.512 10.5598 103.448 11.3916H108.656C108.608 10.5118 108.344 9.85576 107.864 9.42383C107.384 8.99204 106.793 8.77643 106.089 8.77637Z" fill="white" style="fill:white;fill-opacity:1;"/>
<path fill-rule="evenodd" clip-rule="evenodd" d="M45.8496 5.99219C47.5488 6.01172 48.8379 6.54883 49.7168 7.60352C50.6152 8.6582 51.0645 10.0352 51.0645 11.7344V12.3789H42.8145C42.8792 13.6337 43.2454 14.6493 43.916 15.4258C44.6777 16.2852 45.6836 16.7148 46.9336 16.7148C47.5977 16.7148 48.1934 16.5977 48.7207 16.3633C49.2676 16.1094 49.8047 15.6797 50.332 15.0742L51.1816 15.8359C50.6348 16.9688 49.8828 17.8184 48.9258 18.3848C47.9883 18.9512 46.9434 19.2344 45.791 19.2344C44.5801 19.2344 43.4863 18.9609 42.5098 18.4141C41.5527 17.8672 40.8008 17.1152 40.2539 16.1582C39.707 15.1816 39.4336 14.0684 39.4336 12.8184C39.4336 11.4512 39.7363 10.2598 40.3418 9.24414C40.9473 8.20898 41.7383 7.4082 42.7148 6.8418C43.6914 6.25586 44.7363 5.97266 45.8496 5.99219ZM45.6152 7.48633C45.1074 7.48633 44.6387 7.63281 44.209 7.92578C43.7793 8.21875 43.4375 8.6582 43.1836 9.24414C42.9823 9.70868 42.862 10.2654 42.8203 10.9141H48.1055V10.6504C48.1055 9.67383 47.8809 8.90234 47.4316 8.33594C47.002 7.76953 46.3965 7.48633 45.6152 7.48633Z" fill="white" style="fill:white;fill-opacity:1;"/>
<path d="M16.0254 6.51953L15.9082 8.86328L15.9961 8.89258C16.5625 7.79883 17.1387 7.05664 17.7246 6.66602C18.3105 6.27539 18.8965 6.08008 19.4824 6.08008C19.9902 6.08008 20.4199 6.2168 20.7715 6.49023C21.1426 6.76367 21.3281 7.18359 21.3281 7.75C21.3281 8.31641 21.1328 8.75586 20.7422 9.06836C20.3516 9.38086 19.8828 9.53711 19.3359 9.53711C18.9062 9.53711 18.5156 9.45898 18.1641 9.30273C17.9337 9.20037 17.6973 9.04906 17.4502 8.85449C17.2448 9.04198 17.0423 9.25874 16.8457 9.50781C16.5527 9.85938 16.2891 10.2793 16.0547 10.7676L16.084 13.1992C16.1035 13.8438 16.123 14.4492 16.1426 15.0156C16.1621 15.5625 16.1816 16.041 16.2012 16.4512C16.2207 16.8418 16.2402 17.1152 16.2598 17.2715L18.8086 17.6816L18.7207 19H10.8984L10.8105 17.7402L12.627 17.2715C12.6465 17.1934 12.666 17.0273 12.6855 16.7734C12.7051 16.5195 12.7246 16.1875 12.7441 15.7773C12.7637 15.3477 12.7734 14.8496 12.7734 14.2832L12.8027 12.0566C12.8027 11.4512 12.7832 10.8945 12.7441 10.3867C12.7051 9.85938 12.6367 9.37109 12.5391 8.92188L10.6641 8.51172V7.31055L15.3809 6.05078L16.0254 6.51953Z" fill="white" style="fill:white;fill-opacity:1;"/>
<path d="M98.0195 19H94.3711V0.759766H98.0195V19Z" fill="white" style="fill:white;fill-opacity:1;"/>
</svg>
