<svg width="120" height="120" viewBox="0 0 120 120" fill="none" xmlns="http://www.w3.org/2000/svg">
<path d="M59.6062 32.4851C59.7888 31.7704 60.5142 31.3212 61.24 31.5144C61.9149 31.6852 62.3397 32.3386 62.24 33.0125L62.2136 33.1472L59.8376 42.5105L69.1189 41.1335H69.1208C69.8512 41.0308 70.5366 41.5315 70.6462 42.2664C70.7555 43.0016 70.2483 43.6845 69.5144 43.7947L60.7703 45.0925C62.6362 47.0322 64.4964 48.8691 66.2654 50.5007V50.5017C66.8111 51.0058 66.8455 51.8561 66.3425 52.4021H66.3416C66.0765 52.689 65.716 52.8346 65.3542 52.8347C65.0692 52.8347 64.7828 52.7451 64.5427 52.5632L64.4421 52.4792C62.6034 50.783 60.6698 48.8714 58.7341 46.8552L56.696 54.8953C56.5411 55.5047 55.9935 55.9088 55.3933 55.9089C55.2831 55.9089 55.172 55.8946 55.0623 55.8669H55.0613C54.3416 55.6847 53.9066 54.9524 54.0886 54.2332L56.2361 45.7644L48.2312 46.9539H48.2273C48.1639 46.9621 48.0984 46.9675 48.032 46.9675C47.4173 46.9675 46.8743 46.5465 46.7273 45.9441L46.7039 45.821C46.5944 45.0858 47.1009 44.4031 47.8347 44.2927H47.8357L55.3181 43.1814C53.5277 41.1991 51.7821 39.1774 50.1667 37.1951L49.449 36.3054C48.9854 35.7247 49.0786 34.8789 49.6589 34.4148H49.6599C50.2409 33.9528 51.0863 34.0486 51.5486 34.6248L52.2576 35.5027C53.8514 37.4585 55.5741 39.4539 57.3416 41.4099L59.6062 32.4861V32.4851Z" fill="black" stroke="black" style="fill:black;fill-opacity:1;stroke:black;stroke-opacity:1;" stroke-width="0.428797"/>
<path d="M55.8115 7.36304C57.4262 5.88096 59.852 5.82152 61.5342 7.18726L61.6953 7.32397V7.32495C68.7354 13.6497 72.0873 16.6054 73.7061 18.0476C74.5119 18.7655 74.896 19.1142 75.0898 19.3171C75.1881 19.4201 75.2479 19.4971 75.29 19.574C75.2953 19.5835 75.298 19.5945 75.3027 19.6042C79.4117 18.9833 82.0656 18.5482 85.3682 18.1414H85.3691C87.9297 17.8279 90.1428 19.8631 90.0732 22.4333C89.9885 25.6086 89.9928 29.09 90.0215 32.6023C97.1127 38.997 100.626 42.0441 102.38 43.5964C103.254 44.3703 103.703 44.7832 103.936 45.0554C104.055 45.195 104.129 45.3107 104.173 45.4304C104.216 45.5475 104.224 45.657 104.233 45.7527C106.046 64.1141 106.252 81.721 104.844 98.0828C104.853 98.9462 104.581 99.8386 104.093 100.604C104.722 100.588 105.471 100.55 106.113 100.627C106.853 100.715 107.577 100.974 107.809 101.721C107.923 102.089 107.882 102.426 107.727 102.717C107.575 103.001 107.321 103.228 107.029 103.403C106.448 103.752 105.663 103.928 105.013 103.928C77.1167 103.952 49.2203 103.975 21.3242 103.999C19.0744 104.001 16.5492 103.948 14.6836 102.428C13.4511 101.425 12.8666 99.857 12.5664 98.1804C12.2662 96.5036 12.2433 94.6695 12.1689 93.1101C11.5881 80.9271 11.9452 58.1322 12.3047 53.1541C12.3218 52.9171 12.4111 51.8169 12.5918 50.5554C12.7684 49.3227 13.0364 47.909 13.418 47.0027V46.8269C13.4172 46.7045 13.4218 46.5823 13.457 46.4539C13.493 46.3226 13.5573 46.1986 13.6592 46.0613C13.8553 45.7969 14.2156 45.4512 14.8545 44.8738C16.1379 43.7138 18.6097 41.5601 23.3828 37.1033C23.255 32.74 23.0967 28.3593 22.8232 24.2136C22.6654 21.8116 24.5826 19.7621 26.9873 19.7556L28.8926 19.7654C33.2823 19.8097 37.6504 20.0013 41.9189 20.2146C41.9229 20.2057 41.9259 20.1957 41.9307 20.1863C41.969 20.1098 42.0263 20.034 42.1211 19.9314C42.3087 19.7284 42.69 19.3699 43.5068 18.6218C45.1479 17.1189 48.5731 14.0182 55.8115 7.36304ZM45.2656 68.5544C41.1918 76.2938 36.2907 81.5036 31.4131 86.073C26.5831 90.5978 21.805 94.4757 17.8467 99.5701C18.0022 99.5758 18.2017 99.5828 18.4434 99.5886C19.071 99.6037 19.9786 99.619 21.126 99.6345C23.4207 99.6655 26.674 99.6967 30.5664 99.7273C38.3513 99.7884 48.6933 99.8465 59.042 99.8914C69.3905 99.9362 79.7458 99.968 87.5576 99.9773C91.4635 99.9819 94.7337 99.9813 97.0488 99.9734C98.2064 99.9694 99.1249 99.9634 99.7646 99.9558C99.9758 99.9533 100.156 99.9489 100.305 99.946C90.2668 90.1116 79.2645 81.1597 70.7783 69.8445C67.4189 71.9067 63.4329 74.4407 60.0566 76.4783L58.6436 77.322C58.6164 77.3381 58.5905 77.347 58.584 77.3494C58.2969 77.5006 58.1085 77.4876 57.9941 77.5066L57.9766 77.5095H57.959C57.7626 77.5095 57.5599 77.4413 57.21 77.239C56.8591 77.0362 56.3313 76.6812 55.4766 76.071C53.7839 74.8628 50.7809 72.6349 45.2656 68.5544ZM101.768 48.3787C93.0294 53.6317 86.352 58.8399 75.6504 66.0144C74.7871 66.594 74.2245 67.1276 72.9258 68.2302C75.0761 70.8576 76.4218 72.7129 79.1396 75.6921C81.9117 78.7307 86.1094 82.9341 94.0273 90.2878C96.8631 92.9223 99.5499 95.4423 102.159 97.9968C102.159 97.9923 102.16 97.9877 102.16 97.9832V97.9724L102.161 97.9617C103.497 82.3657 103.354 65.7235 101.768 48.3787ZM16.415 97.0134C20.4172 92.1137 25.1337 88.2931 29.7705 83.9294C34.5263 79.4537 39.2244 74.3831 43.0771 66.9363C42.9456 66.8389 42.8177 66.7436 42.6826 66.6443C34.3073 60.4714 24.7511 53.6149 16.1211 49.1179L16.415 97.0134ZM85.6953 20.8103L85.6943 20.8093C77.9174 21.7713 70.8147 23.3294 63.5703 23.533L62.8682 23.5486C56.7026 23.6401 50.7168 23.354 44.7832 23.0505C38.8478 22.747 32.9653 22.4264 26.9941 22.4451C26.1267 22.4478 25.4502 23.1889 25.5068 24.0378L25.6191 25.8455C26.141 34.8136 26.1441 43.2891 26.541 52.0798C37.4467 59.0398 48.5697 67.8468 58.0205 74.5564C61.7873 72.3059 65.6962 69.8082 69.4258 67.5193C70.2627 67.005 71.0038 66.3585 71.8037 65.6589C74.1636 63.5964 71.8381 65.4954 87.2686 54.7175C87.4857 49.6868 87.4503 44.1209 87.3916 38.5623C87.3325 32.9671 87.2514 27.3781 87.3857 22.3611C87.4087 21.4635 86.664 20.701 85.6953 20.8103ZM90.0566 36.2351C90.1154 41.5988 90.179 47.4763 90.0195 52.8093C93.5347 50.3852 96.9634 48.1112 100.803 45.8201L90.0566 36.2351ZM17.0342 46.5603C19.2395 47.697 21.4962 48.9803 23.7793 50.3708C23.6632 47.3644 23.5712 43.9421 23.4824 40.656L17.0342 46.5603ZM59.9033 9.32983C59.2412 8.73575 58.2866 8.74181 57.6289 9.34448L45.5645 20.3953C59.3127 21.0893 64.165 21.126 71.9287 20.0818L59.9033 9.32983Z" fill="black" stroke="black" style="fill:black;fill-opacity:1;stroke:black;stroke-opacity:1;" stroke-width="0.428797"/>
<path d="M90.7924 7.12891C90.9125 6.39409 91.6133 5.90127 92.3363 6.01855H92.3373C93.0692 6.13944 93.5664 6.83058 93.4467 7.5625L92.2924 14.6016C92.1837 15.2614 91.6142 15.7285 90.9672 15.7285C90.1328 15.7284 89.5057 14.9811 89.639 14.167L90.7924 7.12891Z" fill="black" stroke="black" style="fill:black;fill-opacity:1;stroke:black;stroke-opacity:1;" stroke-width="0.428797"/>
<path d="M100.084 11.8066C100.722 11.4291 101.548 11.6367 101.927 12.2764H101.926C102.306 12.9141 102.096 13.7385 101.458 14.1182C99.4243 15.3274 97.6119 16.84 96.0646 18.6191L95.7589 18.9785C95.4933 19.2992 95.1091 19.4639 94.7247 19.4639C93.6004 19.4637 92.9569 18.1396 93.6925 17.2588C95.5004 15.0872 97.6514 13.2523 100.084 11.8066Z" fill="black" stroke="black" style="fill:black;fill-opacity:1;stroke:black;stroke-opacity:1;" stroke-width="0.428797"/>
<path d="M97.0607 23.5334C100.359 22.9011 103.829 22.9664 107.096 23.7219C107.819 23.8883 108.271 24.6121 108.104 25.3352C107.934 26.0667 107.2 26.5096 106.491 26.3411V26.342C103.586 25.6719 100.499 25.6123 97.5665 26.1731L97.5675 26.1741C96.8329 26.3197 96.1322 25.8346 95.9923 25.1067V25.1057C95.8533 24.3773 96.3319 23.6734 97.0607 23.5334Z" fill="black" stroke="black" style="fill:black;fill-opacity:1;stroke:black;stroke-opacity:1;" stroke-width="0.428797"/>
</svg>
