<svg width="106" height="106" viewBox="0 0 106 106" fill="none" xmlns="http://www.w3.org/2000/svg">
<path d="M5 53C5 26.4903 26.4903 5 53 5V5C79.5097 5 101 26.4903 101 53V53C101 79.5097 79.5097 101 53 101V101C26.4903 101 5 79.5097 5 53V53Z" fill="white" style="fill:white;fill-opacity:1;"/>
<path d="M36.6247 1.53853C36.992 1.34579 37.6475 1.55272 38.108 1.4417C40.05 0.988829 40.8246 1.08622 42.6012 0.8772C45.1915 0.414227 53.0381 -0.537423 53 2.27832C53 2.27839 53 2.27846 53 2.27852C53 2.30503 52.9993 2.33184 52.9978 2.35897C52.9691 2.87306 52.345 3.4393 52.2649 4.02405C52.1854 4.60914 52.2952 8.3641 51.5194 8.59849C50.4002 8.88874 47.5633 8.18743 46.9403 8.33478C46.5233 8.42039 46.061 8.83414 45.5406 8.98336C43.8788 9.46985 42.9167 9.43172 41.6674 10.7184C40.949 10.4037 40.2163 10.1063 39.4677 9.82771C38.7501 10.2856 37.3639 10.0915 36.897 10.3094C36.5183 10.4842 36.434 10.9327 36.045 11.1091C35.6119 11.3086 34.7626 11.2105 33.9874 11.6369C32.7209 12.3405 32.9538 13.3681 32.2712 13.8691C31.5674 14.3892 30.1055 14.5923 29.3465 15.4965C29.2875 15.6652 29.2298 15.8339 29.1734 16.0025C29.3932 16.1596 29.6118 16.3179 29.8292 16.4774C29.4315 16.8702 28.9526 16.5695 28.5247 16.8473C28.0219 17.1759 28.0559 17.7514 27.7326 17.9815C27.4679 18.1698 26.8774 18.1196 26.5521 18.3998C26.0794 18.8068 26.5367 19.1692 26.3438 19.4562C26.2525 19.5599 24.6094 21.3625 24.526 21.4668C23.7795 22.1786 23.1837 21.6827 22.5342 22.224C20.7367 23.7397 19.6465 25.9851 18.5928 27.8287C18.118 28.6546 17.5272 29.4407 16.9165 30.1735C16.074 27.803 12.9341 29.9079 16.2522 30.4392C15.3174 31.1219 15.6672 32.1992 15.0773 33.0087C14.6961 33.5367 14.1039 33.7479 13.714 34.5994C13.0126 36.1322 13.5312 38.217 11.2956 37.9219C10.9883 39.9033 9.77162 41.3783 11.4907 42.5348C11.4835 43.0311 10.0699 44.0328 9.80985 44.5722C9.51327 45.0504 8.43728 49.1422 8.41214 49.8441C8.33079 50.5342 8.25158 51.738 8.41747 52.3239C8.48244 52.5617 8.73903 52.7774 8.97656 53C8.97656 53 8.97656 53 8.97656 53C9.47388 53.4715 9.8821 53.9373 8.32042 54.87C8.58286 56.3739 8.55998 56.897 8.44466 58.3341C8.42568 58.5936 8.08169 58.666 8.10034 58.8156C8.13977 59.1248 8.46696 59.6061 8.58528 60.1452C8.77941 61.0281 8.15858 61.6728 9.24561 61.3634C9.54082 61.9052 9.84739 62.4434 10.1629 62.9679C9.9971 63.216 9.83334 63.4666 9.67167 63.7197C9.97724 63.9688 10.2852 64.2135 10.5952 64.4529C8.91486 64.5214 10.4596 66.4133 11.1546 65.4476C11.15 66.6172 11.1946 67.7997 11.2909 68.9927C9.48707 69.5156 12.0597 71.4389 12.8928 70.7889C12.9438 70.9073 12.9954 71.0255 13.0474 71.1435C13.0709 72.3795 13.895 73.1407 14.2754 74.5082C14.6722 75.8829 14.4643 75.8564 13.9553 76.6693C14.1722 76.9323 14.3917 77.1923 14.6137 77.4492C17.5198 77.6047 13.9736 79.6804 17.2655 81.0422C16.6986 82.7202 18.8966 84.1125 20.3212 84.909C20.487 85.0045 20.6925 84.807 20.926 84.9174C21.4867 85.1923 22.3417 86.4967 22.9275 85.7799C23.1277 86.3249 23.3405 86.8694 23.5665 87.4131C24.0013 87.5653 24.4367 87.7099 24.8718 87.8465C25.0506 87.6219 25.2295 87.3973 25.4083 87.1727C25.4469 88.4683 26.7594 88.9829 27.1611 89.5486C27.2414 89.6632 27.0352 90.0041 27.3152 90.3291C27.642 90.7125 28.4594 91.1127 28.8848 91.5232C29.3087 91.2712 29.7281 91.0145 30.1427 90.7529C31.12 91.064 30.8557 92.239 31.3455 92.6127C31.4291 92.6887 33.2281 93.5243 33.3396 93.5389C34.2172 93.7307 34.3891 92.7754 36.5807 93.9137C36.9735 94.1125 37.185 94.5594 37.5579 94.7124C38.2158 94.9987 40.4825 94.9116 40.8283 94.2556C41.3733 95.3666 43.6716 95.5508 44.272 95.9201C44.4532 96.037 44.3847 96.6082 44.9826 96.8417C45.4708 97.0358 46.837 96.787 47.4619 96.9366C48.1283 97.1023 48.329 97.6016 48.6323 97.6658C48.9209 97.7251 49.2224 97.3638 49.6165 97.3959C50.8503 97.502 51.9481 98.1571 52.9542 98.1698C52.9695 98.17 52.9848 98.1701 53 98.17C53 98.17 53 98.17 53 98.17C54.4351 98.1629 55.6283 96.9746 56.7205 96.3778C57.0124 96.4276 57.3155 96.646 57.619 96.6166C61.3594 96.2777 65.5421 95.4846 69.1737 94.3082C70.85 93.8473 75.5409 93.1628 73.2687 91.4123C73.5973 90.7896 77.8668 89.4038 78.5549 88.859C79.2518 88.3798 79.5009 87.6051 80.0092 87.1949C81.5336 85.9476 82.8298 85.2629 84.2301 83.2565C84.5888 82.7354 84.6299 81.8763 84.8747 81.6125C85.1716 81.2953 85.8846 81.2902 86.2802 80.8713C87.2325 79.8824 88.6053 77.7304 89.3809 76.6776C89.526 76.4873 89.9651 76.6706 90.2745 76.4551C91.4868 75.616 92.185 74.2274 90.743 73.7501C92.3097 72.6622 92.3065 70.866 92.8545 69.4125C94.1252 66.3654 95.8967 60.4911 95.4755 57.5377C95.244 55.6959 94.6052 55.7377 95.2253 53.1162C95.2339 53.0775 95.2425 53.0388 95.2513 53C95.2513 53 95.2513 53 95.2513 53C95.3761 52.4493 95.5274 51.8906 95.6431 51.2175C95.9371 49.5449 96.9948 47.7934 95.3296 46.7251C95.4351 44.8035 94.8485 43.4238 95.7243 41.7309C95.3855 41.6453 95.0466 41.5634 94.7078 41.4853C94.639 41.2641 94.5685 41.0436 94.4963 40.824C94.7561 40.6729 95.0152 40.5204 95.2738 40.3665C94.8674 38.7009 92.9971 37.1271 92.4488 35.8665C91.6362 33.6774 88.944 28.2316 87.7681 26.2429C87.1893 25.1604 86.6662 25.5219 87.2039 24.1606C86.9587 24.0086 86.7126 23.8595 86.4658 23.7132C86.1418 23.7702 85.8192 23.8302 85.498 23.8933C84.473 22.7597 83.4842 21.1586 82.3741 20.1761C80.3633 18.3434 76.6789 16.6435 74.6025 14.9192C74.0842 14.4757 73.6092 13.5631 73.0051 13.2668C72.1243 12.839 71.5035 13.6042 70.3958 13.1326C68.5223 12.2974 65.1334 10.0047 63.1126 9.66489C62.5236 9.55446 62.1745 9.8478 61.7674 9.80387C60.0618 9.63066 58.659 9.40148 56.9894 9.80165C55.3331 8.73839 55.5169 7.58001 55.0044 6.34896C54.6235 5.41934 53.2493 3.29411 53.0252 2.50473C52.8762 1.94642 53.4337 1.23036 53.2277 0.615557C55.7523 0.153 56.8286 0.779279 58.7268 1.8437C62.4148 2.2171 66.0687 2.99201 69.5982 4.1552C69.8104 4.58133 70.015 5.00839 70.2119 5.43615C70.2117 5.43683 70.2114 5.43752 70.2112 5.43821C71.3869 6.2799 72.2442 5.70699 73.0297 5.8242C80.8727 6.5849 91.979 17.3782 95.7912 24.4506C96.7899 25.863 99.9072 30.6756 99.8283 32.0283C99.8252 32.3687 99.3863 32.6544 99.4945 32.9608C100.924 35.4976 102.145 38.1833 103.129 40.981C103.542 44.9763 104.117 48.9509 104.287 53C104.375 55.1067 104.353 57.2081 104.142 59.2905C102.601 75.7808 92.4 91.232 77.7714 98.8923C74.9848 100.398 71.3692 102.324 68.2917 102.98C67.0103 103.255 66.2865 102.603 64.7884 103.595C64.7205 103.381 64.6527 103.167 64.5852 102.954C63.2155 103.541 62.3846 104.224 60.7359 104.528C59.3646 104.813 55.6408 105.159 54.4076 105.071C53.7634 105.043 53.9956 104.621 53.3999 104.63C53.2814 104.631 53.1471 104.641 53 104.655C53 104.655 53 104.655 53 104.655C51.883 104.771 50.0177 105.154 48.7577 105.046C47.4743 104.953 45.3884 104.198 44.4145 104.095C40.9028 103.768 36.8979 103.416 33.4024 101.798C32.4381 101.357 31.4238 100.305 31.1261 100.181C30.5352 99.9396 30.135 100.329 29.7136 100.197C27.5599 99.54 24.8945 97.2349 23.1702 95.9766C17.46 91.9395 12.0842 86.6056 8.49064 80.5936C6.11233 76.8771 3.16217 70.0723 2.64291 66.0071C2.51221 65.1416 3.12885 65.2309 2.96391 64.5271C2.78565 63.7467 2.31906 63.3944 2.21488 63.0313C1.5048 60.756 0.640049 55.7717 0.936127 53C0.960108 52.719 0.992282 52.4621 1.03223 52.2342C1.11569 51.7616 1.57772 51.4349 1.58575 51.1568C1.59081 51.0158 1.29402 50.6855 1.28602 50.2368C1.2415 46.2709 1.88048 43.3954 2.95107 39.6773C4.97198 32.5768 8.56072 24.4833 14.0185 18.8211C15.1966 17.5827 16.6564 17.3917 16.8103 17.2204C17.16 16.844 16.9668 16.1804 17.6355 15.3443C19.863 12.5331 24.0919 10.1909 26.8319 8.27945C28.1751 7.30955 29.8754 5.57356 31.337 4.74064C32.4935 4.04265 35.5389 3.2124 35.996 2.72748C36.2722 2.421 36.2295 1.75019 36.6247 1.53853ZM12.8423 35.3036C11.9615 34.7016 11.9495 36.9663 12.7665 36.4557C12.9456 36.3443 13.0659 35.46 12.8423 35.3036ZM62.9675 97.5864C62.8837 97.3009 62.8004 97.0153 62.7174 96.7296C62.4737 96.91 62.2251 97.0889 61.9768 97.2649C62.1647 97.4091 62.357 97.5516 62.5496 97.6931C62.6892 97.6582 62.8285 97.6226 62.9675 97.5864Z" fill="white" style="fill:white;fill-opacity:1;"/>
<path d="M69.25 50.8349C70.9167 51.7972 70.9167 54.2028 69.25 55.1651L46.75 68.1554C45.0833 69.1177 43 67.9149 43 65.9904L43 40.0096C43 38.0851 45.0833 36.8823 46.75 37.8446L69.25 50.8349Z" fill="#1D79E9" style="fill:#1D79E9;fill:color(display-p3 0.1137 0.4730 0.9122);fill-opacity:1;"/>
</svg>
