<svg width="51" height="50" viewBox="0 0 51 50" fill="none" xmlns="http://www.w3.org/2000/svg">
<path d="M47.2708 9.43748C47.126 9.58287 46.9539 9.69822 46.7644 9.77694C46.5749 9.85565 46.3718 9.89617 46.1666 9.89617C45.9614 9.89617 45.7582 9.85565 45.5688 9.77694C45.3793 9.69822 45.2072 9.58287 45.0624 9.43748L43.5624 7.93957V14.5833C43.5624 14.9977 43.3978 15.3951 43.1048 15.6882C42.8118 15.9812 42.4143 16.1458 41.9999 16.1458C41.5855 16.1458 41.1881 15.9812 40.8951 15.6882C40.602 15.3951 40.4374 14.9977 40.4374 14.5833V7.93957L38.9374 9.43748C38.6412 9.71348 38.2495 9.86374 37.8447 9.8566C37.4399 9.84946 37.0537 9.68547 36.7674 9.3992C36.4811 9.11292 36.3171 8.7267 36.31 8.32191C36.3028 7.91711 36.4531 7.52535 36.7291 7.22915L40.8958 3.06248C41.189 2.77039 41.586 2.60638 41.9999 2.60638C42.4138 2.60638 42.8109 2.77039 43.1041 3.06248L47.2708 7.22915C47.4159 7.37408 47.531 7.54619 47.6096 7.73566C47.6881 7.92512 47.7286 8.12821 47.7286 8.33332C47.7286 8.53842 47.6881 8.74151 47.6096 8.93098C47.531 9.12044 47.4159 9.29256 47.2708 9.43748ZM46.1666 25C46.1677 27.7865 45.6098 30.545 44.5259 33.1121C43.442 35.6792 41.8541 38.0028 39.8562 39.9453C37.8584 41.8879 35.4911 43.4098 32.8945 44.4212C30.298 45.4326 27.5249 45.9127 24.7395 45.8333C19.4366 45.6299 14.406 43.4322 10.6535 39.6797C6.90104 35.9273 4.70335 30.8966 4.49992 25.5937C4.4205 22.8083 4.90068 20.0352 5.91204 17.4387C6.9234 14.8422 8.44538 12.4749 10.3879 10.477C12.3304 8.47911 14.654 6.89123 17.2211 5.80732C19.7882 4.72342 22.5467 4.16552 25.3333 4.16665C28.0105 4.1569 30.6633 4.67586 33.1395 5.69373C33.2178 5.72824 33.2883 5.7782 33.3468 5.84062C33.4053 5.90303 33.4506 5.97662 33.48 6.05697C33.5093 6.13732 33.5222 6.22277 33.5178 6.3082C33.5133 6.39363 33.4916 6.47729 33.4541 6.55415C32.8426 7.9054 32.5604 9.38245 32.6307 10.864C32.7011 12.3455 33.1219 13.7891 33.8587 15.0764C34.5954 16.3636 35.6271 17.4577 36.8689 18.2687C38.1107 19.0797 39.5272 19.5845 41.002 19.7417C42.2487 19.8713 43.5087 19.7545 44.7103 19.3979C44.79 19.3712 44.8743 19.3609 44.958 19.3676C45.0418 19.3742 45.1234 19.3977 45.1979 19.4366C45.2724 19.4755 45.3382 19.529 45.3916 19.594C45.4449 19.6589 45.4846 19.7339 45.5083 19.8146C45.9474 21.508 46.1686 23.2505 46.1666 25ZM31.5249 29.2021C31.5248 27.9836 31.1176 26.8001 30.368 25.8395C29.6184 24.8789 28.5693 24.1962 27.3874 23.9L24.0374 23.0666C23.5259 22.9387 23.0728 22.6413 22.752 22.2229C22.4339 21.8156 22.2628 21.3126 22.2666 20.7958C22.2677 20.1764 22.5144 19.5827 22.9526 19.1449C23.3908 18.7071 23.9847 18.461 24.6041 18.4604H26.0624C26.6382 18.4614 27.1934 18.6744 27.6223 19.0586C28.0511 19.4429 28.3234 19.9715 28.3874 20.5437C28.4045 20.7522 28.4632 20.955 28.5601 21.1403C28.6571 21.3256 28.7902 21.4896 28.9516 21.6225C29.1131 21.7554 29.2996 21.8546 29.5001 21.9141C29.7005 21.9736 29.9109 21.9923 30.1187 21.969C30.3266 21.9457 30.5276 21.8809 30.7099 21.7785C30.8923 21.6761 31.0522 21.5381 31.1802 21.3728C31.3082 21.2074 31.4017 21.018 31.4552 20.8159C31.5087 20.6137 31.5211 20.4028 31.4916 20.1958C31.3577 18.9959 30.8292 17.8744 29.9892 17.0072C29.1491 16.14 28.045 15.5762 26.8499 15.4041V14.5833C26.8499 14.1689 26.6853 13.7715 26.3923 13.4785C26.0992 13.1854 25.7018 13.0208 25.2874 13.0208C24.873 13.0208 24.4756 13.1854 24.1826 13.4785C23.8895 13.7715 23.7249 14.1689 23.7249 14.5833V15.4166C22.4856 15.6183 21.3538 16.2413 20.5206 17.1806C19.6874 18.1199 19.2037 19.3179 19.1513 20.5724C19.0989 21.827 19.481 23.0611 20.233 24.0666C20.985 25.0721 22.0609 25.7874 23.2791 26.0917L26.6291 26.925C27.1821 27.0642 27.6652 27.4007 27.9876 27.871C28.3099 28.3414 28.4495 28.9133 28.3799 29.4793C28.3103 30.0453 28.0364 30.5663 27.6096 30.9446C27.1829 31.3228 26.6327 31.5322 26.0624 31.5333H24.6041C24.0283 31.5323 23.4731 31.3193 23.0442 30.9351C22.6154 30.5508 22.3431 30.0222 22.2791 29.45C22.262 29.2416 22.2033 29.0387 22.1064 28.8534C22.0094 28.6681 21.8763 28.5041 21.7149 28.3712C21.5534 28.2383 21.3669 28.1391 21.1664 28.0796C20.966 28.0201 20.7556 28.0014 20.5478 28.0247C20.3399 28.048 20.1389 28.1128 19.9566 28.2152C19.7743 28.3176 19.6143 28.4556 19.4863 28.621C19.3583 28.7863 19.2648 28.9757 19.2113 29.1779C19.1578 29.38 19.1454 29.5909 19.1749 29.7979C19.3062 30.9832 19.8221 32.0928 20.6438 32.957C21.4655 33.8213 22.5478 34.3925 23.7249 34.5833V35.4166C23.7249 35.8311 23.8895 36.2285 24.1826 36.5215C24.4756 36.8145 24.873 36.9791 25.2874 36.9791C25.7018 36.9791 26.0992 36.8145 26.3923 36.5215C26.6853 36.2285 26.8499 35.8311 26.8499 35.4166V34.5833C28.1476 34.4004 29.3355 33.7546 30.1946 32.7649C31.0537 31.7753 31.5262 30.5084 31.5249 29.1979V29.2021Z" fill="black" style="fill:black;fill-opacity:1;"/>
</svg>
