<svg width="106" height="106" viewBox="0 0 106 106" fill="none" xmlns="http://www.w3.org/2000/svg">
<path d="M5 53C5 26.4903 26.4903 5 53 5V5C79.5097 5 101 26.4903 101 53V53C101 79.5097 79.5097 101 53 101V101C26.4903 101 5 79.5097 5 53V53Z" fill="#F1F0E3" style="fill:#F1F0E3;fill:color(display-p3 0.9451 0.9412 0.8902);fill-opacity:1;"/>
<path d="M37.1433 3.16981C37.5042 3.00073 38.1101 3.10653 38.5556 2.99374C40.4322 2.53255 41.1675 2.55981 42.8871 2.31789C45.4008 1.80979 53.0245 1.0156 53 3.05594C53 3.05599 53 3.05604 53 3.05609C53 3.07502 52.9993 3.09417 52.9979 3.11355C52.9701 3.48051 52.3517 3.88607 52.2691 4.30441C52.1868 4.72308 52.284 7.40323 51.486 7.5778C50.3334 7.78906 47.4601 7.36805 46.8289 7.50473C46.4033 7.583 45.9164 7.90159 45.3813 8.03569C43.6705 8.47409 42.7104 8.50845 41.3548 9.5486C40.6559 9.37347 39.9487 9.21436 39.2313 9.07261C38.4786 9.47348 37.1323 9.46093 36.6562 9.67154C36.269 9.84061 36.1406 10.1875 35.7424 10.3622C35.2983 10.5592 34.4845 10.5757 33.6901 10.9911C32.3922 11.6774 32.4902 12.4501 31.7718 12.9285C31.0298 13.426 29.6203 13.7796 28.7867 14.611C28.708 14.7546 28.6303 14.8984 28.5537 15.0423C28.7367 15.1377 28.919 15.2341 29.1004 15.3314C28.6699 15.7055 28.2655 15.5319 27.8275 15.8196C27.3129 16.1602 27.2591 16.627 26.9256 16.8652C26.6526 17.0604 26.1179 17.1079 25.7789 17.3899C25.2861 17.8002 25.6469 18.0332 25.4264 18.3035C25.3249 18.3994 23.5582 20.19 23.4698 20.298C22.6902 21.0313 22.2444 20.6981 21.5904 21.2707C19.7816 22.8718 18.5102 25.0536 17.355 26.9213C16.8357 27.7569 16.2343 28.5813 15.6355 29.3612C15.2897 27.2636 12.4838 29.6644 15.0633 29.7075C14.2192 30.4833 14.3504 31.4616 13.7787 32.3226C13.4104 32.883 12.9212 33.162 12.5165 34.0375C11.79 35.6069 11.9574 37.6338 10.3104 37.5657C9.88044 39.5602 8.87478 41.1309 10.0489 42.1725C10.0037 42.6799 8.90455 43.7948 8.68669 44.3545C8.42719 44.8584 7.48709 49.0652 7.47083 49.7785C7.39672 50.4839 7.32564 51.7118 7.44259 52.3094C7.48793 52.5519 7.67074 52.7717 7.8404 53C7.8404 53 7.8404 53 7.8404 53C8.19591 53.4814 8.48829 53.9737 7.38347 54.9085C7.59281 56.4462 7.5905 56.9832 7.55624 58.4393C7.55195 58.7023 7.30745 58.7627 7.32651 58.9147C7.36659 59.2291 7.6217 59.7299 7.73282 60.2812C7.91533 61.1848 7.50345 61.7989 8.27376 61.5479C8.51838 62.1127 8.77504 62.6761 9.04141 63.2277C8.93738 63.4671 8.83523 63.708 8.73498 63.9506C8.97643 64.2226 9.22069 64.4916 9.46746 64.7567C8.2348 64.6963 9.52704 66.7049 9.96182 65.8019C10.0588 66.9748 10.204 68.1533 10.3992 69.3348C9.08819 69.6646 11.2409 71.7981 11.8127 71.2687C11.8655 71.3902 11.9188 71.5114 11.9727 71.6324C12.136 72.8357 12.8685 73.6711 13.3487 75.0241C13.8439 76.3808 13.6788 76.3246 13.3819 77.0177C13.5895 77.2921 13.7998 77.5639 14.0128 77.8328C16.3817 78.3863 13.7833 79.8014 16.6863 81.4974C16.4579 82.9268 18.4927 84.4676 19.8457 85.3734C20.0028 85.4811 20.1502 85.3408 20.3688 85.4719C20.8947 85.7975 21.8405 87.0435 22.2482 86.5199C22.5084 87.0167 22.7793 87.5111 23.0615 88.0029C23.4709 88.1961 23.8818 88.3826 24.2936 88.5618C24.4208 88.4009 24.5481 88.2401 24.6753 88.0792C24.9054 89.1704 26.1722 89.7847 26.6253 90.3049C26.7157 90.41 26.5753 90.6589 26.8785 90.9625C27.2326 91.3202 28.044 91.7565 28.4964 92.1422C28.8568 91.9984 29.2142 91.8507 29.5685 91.6991C30.534 92.0825 30.4418 92.9745 30.9524 93.3303C31.0395 93.4034 32.8598 94.2767 32.9705 94.2986C33.8382 94.5474 33.8868 93.8471 36.1625 94.9549C36.5701 95.1478 36.8246 95.5069 37.2072 95.6593C37.8801 95.944 40.1277 96.0832 40.4248 95.6257C41.0673 96.4992 43.398 96.7987 44.0336 97.0994C44.2248 97.195 44.1894 97.6067 44.807 97.8087C45.3102 97.9768 46.6863 97.8616 47.3304 97.9915C48.0164 98.1357 48.2365 98.4992 48.5466 98.5544C48.8415 98.6053 49.1389 98.3546 49.5422 98.3867C50.8054 98.4911 51.9312 98.969 52.9534 98.9784C52.969 98.9786 52.9845 98.9786 53 98.9786C53 98.9786 53 98.9786 53 98.9786C54.4573 98.9733 55.6879 98.1057 56.8279 97.6492C57.1266 97.6771 57.4307 97.8249 57.7421 97.794C61.5828 97.4349 65.8654 96.5544 69.5543 95.2795C71.2688 94.7697 75.8262 93.6535 73.8802 92.5685C74.2917 92.0505 78.5192 90.3401 79.2142 89.7822C79.9253 89.2873 80.2689 88.6078 80.7939 88.1869C82.3683 86.9067 83.6261 86.1288 85.1569 84.1546C85.5495 83.642 85.7209 82.8739 85.973 82.5991C86.2783 82.2687 86.8866 82.152 87.2855 81.7142C88.2471 80.681 89.7059 78.4969 90.4813 77.3953C90.6261 77.1961 90.9542 77.3049 91.233 77.0596C92.3251 76.1052 93.0488 74.6988 91.9786 74.431C93.3576 73.1819 93.5695 71.4475 94.1517 69.9474C95.4945 66.8044 97.2137 60.7269 96.9777 57.6961C96.8644 55.804 96.4186 55.8482 96.8752 53.1206C96.8813 53.0805 96.8875 53.0403 96.8938 53C96.8938 53 96.8938 53 96.8938 53C96.9828 52.4284 97.088 51.85 97.162 51.1552C97.35 49.4213 98.0527 47.6775 96.8036 46.5087C96.7911 44.5429 96.2682 43.0913 96.7816 41.4529C96.5262 41.3409 96.2705 41.2318 96.0146 41.1255C95.946 40.8965 95.8755 40.6685 95.8033 40.4412C95.9824 40.3113 96.1611 40.1804 96.3392 40.0486C95.9011 38.3538 94.3312 36.6038 93.7597 35.2963C92.9138 33.0312 90.0043 27.4836 88.7027 25.5224C88.0583 24.4528 87.6697 24.6972 87.916 23.5595C87.6866 23.3867 87.4561 23.2164 87.2244 23.0488C86.9583 23.0499 86.693 23.0534 86.4285 23.0593C85.3756 21.8896 84.2634 20.3421 83.1274 19.3349C81.0746 17.4589 77.4192 15.5071 75.1994 13.8694C74.6459 13.448 74.0748 12.6719 73.4588 12.3676C72.5603 11.9281 72.0522 12.4421 70.9123 11.9506C68.9771 11.0785 65.3912 9.05821 63.3396 8.68769C62.7393 8.56738 62.4051 8.75928 61.9896 8.7025C60.2487 8.4745 58.8115 8.24853 57.1091 8.48682C55.3792 7.68191 55.5549 6.86462 55.0201 5.97594C54.62 5.30486 53.2418 3.78018 53.0249 3.21767C52.8788 2.81877 53.4251 2.30771 53.2224 1.86838C55.6852 1.54542 56.7303 2.01452 58.6175 2.82956C62.2337 3.20491 65.8135 3.97367 69.2696 5.12231C69.5063 5.45559 69.7371 5.79034 69.9621 6.1264C69.9619 6.12689 69.9618 6.12738 69.9616 6.12787C71.158 6.85946 71.9183 6.51319 72.6677 6.67599C80.1375 7.87434 91.1497 18.0605 94.9751 24.9961C95.967 26.379 98.914 31.1478 98.9686 32.4139C99 32.7324 98.6958 32.9575 98.808 33.257C100.14 35.7892 101.26 38.4545 102.146 41.216C102.688 45.1018 103.227 49.0258 103.348 53C103.411 55.0691 103.361 57.1286 103.143 59.1688C101.535 75.331 91.4788 90.3399 77.2085 97.8514C74.4851 99.3298 70.9195 101.115 67.9365 101.818C66.6949 102.112 66.0392 101.686 64.5339 102.499C64.4808 102.347 64.4278 102.195 64.375 102.044C63.0136 102.55 62.1762 103.086 60.5633 103.37C59.221 103.637 55.582 103.966 54.3766 103.903C53.7469 103.887 53.976 103.584 53.392 103.592C53.2758 103.594 53.1442 103.6 53 103.611C53 103.611 53 103.611 53 103.611C51.9038 103.695 50.0842 103.951 48.8543 103.845C47.602 103.755 45.5453 103.142 44.5934 103.023C41.1615 102.637 37.3117 102.115 33.8898 100.586C32.9455 100.169 31.8969 99.2717 31.6065 99.1458C31.0319 98.9024 30.7011 99.1584 30.2983 99.0143C28.2416 98.2954 25.5644 96.191 23.8732 94.9655C18.2818 91.0379 13.0763 85.7882 9.54936 79.936C7.21308 76.3135 4.3578 69.6695 3.74914 65.7222C3.59953 64.8814 4.0548 65.0046 3.89293 64.3138C3.71793 63.5476 3.36201 63.1812 3.26824 62.8243C2.62475 60.583 1.87015 55.7089 2.09723 53C2.09723 53 2.09723 53 2.09723 53C2.11436 52.7252 2.13793 52.4738 2.16734 52.2507C2.2288 51.7881 2.56158 51.4646 2.56991 51.1915C2.57487 51.0531 2.3659 50.7325 2.36639 50.2936C2.39661 46.4158 2.97368 43.6033 3.99488 39.9545C5.92693 32.9782 9.57005 25.1323 14.8438 19.5452C15.982 18.3229 17.2436 17.9688 17.3976 17.8012C17.7454 17.434 17.6692 16.8963 18.3512 16.1061C20.617 13.4507 24.653 11.0243 27.382 9.21761C28.7191 8.30075 30.471 6.78388 31.9094 6.01408C33.0481 5.36712 35.9858 4.48621 36.4589 4.09629C36.7443 3.84768 36.7547 3.35496 37.1433 3.16981ZM11.7633 34.8273C11.1562 34.3401 10.8982 36.5535 11.5749 35.9651C11.7228 35.835 11.916 34.9533 11.7633 34.8273ZM63.1117 98.2344C63.0461 98.0317 62.9807 97.829 62.9157 97.6262C62.6588 97.7734 62.3976 97.9188 62.1374 98.0613C62.318 98.1549 62.5025 98.2469 62.6867 98.3381C62.8286 98.3042 62.9703 98.2696 63.1117 98.2344Z" fill="#F1F0E3" style="fill:#F1F0E3;fill:color(display-p3 0.9451 0.9412 0.8902);fill-opacity:1;"/>
</svg>
