<svg width="128" height="24" viewBox="0 0 128 24" fill="none" xmlns="http://www.w3.org/2000/svg">
<g clip-path="url(#clip0_40_1732)">
<path d="M6.10352e-05 0.00634766H23.9873V23.9936H6.10352e-05V0.00634766ZM25.9862 0.00634766H49.9734V23.9936H25.9862V0.00634766ZM51.9723 0.00634766H75.9596V23.9936H51.9723V0.00634766ZM77.9585 0.00634766H101.946V23.9936H77.9585V0.00634766ZM103.945 0.00634766H127.932V23.9936H103.945V0.00634766Z" fill="#00B67A" style="fill:#00B67A;fill:color(display-p3 0.0000 0.7137 0.4784);fill-opacity:1;"/>
<path d="M11.9937 16.1729L15.6417 15.2484L17.1659 19.9458L11.9937 16.1729ZM20.3892 10.1011H13.9676L11.9937 4.05432L10.0197 10.1011H3.59814L8.79537 13.8491L6.82143 19.8959L12.0187 16.1479L15.2169 13.8491L20.3892 10.1011ZM37.9798 16.1729L41.6279 15.2484L43.152 19.9458L37.9798 16.1729ZM46.3753 10.1011H39.9538L37.9798 4.05432L36.0059 10.1011H29.5843L34.7815 13.8491L32.8076 19.8959L38.0048 16.1479L41.2031 13.8491L46.3753 10.1011ZM63.9659 16.1729L67.614 15.2484L69.1382 19.9458L63.9659 16.1729ZM72.3615 10.1011H65.9399L63.9659 4.05432L61.992 10.1011H55.5704L60.7677 13.8491L58.7937 19.8959L63.9909 16.1479L67.1892 13.8491L72.3615 10.1011ZM89.9521 16.1729L93.6001 15.2484L95.1243 19.9458L89.9521 16.1729ZM98.3476 10.1011H91.926L89.9521 4.05432L87.9781 10.1011H81.5566L86.7538 13.8491L84.7798 19.8959L89.9771 16.1479L93.1754 13.8491L98.3476 10.1011ZM115.938 16.1729L119.586 15.2484L121.11 19.9458L115.938 16.1729ZM124.334 10.1011H117.912L115.938 4.05432L113.964 10.1011H107.543L112.74 13.8491L110.766 19.8959L115.963 16.1479L119.162 13.8491L124.334 10.1011Z" fill="white" style="fill:white;fill-opacity:1;"/>
</g>
<defs>
<clipPath id="clip0_40_1732">
<rect width="127.932" height="24" fill="white" style="fill:white;fill-opacity:1;"/>
</clipPath>
</defs>
</svg>
