<svg width="51" height="50" viewBox="0 0 51 50" fill="none" xmlns="http://www.w3.org/2000/svg">
<path d="M44.7573 17.3636H6.57559C6.32487 17.3636 6.07659 17.4129 5.84494 17.5088C5.61329 17.6048 5.40281 17.7454 5.22552 17.9227C5.04823 18.0999 4.90761 18.3104 4.81169 18.5421C4.71577 18.7737 4.66644 19.022 4.6665 19.2727V40.2727C4.66766 41.285 5.0703 42.2555 5.7861 42.9713C6.5019 43.6871 7.47239 44.0897 8.48468 44.0909H42.8482C43.8605 44.0896 44.8309 43.6869 45.5467 42.9711C46.2624 42.2553 46.6651 41.2849 46.6664 40.2727V19.2727C46.6666 19.022 46.6173 18.7737 46.5214 18.542C46.4255 18.3103 46.2849 18.0998 46.1076 17.9225C45.9303 17.7452 45.7198 17.6046 45.4881 17.5087C45.2564 17.4128 45.0081 17.3635 44.7573 17.3636ZM34.6525 26.9854L24.4704 37.1685C24.2932 37.3458 24.0828 37.4865 23.8512 37.5825C23.6196 37.6784 23.3713 37.7278 23.1206 37.7278C22.87 37.7278 22.6217 37.6784 22.3901 37.5825C22.1585 37.4865 21.9481 37.3458 21.7709 37.1685L16.6804 32.077C16.3278 31.7179 16.1312 31.2341 16.1335 30.7308C16.1358 30.2276 16.3367 29.7456 16.6926 29.3897C17.0484 29.0338 17.5304 28.8329 18.0337 28.8306C18.537 28.8283 19.0208 29.0249 19.3798 29.3775L23.1206 33.1193L31.9531 24.286C32.3122 23.9334 32.796 23.7368 33.2992 23.7391C33.8025 23.7414 34.2845 23.9423 34.6404 24.2982C34.9962 24.654 35.1972 25.136 35.1994 25.6393C35.2017 26.1426 35.0052 26.6264 34.6525 26.9854Z" fill="black" style="fill:black;fill-opacity:1;"/>
<path d="M44.7573 21.1818H6.57559C6.32487 21.1819 6.07659 21.1325 5.84494 21.0366C5.61329 20.9407 5.40281 20.8001 5.22552 20.6228C5.04823 20.4455 4.90761 20.235 4.81169 20.0034C4.71577 19.7717 4.66644 19.5234 4.6665 19.2727V11.6364C4.66766 10.6241 5.0703 9.65357 5.7861 8.93777C6.5019 8.22198 7.47239 7.81933 8.48468 7.81818H42.8482C43.8605 7.81949 44.8309 8.22218 45.5467 8.93794C46.2624 9.65371 46.6651 10.6241 46.6664 11.6364V19.2727C46.6666 19.5234 46.6173 19.7718 46.5214 20.0034C46.4255 20.2351 46.2849 20.4456 46.1076 20.6229C45.9303 20.8003 45.7198 20.9409 45.4881 21.0368C45.2564 21.1326 45.0081 21.1819 44.7573 21.1818ZM8.48468 17.3636H42.8482V11.6364H8.48468V17.3636Z" fill="black" style="fill:black;fill-opacity:1;"/>
<path d="M29.8034 15.4546C29.5526 15.4547 29.3043 15.4054 29.0726 15.3095C28.8409 15.2136 28.6304 15.073 28.4531 14.8957C28.2758 14.7184 28.1352 14.5079 28.0393 14.2762C27.9434 14.0445 27.8941 13.7962 27.8943 13.5455V7.81821C27.8943 7.31188 28.0954 6.8263 28.4534 6.46828C28.8115 6.11025 29.2971 5.90912 29.8034 5.90912C30.3097 5.90912 30.7953 6.11025 31.1533 6.46828C31.5113 6.8263 31.7125 7.31188 31.7125 7.81821V13.5455C31.7126 13.7962 31.6633 14.0445 31.5674 14.2762C31.4715 14.5079 31.3309 14.7184 31.1536 14.8957C30.9763 15.073 30.7658 15.2136 30.5341 15.3095C30.3024 15.4054 30.0541 15.4547 29.8034 15.4546Z" fill="black" style="fill:black;fill-opacity:1;"/>
<path d="M21.5302 15.4546C21.2795 15.4546 21.0312 15.4053 20.7995 15.3094C20.5679 15.2135 20.3574 15.0728 20.1801 14.8955C20.0028 14.7183 19.8622 14.5078 19.7663 14.2761C19.6704 14.0445 19.621 13.7962 19.6211 13.5455V7.81821C19.6211 7.31188 19.8222 6.8263 20.1803 6.46828C20.5383 6.11025 21.0239 5.90912 21.5302 5.90912C22.0365 5.90912 22.5221 6.11025 22.8801 6.46828C23.2381 6.8263 23.4393 7.31188 23.4393 7.81821V13.5455C23.4393 13.7962 23.39 14.0445 23.2941 14.2761C23.1982 14.5078 23.0575 14.7183 22.8803 14.8955C22.703 15.0728 22.4925 15.2135 22.2608 15.3094C22.0292 15.4053 21.7809 15.4546 21.5302 15.4546Z" fill="black" style="fill:black;fill-opacity:1;"/>
<path d="M13.2572 15.4546C13.0065 15.4546 12.7582 15.4053 12.5266 15.3094C12.2949 15.2135 12.0844 15.0728 11.9072 14.8955C11.7299 14.7183 11.5892 14.5078 11.4933 14.2761C11.3974 14.0445 11.3481 13.7962 11.3481 13.5455V7.81821C11.3481 7.31188 11.5493 6.8263 11.9073 6.46828C12.2653 6.11025 12.7509 5.90912 13.2572 5.90912C13.7636 5.90912 14.2491 6.11025 14.6072 6.46828C14.9652 6.8263 15.1663 7.31188 15.1663 7.81821V13.5455C15.1664 13.7962 15.117 14.0445 15.0211 14.2761C14.9252 14.5078 14.7846 14.7183 14.6073 14.8955C14.43 15.0728 14.2195 15.2135 13.9879 15.3094C13.7562 15.4053 13.508 15.4546 13.2572 15.4546Z" fill="black" style="fill:black;fill-opacity:1;"/>
<path d="M38.0756 15.4546C37.8248 15.4547 37.5765 15.4054 37.3448 15.3095C37.1132 15.2136 36.9026 15.073 36.7253 14.8957C36.548 14.7184 36.4074 14.5079 36.3115 14.2762C36.2156 14.0445 36.1664 13.7962 36.1665 13.5455V7.81821C36.1665 7.31188 36.3676 6.8263 36.7257 6.46828C37.0837 6.11025 37.5693 5.90912 38.0756 5.90912C38.5819 5.90912 39.0675 6.11025 39.4255 6.46828C39.7835 6.8263 39.9847 7.31188 39.9847 7.81821V13.5455C39.9848 13.7962 39.9355 14.0445 39.8396 14.2762C39.7438 14.5079 39.6031 14.7184 39.4258 14.8957C39.2485 15.073 39.038 15.2136 38.8063 15.3095C38.5747 15.4054 38.3263 15.4547 38.0756 15.4546Z" fill="black" style="fill:black;fill-opacity:1;"/>
</svg>
