<svg width="67" height="16" viewBox="0 0 67 16" fill="none" xmlns="http://www.w3.org/2000/svg">
<g clip-path="url(#clip0_46_15591)">
<path d="M18.0531 5.67078H24.6498V6.90155H22.056V13.8203H20.6297V6.90155H18.0474V5.67078H18.0531ZM24.368 7.91952H25.5873V9.05827H25.6103C25.6505 8.89723 25.7253 8.74195 25.8346 8.59242C25.9438 8.44288 26.0761 8.2991 26.2314 8.17832C26.3867 8.0518 26.5592 7.95403 26.749 7.87351C26.9388 7.79874 27.1344 7.75848 27.3299 7.75848C27.4794 7.75848 27.5887 7.76423 27.6462 7.76999C27.7037 7.77574 27.7612 7.78724 27.8245 7.79299V9.04677C27.7325 9.02951 27.6405 9.01801 27.5427 9.00651C27.4449 8.995 27.3529 8.98925 27.2609 8.98925C27.0423 8.98925 26.8353 9.03526 26.6397 9.12153C26.4442 9.2078 26.2774 9.34008 26.1336 9.50687C25.9899 9.6794 25.8748 9.88645 25.7886 10.1395C25.7023 10.3926 25.662 10.6801 25.662 11.0079V13.8146H24.3622V7.91952H24.368ZM33.8001 13.8203H32.5233V12.9979H32.5003C32.3392 13.2969 32.1034 13.5327 31.7871 13.711C31.4708 13.8893 31.1487 13.9813 30.8209 13.9813C30.0445 13.9813 29.4809 13.7916 29.1358 13.4062C28.7907 13.0209 28.6182 12.44 28.6182 11.6636V7.91952H29.918V11.5371C29.918 12.0547 30.0157 12.4228 30.217 12.6355C30.4126 12.8483 30.6944 12.9576 31.051 12.9576C31.327 12.9576 31.5513 12.9174 31.7354 12.8311C31.9194 12.7448 32.0689 12.6355 32.1782 12.4918C32.2932 12.3537 32.3737 12.1812 32.4255 11.9857C32.4773 11.7901 32.5003 11.5773 32.5003 11.3473V7.92527H33.8001V13.8203ZM36.0143 11.9281C36.0546 12.3077 36.1983 12.5723 36.4456 12.7276C36.6987 12.8771 36.9978 12.9576 37.3486 12.9576C37.4694 12.9576 37.6074 12.9461 37.7627 12.9289C37.918 12.9116 38.0675 12.8714 38.1998 12.8196C38.3378 12.7678 38.4471 12.6873 38.5391 12.5838C38.6254 12.4803 38.6656 12.348 38.6599 12.1812C38.6541 12.0144 38.5909 11.8764 38.4758 11.7729C38.3608 11.6636 38.217 11.5831 38.0387 11.5141C37.8604 11.4508 37.6592 11.3933 37.4291 11.3473C37.199 11.3013 36.969 11.2495 36.7332 11.1977C36.4916 11.146 36.2558 11.077 36.0315 11.0022C35.8072 10.9274 35.606 10.8239 35.4277 10.6916C35.2494 10.5651 35.1056 10.3983 35.0021 10.197C34.8928 9.99572 34.841 9.74842 34.841 9.44935C34.841 9.12728 34.9216 8.86272 35.0768 8.64418C35.2321 8.42563 35.4334 8.25309 35.6692 8.12081C35.9108 7.98853 36.1753 7.89651 36.4686 7.839C36.762 7.78724 37.0438 7.75848 37.3083 7.75848C37.6131 7.75848 37.9065 7.79299 38.1825 7.85625C38.4586 7.91952 38.7116 8.02304 38.9359 8.17257C39.1602 8.31636 39.3443 8.50615 39.4938 8.7362C39.6433 8.96625 39.7354 9.24806 39.7756 9.57588H38.4183C38.3551 9.26531 38.217 9.05252 37.9927 8.94899C37.7684 8.83972 37.5096 8.78796 37.2221 8.78796C37.13 8.78796 37.0208 8.79371 36.8942 8.81096C36.7677 8.82822 36.6527 8.85697 36.5377 8.89723C36.4284 8.93749 36.3364 9.00075 36.2558 9.08127C36.1811 9.16179 36.1408 9.26531 36.1408 9.39759C36.1408 9.55863 36.1983 9.68515 36.3076 9.78293C36.4169 9.8807 36.5607 9.96121 36.7389 10.0302C36.9172 10.0935 37.1185 10.151 37.3486 10.197C37.5786 10.243 37.8144 10.2948 38.056 10.3465C38.2918 10.3983 38.5218 10.4673 38.7519 10.5421C38.9819 10.6169 39.1832 10.7204 39.3615 10.8527C39.5398 10.9849 39.6836 11.146 39.7929 11.3415C39.9021 11.5371 39.9597 11.7844 39.9597 12.0719C39.9597 12.4228 39.8791 12.7161 39.7181 12.9634C39.5571 13.2049 39.35 13.4062 39.097 13.5558C38.8439 13.7053 38.5563 13.8203 38.2458 13.8893C37.9352 13.9583 37.6246 13.9928 37.3198 13.9928C36.946 13.9928 36.6009 13.9526 36.2846 13.8663C35.9683 13.7801 35.6922 13.6535 35.4622 13.4867C35.2321 13.3142 35.0481 13.1014 34.9158 12.8483C34.7835 12.5953 34.7145 12.2905 34.703 11.9396H36.0143V11.9281ZM40.3047 7.91952H41.2882V6.14813H42.588V7.91952H43.7612V8.89148H42.588V12.0432C42.588 12.1812 42.5937 12.2962 42.6052 12.3997C42.6167 12.4975 42.6455 12.5838 42.6858 12.6528C42.726 12.7218 42.7893 12.7736 42.8755 12.8081C42.9618 12.8426 43.0711 12.8598 43.2206 12.8598C43.3126 12.8598 43.4047 12.8598 43.4967 12.8541C43.5887 12.8483 43.6807 12.8368 43.7727 12.8138V13.8203C43.629 13.8376 43.4852 13.8491 43.3529 13.8663C43.2149 13.8836 43.0768 13.8893 42.9331 13.8893C42.588 13.8893 42.3119 13.8548 42.1049 13.7916C41.8978 13.7283 41.731 13.6305 41.616 13.504C41.4952 13.3775 41.4205 13.2222 41.3745 13.0324C41.3342 12.8426 41.3055 12.624 41.2997 12.3825V8.90298H40.3162V7.91952H40.3047ZM44.6814 7.91952H45.9122V8.71894H45.9352C46.1193 8.37387 46.3723 8.13232 46.7001 7.98278C47.028 7.83325 47.3788 7.75848 47.7641 7.75848C48.23 7.75848 48.6326 7.839 48.9776 8.00579C49.3227 8.16682 49.6103 8.39112 49.8403 8.67868C50.0704 8.96625 50.2372 9.29982 50.3522 9.6794C50.4672 10.059 50.5247 10.4673 50.5247 10.8987C50.5247 11.2955 50.473 11.6808 50.3694 12.0489C50.2659 12.4228 50.1106 12.7506 49.9036 13.0381C49.6965 13.3257 49.432 13.55 49.1099 13.7225C48.7878 13.8951 48.414 13.9813 47.9769 13.9813C47.7871 13.9813 47.5973 13.9641 47.4075 13.9296C47.2177 13.8951 47.0337 13.8376 46.8612 13.7628C46.6886 13.688 46.5218 13.5903 46.3781 13.4695C46.2285 13.3487 46.1078 13.2107 46.0042 13.0554H45.9812V16H44.6814V7.91952ZM49.2249 10.8757C49.2249 10.6111 49.1904 10.3523 49.1214 10.0992C49.0524 9.84619 48.9489 9.62764 48.8108 9.4321C48.6728 9.23656 48.5003 9.08127 48.299 8.96625C48.0919 8.85122 47.8561 8.78796 47.5916 8.78796C47.0452 8.78796 46.6311 8.97775 46.3551 9.35733C46.079 9.73692 45.941 10.243 45.941 10.8757C45.941 11.1747 45.9755 11.4508 46.0502 11.7038C46.125 11.9569 46.2285 12.1754 46.3781 12.3595C46.5218 12.5435 46.6944 12.6873 46.8957 12.7908C47.097 12.9001 47.3328 12.9519 47.5973 12.9519C47.8964 12.9519 48.1437 12.8886 48.3507 12.7678C48.5578 12.6471 48.7246 12.486 48.8568 12.2962C48.9891 12.1007 49.0869 11.8821 49.1444 11.6348C49.1962 11.3875 49.2249 11.1345 49.2249 10.8757ZM51.5197 5.67078H52.8195V6.90155H51.5197V5.67078ZM51.5197 7.91952H52.8195V13.8203H51.5197V7.91952ZM53.9812 5.67078H55.281V13.8203H53.9812V5.67078ZM59.2666 13.9813C58.795 13.9813 58.3752 13.9008 58.0071 13.7455C57.639 13.5903 57.3285 13.3717 57.0696 13.1014C56.8166 12.8253 56.6211 12.4975 56.4888 12.1179C56.3565 11.7384 56.2875 11.3185 56.2875 10.8642C56.2875 10.4156 56.3565 10.0015 56.4888 9.62189C56.6211 9.24231 56.8166 8.91449 57.0696 8.63843C57.3227 8.36237 57.639 8.14957 58.0071 7.99428C58.3752 7.839 58.795 7.75848 59.2666 7.75848C59.7382 7.75848 60.1581 7.839 60.5262 7.99428C60.8942 8.14957 61.2048 8.36812 61.4636 8.63843C61.7167 8.91449 61.9122 9.24231 62.0445 9.62189C62.1768 10.0015 62.2458 10.4156 62.2458 10.8642C62.2458 11.3185 62.1768 11.7384 62.0445 12.1179C61.9122 12.4975 61.7167 12.8253 61.4636 13.1014C61.2106 13.3775 60.8942 13.5903 60.5262 13.7455C60.1581 13.9008 59.7382 13.9813 59.2666 13.9813ZM59.2666 12.9519C59.5542 12.9519 59.8072 12.8886 60.02 12.7678C60.2328 12.6471 60.4054 12.486 60.5434 12.2905C60.6814 12.0949 60.7792 11.8706 60.8482 11.6233C60.9115 11.376 60.946 11.123 60.946 10.8642C60.946 10.6111 60.9115 10.3638 60.8482 10.1107C60.785 9.85769 60.6814 9.63914 60.5434 9.4436C60.4054 9.24806 60.2328 9.09278 60.02 8.972C59.8072 8.85122 59.5542 8.78796 59.2666 8.78796C58.9791 8.78796 58.726 8.85122 58.5132 8.972C58.3004 9.09278 58.1279 9.25381 57.9898 9.4436C57.8518 9.63914 57.754 9.85769 57.685 10.1107C57.6218 10.3638 57.5873 10.6111 57.5873 10.8642C57.5873 11.123 57.6218 11.376 57.685 11.6233C57.7483 11.8706 57.8518 12.0949 57.9898 12.2905C58.1279 12.486 58.3004 12.6471 58.5132 12.7678C58.726 12.8944 58.9791 12.9519 59.2666 12.9519ZM62.6254 7.91952H63.6088V6.14813H64.9086V7.91952H66.0819V8.89148H64.9086V12.0432C64.9086 12.1812 64.9144 12.2962 64.9259 12.3997C64.9374 12.4975 64.9661 12.5838 65.0064 12.6528C65.0466 12.7218 65.1099 12.7736 65.1962 12.8081C65.2824 12.8426 65.3917 12.8598 65.5413 12.8598C65.6333 12.8598 65.7253 12.8598 65.8173 12.8541C65.9093 12.8483 66.0014 12.8368 66.0934 12.8138V13.8203C65.9496 13.8376 65.8058 13.8491 65.6735 13.8663C65.5355 13.8836 65.3975 13.8893 65.2537 13.8893C64.9086 13.8893 64.6326 13.8548 64.4255 13.7916C64.2185 13.7283 64.0517 13.6305 63.9367 13.504C63.8159 13.3775 63.7411 13.2222 63.6951 13.0324C63.6548 12.8426 63.6261 12.624 63.6203 12.3825V8.90298H62.6369V7.91952H62.6254Z" fill="white" style="fill:white;fill-opacity:1;"/>
<path d="M16.5348 5.67074H10.5765L8.7361 0L6.88994 5.67074L0.931641 5.66499L5.75695 9.17326L3.91079 14.8382L8.7361 11.3357L13.5557 14.8382L11.7152 9.17326L16.5348 5.67074Z" fill="#00B67A" style="fill:#00B67A;fill:color(display-p3 0.0000 0.7137 0.4784);fill-opacity:1;"/>
<path d="M12.1293 10.4558L11.7152 9.17328L8.73608 11.3358L12.1293 10.4558Z" fill="#005128" style="fill:#005128;fill:color(display-p3 0.0000 0.3176 0.1569);fill-opacity:1;"/>
</g>
<defs>
<clipPath id="clip0_46_15591">
<rect width="65.1503" height="16" fill="white" style="fill:white;fill-opacity:1;" transform="translate(0.931641)"/>
</clipPath>
</defs>
</svg>
