<svg width="99" height="24" viewBox="0 0 99 24" fill="none" xmlns="http://www.w3.org/2000/svg">
<g clip-path="url(#clip0_40_2280)">
<path d="M26.1074 8.50635H36.0025V10.3525H32.1118V20.7306H29.9723V10.3525H26.0988V8.50635H26.1074ZM35.5798 11.8795H37.4087V13.5876H37.4432C37.5036 13.346 37.6157 13.1131 37.7796 12.8888C37.9435 12.6645 38.1419 12.4488 38.3749 12.2677C38.6078 12.0779 38.8666 11.9312 39.1513 11.8104C39.436 11.6983 39.7293 11.6379 40.0226 11.6379C40.2469 11.6379 40.4108 11.6465 40.4971 11.6552C40.5834 11.6638 40.6696 11.681 40.7645 11.6897V13.5703C40.6265 13.5444 40.4885 13.5272 40.3418 13.5099C40.1952 13.4927 40.0571 13.4841 39.9191 13.4841C39.5913 13.4841 39.2807 13.5531 38.9874 13.6825C38.6941 13.8119 38.4439 14.0103 38.2282 14.2605C38.0125 14.5193 37.84 14.8299 37.7106 15.2094C37.5812 15.589 37.5208 16.0204 37.5208 16.5121V20.722H35.5711V11.8795H35.5798ZM49.7279 20.7306H47.8127V19.497H47.7782C47.5366 19.9456 47.1829 20.2993 46.7084 20.5667C46.234 20.8342 45.7509 20.9722 45.2591 20.9722C44.0945 20.9722 43.2491 20.6875 42.7315 20.1095C42.2138 19.5315 41.955 18.6602 41.955 17.4956V11.8795H43.9047V17.3058C43.9047 18.0822 44.0514 18.6343 44.3533 18.9535C44.6466 19.2727 45.0693 19.4366 45.6042 19.4366C46.0183 19.4366 46.3547 19.3762 46.6308 19.2468C46.9069 19.1174 47.1312 18.9535 47.2951 18.7378C47.4676 18.5308 47.5884 18.272 47.666 17.9787C47.7437 17.6854 47.7782 17.3662 47.7782 17.0211V11.8881H49.7279V20.7306ZM53.0492 17.8924C53.1096 18.4618 53.3253 18.8586 53.6962 19.0915C54.0758 19.3158 54.5244 19.4366 55.0506 19.4366C55.2318 19.4366 55.4389 19.4194 55.6718 19.3935C55.9047 19.3676 56.129 19.3072 56.3274 19.2296C56.5345 19.1519 56.6984 19.0312 56.8364 18.8759C56.9658 18.7206 57.0262 18.5222 57.0176 18.272C57.009 18.0218 56.9141 17.8148 56.7415 17.6595C56.569 17.4956 56.3533 17.3748 56.0859 17.2713C55.8184 17.1764 55.5165 17.0901 55.1714 17.0211C54.8263 16.9521 54.4813 16.8744 54.1276 16.7968C53.7652 16.7191 53.4115 16.6156 53.0751 16.5035C52.7386 16.3913 52.4367 16.236 52.1693 16.0376C51.9018 15.8478 51.6862 15.5976 51.5309 15.2957C51.367 14.9938 51.2893 14.6228 51.2893 14.1742C51.2893 13.6911 51.4101 13.2943 51.643 12.9664C51.876 12.6386 52.1779 12.3798 52.5316 12.1814C52.8939 11.983 53.2908 11.845 53.7307 11.7587C54.1707 11.681 54.5934 11.6379 54.9903 11.6379C55.4475 11.6379 55.8875 11.6897 56.3015 11.7846C56.7156 11.8795 57.0952 12.0347 57.4317 12.259C57.7681 12.4747 58.0442 12.7594 58.2685 13.1045C58.4928 13.4496 58.6308 13.8723 58.6912 14.364H56.6552C56.5604 13.8982 56.3533 13.579 56.0169 13.4237C55.6804 13.2598 55.2922 13.1821 54.8609 13.1821C54.7228 13.1821 54.5589 13.1907 54.3691 13.2166C54.1793 13.2425 54.0068 13.2856 53.8343 13.346C53.6703 13.4064 53.5323 13.5013 53.4115 13.6221C53.2994 13.7429 53.239 13.8982 53.239 14.0966C53.239 14.3381 53.3253 14.5279 53.4892 14.6746C53.6531 14.8212 53.8688 14.942 54.1362 15.0455C54.4036 15.1404 54.7056 15.2267 55.0506 15.2957C55.3957 15.3647 55.7494 15.4424 56.1118 15.52C56.4655 15.5976 56.8105 15.7012 57.1556 15.8133C57.5007 15.9255 57.8026 16.0808 58.0701 16.2792C58.3375 16.4776 58.5532 16.7191 58.7171 17.0125C58.881 17.3058 58.9673 17.6767 58.9673 18.1081C58.9673 18.6343 58.8465 19.0743 58.6049 19.4452C58.3634 19.8076 58.0528 20.1095 57.6732 20.3338C57.2936 20.5581 56.8623 20.7306 56.3964 20.8342C55.9306 20.9377 55.4647 20.9895 55.0075 20.9895C54.4468 20.9895 53.9292 20.9291 53.4547 20.7997C52.9802 20.6703 52.5661 20.4805 52.221 20.2303C51.876 19.9715 51.5999 19.6523 51.4015 19.2727C51.2031 18.8931 51.0995 18.4359 51.0823 17.9097H53.0492V17.8924ZM59.4849 11.8795H60.9601V9.22238H62.9097V11.8795H64.6696V13.3374H62.9097V18.0649C62.9097 18.272 62.9184 18.4445 62.9356 18.5998C62.9529 18.7465 62.996 18.8759 63.0564 18.9794C63.1168 19.0829 63.2117 19.1606 63.3411 19.2123C63.4705 19.2641 63.6344 19.29 63.8587 19.29C63.9967 19.29 64.1348 19.29 64.2728 19.2813C64.4108 19.2727 64.5489 19.2554 64.6869 19.2209V20.7306C64.4712 20.7565 64.2555 20.7738 64.0571 20.7997C63.8501 20.8255 63.643 20.8342 63.4274 20.8342C62.9097 20.8342 62.4957 20.7824 62.1851 20.6875C61.8745 20.5926 61.6243 20.446 61.4518 20.2562C61.2706 20.0664 61.1585 19.8335 61.0895 19.5488C61.0291 19.2641 60.9859 18.9363 60.9773 18.5739V13.3547H59.5021V11.8795H59.4849ZM66.0499 11.8795H67.8961V13.0786H67.9306C68.2067 12.561 68.5862 12.1987 69.078 11.9744C69.5697 11.7501 70.0959 11.6379 70.6739 11.6379C71.3727 11.6379 71.9766 11.7587 72.4942 12.0089C73.0118 12.2504 73.4432 12.5869 73.7883 13.0182C74.1333 13.4496 74.3835 13.9499 74.556 14.5193C74.7286 15.0887 74.8148 15.7012 74.8148 16.3482C74.8148 16.9434 74.7372 17.5214 74.5819 18.0736C74.4266 18.6343 74.1937 19.126 73.8831 19.5574C73.5726 19.9887 73.1757 20.3252 72.6926 20.584C72.2095 20.8428 71.6488 20.9722 70.9931 20.9722C70.7085 20.9722 70.4238 20.9463 70.1391 20.8946C69.8544 20.8428 69.5783 20.7565 69.3195 20.6444C69.0607 20.5322 68.8105 20.3856 68.5949 20.2044C68.3706 20.0232 68.1894 19.8162 68.0341 19.5833H67.9996V24.0002H66.0499V11.8795ZM72.8652 16.3137C72.8652 15.9168 72.8134 15.5286 72.7099 15.1491C72.6064 14.7695 72.4511 14.4416 72.244 14.1483C72.037 13.855 71.7782 13.6221 71.4762 13.4496C71.1657 13.277 70.812 13.1821 70.4151 13.1821C69.5956 13.1821 68.9744 13.4668 68.5604 14.0362C68.1463 14.6056 67.9392 15.3647 67.9392 16.3137C67.9392 16.7623 67.991 17.1764 68.1031 17.556C68.2153 17.9355 68.3706 18.2634 68.5949 18.5394C68.8105 18.8155 69.0693 19.0311 69.3713 19.1864C69.6732 19.3503 70.0269 19.428 70.4238 19.428C70.8724 19.428 71.2433 19.3331 71.5539 19.1519C71.8645 18.9708 72.1146 18.7292 72.313 18.4445C72.5115 18.1512 72.6581 17.8234 72.7444 17.4524C72.822 17.0815 72.8652 16.7019 72.8652 16.3137ZM76.3073 8.50635H78.257V10.3525H76.3073V8.50635ZM76.3073 11.8795H78.257V20.7306H76.3073V11.8795ZM79.9996 8.50635H81.9493V20.7306H79.9996V8.50635ZM87.9277 20.9722C87.2203 20.9722 86.5906 20.8514 86.0384 20.6185C85.4863 20.3856 85.0205 20.0578 84.6322 19.6523C84.2527 19.2382 83.9594 18.7465 83.7609 18.1771C83.5625 17.6077 83.459 16.978 83.459 16.2964C83.459 15.6235 83.5625 15.0024 83.7609 14.433C83.9594 13.8636 84.2527 13.3719 84.6322 12.9578C85.0118 12.5437 85.4863 12.2245 86.0384 11.9916C86.5906 11.7587 87.2203 11.6379 87.9277 11.6379C88.6351 11.6379 89.2649 11.7587 89.817 11.9916C90.3691 12.2245 90.835 12.5524 91.2232 12.9578C91.6028 13.3719 91.8961 13.8636 92.0945 14.433C92.2929 15.0024 92.3964 15.6235 92.3964 16.2964C92.3964 16.978 92.2929 17.6077 92.0945 18.1771C91.8961 18.7465 91.6028 19.2382 91.2232 19.6523C90.8436 20.0664 90.3691 20.3856 89.817 20.6185C89.2649 20.8514 88.6351 20.9722 87.9277 20.9722ZM87.9277 19.428C88.3591 19.428 88.7386 19.3331 89.0578 19.1519C89.377 18.9708 89.6358 18.7292 89.8429 18.4359C90.0499 18.1426 90.1966 17.8061 90.3001 17.4352C90.395 17.0642 90.4468 16.6846 90.4468 16.2964C90.4468 15.9168 90.395 15.5459 90.3001 15.1663C90.2052 14.7867 90.0499 14.4589 89.8429 14.1656C89.6358 13.8723 89.377 13.6393 89.0578 13.4582C88.7386 13.277 88.3591 13.1821 87.9277 13.1821C87.4964 13.1821 87.1168 13.277 86.7976 13.4582C86.4784 13.6393 86.2196 13.8809 86.0125 14.1656C85.8055 14.4589 85.6588 14.7867 85.5553 15.1663C85.4604 15.5459 85.4087 15.9168 85.4087 16.2964C85.4087 16.6846 85.4604 17.0642 85.5553 17.4352C85.6502 17.8061 85.8055 18.1426 86.0125 18.4359C86.2196 18.7292 86.4784 18.9708 86.7976 19.1519C87.1168 19.3417 87.4964 19.428 87.9277 19.428ZM92.9658 11.8795H94.441V9.22238H96.3907V11.8795H98.1506V13.3374H96.3907V18.0649C96.3907 18.272 96.3993 18.4445 96.4166 18.5998C96.4338 18.7465 96.477 18.8759 96.5374 18.9794C96.5977 19.0829 96.6926 19.1606 96.822 19.2123C96.9514 19.2641 97.1154 19.29 97.3397 19.29C97.4777 19.29 97.6157 19.29 97.7537 19.2813C97.8918 19.2727 98.0298 19.2554 98.1678 19.2209V20.7306C97.9522 20.7565 97.7365 20.7738 97.5381 20.7997C97.331 20.8255 97.124 20.8342 96.9083 20.8342C96.3907 20.8342 95.9766 20.7824 95.666 20.6875C95.3555 20.5926 95.1053 20.446 94.9328 20.2562C94.7516 20.0664 94.6394 19.8335 94.5704 19.5488C94.51 19.2641 94.4669 18.9363 94.4583 18.5739V13.3547H92.9831V11.8795H92.9658Z" fill="#191919" style="fill:#191919;fill:color(display-p3 0.0980 0.0980 0.0980);fill-opacity:1;"/>
<path d="M23.8299 8.50611H14.8925L12.1319 0L9.36263 8.50611L0.425171 8.49748L7.66313 13.7599L4.8939 22.2574L12.1319 17.0036L19.3612 22.2574L16.6006 13.7599L23.8299 8.50611Z" fill="#00B67A" style="fill:#00B67A;fill:color(display-p3 0.0000 0.7137 0.4784);fill-opacity:1;"/>
<path d="M17.2218 15.6836L16.6006 13.7598L12.1319 17.0035L17.2218 15.6836Z" fill="#005128" style="fill:#005128;fill:color(display-p3 0.0000 0.3176 0.1569);fill-opacity:1;"/>
</g>
<defs>
<clipPath id="clip0_40_2280">
<rect width="97.7254" height="24" fill="white" style="fill:white;fill-opacity:1;" transform="translate(0.425171)"/>
</clipPath>
</defs>
</svg>
