<svg width="67" height="16" viewBox="0 0 67 16" fill="none" xmlns="http://www.w3.org/2000/svg">
<g clip-path="url(#clip0_40_1738)">
<path d="M18.0532 5.67078H24.6499V6.90155H22.056V13.8203H20.6297V6.90155H18.0474V5.67078H18.0532ZM24.3681 7.91952H25.5873V9.05827H25.6103C25.6506 8.89723 25.7254 8.74195 25.8346 8.59242C25.9439 8.44288 26.0762 8.2991 26.2315 8.17832C26.3867 8.0518 26.5593 7.95403 26.7491 7.87351C26.9389 7.79874 27.1344 7.75848 27.33 7.75848C27.4795 7.75848 27.5888 7.76423 27.6463 7.76999C27.7038 7.77574 27.7613 7.78724 27.8246 7.79299V9.04677C27.7325 9.02951 27.6405 9.01801 27.5428 9.00651C27.445 8.995 27.353 8.98925 27.2609 8.98925C27.0424 8.98925 26.8353 9.03526 26.6398 9.12153C26.4443 9.2078 26.2775 9.34008 26.1337 9.50687C25.9899 9.6794 25.8749 9.88645 25.7886 10.1395C25.7023 10.3926 25.6621 10.6801 25.6621 11.0079V13.8146H24.3623V7.91952H24.3681ZM33.8001 13.8203H32.5233V12.9979H32.5003C32.3393 13.2969 32.1035 13.5327 31.7872 13.711C31.4709 13.8893 31.1488 13.9813 30.821 13.9813C30.0445 13.9813 29.4809 13.7916 29.1358 13.4062C28.7908 13.0209 28.6182 12.44 28.6182 11.6636V7.91952H29.918V11.5371C29.918 12.0547 30.0158 12.4228 30.2171 12.6356C30.4126 12.8483 30.6944 12.9576 31.051 12.9576C31.3271 12.9576 31.5514 12.9174 31.7354 12.8311C31.9195 12.7448 32.069 12.6356 32.1783 12.4918C32.2933 12.3537 32.3738 12.1812 32.4256 11.9857C32.4773 11.7901 32.5003 11.5773 32.5003 11.3473V7.92527H33.8001V13.8203ZM36.0144 11.9281C36.0546 12.3077 36.1984 12.5723 36.4457 12.7276C36.6988 12.8771 36.9978 12.9576 37.3486 12.9576C37.4694 12.9576 37.6075 12.9461 37.7627 12.9289C37.918 12.9116 38.0676 12.8714 38.1998 12.8196C38.3379 12.7678 38.4471 12.6873 38.5392 12.5838C38.6254 12.4803 38.6657 12.348 38.6599 12.1812C38.6542 12.0144 38.5909 11.8764 38.4759 11.7729C38.3609 11.6636 38.2171 11.5831 38.0388 11.5141C37.8605 11.4508 37.6592 11.3933 37.4292 11.3473C37.1991 11.3013 36.9691 11.2495 36.7333 11.1977C36.4917 11.146 36.2559 11.077 36.0316 11.0022C35.8073 10.9274 35.606 10.8239 35.4277 10.6916C35.2494 10.5651 35.1057 10.3983 35.0021 10.197C34.8929 9.99572 34.8411 9.74842 34.8411 9.44935C34.8411 9.12728 34.9216 8.86272 35.0769 8.64418C35.2322 8.42563 35.4335 8.25309 35.6693 8.12081C35.9108 7.98853 36.1754 7.89651 36.4687 7.839C36.762 7.78724 37.0438 7.75848 37.3084 7.75848C37.6132 7.75848 37.9065 7.79299 38.1826 7.85625C38.4586 7.91952 38.7117 8.02304 38.936 8.17257C39.1603 8.31636 39.3443 8.50615 39.4939 8.7362C39.6434 8.96625 39.7354 9.24806 39.7757 9.57588H38.4184C38.3551 9.26531 38.2171 9.05252 37.9928 8.94899C37.7685 8.83972 37.5097 8.78796 37.2221 8.78796C37.1301 8.78796 37.0208 8.79371 36.8943 8.81096C36.7678 8.82822 36.6527 8.85697 36.5377 8.89723C36.4284 8.93749 36.3364 9.00075 36.2559 9.08127C36.1811 9.16179 36.1409 9.26531 36.1409 9.39759C36.1409 9.55863 36.1984 9.68515 36.3077 9.78293C36.4169 9.8807 36.5607 9.96121 36.739 10.0302C36.9173 10.0935 37.1186 10.151 37.3486 10.197C37.5787 10.243 37.8145 10.2948 38.056 10.3465C38.2919 10.3983 38.5219 10.4673 38.752 10.5421C38.982 10.6169 39.1833 10.7204 39.3616 10.8527C39.5399 10.9849 39.6837 11.146 39.7929 11.3415C39.9022 11.5371 39.9597 11.7844 39.9597 12.0719C39.9597 12.4228 39.8792 12.7161 39.7182 12.9634C39.5571 13.2049 39.3501 13.4062 39.097 13.5558C38.844 13.7053 38.5564 13.8203 38.2458 13.8893C37.9353 13.9583 37.6247 13.9928 37.3199 13.9928C36.9461 13.9928 36.601 13.9526 36.2847 13.8663C35.9683 13.7801 35.6923 13.6535 35.4622 13.4867C35.2322 13.3142 35.0481 13.1014 34.9159 12.8483C34.7836 12.5953 34.7146 12.2905 34.7031 11.9396H36.0144V11.9281ZM40.3048 7.91952H41.2883V6.14813H42.588V7.91952H43.7613V8.89148H42.588V12.0432C42.588 12.1812 42.5938 12.2962 42.6053 12.3997C42.6168 12.4975 42.6456 12.5838 42.6858 12.6528C42.7261 12.7218 42.7893 12.7736 42.8756 12.8081C42.9619 12.8426 43.0711 12.8598 43.2207 12.8598C43.3127 12.8598 43.4047 12.8598 43.4967 12.8541C43.5888 12.8483 43.6808 12.8368 43.7728 12.8138V13.8203C43.629 13.8376 43.4852 13.8491 43.353 13.8663C43.2149 13.8836 43.0769 13.8893 42.9331 13.8893C42.588 13.8893 42.312 13.8548 42.1049 13.7916C41.8979 13.7283 41.7311 13.6305 41.6161 13.504C41.4953 13.3775 41.4205 13.2222 41.3745 13.0324C41.3343 12.8426 41.3055 12.624 41.2998 12.3825V8.90298H40.3163V7.91952H40.3048ZM44.6815 7.91952H45.9123V8.71894H45.9353C46.1193 8.37387 46.3724 8.13232 46.7002 7.98278C47.028 7.83325 47.3788 7.75848 47.7642 7.75848C48.23 7.75848 48.6326 7.839 48.9777 8.00579C49.3228 8.16682 49.6103 8.39112 49.8404 8.67868C50.0704 8.96625 50.2372 9.29982 50.3522 9.6794C50.4673 10.059 50.5248 10.4673 50.5248 10.8987C50.5248 11.2955 50.473 11.6808 50.3695 12.0489C50.266 12.4228 50.1107 12.7506 49.9036 13.0381C49.6966 13.3257 49.432 13.55 49.11 13.7225C48.7879 13.8951 48.4141 13.9813 47.977 13.9813C47.7872 13.9813 47.5974 13.9641 47.4076 13.9296C47.2178 13.8951 47.0338 13.8376 46.8612 13.7628C46.6887 13.688 46.5219 13.5903 46.3781 13.4695C46.2286 13.3487 46.1078 13.2107 46.0043 13.0554H45.9813V16H44.6815V7.91952ZM49.225 10.8757C49.225 10.6111 49.1905 10.3523 49.1215 10.0992C49.0525 9.84619 48.9489 9.62764 48.8109 9.4321C48.6729 9.23656 48.5003 9.08127 48.299 8.96625C48.092 8.85122 47.8562 8.78796 47.5916 8.78796C47.0453 8.78796 46.6312 8.97775 46.3551 9.35733C46.0791 9.73692 45.941 10.243 45.941 10.8757C45.941 11.1747 45.9755 11.4508 46.0503 11.7038C46.1251 11.9569 46.2286 12.1754 46.3781 12.3595C46.5219 12.5435 46.6944 12.6873 46.8957 12.7908C47.097 12.9001 47.3328 12.9519 47.5974 12.9519C47.8965 12.9519 48.1438 12.8886 48.3508 12.7678C48.5578 12.6471 48.7246 12.486 48.8569 12.2962C48.9892 12.1007 49.087 11.8821 49.1445 11.6348C49.1962 11.3875 49.225 11.1345 49.225 10.8757ZM51.5197 5.67078H52.8195V6.90155H51.5197V5.67078ZM51.5197 7.91952H52.8195V13.8203H51.5197V7.91952ZM53.9813 5.67078H55.2811V13.8203H53.9813V5.67078ZM59.2667 13.9813C58.7951 13.9813 58.3752 13.9008 58.0072 13.7455C57.6391 13.5903 57.3285 13.3717 57.0697 13.1014C56.8167 12.8253 56.6211 12.4975 56.4888 12.1179C56.3566 11.7384 56.2875 11.3185 56.2875 10.8642C56.2875 10.4156 56.3566 10.0015 56.4888 9.62189C56.6211 9.24231 56.8167 8.91449 57.0697 8.63843C57.3228 8.36237 57.6391 8.14957 58.0072 7.99428C58.3752 7.839 58.7951 7.75848 59.2667 7.75848C59.7383 7.75848 60.1581 7.839 60.5262 7.99428C60.8943 8.14957 61.2049 8.36812 61.4637 8.63843C61.7167 8.91449 61.9123 9.24231 62.0445 9.62189C62.1768 10.0015 62.2458 10.4156 62.2458 10.8642C62.2458 11.3185 62.1768 11.7384 62.0445 12.1179C61.9123 12.4975 61.7167 12.8253 61.4637 13.1014C61.2106 13.3775 60.8943 13.5903 60.5262 13.7455C60.1581 13.9008 59.7383 13.9813 59.2667 13.9813ZM59.2667 12.9519C59.5542 12.9519 59.8073 12.8886 60.0201 12.7678C60.2329 12.6471 60.4054 12.486 60.5435 12.2905C60.6815 12.0949 60.7793 11.8706 60.8483 11.6233C60.9116 11.376 60.9461 11.123 60.9461 10.8642C60.9461 10.6111 60.9116 10.3638 60.8483 10.1107C60.785 9.85769 60.6815 9.63914 60.5435 9.4436C60.4054 9.24806 60.2329 9.09278 60.0201 8.972C59.8073 8.85122 59.5542 8.78796 59.2667 8.78796C58.9791 8.78796 58.7261 8.85122 58.5133 8.972C58.3005 9.09278 58.1279 9.25381 57.9899 9.4436C57.8519 9.63914 57.7541 9.85769 57.6851 10.1107C57.6218 10.3638 57.5873 10.6111 57.5873 10.8642C57.5873 11.123 57.6218 11.376 57.6851 11.6233C57.7484 11.8706 57.8519 12.0949 57.9899 12.2905C58.1279 12.486 58.3005 12.6471 58.5133 12.7678C58.7261 12.8944 58.9791 12.9519 59.2667 12.9519ZM62.6254 7.91952H63.6089V6.14813H64.9087V7.91952H66.0819V8.89148H64.9087V12.0432C64.9087 12.1812 64.9144 12.2962 64.9259 12.3997C64.9374 12.4975 64.9662 12.5838 65.0064 12.6528C65.0467 12.7218 65.11 12.7736 65.1962 12.8081C65.2825 12.8426 65.3918 12.8598 65.5413 12.8598C65.6333 12.8598 65.7253 12.8598 65.8174 12.8541C65.9094 12.8483 66.0014 12.8368 66.0934 12.8138V13.8203C65.9496 13.8376 65.8059 13.8491 65.6736 13.8663C65.5356 13.8836 65.3975 13.8893 65.2537 13.8893C64.9087 13.8893 64.6326 13.8548 64.4256 13.7916C64.2185 13.7283 64.0517 13.6305 63.9367 13.504C63.8159 13.3775 63.7412 13.2222 63.6952 13.0324C63.6549 12.8426 63.6261 12.624 63.6204 12.3825V8.90298H62.6369V7.91952H62.6254Z" fill="white" style="fill:white;fill-opacity:1;"/>
<path d="M16.5349 5.67074H10.5766L8.73622 0L6.89007 5.67074L0.931763 5.66499L5.75707 9.17326L3.91091 14.8382L8.73622 11.3357L13.5558 14.8382L11.7154 9.17326L16.5349 5.67074Z" fill="#00B67A" style="fill:#00B67A;fill:color(display-p3 0.0000 0.7137 0.4784);fill-opacity:1;"/>
<path d="M12.1294 10.4559L11.7153 9.17334L8.73615 11.3358L12.1294 10.4559Z" fill="#005128" style="fill:#005128;fill:color(display-p3 0.0000 0.3176 0.1569);fill-opacity:1;"/>
</g>
<defs>
<clipPath id="clip0_40_1738">
<rect width="65.1503" height="16" fill="white" style="fill:white;fill-opacity:1;" transform="translate(0.931763)"/>
</clipPath>
</defs>
</svg>
