<svg width="172" height="32" viewBox="0 0 172 32" fill="none" xmlns="http://www.w3.org/2000/svg">
<g clip-path="url(#clip0_40_2274)">
<path d="M170.926 0.508301V31.4917H139.942V0.508301H170.926ZM136.277 0.508301V31.4917H105.294V0.508301H136.277ZM101.629 0.508301V31.4917H70.6454V0.508301H101.629ZM66.9804 0.508301V31.4917H35.998V0.508301H66.9804ZM32.3329 0.508301V31.4917H1.34955V0.508301H32.3329Z" fill="#00B67A" stroke="black" style="fill:#00B67A;fill:color(display-p3 0.0000 0.7137 0.4784);fill-opacity:1;stroke:black;stroke-opacity:1;"/>
<path d="M16.841 21.5638L21.7051 20.3311L23.7373 26.5945L16.841 21.5638ZM28.035 13.4681H19.4729L16.841 5.40576L14.2091 13.4681H5.64697L12.5766 18.4655L9.94468 26.5278L16.8743 21.5305L21.1387 18.4655L28.035 13.4681ZM51.4892 21.5638L56.3533 20.3311L58.3855 26.5945L51.4892 21.5638ZM62.6832 13.4681H54.1211L51.4892 5.40576L48.8573 13.4681H40.2952L47.2248 18.4655L44.5929 26.5278L51.5225 21.5305L55.7869 18.4655L62.6832 13.4681ZM86.1374 21.5638L91.0014 20.3311L93.0337 26.5945L86.1374 21.5638ZM97.3314 13.4681H88.7693L86.1374 5.40576L83.5054 13.4681H74.9433L81.873 18.4655L79.2411 26.5278L86.1707 21.5305L90.4351 18.4655L97.3314 13.4681ZM120.786 21.5638L125.65 20.3311L127.682 26.5945L120.786 21.5638ZM131.98 13.4681H123.417L120.786 5.40576L118.154 13.4681H109.592L116.521 18.4655L113.889 26.5278L120.819 21.5305L125.083 18.4655L131.98 13.4681ZM155.434 21.5638L160.298 20.3311L162.33 26.5945L155.434 21.5638ZM166.628 13.4681H158.066L155.434 5.40576L152.802 13.4681H144.24L151.169 18.4655L148.537 26.5278L155.467 21.5305L159.731 18.4655L166.628 13.4681Z" fill="white" style="fill:white;fill-opacity:1;"/>
</g>
<defs>
<clipPath id="clip0_40_2274">
<rect width="170.576" height="32" fill="white" style="fill:white;fill-opacity:1;" transform="translate(0.849487)"/>
</clipPath>
</defs>
</svg>
