<svg width="32" height="32" viewBox="0 0 32 32" fill="none" xmlns="http://www.w3.org/2000/svg">
<path fill-rule="evenodd" clip-rule="evenodd" d="M14.3092 2.36666C14.7572 1.91866 15.3652 1.66666 15.9999 1.66666C16.6346 1.66666 17.2426 1.91866 17.6906 2.36666L19.6172 4.29332C19.7052 4.38132 19.8306 4.42266 19.9546 4.40266L22.6452 3.97732C23.2719 3.87732 23.9119 4.03199 24.4252 4.40399C24.9372 4.77732 25.2812 5.33866 25.3812 5.96399L25.8066 8.65466C25.8266 8.77866 25.9039 8.88532 26.0159 8.94266L28.4426 10.1787C29.0079 10.4667 29.4359 10.968 29.6319 11.5707C29.8279 12.1733 29.7759 12.8307 29.4879 13.3947L28.2519 15.8227C28.1946 15.9347 28.1946 16.0653 28.2519 16.1773L29.4879 18.6053C29.7759 19.1693 29.8279 19.8267 29.6319 20.4293C29.4359 21.032 29.0079 21.5333 28.4426 21.8213L26.0159 23.0573C25.9039 23.1147 25.8266 23.2213 25.8066 23.3453L25.3812 26.036C25.2812 26.6613 24.9372 27.2227 24.4252 27.596C23.9119 27.968 23.2719 28.1227 22.6452 28.0227L19.9546 27.5973C19.8306 27.5773 19.7052 27.6187 19.6172 27.7067L17.6906 29.6333C17.2426 30.0813 16.6346 30.3333 15.9999 30.3333C15.3652 30.3333 14.7572 30.0813 14.3092 29.6333L12.3826 27.7067C12.2946 27.6187 12.1692 27.5773 12.0452 27.5973L9.35457 28.0227C8.72791 28.1227 8.08791 27.968 7.57457 27.596C7.06257 27.2227 6.71857 26.6613 6.61857 26.036L6.19324 23.3453C6.17324 23.2213 6.09591 23.1147 5.98391 23.0573L3.55724 21.8213C2.99191 21.5333 2.56391 21.032 2.36791 20.4293C2.17191 19.8267 2.22391 19.1693 2.51191 18.6053L3.74791 16.1773C3.80524 16.0653 3.80524 15.9347 3.74791 15.8227L2.51191 13.3947C2.22391 12.8307 2.17191 12.1733 2.36791 11.5707C2.56391 10.968 2.99191 10.4667 3.55724 10.1787L5.98391 8.94266C6.09591 8.88532 6.17324 8.77866 6.19324 8.65466L6.61857 5.96399C6.71857 5.33866 7.06257 4.77732 7.57457 4.40399C8.08791 4.03199 8.72791 3.87732 9.35457 3.97732L12.0452 4.40266C12.1692 4.42266 12.2946 4.38132 12.3826 4.29332L14.3092 2.36666Z" fill="#1D79E9" style="fill:#1D79E9;fill:color(display-p3 0.1137 0.4730 0.9122);fill-opacity:1;"/>
<path d="M13.7372 19.8187L10.6265 16.7067C10.2358 16.3173 10.2358 15.6827 10.6265 15.2933C11.0158 14.9027 11.6505 14.9027 12.0398 15.2933L14.4438 17.6973L19.9598 12.1813C20.3492 11.792 20.9838 11.792 21.3732 12.1813C21.7638 12.572 21.7638 13.2053 21.3732 13.596L15.1518 19.8187C14.7612 20.2093 14.1278 20.2093 13.7372 19.8187Z" fill="white" style="fill:white;fill-opacity:1;"/>
</svg>
