<svg width="64" height="57" viewBox="0 0 64 57" fill="none" xmlns="http://www.w3.org/2000/svg">
<g clip-path="url(#clip0_40_2607)">
<path d="M34.3226 26.2704C34.3226 24.8829 35.4513 23.7543 36.8387 23.7543C38.2262 23.7543 39.3548 24.8829 39.3548 26.2704C39.3548 27.6578 38.2262 28.7865 36.8387 28.7865C35.4513 28.7865 34.3226 27.6578 34.3226 26.2704ZM20.3871 17.798V16.9801C20.3871 16.5525 20.7337 16.2059 21.1613 16.2059H45.1613C45.5888 16.2059 45.9355 16.5525 45.9355 16.9801V35.5607C45.9355 35.9883 45.5888 36.3349 45.1613 36.3349H21.1613C20.7337 36.3349 20.3871 35.9883 20.3871 35.5607V34.7428C20.3871 34.3393 20.7142 34.0123 21.1175 34.0123C22.1369 34.0123 22.7962 33.1769 22.7003 32.291C22.6145 31.499 21.9142 30.9156 21.1175 30.9156C20.7147 30.9156 20.3871 30.589 20.3871 30.1851V22.3558C20.3871 21.9523 20.7142 21.6253 21.1175 21.6253C22.1005 21.6253 22.7476 20.8477 22.7078 20.0021C22.6686 19.1693 21.9513 18.5286 21.1175 18.5286C20.7142 18.5285 20.3871 18.2014 20.3871 17.798ZM31.2258 26.2704C31.2258 29.3653 33.7438 31.8833 36.8387 31.8833C39.9336 31.8833 42.4516 29.3653 42.4516 26.2704C42.4516 23.1755 39.9336 20.6575 36.8387 20.6575C33.7438 20.6575 31.2258 23.1755 31.2258 26.2704ZM56 10.7865V41.7543C56 44.1852 54.1235 46.1865 51.7419 46.383V49.6897C51.7419 50.5452 51.049 51.2381 50.1935 51.2381H42.4516C41.5961 51.2381 40.9032 50.5452 40.9032 49.6897V46.3994H23.0968V49.6897C23.0968 50.5452 22.4039 51.2381 21.5484 51.2381H13.8065C12.951 51.2381 12.2581 50.5452 12.2581 49.6897V46.383C9.87645 46.1865 8 44.1852 8 41.7543V10.7865C8 8.22491 10.0835 6.14136 12.6452 6.14136H51.3548C53.9165 6.14136 56 8.22491 56 10.7865ZM49.0323 14.6575C49.0323 13.8023 48.3391 13.1091 47.4839 13.1091H18.8387C17.9835 13.1091 17.2903 13.8023 17.2903 14.6575V17.798C17.2903 18.2015 16.9632 18.5285 16.5599 18.5285C15.5769 18.5285 14.9298 19.306 14.9696 20.1516C15.0087 20.9845 15.7261 21.6252 16.5599 21.6252C16.9631 21.6252 17.2903 21.9521 17.2903 22.3557V30.185C17.2903 30.5607 17.0055 30.9155 16.5161 30.9155C15.6362 30.9155 14.9277 31.6494 14.9695 32.5386C15.0087 33.3716 15.7261 34.0123 16.5599 34.0123C16.9631 34.0123 17.2903 34.3392 17.2903 34.7428V37.8833C17.2903 38.7385 17.9835 39.4317 18.8387 39.4317H47.4839C48.3391 39.4317 49.0323 38.7385 49.0323 37.8833V14.6575Z" fill="#1D79E9" style="fill:#1D79E9;fill:color(display-p3 0.1137 0.4730 0.9122);fill-opacity:1;"/>
</g>
<defs>
<clipPath id="clip0_40_2607">
<rect width="64" height="56" fill="white" style="fill:white;fill-opacity:1;" transform="translate(0 0.689697)"/>
</clipPath>
</defs>
</svg>
